<?xml version="1.0"?> <svg xmlns="http://www.w3.org/2000/svg" style="background-color: #f7a349" width="100%" height="30.7vw" preserveAspectRatio="xMidYMin slice" viewBox="0 -35 1025 315"><style>@import url('https://fonts.googleapis.com/css?family=Rokkitt:400,700');.bottom-grass{animation:grass 6s linear infinite;transform-origin:100px 500px}.cloud-1{animation:cloud-1 3s linear infinite}.cloud-2,.cloud-3{animation:cloud-2 3s linear infinite}.first-part-bubbles path{animation:bubblesUp 8s linear infinite}.second-part-bubbles path{animation:bubblesUp 7s linear infinite}.man-anim-1{animation:manAnim1 3.05s linear infinite}.man-anim-2{animation:manAnim2 3.2s linear infinite}.man-anim-3{animation:manAnim3 3.1s linear infinite}.third-part-bubbles{animation:scaleIn 3s linear infinite}@keyframes scaleIn{0%{transform:translate(4px, -5px) scale(1.01) skew(1deg)}50%{transform:translate(4px, -5px) scale(1.03) skew(-1deg)}100%{transform:translate(4px, -5px) scale(1.01) skew(1deg)}}@keyframes manAnim1{0%{transform:translate(120px,0)}50%{transform:translate(120px,3px)}100%{transform:translate(120px, 0)}}@keyframes manAnim2{0%{transform:translate(207px,3px)}50%{transform:translate(207px,6px)}100%{transform:translate(207px, 3px)}}@keyframes manAnim3{0%{transform:translate(24px,10px)}50%{transform:translate(24px,6px)}100%{transform:translate(24px, 10px)}}@keyframes grass{0%{transform:rotate(-2deg)}50%{transform:rotate(2deg)}100%{transform:rotate(-2deg)}}@keyframes cloud-1{0%{transform:translate(712px,55px)}50%{transform:translate(712px,50px)}100%{transform:translate(712px, 55px)}}@keyframes cloud-2{50%{transform:translateY(5px)}}@keyframes moveUpDown{50%{transform:translateY(2px)}}@keyframes bubblesUp{0%{transform:translate(5%,1000px);opacity:0}50%{opacity:1}100%{transform:translate(0%, -50px);opacity:0}}</style><mask id="a" fill="#fff"> <path d="m60.39.46c-81.77 8.55-55.72 163.49-56.52 201.21 10.73 1.68 128.17-7.28 127.62-12.59-1.89-25.92 10.06-188.93-65.28-188.93-1.89 0-3.82.1-5.82.31" fill="#fff" fill-rule="evenodd"/> </mask> <mask id="b" fill="#fff"> <path d="m60.39.46c-81.77 8.55-55.72 163.49-56.52 201.21 10.73 1.68 128.17-7.28 127.62-12.59-1.89-25.92 10.06-188.93-65.28-188.93-1.89 0-3.82.1-5.82.31" fill="#fff" fill-rule="evenodd"/> </mask> <mask id="c" fill="#fff"> <path d="m60.39.46c-81.77 8.55-55.72 163.49-56.52 201.21 10.73 1.68 128.17-7.28 127.62-12.59-1.89-25.92 10.06-188.93-65.28-188.93-1.89 0-3.82.1-5.82.31" fill="#fff" fill-rule="evenodd"/> </mask> <mask id="d" fill="#fff"> <path d="m60.39.46c-81.77 8.55-55.72 163.49-56.52 201.21 10.73 1.68 128.17-7.28 127.62-12.59-1.89-25.92 10.06-188.93-65.28-188.93-1.89 0-3.82.1-5.82.31" fill="#fff" fill-rule="evenodd"/> </mask> <mask id="e" fill="#fff"> <path d="m60.39.46c-81.77 8.55-55.72 163.49-56.52 201.21 10.73 1.68 128.17-7.28 127.62-12.59-1.89-25.92 10.06-188.93-65.28-188.93-1.89 0-3.82.1-5.82.31" fill="#fff" fill-rule="evenodd"/> </mask> <mask id="f" fill="#fff"> <path d="m60.39.46c-81.77 8.55-55.72 163.49-56.52 201.21 10.73 1.68 128.17-7.28 127.62-12.59-1.89-25.92 10.06-188.93-65.28-188.93-1.89 0-3.82.1-5.82.31" fill="#fff" fill-rule="evenodd"/> </mask> <mask id="g" fill="#fff"> <path d="m60.39.46c-81.77 8.55-55.72 163.49-56.52 201.21 10.73 1.68 128.17-7.28 127.62-12.59-1.89-25.92 10.06-188.93-65.28-188.93-1.89 0-3.82.1-5.82.31" fill="#fff" fill-rule="evenodd"/> </mask> <mask id="h" fill="#fff"> <path d="m60.39.46c-81.77 8.55-55.72 163.49-56.52 201.21 10.73 1.68 128.17-7.28 127.62-12.59-1.89-25.92 10.06-188.93-65.28-188.93-1.89 0-3.82.1-5.82.31" fill="#fff" fill-rule="evenodd"/> </mask> <mask id="i" fill="#fff"> <path d="m60.39.46c-81.77 8.55-55.72 163.49-56.52 201.21 10.73 1.68 128.17-7.28 127.62-12.59-1.89-25.92 10.06-188.93-65.28-188.93-1.89 0-3.82.1-5.82.31" fill="#fff" fill-rule="evenodd"/> </mask> <mask id="j" fill="#fff"> <path d="m60.39.46c-81.77 8.55-55.72 163.49-56.52 201.21 10.73 1.68 128.17-7.28 127.62-12.59-1.89-25.92 10.06-188.93-65.28-188.93-1.89 0-3.82.1-5.82.31" fill="#fff" fill-rule="evenodd"/> </mask> <mask id="k" fill="#fff"> <path d="m60.39.46c-81.77 8.55-55.72 163.49-56.52 201.21 10.73 1.68 128.17-7.28 127.62-12.59-1.89-25.92 10.06-188.93-65.28-188.93-1.89 0-3.82.1-5.82.31" fill="#fff" fill-rule="evenodd"/> </mask> <mask id="l" fill="#fff"> <path d="m60.39.46c-81.77 8.55-55.72 163.49-56.52 201.21 10.73 1.68 128.17-7.28 127.62-12.59-1.89-25.92 10.06-188.93-65.28-188.93-1.89 0-3.82.1-5.82.31" fill="#fff" fill-rule="evenodd"/> </mask> <mask id="m" fill="#fff"> <path d="m60.39.46c-81.77 8.55-55.72 163.49-56.52 201.21 10.73 1.68 128.17-7.28 127.62-12.59-1.89-25.92 10.06-188.93-65.28-188.93-1.89 0-3.82.1-5.82.31" fill="#fff" fill-rule="evenodd"/> </mask> <mask id="n" fill="#fff"> <path d="m60.39.46c-81.77 8.55-55.72 163.49-56.52 201.21 10.73 1.68 128.17-7.28 127.62-12.59-1.89-25.92 10.06-188.93-65.28-188.93-1.89 0-3.82.1-5.82.31" fill="#fff" fill-rule="evenodd"/> </mask> <g fill="none" fill-rule="evenodd" transform="translate(-20)"> <path class="bottom-grass" d="m189.73 159.45c-.09-.13-.18-.27-.27-.41-1.58 1-3.16 1.99-4.74 2.99.11.17.21.34.32.51 1.56-1.03 3.13-2.06 4.69-3.09m-3.96-2.21c.07.16.15.32.23.47 2.13-.98 4.26-1.96 6.38-2.95-.08-.18-.17-.35-.25-.54-2.12 1.01-4.24 2.02-6.36 3.02m-36.53 46.73c-.15.13-.3.26-.44.39 1.55 2.27 3.42 4.19 6.16 5.89-2.12-2.33-3.92-4.3-5.72-6.28m34.09-64.32c-2.23 1.95-5.38 4.71-8.53 7.47.24.23.47.46.71.69 2.88-3.01 5.77-6.02 7.82-8.16m-4.34 76.98c5.23-3.94 10.23-8.2 16.97-9.78-3.28-.72-14.08 5.53-16.97 9.78m-12.46-19.39c.01-6.07.02-12.14.02-18.51-2.52 1.82-4.12-.25-5.8-1.27-3.59-2.17-7.11-4.5-10.47-7.01-3.94-2.94-6.16-6.98-6.51-11.93-.16-2.18.99-2.87 2.92-1.78 4.1 2.34 7.75 5.28 10.99 8.72 1.28 1.36 2.57 2.73 3.69 4.22.81 1.07 1.38 2.33 2.02 3.53.65 1.24 1.02 2.79 3.13 2.53.01-1.79.04-3.52 0-5.25-.07-3.01-.14-6.02-.35-9.02-.04-.59-.59-1.4-1.12-1.66-1.06-.51-2.37-.52-3.39-1.08-2.35-1.29-4.7-2.63-6.83-4.24-3.49-2.64-7.25-5.05-9.74-8.76-2.06-3.07-4.1-6.2-5.67-9.53-.76-1.62-.54-3.76-.49-5.66.02-.66.79-1.39 1.39-1.89.16-.13 1.06.36 1.4.75 3.72 4.26 7.67 8.36 11 12.91 3.27 4.48 6.29 9.08 10.87 12.37.46.33.52 1.18.92 1.67.34.41.89.64 1.35.96.24-.43.66-.83.7-1.27.39-4.32.76-8.64 1.03-12.97.04-.73-.42-1.51-.73-2.25-.52-1.26-1.46-2.46-1.58-3.75-.74-7.38-.27-14.68 2.34-21.7.4-1.09 1.15-2.11 1.95-2.97 1.99-2.16 4.44-1.6 5.72 1.09 1.15 2.42.67 4.89.23 7.27-.95 5.13-2.27 10.19-3.23 15.31-.57 3.05-1.94 5.62-3.47 8.28-.83 1.43-.39 3.61-.5 5.45-.02.41.07.82.15 1.71.5-.79.82-1.23 1.07-1.7 3.86-7.17 9.55-12.65 16.01-17.41.86-.63 2.09-.92 3.19-1.05 1.75-.22 2.41.62 1.7 2.27-.71 1.64-1.52 3.35-2.7 4.64-3.45 3.76-7.01 7.44-10.72 10.94-1.99 1.89-4.39 3.35-6.58 5.04-1.35 1.03-2.02 2.22-1.87 4.15.2 2.43-.31 4.91-.47 7.37-.07 1.04-.01 2.08-.01 3.13.19.07.37.14.57.21 1.02-.88 2.11-1.69 3.05-2.65 5.06-5.15 10.55-9.69 17.42-12.21 1.68-.62 3.48-.92 5.26-1.15.65-.08 1.69.29 1.99.79.29.49.03 1.5-.29 2.12-2.51 4.82-7.25 6.9-11.75 9.11-4.18 2.05-8.6 3.61-12.91 5.42-.93.39-1.84.87-2.7 1.42-.34.21-.68.72-.7 1.11-.23 4.92-.41 9.85-.63 15.35 1.13-.83 1.87-1.27 2.49-1.85 2.01-1.9 3.99-3.83 5.96-5.77 4.4-4.33 9.81-6.89 15.62-8.62 1.68-.49 3.59-.37 5.38-.27 1.94.1 2.65 1.67 1.3 3.1-1.51 1.6-3.23 3.14-5.14 4.17-3.48 1.87-7.15 3.38-10.77 4.97-3.68 1.62-7.42 3.12-11.09 4.76-1.17.52-2.22 1.34-3.64 2.21.46 4.88.93 10.02 1.45 15.53 1.07-.79 1.92-1.32 2.66-1.98 3.23-2.89 6.33-5.93 9.65-8.69 2.11-1.75 4.46-3.24 6.84-4.61 1.45-.83 3.57-.33 4.33.52-.43.73-.92 1.4-1.23 2.14-1.73 4.05-5.11 6.58-8.27 9.37-3.52 3.1-7.6 4.96-12 6.26-1.28.38-1.73 1.11-1.55 2.38.51 3.67 1 7.33 1.56 11.48 2.26-2.66 3.95-5.02 6-6.99 4.71-4.52 9.83-8.52 16.25-10.4 1.08-.31 2.25-.47 3.36-.41.59.03 1.49.57 1.65 1.07.16.51-.25 1.39-.67 1.89-4.68 5.55-10.44 9.7-16.83 13.1-2.05 1.08-3.83 2.67-5.73 4.03-.48.35-.98.97-1.47.96-2.12-.03-1.97 1.1-1.65 2.61.41 1.86.62 3.76.99 6.05 1.41-1.08 2.45-2.05 3.64-2.76 2.05-1.21 4.14-2.42 6.34-3.29.7-.28 1.82.5 2.74.8-.46.73-.74 1.74-1.4 2.16-3.37 2.15-6.84 4.14-10.45 6.29.28 1.46.68 3.08.88 4.74.07.61-.31 1.28-.48 1.92-.53-.47-1.38-.86-1.54-1.43-.8-2.89-1.49-5.81-2.07-8.75-.22-1.13-.71-1.49-1.79-1.49-5.34-.04-10.68-.14-16.02-.19-1.22-.01-4.54-1.96-4.82-3.04-.13-.49.09-1.18.36-1.66 1.38-2.5 4.51-3.62 8.11-2.86 1.82.38 3.59 1 5.4 1.4 1.08.24 2.25.12 3.3.44 1.51.46 2.96 1.18 4.75 1.92-.39-2.71-.74-5.38-1.2-8.04-.04-.27-.72-.58-1.13-.61-4.32-.35-7.51-3-10.88-5.29-1.94-1.32-4.06-2.43-5.8-3.97-1.95-1.72-3.59-3.81-5.3-5.79-.37-.42-.56-1.06-.67-1.63-.24-1.28-.38-2.82 1.07-3.26.86-.25 2.25.24 3 .87 2.7 2.3 5.28 4.76 7.83 7.24 2.33 2.26 4.53 4.66 6.84 6.96 1.15 1.13 2.48 1.99 4.43 2.14-.14-1.45-.3-2.69-.37-3.93-.26-4.15-.45-8.3-.78-12.45-.05-.61-.65-1.53-1.17-1.68-6.06-1.78-11.59-4.69-16.98-7.85-4.6-2.69-8.46-6.06-8.33-12.09.02-.72.01-1.45.17-2.15.4-1.77 2.21-2.56 3.8-1.66.67.39 1.27.92 1.81 1.48 4.99 5.13 9.93 10.32 14.95 15.43 1.52 1.55 3.27 2.89 4.91 4.33.18-.14.36-.29.53-.43" fill="#007949"/> <g transform="translate(913 33)"> <path d="m61.12.94c-82.16 8.54-55.99 163.29-56.79 200.96 10.77 1.69 128.78-7.26 128.23-12.57-1.96-26.54 10.72-196.93-71.44-188.39" fill="#72c6a9"/> <g fill="#b3ddd4"> <path d="m46.52 71.11c-.17.21-.34.43-.52.64.74.78 1.48 1.55 2.03 2.13-.98 1.06-1.86 2-3.11 3.35-1.02-.59-2.37-1.36-4.32-2.48.19 3.87 2.58 6.21 4.09 8.8-1.34-.43-2.83-1.35-4.09-1.36-.19 0-.37.02-.55.07-1.1.28-1.75 2.36-2.82 3.96-2.98-1.76-6.52-3.85-10.54-6.22.49 1.29.82 2.16 1.16 3.05-.97-.72-1.89-1.41-2.82-2.1-.2.25-.39.5-.59.75 2.16 1.93 4.24 3.99 6.52 5.77 7.8 6.12 15.77 12.03 23.49 18.25 5.82 4.68 11.29 9.81 17.04 14.58 17.69 14.69 35.46 29.27 53.14 43.96.9.74 1.66 1.11 2.38 1.11.87 0 1.66-7.08 2.55-8.13l1.62-1.92c-.06-7-.19-14.68-.49-22.79-.31-.25-.62-.5-.93-.74-11.4-9.13-22.88-11.6-34.11-20.94-11.99-9.96-23.64-20.33-35.63-30.3-4.21-3.5-8.98-6.31-13.5-9.44" mask="url(#a)" transform="translate(1 1)"/> <path d="m87.43 5.63c4.7 4.07 9.39 8.13 14.09 12.21-4.1-5.06-8.78-9.21-14.09-12.21" mask="url(#b)" transform="translate(1 1)"/> <path d="m2.57 172.84c.57 9.08 1.09 16.98 1.26 23.12 1.34 1.06 2.68 2.13 4.01 3.21.41.33.87.82.97 1.31.15.8.38 1.29.66 1.55.37.01.76.03 1.15.04.33-.18.68-.49 1.04-.88 4.36-4.69 8.72-9.37 12.95-14.18.45-.51.43-2.25-.04-2.67-4.21-3.75-8.57-7.34-12.89-10.98-.21.24-.41.47-.61.7.6.67 1.21 1.34 1.81 2-.14.23-.27.45-.41.68-1.19-.73-2.38-2.06-3.57-2.06-2.41-.01-4.41-.71-6.33-1.84" mask="url(#c)" transform="translate(1 1)"/> <path d="m29.41 14.21c-5.38 5.03-9.82 11.22-13.45 18.26 18.79 15.33 37.58 30.67 56.37 46.01 2.43 1.99 3.63 2.97 4.83 2.97 1.17 0 2.35-.91 4.67-2.72.23-.18.52-.29.74-.48 3.95-3.36 7.89-6.73 12.09-10.32-2.03-1.77-3.83-3.42-5.72-4.97-19.8-16.3-38.88-33.5-59.53-48.75" mask="url(#d)" transform="translate(1 1)"/> <path d="m12.04 41.15c-2.93 7.41-5.17 15.52-6.85 24.02 1.09.85 2.2 1.71 3.33 2.59 4.51-5.77 8.86-11.23 12.99-16.84.41-.56-.16-2.52-.87-3.12-2.77-2.33-5.74-4.42-8.6-6.65" mask="url(#e)" transform="translate(1 1)"/> <path d="m5.53 82.33c-.53 0-1.1.08-1.74.27-.49.15-.93.32-1.33.52-.32 2.87-.6 5.76-.83 8.66.02.03.04.05.06.08-.02 0-.05-.01-.07-.01-.33 4.23-.58 8.48-.75 12.74 13.36 11.19 26.68 22.43 39.99 33.69 6.55 5.55 12.99 11.22 19.47 16.83 5.97-5.42 11.08-10.05 16.19-14.69.04-.48.07-.95.1-1.43-2.36-1.61-4.86-3.05-7.06-4.87-19.74-16.4-39.43-32.87-59.16-49.29-1.48-1.23-2.83-2.5-4.87-2.5" mask="url(#f)" transform="translate(1 1)"/> <path d="m82.51 16.4c-.1.1-.19.19-.29.28 1.16 1.66 2.31 3.32 3.47 4.97-.15.14-.3.28-.45.42-.68-.33-1.36-.67-2.61-1.29.72 1.6 1.17 2.58 1.79 3.96-1.31-.87-2.21-1.48-3.12-2.09-.13.12-.25.25-.38.37 1.4 1.99 2.8 3.97 4.2 5.96-.16.12-.32.23-.48.35-.7-.49-1.4-.98-2.09-1.47 2.27 3.75 2.04 8.46 5.37 11.54-.14.21-.28.41-.42.62-1.3-.07-2.61-.13-3.91-.2-.21.69-.44 1.47-.76 2.53-2.09-2.2-3.93-4.15-5.78-6.1-.14.14-.29.28-.43.42 1.6 2.66 2.75 5.78 4.89 7.88 7.1 6.95 14.38 13.74 21.93 20.19 7.12 6.1 14.63 11.76 22.01 17.55-2.51-15.14-6.11-29.74-11.28-42.32-3.27-2.82-6.55-5.64-9.84-8.45-5.41-4.63-10.21-10.12-17.35-12.57.7.84 1.41 1.67 2.11 2.5-.14.18-.28.36-.43.54-2.05-1.87-4.1-3.73-6.15-5.59" mask="url(#g)" transform="translate(1 1)"/> <path d="m91.37 150.13c-.28 1.85-.43 2.84-.58 3.79-.44-.03-.87-.06-1.66-.11.66.95 1.07 1.54 1.95 2.82-.74-.29-1.33-.42-1.82-.42-2.9 0-2.08 4.33-4.81 4.48 1.87 1.92 3.49 3.59 5.11 5.26-.18.17-.37.35-.56.52-1.33-.69-2.66-1.37-3.99-2.06-.16.26-.32.52-.48.78 1.27 1.3 2.55 2.6 3.52 3.59-.65 1.54-1.36 2.02-2.11 2.02-1.22 0-2.56-1.28-3.91-1.29.87 1.06 1.73 2.13 2.59 3.19-.11.14-.23.28-.34.41-1.26-.62-2.52-1.23-3.78-1.85-.11.09-.2.19-.3.29 5.67 5.15 11.24 10.41 17.03 15.43 4.72 4.1 9.47 8.17 14.23 12.23 12.02-.97 20.04-8.71 20.03-10.09 0-.01 0-.03 0-.04-.12-1.66-.18-3.91-.22-6.67-1.4-.6-1.72-2.02-1.03-4.34.34.33.67.66 1 .99 0-.45 0-.91 0-1.38-13.23-11.32-26.47-16.08-39.87-27.55m33.09 31.53.27-.18c-.36-.63-.72-1.26-1.08-1.89.17-.18.35-.35.52-.53 2.02 1.85 4.05-2.85 6.07-.99-1.18.15-2.36 6.88-3.54 7.01-.14.01-.32.03-.49.03-.23 0-.45-.03-.54-.15-1.4-1.7-2.74-3.47-3.64-5.67.81.79 1.62 1.58 2.43 2.37" mask="url(#h)" transform="translate(1 1)"/> <path d="m106.48 80.35c-4.58 5.32-9.55 11.1-14.97 17.39 1.85.51 2.95.77 4.03 1.11.83.27 1.6.74 2.43.93.19.05.39.06.59.06.17 0 .35-.01.52-.02.18-.01.35-.02.51-.02.36 0 .67.05.89.22 4.25 3.38 8.41 6.87 12.55 10.39.77.65 1.17 1.96 2 2.27 2.38.92 7.47 5.18 9.6 6.77 2.04 1.54 3.53-2.76 5.39-.97-.53-9.03-1.31-11.83-2.43-21.14-7.15-5.75-14.21-11.44-21.11-16.99" mask="url(#i)" transform="translate(1 1)"/> <path d="m.55 123.59c.04 10.18.4 20.11.86 29.4 5.37 4.47 10.78 8.9 16.15 13.36 5.37-5.38 10.22-10.23 15.13-15.15-.77-.74-1.3-1.32-1.9-1.83-10.08-8.59-20.16-17.18-30.24-25.78" mask="url(#j)" transform="translate(1 1)"/> <path d="m46.74 169.78c-.06.11-.13.21-.2.31 4.64 5.09 9.28 10.18 14.33 15.73-2.8.03-4.7.06-6.76.08.06.61.13 1.29.24 2.36-6.25-.74-9.53-6.19-14.78-8.07 1.87 1.82 3.74 3.65 5.61 5.47-.08.09-.15.18-.23.26-1.36-.94-2.71-1.89-4.07-2.83.09.78.43 1.21.84 1.56 5.7 4.87 11.43 9.69 17.09 14.61.89.77 1.77 1.55 2.64 2.34 5.67-.16 11.4-.35 17.01-.57.79-.65 1.59-1.3 2.36-1.97 1.77-1.52 3.5-3.09 6.14-5.42-8.2-6.54-15.95-12.73-23.08-18.42-1.53 1.4-2.42 2.22-3.47 3.19 1.23-.13 2.3-.24 3.33-.35-.99 1.21-1.95 1.67-2.87 1.66-1.35 0-2.63-.98-3.88-2-2.12-1.73-4.12-3.6-6.18-5.41-.46-.38-.92-.76-1.39-1.14-.89-.46-1.78-.92-2.68-1.39" mask="url(#k)" transform="translate(1 1)"/> <path d="m62.29.29c-.62.04-1.26.1-1.9.17-8.95.93-16.61 3.62-23.15 7.72 4.21 3.7 8.43 7.41 12.66 11.12 5.7-4.89 11.19-9.6 17.42-14.94-1.7-1.37-3.37-2.73-5.03-4.07" mask="url(#l)" transform="translate(1 1)"/> <path d="m40.85 198.36c-.62 0-1.32.17-1.71.45-1.51 1.09-2.99 2.2-4.47 3.32 3.7-.04 7.6-.1 11.62-.18-1.49-1.12-2.98-2.24-4.47-3.35-.22-.17-.58-.24-.97-.24" mask="url(#m)" transform="translate(1 1)"/> <path d="m49.48 169c-.02.88-.04 1.52-.06 2.17.47.38.93.76 1.39 1.14 1.47.62 2.94 1.24 4.4 1.85.05-.09.09-.18.13-.27-1.9-1.58-3.79-3.16-5.86-4.89" mask="url(#n)" transform="translate(1 1)"/> </g> </g> <path d="m903.9 141.18c-64.32 6.68-55.37 78.99-53.29 112.72.07.67 62.68-2.21 68.42-2.41 6.44-.23 27.28 2.55 31.95-1.98 5.4-5.24 3.11-113.54-47.08-108.33" fill="#d9e145"/> <path d="m.77 322.21s-6.59-182.07 91.49-181.43c82.17.53 72.91 118.04 72.91 118.04z" fill="#44499c"/> <g transform="translate(179 158)"> <path d="m.85 102.54s1.77-101.14 51.61-101.97c47.45-.78 46.24 101.92 48.13 101.92z" fill="#20c0db"/> <g fill="#f0ece5"> <path d="m85.39 91.54c0 2.96-2.41 5.36-5.37 5.36-2.96-.01-5.36-2.41-5.35-5.37 0-2.96 2.4-5.36 5.36-5.36 2.97.01 5.36 2.41 5.36 5.37"/> <path d="m85.41 73.67c0 2.96-2.41 5.36-5.37 5.35-2.96 0-5.36-2.4-5.35-5.36 0-2.96 2.4-5.36 5.36-5.36 2.97 0 5.36 2.41 5.36 5.37"/> <path d="m66.62 91.52c0 2.96-2.4 5.36-5.37 5.35-2.96 0-5.36-2.4-5.35-5.36 0-2.96 2.4-5.36 5.37-5.36 2.96.01 5.35 2.41 5.35 5.37"/> <path d="m66.64 73.65c0 2.96-2.41 5.36-5.37 5.35-2.96 0-5.36-2.4-5.35-5.36 0-2.96 2.4-5.36 5.37-5.36 2.96 0 5.35 2.41 5.35 5.37"/> <path d="m47.85 91.5c0 2.96-2.4 5.36-5.36 5.35-2.97 0-5.36-2.4-5.36-5.36s2.4-5.36 5.37-5.36c2.96.01 5.36 2.41 5.35 5.37"/> <path d="m47.87 73.63c0 2.96-2.4 5.36-5.37 5.35-2.96 0-5.36-2.4-5.35-5.36 0-2.96 2.41-5.36 5.37-5.36s5.36 2.41 5.35 5.37"/> <path d="m29.08 91.48c0 2.96-2.4 5.36-5.36 5.35-2.96 0-5.36-2.4-5.36-5.36s2.41-5.36 5.37-5.36 5.36 2.41 5.35 5.37"/> <path d="m29.1 73.61c0 2.96-2.4 5.36-5.36 5.35-2.97 0-5.36-2.4-5.36-5.36s2.41-5.36 5.37-5.36 5.36 2.41 5.35 5.37"/> <path d="m85.43 55.8c0 2.96-2.41 5.36-5.37 5.35-2.96 0-5.36-2.4-5.36-5.37.01-2.96 2.41-5.35 5.37-5.35s5.36 2.41 5.36 5.37"/> <path d="m66.66 55.78c0 2.96-2.41 5.36-5.37 5.35-2.96 0-5.36-2.4-5.35-5.37 0-2.96 2.4-5.35 5.36-5.35 2.97 0 5.36 2.41 5.36 5.37"/> <path d="m47.89 55.76c0 2.96-2.4 5.36-5.37 5.35-2.96 0-5.36-2.41-5.35-5.37 0-2.96 2.4-5.35 5.37-5.35 2.96 0 5.35 2.41 5.35 5.37"/> <path d="m29.12 55.74c0 2.96-2.4 5.35-5.37 5.35-2.96 0-5.35-2.41-5.35-5.37s2.41-5.36 5.37-5.35c2.96 0 5.36 2.4 5.35 5.37"/> <path d="m85.45 36.58c0 2.97-2.41 5.36-5.37 5.36s-5.36-2.41-5.35-5.37c0-2.96 2.4-5.36 5.36-5.35 2.97 0 5.36 2.4 5.36 5.36"/> <path d="m66.68 36.56c0 2.97-2.41 5.36-5.37 5.36s-5.36-2.41-5.35-5.37c0-2.96 2.4-5.36 5.37-5.35 2.96 0 5.35 2.4 5.35 5.36"/> <path d="m47.91 36.54c0 2.97-2.4 5.36-5.37 5.36-2.96 0-5.36-2.41-5.35-5.37 0-2.96 2.41-5.36 5.37-5.35 2.96 0 5.36 2.4 5.35 5.36"/> <path d="m29.14 36.52c0 2.96-2.4 5.36-5.36 5.36-2.97-.01-5.36-2.41-5.36-5.37s2.41-5.36 5.37-5.35c2.96 0 5.36 2.4 5.35 5.36"/> <path d="m66.7 17.35c0 2.96-2.4 5.36-5.37 5.36-2.96-.01-5.36-2.41-5.35-5.37 0-2.96 2.4-5.36 5.37-5.36 2.96.01 5.35 2.41 5.35 5.37"/> <path d="m47.93 17.33c0 2.96-2.4 5.36-5.36 5.36-2.97-.01-5.36-2.41-5.36-5.37s2.41-5.36 5.37-5.36c2.96.01 5.36 2.41 5.35 5.37"/> </g> </g> <g transform="translate(874 125)"> <g style="animation: moveUpDown 1.3s cubic-bezier(0.39, 0.58, 0.57, 1) -1.4s infinite both"> <path d="m14.32 14.94s0-.04 0-.14c-.01-.1-.01-.24-.01-.43 0-.97.1-3.04.74-5.25s1.83-4.54 3.97-6.11l-.66-.9c-2.41 1.77-3.7 4.34-4.38 6.7-.69 2.36-.78 4.52-.79 5.56 0 .4.02.63.02.64z" fill="#1f1646"/> <path d="m16.88 2.3c0 1.14.93 2.07 2.07 2.07 1.14.01 2.07-.92 2.07-2.06 0-1.15-.92-2.07-2.06-2.07-1.15-.01-2.08.92-2.08 2.06" fill="#b91f56"/> <path d="m18.72 3.06c.48 0 .88-.4.88-.88 0-.49-.4-.88-.88-.88-.49 0-.88.39-.88.88 0 .48.39.88.88.88" fill="#1f1646"/> </g> <g style="animation: moveUpDown 1.3s linear -1.4s infinite both"> <path d="m8.89 15.29c0-.02.04-.37.04-.97 0-1.09-.12-2.99-.82-5.14-.7-2.14-1.99-4.53-4.31-6.54l-.73.85c2.14 1.85 3.32 4.05 3.98 6.04.65 2 .76 3.79.76 4.79 0 .28-.01.49-.02.64l-.01.16v.05z" fill="#1f1646"/> <path d="m.84 2.28c0 1.15.93 2.08 2.07 2.08 1.15 0 2.07-.93 2.07-2.07.01-1.14-.92-2.07-2.06-2.07-1.15 0-2.07.92-2.08 2.06" fill="#b91f56"/> <path d="m2.55 3.04c.49 0 .88-.4.88-.88 0-.49-.39-.88-.88-.88-.48 0-.88.39-.88.88 0 .48.4.88.88.88" fill="#1f1646"/> </g> <path d="m69.43 61.2c9.65.01 9.39 10.6-.02 10.59s-36.47-.04-51.76-.06-16.45-7.22-16.44-18.39c.01-6.47.02-20.73.03-29.55.02-15.3 19.43-15.86 19.41.6-.02 16.47-.01 9.7-.02 17.94-.01 8.23 7.63 19.42 14.68 19.42 7.06.01 34.12-.55 34.12-.55" fill="#b91f56"/> <path d="m12.26 16.89-.01.01c-.04.04-.32.33-.73.58-.41.27-.93.49-1.46.49-.56-.01-1.17-.22-1.87-1.06-.2-.24-.55-.28-.79-.08-.24.19-.27.55-.08.78.85 1.05 1.85 1.48 2.74 1.48.9-.01 1.64-.38 2.16-.73.53-.35.84-.7.86-.72.21-.23.19-.58-.03-.79-.23-.21-.58-.19-.79.04" fill="#1f1646"/> <path d="m50.12 61.77-22.25-.03c-4.05 0-7.34-3.3-7.34-7.35l.02-14.82c1.96-5.07 5.18-10.48 10.38-15.63 17.54-17.38 49.22-4.64 49.2 15.33s-16.81 29.18-30.01 22.5" fill="#1f1646"/> <path d="m14.56 62.22s.03-20.67.03-28.87c.01-8.19-9.11-8.02-9.12-.01s-.03 24.77-.03 29.8c-.01 5.03 3.27 8.58 10.84 8.59 2.81 0 7.11.01 7.11.01s-8.84-.02-8.83-9.52" fill="#efeae3"/> <path d="m54.75 62.97-.03-.01c-.39-.12-4.22-1.36-7.85-4.05-1.82-1.34-3.59-3.05-4.89-5.13-1.3-2.09-2.14-4.54-2.14-7.5 0-.76.06-1.57.18-2.41.62-4.06 2.49-6.86 4.95-8.72 2.47-1.85 5.57-2.72 8.55-2.72 2.21 0 4.35.49 6.09 1.37 1.74.89 3.07 2.15 3.78 3.7.73 1.59 1.04 3.08 1.04 4.46-.01 2.51-1.05 4.66-2.71 6.22-1.66 1.55-3.94 2.48-6.35 2.48-.11 0-.23 0-.34-.01h.01c-1.63-.06-2.8-.72-3.63-1.66-.82-.93-1.26-2.19-1.26-3.35.01-1 .33-1.91.93-2.55.61-.64 1.51-1.1 2.98-1.1.4 0 .83.03 1.3.11.61.1 1.19-.3 1.29-.91.11-.61-.3-1.19-.91-1.29-.59-.1-1.14-.15-1.67-.15-1.96-.01-3.57.68-4.62 1.81-1.05 1.12-1.53 2.61-1.53 4.08 0 1.71.61 3.45 1.81 4.82 1.19 1.38 3 2.35 5.22 2.43h.01.41c2.99.01 5.8-1.14 7.87-3.08 2.08-1.93 3.42-4.7 3.42-7.85.01-1.72-.39-3.54-1.24-5.39-.96-2.1-2.7-3.7-4.8-4.76s-4.56-1.61-7.09-1.61c-3.42-.01-6.98.98-9.9 3.17-2.91 2.17-5.14 5.58-5.82 10.17-.14.95-.21 1.86-.21 2.74 0 3.51 1.06 6.48 2.63 8.91 2.36 3.66 5.83 6.1 8.69 7.67 2.87 1.56 5.15 2.23 5.2 2.25.59.18 1.21-.16 1.39-.75.17-.6-.17-1.22-.76-1.39" fill="#b91f56"/> <g fill="#eecc3c"> <path d="m18.05 25.83c0 .69.23 1.25.5 1.25.28 0 .5-.56.5-1.25s-.22-1.25-.49-1.25c-.28 0-.51.56-.51 1.25"/> <path d="m16.94 28.79c-.01.55.17.99.39.99s.4-.44.4-.99-.18-.99-.4-.99-.39.44-.39.99"/> <path d="m18.17 31.81c0 .91.29 1.65.66 1.65.36 0 .66-.74.66-1.65s-.29-1.66-.66-1.66c-.36 0-.66.74-.66 1.66"/> <path d="m2.19 48.09c0 .55.17.99.39.99s.4-.44.4-.99-.17-1-.39-1-.4.45-.4 1"/> <path d="m3.02 50.29c0 .28.09.5.2.5s.2-.22.2-.5c0-.27-.09-.49-.2-.49s-.2.22-.2.49"/> </g> </g> <g fill="#efeae3" transform="translate(712 50)" class="cloud-1"> <path d="m2.56 53.81c.01-.05.18-.06.36-.1l-.01 2.93c-.12 0-.25 0-.37.01-.27-.94-.21-1.89.02-2.84zm.24 4.94c-.01-.04.14-.12.32-.25.06.24.1.43.15.62-.1.02-.26.09-.29.06-.09-.12-.15-.28-.18-.43zm1.69-7.1c.05-1.67.22-3.36 1.1-4.85.15-.25.3-.54.68-.48.06.11.17.22.16.3-.18 1.05-.3 2.13-.58 3.15-.54 1.92.21 3.8.05 5.7 0 .12.06.23.11.34.56 1.51.94 3.1 1.94 4.42.14.19.26.41.32.63.46 1.58 1.44 2.89 2.27 4.27.63 1.05 1.1 2.26 2.18 3.03.38.27.54.77.37 1.43-.95-.29-1.42-.92-1.89-1.53-1.06-1.37-2.1-2.75-3.11-4.17-.79-1.11-1.52-2.27-2.26-3.43-.13-.19-.2-.44-.26-.67-.69-2.67-1.18-5.38-1.08-8.14zm6.05-12.59.13.03-.01.13-.2-.06zm15.19 37.98c.01-.31.23-.61.44-1.12.23.37.42.54.44.74.07.59.1 1.18.1 1.78.02 2.46.38 4.85 1.2 7.18.26.76.45 1.55.66 2.33-.2-.09-.44-.15-.55-.31-.9-1.27-1.58-2.66-1.89-4.2-.2-.99-.31-2-.37-3.01-.07-1.12-.07-2.26-.03-3.39zm2.95 11.1c.77 1.07 1.54 2.14 2.29 3.22.05.08-.04.26-.11.6-.7-.99-1.32-1.79-1.84-2.64-.2-.34-.25-.77-.34-1.18zm88.56-49.07-.26.18c-.74-.99-1.48-1.99-2.24-2.96-1.19-1.52-2.52-2.9-4.21-3.85-1.4-.8-2.87-1.49-4.29-2.25-.18-.1-.31-.3-.55-.56.39-.17.64-.36.91-.39 1.08-.13 2.1-.07 3.13.47 1.11.58 2.32.96 3.2 1.92.53.57 1.02 1.17 1.56 1.73 1.2 1.23 2.07 2.62 2.32 4.36.06.46.28.9.43 1.35zm-13.11-15.11c-.83-.78-1.39-1.27-1.86-1.86-.75-.95-1.71-1.64-2.83-2.11-.92-.39-1.82-.81-2.98-1.32 1.18-.75 2.12-.05 3.06.03 1.39.13 2.29 1.15 3.2 2.1.74.78 1.14 1.72 1.41 3.16zm-15.89-12.81c-.59.11-.72-.26-.92-.55-.3-.44-.53-1.02-.95-1.28-1.72-1.07-3.37-2.3-5.49-2.53-.35-.04-.74-.1-1.03-.28-1.53-.98-3.33-.91-4.99-1.38-1.06-.29-2.17.05-3.2-.17-.91-.19-1.8-.19-2.67-.11-1.58.16-3.25.19-4.51 1.44-.16.17-.41.34-.62.34-.69-.02-1.08.44-1.5.87-.45.47-.92.94-1.32 1.46-.47.62-1.07.87-1.85.9.21-.47.38-.92.59-1.33.59-1.12 1.29-2.13 2.29-2.96 1.4-1.17 3.06-1.6 4.75-1.99 2.3-.53 4.64-.43 6.98-.37 1.58.04 3.05.38 4.55.85 1.62.51 3.09 1.28 4.64 1.91 1.8.74 3.26 1.98 4.51 3.48.41.5.76 1.02.74 1.7zm-29.55.33-.14.06-.14-.24c.09-.04.18-.08.27-.11.01.1.02.19.01.29zm-12.51-3.02c-.07.09-.13.25-.21.26-1.55.22-3.06.75-4.77.45.17-.15.31-.36.5-.43 1.4-.48 2.82-.84 4.32-.57.07.01.1.19.16.29zm-26.1 6.72-.16.25c-.09-.03-.19-.07-.28-.1l.15-.23c.09-.02.2.05.29.08zm-1.22.4c-1.09.67-2.05 1.24-3 1.83-.35.21-.72.42-1.04.68-.83.67-1.62 1.38-2.45 2.04-.27.21-.65.35-.89-.27 1.06-1.14 2.14-2.31 3.24-3.46.16-.16.39-.28.61-.35 1.02-.3 2.05-.59 3.08-.86.06-.02.16.13.45.39zm-17.86 44.39c.81 2.32 1.86 4.52 3.29 6.54.45.63.82 1.32 1.25 1.96.24.35.49.68.79.97.84.84 1.66 1.73 2.93 1.97.27.05.5.32.74.49 1.29.89 2.64 1.64 4.23 1.88.58.09 1.13.38 1.68.63.95.43 1.95.64 2.98.49 1.01-.15 1.89.18 2.77.58.44.21.6.56.51 1.03-.19 1.06-.36 2.12-.6 3.17-.44 1.99.08 3.92.35 5.86.03.23.11.48.23.68 1.15 1.95 2.25 3.94 3.89 5.53.82.79 1.74 1.47 2.52 2.29 1.55 1.66 3.33 2.88 5.6 3.33.4.09.83.22 1.16.46 1.04.75 2.22.86 3.44.77.97-.07 1.88.1 2.83.3 1.63.35 3.31.49 4.97.7.24.03.48-.03.72-.07.95-.13 1.9-.25 2.84-.41 1.29-.23 2.64-.1 3.86-.73.41-.21.83.03 1.05.46.88 1.66 2.18 2.99 3.43 4.36.28.31.56.65.91.87 2.03 1.25 4.03 2.6 6.43 3.06 1.29.25 2.43.93 3.77 1.06 1.42.13 2.76.04 4.04-.52.62-.28 1.23-.46 1.9-.49 1.83-.07 3.45-.9 5.15-1.45.33-.1.63-.35.9-.58.59-.5 1.19-1.02 1.46-1.79.2-.6.8-.88 1.14-1.34.36-.5.39-1.24.71-1.78.52-.86 1.16-1.65 1.81-2.56.68.15 1.41.2 2.06.46 2.24.9 4.52.99 6.88.7 1.06-.12 2.15.07 3.13-.52.09-.06.24-.06.36-.03 1.45.25 2.53-.52 3.56-1.36.85-.68 1.52-1.5 1.85-2.59.28-.95.74-1.85 1.12-2.76.68-1.65 1-3.3.88-5.06-.02-.3-.08-.63.01-.89.43-1.3.26-2.6.22-3.92-.06-2-.27-3.94-1.27-5.72-.16-.28-.16-.64-.23-.98 1.55-.47 2.98-.89 4.4-1.36.79-.27 1.59-.57 2.31-.99 1.47-.86 2.79-1.93 3.11-3.73.22-1.23.26-2.5.36-3.74.12-1.45-.15-2.87-.32-4.29-.13-1.11-.46-2.1-1.08-3.01-.16-.24-.31-.48-.54-.82.35-.1.56-.17.78-.23 1.72-.44 3.05-1.38 3.79-3.01.34-.76.66-1.59.72-2.4.06-.95.41-1.75.82-2.53 1.01-1.92 1.53-3.89 1-6.05-.07-.29-.08-.6-.08-.9.04-1.4-.32-2.73-.66-4.06-.22-.87-.4-1.75-.65-2.61-.34-1.17-.86-2.26-1.76-3.08-1.37-1.25-2.75-2.5-4.33-3.49-1.59-.99-3.18-1.93-5.18-1.69-.32.03-.67-.16-1.03-.25 0-.43-.07-.8.01-1.14.26-1.04.02-2.02-.28-3-.14-.46-.31-.91-.47-1.36-.54-1.61-1.6-2.82-3.01-3.67-2.31-1.38-4.8-1.79-7.43-1.15-.7.17-1.37.44-2.06.62-.33.09-.68.07-.99.09-.13-.25-.27-.4-.29-.56-.2-1.94-1.01-3.7-1.59-5.52-.77-2.45-2.1-4.57-4.29-6.02-1-.66-2.05-1.25-3.09-1.83-.42-.23-.88-.37-1.32-.55-.88-.38-1.76-.75-2.63-1.14-.09-.04-.12-.18-.21-.33-.12-.07-.25-.13-.38-.2l-.2-.1c-.11-.03-.21-.07-.31-.1-.15-.06-.26-.11-.36-.15-.39-.17-.39-.17 0 0-.17-.14-.53-.19-.74-.25-.22-.06-.45-.12-.68-.17-.09.01-.19-.01-.27-.06l-.14-.03c-.72-.15-1.51-.16-2.27-.15-.32.19-.69.31-1.09.35.17.01.26.18.13.48-.42.03-.87.06-1.31.09.34-.19.67-.43 1.04-.55l.04-.02-.13.01c-.26 0-.51-.05-.76-.13-.07.23-.14.47-.21.69l-.01.01c-.23-.03-.47-.1-.69-.08-2.15.2-4.28.58-6.34 1.23-1.86.59-3.57 1.4-4.68 3.12-.13.2-.32.36-.5.52-.89.84-1.47 1.86-1.91 2.99-.18.44-.4.88-.7 1.24-.14.17-.53.21-.79.18-.22-.02-.42-.21-.62-.33-1.41-.81-2.82-1.59-4.2-2.42-1.76-1.05-3.64-1.61-5.67-1.32-1.42.2-2.82.54-4.21.91-1.3.34-2.33 1.14-3.3 2.06-1.09 1.03-1.69 2.36-2.15 3.66-.47 1.31-1.19 2.28-2.29 3.16-.28-.19-.6-.36-.84-.6-.71-.69-1.52-1.16-2.48-1.39-.81-.2-1.62-.44-2.45-.54-1.42-.18-2.9-.1-4.28-.44-2.07-.5-4.03-.37-6 .29-.4.13-.82.2-1.21.34-1.32.45-2.62.98-3.6 1.97-1.05 1.06-1.93 2.28-2.86 3.44-.26.33-.43.73-.7 1.04-1.81 2.04-2.63 4.54-3.29 7.1-.26 1.05-.37 2.15-.02 3.2.43 1.3.83 2.62 1.59 3.8.31.48.44 1.1.59 1.67.12.46.05.98.23 1.41.44 1.11.29 2.22.27 3.27-.79.71-1.6 1.26-2.2 1.99-1.48 1.79-3 3.57-3.95 5.74-.5 1.14-1.03 2.29-1.4 3.48-.27.84-.37 1.76-.43 2.65-.13 1.91-.19 3.83.47 5.69z"/> <g fill="#44499c" style="font-family: 'Rokkitt', serif; font-weight: bold"> <text transform="translate(35 40)">CRAZY</text> <text transform="translate(45 60)">FOR</text> <text transform="translate(35 80)">GOOD.</text> </g> <path class="cloud-2" d="m121.15 83.52c-.28.01-.63-.07-.86.06-.63.36-1.25.35-1.92.18-.2-.05-.43-.01-.62-.01-.26-.34-.49-.66-.75-.96-.38-.45-.74-.89-.41-1.53l-.08-.35c-.75-.45-.7-1.17-.6-1.94.01-.1.32-.18.52-.28.06-.22.03-.25-.83-.79-.82 1.05-.16 2.21-.25 3.29.45 1.04.83 2.08 1.77 2.87.93.77 2 1.03 3.13 1.39.08.11.23.22.3.38.5 1.06 1.4 1.79 2.14 2.65.64.74 1.5 1.24 2.36 1.66.63.32 1.38.39 2.07.13.68-.27 1.35-.37 2.07-.04.27-.55.59-.88 1.23-.89.45-.01.6-.35.45-.88-.08-.28-.06-.5.06-.75.29-.64.6-1.26.41-2.02-.09-.37.15-.67.51-.84.32-.15.64-.29.96-.44.65-.31 1.05-.75 1.01-1.54-.05-1.09.16-2.19 0-3.28-.08-.58-.67-1.68-1.15-1.99-.59-.37-1.2-.74-1.83-1.06-.26-.13-.59-.12-.9-.17-.34-.05-.7-.07-1.04-.14-.52-.11-1.02-.13-1.56.01-.93.24-1.3.03-1.81-.87-.12-.2-.23-.31-.45-.42-.51-.24-.98-.55-1.48-.83-.34-.19-.7-.36-1.05-.54-1.17-.62-2.37-.49-3.7-.13.17.22.27.4.41.52.13.11.32.23.48.22 1.07-.03 2.01.55 3.07.61.68.03 1.21.47 1.67.95.32.35.55.78.84 1.19-.06.17-.13.37-.22.64.21.19.43.38.64.57.42-.14.8-.26 1.19-.39.13-.28.26-.55.4-.84.52-.14 1.03-.3 1.54.01.42.25.82.48 1.36.32.17-.05.47.19.66.36.38.35.66.78 1.17 1.03.54.27.66.94.66 1.51 0 .74-.11 1.49-.21 2.24-.03.2-.16.41-.28.59-.32.54-.66.64-1.22.33-.22-.13-.44-.29-.62-.48-.3-.34-.73-.31-1.1-.34-.34-.04-.52.27-.6.72.08.11.18.31.33.45.91.85.79 1.97.74 3.05-.02.42-.21.85-.34 1.32-.24.14-.57.23-.76.44-.33.36-.68.53-1.16.52-.17 0-.36.04-.5.14-.49.36-1.02.29-1.52.09-.98-.4-1.88-.94-2.71-1.61-.08-.07-.11-.22-.16-.34-.08-.24-.09-.56-.25-.71-.42-.4-.5-.88-.59-1.41-.09-.54-.39-1.04-.62-1.63"/> <path class="cloud-3" d="m143.05 98.62c.5.53 1.23.91 2.12.61.44-.14.97-.01 1.34-.43.42-.47.32-1.07.41-1.62.17-1.12-.35-1.85-1.19-2.45-.25-.18-.5-.37-.69-.51-.57-.06-1.09-.12-1.61-.17-.32.19-.51.43-.46.85.07.69.08 1.39.12 2.18-.62-.13-.9-.51-1.16-.91-.22-.33-.41-.68-.66-.98-.13-.16-.34-.31-.53-.35-.52-.11-1.04-.16-1.46-.56-.09-.09-.37-.1-.49-.03-.51.3-.81-.11-1.25-.35-.63.59-1.25 1.19-1.79 1.88-.13.16-.23.39-.24.59 0 .33-.14.57-.29.85-.46.84-.23 2.37.44 3.07.28.29.56.55.98.63.29.06.57.22.83.37.57.32 1.06.34 1.73.1.69-.25 1.13-.58 1.39-1.23.13-.33.35-.61.47-.94.12-.32.16-.68.25-1.07.78-.22 1.22-.06 1.74.47zm-1.93 3.96-.16-.09-.02.1.07.08.22.11c-.38.21-.75.43-1.13.64-.48-.25-.95-.03-1.42.02-.68.07-1.22-.1-1.53-.77l-.19-.15c-.17.04-.34.07-.51.11-.23-.2-.43-.47-.7-.56-.64-.24-.95-.78-1.29-1.28-.29-.44-.53-.92-.74-1.4-.25-.59-.23-1.21-.06-1.82.13-.46.31-.91.44-1.38.16-.57.43-1.05.89-1.44.27-.22.53-.46.77-.73.33-.38.72-.58 1.21-.73.63-.21 1.22-.45 1.92-.26.2.06.47-.11.72-.17.8 1.07 1.81 1.02 2.89.66.13-.04.24-.11.37-.15.78-.26 1.55-.28 2.31.09 1.39.68 2.55 1.55 2.75 3.23.01.09.04.18.08.25.59 1.04.23 2.07-.07 3.08-.21.73-.63.93-1.47.88-.13-.01-.28-.03-.39.02-.56.26-1.12.14-1.69.05-.52-.07-1.04-.15-1.5-.23-.1.07-.14.09-.18.11-.49.36-1.04.65-1 1.42.01.17-.34.36-.52.54z"/> </g> <g transform="translate(861)" class="first-part-bubbles"> <path d="m6.77 80.08c.53-.05 1.07-.03 1.61.04 9.02 1.18 3.95 12.9-2.92 10.06-4.67-1.94-5.21-7.94-.26-9.75.5-.18 1.03-.3 1.57-.35" fill="#f0eae3"/> <path d="m96.15 74.75c.53-.05 1.07-.04 1.61.03 9.02 1.18 3.95 12.9-2.92 10.06-4.67-1.93-5.21-7.93-.26-9.75.5-.18 1.03-.29 1.57-.34" fill="#f0eae3"/> <path d="m119.25 62.95c.27-.03.55-.02.83.01 4.64.61 2.03 6.64-1.5 5.18-2.4-1-2.68-4.08-.13-5.02.25-.09.53-.15.8-.17" fill="#fefefe"/> <path d="m3.25 49.57c.27-.02.55-.02.83.02 4.64.61 2.03 6.63-1.51 5.17-2.39-.99-2.68-4.08-.13-5.01.26-.09.53-.15.81-.18" fill="#b3ddd4"/> <path d="m107.71 15.03c-1.13.57-3.23-1.47-1.56-2.23.83-.38 2.01.44 1.99 1.33-.01.49-.18.77-.43.9m1.93-4.13c-1.35.04-1.79-1.73-2.38-2.95-.51-1.07-4.61-4.25-.46-3.84 2.85.29 4.05 4.68 2.84 6.79m-3.2-9.83c-8.74-2.57-11.46 8.64-6.61 14.06 8.42 9.42 17.88-4.48 10.06-12-.48-.47-1.02-.89-1.6-1.24s-1.2-.63-1.85-.82" fill="#b3ddd4"/> <path d="m54.03 31.01c-1.13.57-3.23-1.47-1.56-2.24.83-.37 2.02.44 2 1.34-.02.49-.19.77-.44.9m1.94-4.13c-1.36.04-1.79-1.74-2.38-2.95-.52-1.07-4.62-4.25-.47-3.84 2.85.28 4.05 4.68 2.85 6.79m-3.2-9.83c-8.75-2.57-11.46 8.64-6.62 14.06 8.42 9.42 17.88-4.48 10.07-12.01-.49-.46-1.03-.88-1.61-1.23-.57-.35-1.19-.63-1.84-.82" fill="#fefefe"/> <path d="m49.47 78.14c-1.13.57-3.23-1.47-1.56-2.23.83-.37 2.02.44 2 1.33-.02.5-.19.78-.44.9m1.94-4.13c-1.36.04-1.79-1.73-2.38-2.95-.52-1.07-4.62-4.25-.47-3.83 2.85.28 4.05 4.67 2.85 6.78m-3.2-9.83c-8.75-2.56-11.47 8.65-6.62 14.06 8.42 9.42 17.88-4.48 10.07-12-.49-.47-1.03-.89-1.61-1.24s-1.2-.63-1.84-.82" fill="#b3ddd4"/> </g> <g transform="translate(15 190)"> <path d="m199.82 68.6c0 24.32-33.65 20.13-62.24 20.13s-51.77-19.72-51.77-44.04 23.18-44.04 51.77-44.04 62.24 43.63 62.24 67.95" fill="#f1cc14"/> <g fill="#b3ddd4"> <path d="m1033.78 19.91c-12.65 11.47-36.16 17.35-52.2 11.49-16.04-5.87-30.21-16.04-46.17-22.12-25.74-9.81-55.63-8.09-80.08 4.61-15.34 7.96-28.29 19.83-43.09 28.78-14.79 8.94-32.91 14.93-49.32 9.49-9.85-3.27-18.24-10.4-28.38-12.62-13.76-3.01-27.78 3.61-39.32 11.67-11.55 8.05-35.28 19.37-119.49 19.27-34.82-.03-69.64-.07-104.45-.11-28.74-.03-57.48-.06-86.22-.09-19.94-.02-62.4 8.12-79.16-5.47-5.95-4.83-10.24-11.51-16.41-16.07-15.38-11.35-37.15-6.3-54.6 1.5-17.45 7.79-35.3 18.11-54.28 15.87-17.36-2.05-31.54-14.19-45.19-25.11-20.86-16.67-44.11-32.07-70.54-35.94-26.43-3.86-51.9 6.75-63.61 30.76l-1.12 67.78s14.41 8.36 25.11 5.92c86.62-19.7 176.64-.56 265.37 3.52 107.59 4.95 215.14-12.44 322.81-9.92 142.92 3.33 418.86-6.38 418.86-6.38z"/> <path d="m307.38 65.3c-5.95-4.82-10.24-11.51-16.41-16.06-15.38-11.35-37.14-6.3-54.6 1.49-17.45 7.79-35.3 18.11-54.28 15.87-17.36-2.05-31.54-14.19-45.19-25.1-20.86-16.68-44.11-32.08-70.54-35.94-26.43-3.87-51.9 6.75-63.6 30.75l-1.13 67.78s14.41 8.36 25.11 5.92c86.62-19.7 176.64-.56 265.37 3.52 24.01 1.11 48.01 1.1 72.02.45-2.55-13.72-4.44-27.52-4.71-41.52-19.38 1.33-41.14 1.68-52.04-7.16z"/> </g> </g> <g transform="translate(373 40)"> <g transform="translate(120)" class="man-anim-1"> <path d="m41.98 138.73h-11.2c-16.5 0-30.01-13.5-30.01-30s13.51-30 30.01-30h11.2c16.5 0 30 13.5 30 30s-13.5 30-30 30" fill="#eb643a"/> <path d="m21.31 83.17h30.21v-46.67h-30.21z" fill="#eb643a"/> <path d="m6.83 24.7v32.79c0 11.07 16.2 15.02 21.73 15.02s20.52-2.47 20.52-14.32v-32.7s-3.92-11.46-18.94-11.46-23.31 10.67-23.31 10.67" fill="#eb643a"/> <path d="m15.52 26.28c-9.08-.41-14.23-3.16-14.23-11.86 0-8.69 7.93-13.47 9.49-13.43-2.08 1.99-3.47 5.9-3.16 8.69.8-1.26 2.37-3.55 5.53-5.13-1.51 3.87.44 5.55 1.56 6.39-.28-2.19.81-4.81 2.78-5.6.79 3.55 1.59 5.92 5.54 5.92s10.8-5.92 19.1-2.76 9.48 9.87 9.48 9.87 5.93-.39 5.93 7.51v18.64c0 8.93-6.04 11.02-6.04 11.02l.14-9.98s-6.35-5.57-6.35-11.1 2.37-8.18 2.37-8.18-3 3.43-6.08 3.02c2.24-1.89 2.17-3.84 2.17-3.84s-2.8 1.81-5.31 1.53c1.54-1.53 1.57-2.44.92-3.87-1.62-3.39-15.15 3.55-23.84 3.16" fill="#1f1646"/> <path d="m6.82 54.22c3.07 0 8.52-5.17 14.8-5.17s6.91 5.17 13.75 5.17 9.14-11.87 11.38-12.43c2.23-.56 1.67 1.12 1.67 1.12v12.42c0 10.95-9.65 20.95-17.74 20.95h-9.44c-9.78 0-14.42-12.44-14.42-16.9z" fill="#1f1646"/> <path d="m15.27 38.86c0 .85-.69 1.53-1.54 1.53s-1.54-.68-1.54-1.53.69-1.54 1.54-1.54 1.54.69 1.54 1.54" fill="#1f1646"/> <path d="m33.76 38.86c0 .85-.68 1.53-1.53 1.53s-1.54-.68-1.54-1.53.69-1.54 1.54-1.54 1.53.69 1.53 1.54" fill="#1f1646"/> <path d="m5.69 34.88c2.56-1.96 7.82-3.08 11.52-2.67 3.69.41 4.34-3.89.04-4.54s-9.57 1.33-12.18 3.66-1.05 4.83.62 3.55" fill="#1f1646"/> <path d="m38.33 34.94c-2.56-2.11-7.93-3.47-11.76-3.19-3.82.29-4.32-4.17.13-4.68 4.46-.5 9.82 1.74 12.41 4.24 2.6 2.51.89 5.02-.78 3.63" fill="#1f1646"/> <path d="m21 54.12s-3.9 2.71-9.06 2.71c0 7.38 5.22 10.15 9.9 10.15 4.67 0 9.53-4.98 9.53-9.9-3.69.25-7.44.07-10.37-2.96" fill="#eb643a"/> <path d="m48.52 42.1s.82-3.79 3.04-3.79c1.96 0 3.42.75 3.42 5.5s-1.9 5.51-3.61 5.51-2.85-3.23-2.85-3.23-.19-3.99 0-3.99" fill="#eb643a"/> <g fill="#1f1646"> <path d="m29.31 55.95s-3.57 1.23-8 1.23-7.3-1.23-7.3-1.23 1.42 5.81 7.05 5.81c5.62 0 8.25-5.81 8.25-5.81"/> <path d="m5.48 34.53c-.18 0-.34.15-.34.34v7.42c0 .19.16.34.34.34h12.03c.19 0 .34-.15.34-.34v-7.42c0-.19-.15-.34-.34-.34zm12.03 8.94h-12.03c-.65 0-1.17-.53-1.17-1.18v-7.42c0-.65.52-1.18 1.17-1.18h12.03c.65 0 1.18.53 1.18 1.18v7.42c0 .65-.53 1.18-1.18 1.18z"/> <path d="m25.03 34.53c-.19 0-.34.15-.34.34v7.42c0 .19.15.34.34.34h12.45c.18 0 .33-.15.33-.34v-7.42c0-.19-.15-.34-.33-.34zm12.45 8.94h-12.45c-.65 0-1.18-.53-1.18-1.18v-7.42c0-.65.53-1.18 1.18-1.18h12.45c.64 0 1.17.53 1.17 1.18v7.42c0 .65-.53 1.18-1.17 1.18z"/> <path d="m24.24 39.28c-.01-.01-1.25-.84-3.11-.84-1.79 0-2.53.74-2.56.78l-.61-.58c.04-.04.99-1.04 3.17-1.04 2.13 0 3.53.94 3.59.98z"/> <path d="m48.26 40.3-9.87-.66.05-.83 9.87.65z"/> <path d="m14.75 64.43s1.52 1.22 3.8-.48c.67 1.23.85 2.27 2.65 2.37 1.8.09 2.93-1.9 2.75-2.65 2.36 1.89 4.73.28 4.73.28s-2.65 4.64-7.67 4.07c-5.02-.56-6.26-3.59-6.26-3.59"/> <path d="m21.33 49.84c-2.89 0-4.96-.84-5.7-2.32-.47-.94-.32-2.01.43-3 1.58-2.11 1.87-3.89 1.87-3.91.04-.23.26-.39.48-.35.23.03.39.24.35.47-.01.08-.31 2-2.03 4.29-.56.74-.68 1.47-.35 2.12.58 1.17 2.43 1.87 4.95 1.87 3.16 0 5.26-.57 5.92-1.6.32-.51.3-1.13-.06-1.91-.1-.21-.01-.46.2-.55.21-.1.46-.01.56.2.48 1.04.49 1.95.01 2.71-.84 1.31-3.07 1.98-6.63 1.98"/> </g> </g> <g transform="translate(207 5)" class="man-anim-2"> <path d="m12.41 40.93s-5.12-8.05-5.12-17.18 5.31-8.52 5.31-8.52z" fill="#1f1646"/> <path d="m23.67 79.79h29.74v-46.66h-29.74z" fill="#f3d19f"/> <path d="m11.23 15.83v31.01c0 11.36 7.8 22.81 13.33 22.81 5.54 0 27.38-6.02 27.38-17.87 0-11.86 2.94-35.24 2.94-35.24s-6.72-11.46-21.74-11.46c-15.01 0-21.91 10.75-21.91 10.75" fill="#f3d19f"/> <path d="m34.39.33c16.81 0 20.25 9.91 20.25 9.91s5.07 3.23 5.07 11.13c0 5.52-.46 12.48-1.68 16.42-2.65 8.53-3.25 7.14-3.25 7.14l-4.68-4.38s-3.33-5.02-4.32-14.21c3.97-6.46 1.32-9.95-3.9-10.88-5.21-.93-13.4 1.86-22.16 1.67-8.75-.18-12.11-1.11-13.97-5.4 1.68 1.12 3.54.93 3.54.93s-3.17-1.39-2.61-6.05c1.49 1.31 4.1 1.77 4.1 1.77s-3.72-2.61-1.86-7.26c.93 1.49 3.16 2.42 6.33 2.23 3.17-.18 19.14-3.02 19.14-3.02" fill="#1f1646"/> <path d="m18.83 35.48c0 .85-.69 1.54-1.54 1.54s-1.53-.69-1.53-1.54c0-.84.68-1.53 1.53-1.53s1.54.69 1.54 1.53" fill="#1f1646"/> <path d="m36.3 35.48c0 .85-.69 1.54-1.54 1.54s-1.54-.69-1.54-1.54c0-.84.69-1.53 1.54-1.53s1.54.69 1.54 1.53" fill="#1f1646"/> <path d="m50.41 38.73s.81-3.8 3.04-3.8c1.96 0 3.41.76 3.41 5.51 0 4.74-1.89 8.96-3.6 8.96s-2.85-2.42-2.85-2.42-.19-8.25 0-8.25" fill="#f3d19f"/> <g fill="#1f1646"> <path d="m30.76 31.15c-.94-1.12-.75-2.23 1.3-2.98 2.05-.74 4.96.01 7.17 1.03 2.42 1.11 2.84 3.11 2.84 3.11s-1.16-.79-4.33-.97c-3.17-.19-6.05.93-6.98-.19"/> <path d="m21.69 30.75c.87-1.04.69-2.09-1.22-2.78-1.91-.7-5.16-.26-7.22.69-2.26 1.05-2.87 4.35-2.87 4.35s1.57-1.91 4.53-2.09c2.95-.17 5.91.87 6.78-.17"/> <path d="m20.23 58.06s2.47.7 3.96.7 4.66-.56 4.66-.56-1.59 1.71-2.29 2.2c-.69.5-3.21.41-3.95.13-.75-.28-2.38-2.47-2.38-2.47"/> <path d="m14.09 51.08s1.17-2.52 2.72-3.07c1.54-.56 4.99-1.59 5.96-3.26 1.28.28 2.58.46 4.08.22 2.87 2.01 6.79 2.24 7.76 2.94 1.54 1.12 2.01 2.98 2.01 2.98s-9.22 0-11.84-1.95c-2.5 1.86-9.54 2.7-10.69 2.14"/> <path d="m16.23 52.57s7.54 1.4 17.97-.56c-.09 2.23-2.16 3.17-4.47 3.91-2.61.84-9.68 0-9.68 0z"/> </g> <path d="m18.42 53.54s8.75.75 14.15-.74c-.06 1.37-2.98 1.96-4.37 2.14-1.67.22-7.92 0-7.92 0z" fill="#f1ebe4"/> <path d="m24.7 45.45c-2.43 0-3.93-.51-4.59-1.56-.82-1.32-.12-3.18.68-4.82.1-.21.35-.3.56-.19.2.1.29.35.19.55-.97 2.01-1.2 3.25-.71 4.02.48.77 1.78 1.16 3.87 1.16 2.06 0 3.43-.5 3.96-1.43.44-.78.21-1.72-.03-2.13-.12-.2-.06-.45.14-.57s.46-.06.58.14c.3.51.71 1.79.04 2.97-.7 1.23-2.28 1.86-4.69 1.86" fill="#1f1646"/> <path d="m39.28.75s-11.57-1.94-22.14.77c3.25.99 4.07 2.58 4.07 2.58z" fill="#1f1646"/> <path d="m49.06 14.15s-2.52-5.86-12.02-6.42c11.46-.84 11.18 4.47 12.02 6.42" fill="#44499c"/> <path d="m50.99 13.45s-.43-6.37-9.2-10.05c11.08 3.01 9.06 7.93 9.2 10.05" fill="#44499c"/> <path d="m14.41 59.41s3.45 6.89 5.12 8.75c1.68 1.86 3.73 1.86 3.73 1.86h5.96c2.05 0 2.12-.51 3.45-2.32 1.15-1.59 3.78-10.06 3.44-8.85 0 0-4.84 8.2-7.45 8.2h-5.77c-2.24 0-8.48-7.64-8.48-7.64" fill="#1f1646"/> <path d="m49.06 42.93c1.39-1.12 3.3-3.47 3.49-6.08 0 0 .7.7.77 2.24 1.04-.91 1.25-2.52 1.25-2.52s.91 1.54.77 2.87c1.05-.49 1.68-1.96 1.68-3.15 0-1.18-9.36-14.52-11.18-9.98-1.81 4.54 3.77 10.19 3.22 16.62" fill="#1f1646"/> <path d="m49.14 149.49h-26.93c-12.18 0-22.14-9.96-22.14-22.13v-31.5c0-12.17 9.96-22.13 22.14-22.13h26.93c12.18 0 22.14 9.96 22.14 22.13v31.5c0 12.17-9.96 22.13-22.14 22.13" fill="#f3d19f"/> </g> <g transform="translate(24 5)" class="man-anim-3"> <path d="m20.88 79.22h28.72v-46.67h-28.72z" fill="#eb643a"/> <path d="m64.56 16.54v33.28c0 11.07-17.86 18.74-19.4 18.74-5.54 0-23.41-2.47-23.41-14.32v-41.17s7.82-8.2 22.83-8.2c6.98 0 11.97 1.19 15.31 2.46 3.85 1.46 4.67 5.48 4.67 9.21" fill="#eb643a"/> <path d="m64.56 47.64c-3.07 0-8.11-1.05-14.39-1.05s-9.36.93-16.2.93-5.14-4.1-7.38-4.66c-2.23-.55-1.67 1.12-1.67 1.12v6.19c0 6.7 13.8 19.32 21.9 19.32 5.39 0-2.71-.14 3.3-.14s14.44-9.17 14.44-16.62z" fill="#c13d27"/> <g fill="#1f1646"> <path d="m22.56 14.42s-7.32.45-7.32 8.35v16.67c0 8.94 5.92 12.15 5.92 12.15l-.14-9.98s2.24-.58 2.73-1.14c.15-.18.41 1.26.77 2.66.25 1 3.01.43 3.22.09 1.13-1.8 2.24-15.99 2.24-18.08 0-5.53-2.65-6.51-2.65-6.51z"/> <path d="m55.84 34.91c0 .84.68 1.53 1.53 1.53s1.54-.69 1.54-1.53c0-.85-.69-1.54-1.54-1.54s-1.53.69-1.53 1.54"/> <path d="m42.22 34.91c0 .84.69 1.53 1.54 1.53.84 0 1.53-.69 1.53-1.53 0-.85-.69-1.54-1.53-1.54-.85 0-1.54.69-1.54 1.54"/> <path d="m63.61 34.58c-1.42-2.06-5.4-2.95-8.36-3.83s-2.27-3.88 1.22-2.97 7.24 2.36 8.61 4.69c1.36 2.33-.54 3.47-1.47 2.11"/> <path d="m37.63 34.69c1.58-2.23 5.97-3.31 9.21-4.26 3.23-.95 2.52-4.18-1.3-3.19s-7.98 2.67-9.49 5.18c-1.51 2.5.55 3.72 1.58 2.27"/> </g> <path d="m23.98 36.33s-.81-3.8-3.04-3.8c-1.96 0-3.42 2.58-3.42 7.33s1.9 5.51 3.61 5.51 2.85-3.23 2.85-3.23.19-5.81 0-5.81" fill="#eb643a"/> <path d="m49.98 47.49c-1.3 0-2.01-.6-2.63-1.13-.54-.46-1-.85-1.81-.94-.23-.02-.4-.23-.37-.46.02-.23.24-.39.46-.37 1.07.12 1.7.66 2.26 1.13.64.54 1.19 1.01 2.38.92.97-.08 1.7-.48 2.12-1.16.43-.71.46-1.64.07-2.54-.86-2.02-.53-10.07-.51-10.41.01-.23.17-.42.43-.4.23.01.41.21.4.44-.09 2.27-.21 8.51.45 10.04.5 1.15.45 2.36-.12 3.3-.56.92-1.54 1.47-2.78 1.56-.12.01-.24.02-.35.02" fill="#1f1646"/> <path d="m39.56 49.13c1.77-.37 4.99 1.68 10.75 1.68 5.75 0 9.3-2.64 10.04-1.59.58.81-1.71 5.88-10.14 5.88-8.42 0-12.42-5.6-10.65-5.97" fill="#1f1646"/> <path d="m17.21 21.47s-.11-8.21 4.22-12.94c5.43-5.91 15.97-2.52 20.79-7.76.51 2.28-.9 2.96-.9 2.96s4.72.06 8.14-3.27c.1 2.59-1.51 3.27-1.51 3.27s2.2-1.38 7.84-.12c6.63 1.48 9.15 7.02 15.92 3.91 1.51 5.18-4.42 9.7-4.42 9.7s-1.1 1.31-4.02 1.83c-1.7.3-1.88.28.73 2.75-3.41 0-12.43-4.39-12.43-4.39s2.21 5.66 5.62 7.63c-7.03-.24-12.65-8.62-12.65-8.62s1.8 4.44 3.11 6.53c-5.53-.62-6.93-5.79-8.74-6.65-1.81-.87-7.98.92-11.15 6.28-4.37 7.4-3.47 7.94-3.47 7.94z" fill="#1f1646"/> <path d="m50.03 57.34c-2.05 0-3.29-.5-3.37-.53-.21-.09-.31-.33-.23-.55.09-.21.34-.31.55-.23.02.01 2.63 1.05 6.53-.01.23-.06.45.07.51.29.06.23-.07.46-.29.52-1.41.38-2.66.51-3.7.51" fill="#1f1646"/> <path d="m43.25 51.2c.7.08 2.78.69 7.49.63s5.47-.5 6.12-.72c.1.82-1.11 2.5-6.25 2.5-5.13 0-7.22-1.31-7.36-2.41" fill="#f1ebe4"/> <path d="m49.53 163.82h-26.93c-12.18 0-22.14-9.96-22.14-22.13v-45.83c0-12.17 9.96-22.13 22.14-22.13h26.93c12.18 0 22.14 9.96 22.14 22.13v45.83c0 12.17-9.96 22.13-22.14 22.13" fill="#eb643a"/> </g> <g transform="translate(0 88)"> <g fill="#f1ebe4" transform="translate(11)" class="third-part-bubbles"> <path d="m22.09 37.86c0 6.06-4.91 10.98-10.98 10.98s-10.98-4.92-10.98-10.98c0-6.07 4.91-10.98 10.98-10.98s10.98 4.91 10.98 10.98"/> <path d="m277.6 36.17c0 6.06-4.91 10.98-10.98 10.98-6.06 0-10.98-4.92-10.98-10.98s4.92-10.98 10.98-10.98c6.07 0 10.98 4.92 10.98 10.98"/> <path d="m176.66 11.67c0 6.06-4.92 10.98-10.99 10.98-6.06 0-10.98-4.92-10.98-10.98s4.92-10.98 10.98-10.98c6.07 0 10.99 4.92 10.99 10.98"/> <path d="m228.45 17.71c0 6.06-4.92 10.98-10.98 10.98-6.07 0-10.98-4.92-10.98-10.98s4.91-10.98 10.98-10.98c6.06 0 10.98 4.92 10.98 10.98"/> <path d="m263.28 30.56c0 6.06-4.91 10.98-10.98 10.98-6.06 0-10.98-4.92-10.98-10.98 0-6.07 4.92-10.99 10.98-10.99 6.07 0 10.98 4.92 10.98 10.99"/> <path d="m70.11 15.96c0 6.06-4.92 10.98-10.98 10.98-6.07 0-10.99-4.92-10.99-10.98 0-6.07 4.92-10.98 10.99-10.98 6.06 0 10.98 4.91 10.98 10.98"/> <path d="m195.62 15.12c0 6.06-4.92 10.98-10.99 10.98-6.06 0-10.98-4.92-10.98-10.98 0-6.07 4.92-10.99 10.98-10.99 6.07 0 10.99 4.92 10.99 10.99"/> <path d="m29.89 28.51c0 4.72-3.82 8.54-8.54 8.54-4.71 0-8.54-3.82-8.54-8.54 0-4.71 3.83-8.53 8.54-8.53 4.72 0 8.54 3.82 8.54 8.53"/> <path d="m108.92 12.66c0 4.71-3.82 8.53-8.54 8.53-4.71 0-8.54-3.82-8.54-8.53 0-4.72 3.83-8.54 8.54-8.54 4.72 0 8.54 3.82 8.54 8.54"/> <path d="m52.83 24.73c0 7.79-6.32 14.11-14.12 14.11-7.79 0-14.11-6.32-14.11-14.11 0-7.8 6.32-14.12 14.11-14.12 7.8 0 14.12 6.32 14.12 14.12"/> <path d="m162.13 25.74c0 9.92-8.05 17.97-17.97 17.97s-17.96-8.05-17.96-17.97c0-9.91 8.04-17.96 17.96-17.96s17.97 8.05 17.97 17.96"/> <path d="m118.39 14.8c0 3.82-3.11 6.93-6.94 6.93-3.82 0-6.93-3.11-6.93-6.93 0-3.83 3.11-6.94 6.93-6.94 3.83 0 6.94 3.11 6.94 6.94"/> <path d="m135.76 13.67c0 5.13-4.15 9.28-9.27 9.28-5.13 0-9.28-4.15-9.28-9.28 0-5.12 4.15-9.27 9.28-9.27 5.12 0 9.27 4.15 9.27 9.27"/> <path d="m84.24 33.04c0 9.92-8.04 17.97-17.96 17.97s-17.97-8.05-17.97-17.97 8.05-17.96 17.97-17.96 17.96 8.04 17.96 17.96"/> <path d="m230.51 33.04c0 9.92-40.78 17.97-91.1 17.97-50.31 0-91.1-8.05-91.1-17.97s40.79-17.96 91.1-17.96c50.32 0 91.1 8.04 91.1 17.96"/> <path d="m79.53 17.71c0 4.16-3.37 7.54-7.54 7.54-4.16 0-7.54-3.38-7.54-7.54 0-4.17 3.38-7.54 7.54-7.54 4.17 0 7.54 3.37 7.54 7.54"/> <path d="m96.5 15.67c0 6.58-5.34 11.92-11.92 11.92-6.59 0-11.92-5.34-11.92-11.92s5.33-11.92 11.92-11.92c6.58 0 11.92 5.34 11.92 11.92"/> <path d="m252.54 33.04c0 9.92-8.04 17.97-17.96 17.97-9.93 0-17.97-8.05-17.97-17.97s8.04-17.96 17.97-17.96c9.92 0 17.96 8.04 17.96 17.96"/> <path d="m209.31 20.09c0 4.72-3.82 8.54-8.54 8.54-4.71 0-8.54-3.82-8.54-8.54 0-4.71 3.83-8.54 8.54-8.54 4.72 0 8.54 3.83 8.54 8.54"/> </g> <path d="m295.3 37.77v43.86c0 32.18-26.33 58.5-58.51 58.5h-169.57c-32.17 0-58.5-26.32-58.5-58.5v-43.86z" fill="#44499c"/> <path d="m266.9 37.77v27.92c0 25.64-20.98 46.61-46.63 46.61h-202.79c10.34 16.67 28.8 27.83 49.74 27.83h169.57c32.18 0 58.51-26.32 58.51-58.5v-43.86z" fill="#2e3378"/> <path d="m8.72 46.3h286.58v-8.53h-286.58z" fill="#2e3378"/> <path d="m297.31 41.42h-290.6c-3.41 0-6.19-2.78-6.19-6.19 0-3.4 2.78-6.19 6.19-6.19h290.6c3.4 0 6.19 2.79 6.19 6.19 0 3.41-2.79 6.19-6.19 6.19" fill="#44499c"/> <path d="m38.66 127.95s-2.43 14.61-3.65 19.49c-6.1 1.22-8.53 10.96-8.53 10.96h15.84l17.06-21.92z" fill="#2e3378"/> <path d="m265.35 127.95s2.44 14.61 3.66 19.49c6.09 1.22 8.53 10.96 8.53 10.96h-15.85l-17.05-21.92z" fill="#2e3378"/> <g fill="#fefefe"> <path d="m25.84 106.21c-.7 0-1.38-.37-1.76-1.02-4.45-7.73-6.89-15.68-6.89-22.4v-12.93c0-1.12.9-2.03 2.03-2.03 1.12 0 2.03.91 2.03 2.03v12.93c0 6.02 2.26 13.25 6.35 20.37.56.98.23 2.22-.75 2.78-.31.18-.66.27-1.01.27"/> <path d="m19.22 63.69c-1.12 0-2.03-.91-2.03-2.03v-6.43c0-1.12.91-2.03 2.03-2.03s2.03.91 2.03 2.03v6.43c0 1.12-.91 2.03-2.03 2.03"/> </g> </g> <g fill="#fff" style="font-size: 12px;letter-spacing: -0.132px; font-family: 'Poppins', sans-serif"> <text> <tspan x="29.082" y="167">Mohammed M.</tspan> <tspan x="53.082" y="182">Mahdi</tspan> </text> <text> <tspan x="124.184" y="167">Mohammed A.</tspan> <tspan x="147.082" y="182">Mahdi</tspan> </text> <text> <tspan x="219.116" y="167">Anthony</tspan> <tspan x="221.233" y="182">Duncan</tspan> </text> </g> </g> <g transform="translate(198 22)" class="second-part-bubbles"> <path d="m5.12 98.79c.53-.05 1.07-.04 1.61.03 9.02 1.18 3.95 12.9-2.92 10.06-4.67-1.93-5.21-7.93-.26-9.75.5-.18 1.03-.29 1.57-.34" fill="#b3ddd4"/> <path d="m137.78 21.09c.54-.05 1.08-.04 1.61.03 9.03 1.18 3.96 12.9-2.92 10.06-4.66-1.93-5.21-7.93-.25-9.75.5-.18 1.03-.29 1.56-.34" fill="#f0eae3"/> <path d="m143.74 167.56c.53-.05 1.08-.04 1.61.03 9.02 1.18 3.95 12.9-2.92 10.06-4.67-1.93-5.21-7.93-.26-9.74.51-.19 1.03-.3 1.57-.35" fill="#f0eae3"/> <path d="m71.89.05c.27-.02.55-.01.83.02 4.64.61 2.03 6.64-1.5 5.18-2.41-1-2.68-4.09-.14-5.02.26-.09.53-.15.81-.18" fill="#fefefe"/> <path d="m31.1 37.42c.27-.03.55-.02.82.02 4.64.6 2.04 6.63-1.5 5.17-2.4-.99-2.68-4.08-.13-5.01.26-.1.53-.16.81-.18" fill="#fefefe"/> <path d="m152.56 129.94c-1.13.57-3.23-1.47-1.56-2.24.83-.37 2.02.44 2 1.34-.01.49-.18.77-.44.9m1.94-4.13c-1.35.04-1.79-1.74-2.38-2.95-.52-1.07-4.62-4.25-.47-3.84 2.86.28 4.05 4.68 2.85 6.79m-3.2-9.83c-8.75-2.57-11.46 8.64-6.62 14.06 8.42 9.42 17.88-4.48 10.07-12.01-.49-.46-1.03-.88-1.61-1.23-.57-.35-1.19-.63-1.84-.82" fill="#b3ddd4"/> <path d="m101.63 123.82c-1.14.57-3.24-1.47-1.56-2.23.82-.38 2.01.43 1.99 1.33-.01.49-.18.77-.43.9m1.93-4.13c-1.35.04-1.79-1.74-2.38-2.95-.52-1.07-4.61-4.25-.47-3.84 2.86.29 4.05 4.68 2.85 6.79m-3.2-9.83c-8.74-2.57-11.46 8.64-6.62 14.06 8.43 9.42 17.88-4.48 10.07-12-.49-.47-1.02-.89-1.6-1.24s-1.2-.63-1.85-.82" fill="#fefefe"/> <path d="m97.07 170.96c-1.14.56-3.24-1.48-1.56-2.24.82-.37 2.01.44 1.99 1.34-.01.49-.18.77-.43.9m1.93-4.14c-1.35.05-1.79-1.73-2.38-2.95-.52-1.07-4.61-4.25-.47-3.83 2.86.28 4.05 4.68 2.85 6.78m-3.2-9.82c-8.75-2.57-11.46 8.64-6.62 14.06 8.42 9.41 17.88-4.49 10.07-12.01-.49-.47-1.03-.89-1.6-1.23-.58-.35-1.2-.63-1.85-.82" fill="#b3ddd4"/> </g> </g> </svg>