<?xml version="1.0"?> <svg xmlns="http://www.w3.org/2000/svg" id="second-illustration" width="100%" height="43vw" preserveAspectRatio="xMidYMin slice" viewBox="3 3 1026 447"><style type="text/css">@keyframes man-scaleUp{50%{-webkit-transform:scale(1.2);transform:scale(1.2)}}@keyframes wing-back{0%{-webkit-transform:rotate(0deg);transform:rotate(0deg)}20%{-webkit-transform:rotate(-5deg);transform:rotate(-5deg)}40%{-webkit-transform:rotate(0deg);transform:rotate(0deg)}60%{-webkit-transform:rotate(-5deg);transform:rotate(-5deg)}80%{-webkit-transform:rotate(0deg);transform:rotate(0deg)}}@keyframes wing-front{0%{-webkit-transform:rotate(0deg);transform:rotate(0deg)}20%{-webkit-transform:rotate(5deg);transform:rotate(5deg)}40%{-webkit-transform:rotate(0deg);transform:rotate(0deg)}60%{-webkit-transform:rotate(5deg);transform:rotate(5deg)}80%{-webkit-transform:rotate(0deg);transform:rotate(0deg)}}@keyframes man-lines{100%{stroke-dashoffset:0}}@keyframes arm-rotation{0%{-webkit-transform:rotate(4deg);transform:rotate(4deg)}50%{-webkit-transform:rotate(-4deg);transform:rotate(-4deg)}100%{-webkit-transform:rotate(4deg);transform:rotate(4deg)}}@keyframes left-arm-rotation{0%{-webkit-transform:rotate(1deg) translate(6px, 63px);transform:rotate(1deg) translate(6px,63px)}50%{-webkit-transform:rotate(-1deg) translate(4px, 63px);transform:rotate(-1deg) translate(4px,63px)}100%{-webkit-transform:rotate(1deg) translate(6px, 63px);transform:rotate(1deg) translate(6px, 63px)}}@keyframes fadeOut{0%{opacity:0}20%{opacity:1}60%{opacity:1}100%{opacity:0}}@keyframes man-backInPlace{100%{-webkit-transform:translate(0px, 0px);transform:translate(0px, 0px)}}@keyframes moveLeftRight{50%{-webkit-transform:translateX(2px);transform:translateX(2px)}}@keyframes moveUpDown{50%{-webkit-transform:translateY(2px);transform:translateY(2px)}}@keyframes rotation{0%{-webkit-transform:rotate(8deg);transform:rotate(8deg)}50%{-webkit-transform:rotate(-8deg);transform:rotate(-8deg)}100%{-webkit-transform:rotate(8deg);transform:rotate(8deg)}}</style><defs> <g id="a"> <path d="m237.5 118.68c-3.77 1.25-4.54-.58-4.37-3.51-1.38-.27-2.65-.51-4.06-.79 0-1.29.01-2.46.01-3.8 1.27-.22 2.43-.42 3.84-.66.34-2.22.22-5.25 4.38-3.59.24.98.53 2.22.88 3.71 1.12.11 2.27.23 3.66.38.09 1.33.17 2.49.27 3.86-1.45.3-2.69.56-4.11.86-.17 1.21-.33 2.37-.5 3.54" transform="translate(23 46)"/> </g> <g id="b"> <path d="m3.37 1.52c.01.16-.12.29-.29.3-.16 0-.29-.13-.3-.29 0-.16.13-.3.29-.3.16-.01.3.12.3.29"/> <path d="m3.37 1.52-.47.01.14-.01h-.14v.01l.14-.01h-.14.18l-.01-.17c-.09 0-.17.08-.17.17h.18l-.01-.17.01.47v-.47.17h.17c0-.1-.08-.17-.17-.17v.17h.17v-.01l-.24.01h.24v-.01l-.24.01h.24-.17v.17c.09 0 .17-.07.17-.17h-.17v.17h.01l-.01-.36v.36h.01l-.01-.36v.36-.17l-.18.01c.01.09.08.16.18.16v-.17l-.18.01.47-.01.47-.02c-.01-.41-.35-.74-.76-.74h-.02c-.42.01-.75.35-.75.76v.02l.47-.01-.47.01c.01.42.35.74.77.74h.01c.42-.01.75-.34.75-.76v-.02z"/> <path d="m9.4 1.38c.01.16-.12.3-.29.3-.16 0-.29-.13-.3-.29 0-.16.13-.3.29-.3s.3.12.3.29"/> <path d="m9.4 1.38h-.46.17l-.01-.17c-.09 0-.16.08-.16.17h.17l-.01-.17h.01v.06-.06.06-.06.17h.17c0-.09-.08-.17-.17-.17v.17h.17-.24.24-.24.24-.17v.17c.1 0 .17-.07.17-.17h-.17v.17h.01l-.01-.36v.36h.01l-.01-.36v.36-.17l-.17.01c0 .09.07.16.17.16v-.17l-.17.01.46-.01h-.46.46l.47-.01c-.01-.42-.35-.75-.76-.75h-.02c-.41.01-.74.35-.74.76v.03l.46-.02-.46.01c.01.42.34.74.76.75h.01c.42-.01.75-.35.75-.77v-.01z"/> <path d="m6.25 11.74c-2.02.04-3.96-.78-5.33-2.28l.01-.29.3.02c1.28 1.4 3.11 2.18 5.01 2.14 1.9-.05 3.69-.91 4.91-2.37.08-.09.21-.1.29-.03.09.07.1.21.03.29-1.3 1.55-3.2 2.47-5.22 2.52"/> <path d="m6.25 11.74-.01-.47h-.16c-1.82 0-3.57-.77-4.81-2.12l-.35.31.47.03.01-.3-.47-.02-.01.47.29.01.02-.46-.35.31c1.34 1.46 3.23 2.29 5.2 2.3l.17-.01c2.04-.04 3.95-.97 5.26-2.53l-.2-.17v.26l.2-.09-.2-.17v.26-.26l-.17.2.17.06v-.26l-.17.2h.01l.16-.2h-.26l.1.2.16-.2h-.26.26l-.2-.17-.06.17h.26l-.2-.17c-1.21 1.45-2.99 2.31-4.87 2.35l.01.47.01.47c2.16-.05 4.18-1.03 5.57-2.69.1-.12.16-.28.15-.43.01-.19-.08-.38-.24-.52v.01c-.12-.11-.28-.16-.43-.16-.19 0-.38.08-.51.24-1.14 1.36-2.8 2.16-4.57 2.2h-.15c-1.71 0-3.35-.72-4.51-1.99l-.13-.14-.49-.02-.46-.02-.04.75v.2l.13.14c1.41 1.55 3.41 2.42 5.5 2.43h.18z"/> </g> <mask id="c" fill="#fff"> <path d="m.11 771.74c171.93 133.16 395.98 148.43 578.12 147.7 213.49-.87 363.25-91.4 492.97-200.26l4.35-658.63c-128.46 58.83-288.99 93.7-463.12 93.51-225.81-.24-428.63-59.39-568.21-153.18" fill="#fff"/> </mask> <mask id="d" fill="#fff"> <path d="m25.73 95.6c103.44 22.31 208.63 26.22 302.67 25.83 15.69-.06 31.05-.61 46.07-1.62-1.09-40.65 3.49-88.59-59.1-88.66-24.08-.02-33.19 12.12-40.72 24.25-7.6 12.23-13.58 24.47-31.64 24.25-49.78-.6-44.49-78.5-117.93-78.58-.03 0-.04 0-.06 0-42.59.01-77.49 51.38-99.29 94.53" fill="#fff"/> </mask> </defs> <g transform="translate(-37 -490)"> <path d="m961.01 773.41c-.26 1.79.55 3.7 3.04 5.43 2.81 1.95 7.55 1.36 10.77 1.53 5.2.28 10.41.41 15.61.7 1.03.06 1.96.69 3.6 1.3-6.42 3.4-11.97 5.61-17.93 4.55-9.84-5.77-13.91-4.17-15.73 5.91-.86 4.71 4.43 4.71 7.3 5.21 8.24 1.42 16.66 1.14 23.99-6.58 2.18-2.29 4.51-4.41 6.65-6.48l1.14-.05c2.8-.12 5.47.54 7.76 1.92 1.67 1 3.23 1.95 4.73 2.85 1.61.97 3.48 1.44 5.44 1.38 2.76-.08 5.39-.14 8.02-.4 6.65-.64 11.83-3.87 15.18-9.75.66-1.16.92-2.51.6-3.69-.55-2.04-1.57-3.42-3.17-4.2-1.91-.93-4.3-.54-6.27.81-1.02.7-2.09 1.47-3.04 2.37-5.7 5.42-11.78 5.79-18.32 4.86.49-.8.67-1.42.99-1.57 6.18-2.77 12.31-5.73 18.57-8.13 2.72-1.05 4.81-2.49 6.27-4.82 1.41-2.24 1.59-4.96.66-7.13l-.02-.05c-.71-1.65-2.26-2.66-4.06-2.6-3.02.09-5.5 1.55-7.82 3.89-3.22 3.26-6.47 6.5-9.82 9.62-1.97 1.84-3.93 4.04-6.86 3.84-.08-3.03 2.12-3.86 3.68-5.21 5.48-4.77 11.09-9.37 16.35-14.4 3.33-3.19 3.85-5.29 2.16-8.3-.75-1.34-2.35-1.89-3.89-1.3-2.35.91-4.24 2.86-6.01 4.93-2.68 3.16-5.15 6.51-7.75 9.74-2.02 2.53-4.1 5-6.15 7.5-.57-1.3-.53-2.23-.17-3.03 2.77-6.11 7.06-11.06 11.63-15.88 2.81-2.97 7.53-9.44 7.53-9.44s4.62-7.07 2.46-9.5c-2.17-2.43-5.91-.26-5.91-.26s-6.94 3.91-9.09 7.44c-3.59 5.91-5.86 12.22-7.7 18.7-.34 1.23-1.11 2.38-2.21 4.66-1.11-7.21.92-12.76 3.91-18.19 2.34-4.26 4.61-8.56 7.04-12.77 1.93-3.33 3.77-9.39 2.17-10.75-1.6-1.35-6.21-1.14-8.25 1.8-1.3 1.89-2.08 4.04-2.56 6.73-.9 4.97-1.94 9.93-2.92 14.89-1.11-2.2-1.14-4.41-.92-6.63.45-4.69 1.49-9.46 1.46-14.07-.04-5.26.74-13.47-5.8-13.19-1.39.06-2.35.62-3.18 1.46-6.39 6.41-5.45 12.89-5.45 12.89 2.55 8.47 5.14 16.92 7.61 25.42.65 2.23 1.72 4.43.81 8.41-3.15-8.11-6.15-15.66-9.01-23.08-.15-.08-1.15-2.49-3.3-2.58-2.15-.08-2.91.46-5.56 3.66s-2.33 7.66-.38 10.96c2 3.4 4.33 6.31 7.43 8.68 4.35 3.33 7.88 7.47 8.64 14.99-1.93-1.98-3.07-3.17-4.24-4.33-3.63-3.56-7.19-7.21-10.95-10.63-2.23-2.02-5.23-3.65-7.91-1.47-2.13 1.74-1.81 4.6-.56 6.86 1.36 2.46 3.55 4.22 6.06 5.42 3.68 1.74 7.17 3.83 10.56 6.06 2.47 1.63 5.44 2.58 7.84 6.44-10.34-1.8-20.13-11.54-26.62-10.25-3.7.73-7.67 3.63-8.13 6.9" fill="#f1cc14" style="transform-origin: 1001px 799px 0; animation: rotation 8s linear both infinite;"/> <g transform="translate(847 767)"> <path d="m12.93 47.32s-3.7-8.29-2.76-9.71 8.64 3.75 8.64 3.75z" fill="#e04230"/> <path d="m58.19 47.78c3.73-2.35 5.7-1.67 9.37-6.21 7.72-9.56 3.99-18.45 8.71-27.31s11.37-8.94 12.96-13.8c3.46 2.3 8.42 10.26 7.22 20.35-1.19 10.1-15.92 22.72-28.71 27.96s-9.55-.99-9.55-.99" fill="#e04230"/> <path d="m56.98 52.97s4.5 6.79 8.87 7.22c4.36.42 8.72.85 10.46 1.15s3.63 2.15 4.25 2.83c.63.69 2.39.55 2-.56-.38-1.11-2.67-3.63-5.48-4.64-2.8-1.01-6.98-5.16-7.92-8.49s-12.18 2.49-12.18 2.49" fill="#df4e38"/> <path d="m77.08 58.97c-.77-.28-1.66-.81-2.55-1.49l.81 1.54-1.38-.22.9 1-1.75-.08 1.28.78-1.41.38.1.04c1.39.16 2.53.3 3.23.42 1.74.3 3.63 2.15 4.25 2.83.63.69 2.39.55 2-.56-.38-1.11-2.67-3.63-5.48-4.64" fill="#1f1646"/> <path d="m26.65 62.59s-1.32 6.28-3.56 11.47c-2.24 5.18-8.5 12.31-10.36 13.47s.79 1.88 2.48 1.06 9.67-8.97 12.24-13.98c2.57-5.02 4.95-7.17 4.95-7.17z" fill="#df4e38"/> <path d="m27.32 68.92c.76.97 1.52 1.74 2.1 2.28.7-1.07 1.33-1.9 1.82-2.5l-4.59-6.11s-.3 1.43-.86 3.48c.35.93.85 1.99 1.53 2.85" fill="#1f1646"/> <g fill="#df4e38"> <path d="m33.02 48.22s2.41 8.91 8.47 7.8 18.31-12.42 26.16-10.03c8.3 2.52 6.67 9.36.16 13.4-6.51 4.05-23.26 18.75-34.11 11.91-10.85-6.83-5.93-10.78-9.24-15.86-3.31-5.07 8.56-7.22 8.56-7.22"/> <path d="m35.55 55.22s-1.24-2.11-2.53-7c-1.29-4.88-5.02-10.38-11.93-8.43-4.54 1.27-7.12 3.94-8.01 6.02-.88 2.07.16 5.71-5.07 8.51-5.24 2.8-8.52 3.02-7.28 5.13 1.24 2.12 7.86 3.89 17.07-1.3h.57c1.06.04 3.44.32 5.62 1.91 2.92 2.13 3.16 6.03 3.16 6.03z"/> <path d="m23.09 39.87c-1.29-5.72 1.08-8.55 2.47-9.07 1.39-.53 6.46 14.57 6.46 14.57s-7.83-4.09-8.93-5.5"/> </g> <path d="m96.09 22.69c.19-.63.29-1.26.36-1.88 1.2-10.09-3.76-18.05-7.22-20.35-1.59 4.86-8.24 4.94-12.96 13.8-.59 1.11-1.05 2.21-1.42 3.32 0 0 1.67-.2 3.21-1.93-.31 2.73-1.33 4.75-1.33 4.75s3.92-1.91 4.78-3.73c.44 2.66.01 4.28.01 4.28s2.22-.24 3.44-3.26c.64 4.25.19 6.4.19 6.4s3.41-2.2 3.76-4.56c.15 3.17.14 4.86.14 4.86s2.93-2.11 3.2-3.79c1.15 3.37.18 5.24.18 5.24s2.94-.81 3.66-3.15" fill="#f1ece5"/> <path d="m13.76 50.45c.1.3.43.47.73.37.31-.09.47-.42.38-.73-.1-.3-.43-.47-.73-.37-.31.1-.47.42-.38.73" fill="#1f1646"/> <path d="m19.47 48.24c.1.3.43.47.73.37.3-.09.47-.42.37-.72-.09-.31-.42-.48-.73-.38-.3.1-.47.43-.37.73" fill="#1f1646"/> <path d="m1.58 59.02c.17.52 1.02 1.08 1.99.77.96-.31 1.67-1.37 1.5-1.89-.16-.52-1.2-.46-2.16-.15s-1.5.76-1.33 1.27" fill="#1f1646"/> <path d="m70.19 56.95s-14.34 8.86-18.5 10.73c-4.01 1.8-8.16 3.56-14.52 1.51-6.36-2.04-7.63-9.07-8.95-11.25s-2.77-2.18-3.76-2.5c1.18-1.26 3.65-1.69 3.65-1.69s-1.18-1.54-5.3-1.45c-4.28.09-11.53 4.64-15.36 6.24-2.57 1.08-5.06 2-6.86.62.04.1.08.19.14.29 1.24 2.12 7.86 3.89 17.07-1.3h.57c1.06.04 3.44.32 5.62 1.91 2.92 2.13 2.94 6.79 2.94 6.79l.51-.58c.89 2.17 2.39 5.19 8.22 7.5 10.07 3.97 28.84-11.76 35.62-14.1z" fill="#f1ece5"/> <path d="m39.3 66.56s-3.92 13.53-6.32 18.21c-2.4 4.67-4.7 5.33-5.49 6.64-.7 1.16 1.99 1.87 4.12-.21 2.12-2.08 6.15-7.95 8.92-12.73 2.87-4.96 4.45-11.32 3.61-11.33s-4.84-.58-4.84-.58" fill="#df4e38"/> <path d="m60.27 58.05s8 5.8 13.14 4.43c5.14-1.38 10.28-2.75 12.38-3.15 2.11-.4 5.03.89 6.03 1.4 1.01.52 2.95-.39 2.04-1.49-.92-1.1-4.59-2.98-8.21-2.94-3.61.05-10.13-2.87-12.61-6.26-2.49-3.39-12.77 8.01-12.77 8.01" fill="#df4e38"/> <path d="m26.15 41.02s-.69-.98-.22-2.44c-.96.5-.88 1.03-.88 1.03s-.63-4.26 1.35-5.64c1.06 2.45 2.84 8.85 2.84 8.85s-2.19-1.9-2.46-3.3c-.54.92-.63 1.5-.63 1.5" fill="#f1ebe4"/> <path d="m27.49 91.41c-.7 1.16 1.99 1.87 4.12-.21 1.58-1.56 4.24-5.24 6.64-8.99.02-.22.02-.35.02-.35l-1.69 1.38.3-1.95-1.39 1.47.44-2.1-1.19 1.5.1-1.71-.09.12c-.63 1.68-1.24 3.16-1.77 4.2-2.4 4.67-4.7 5.33-5.49 6.64" fill="#1f1646"/> <path d="m23.62 80.14c.06-.13.09-.19.09-.19l-1.89.79.72-1.53-1.41 1.1.52-1.56-1.19 1.22.24-1.57s-.06.05-.15.15c-2.77 4.12-6.47 8.14-7.82 8.98-1.86 1.16.79 1.88 2.48 1.06 1.14-.55 5.14-4.44 8.41-8.45" fill="#1f1646"/> <path d="m31.71 44.95s.86 1.5 1.97 1.79c1.12.29 1.99-.18 1.99-.18s.25 2.8-1.77 4.57c-1.03.9-2.19-6.18-2.19-6.18" fill="#df4e38"/> <path d="m85.65 56.3c-1 .02-2.23-.2-3.53-.59l1.57 1.39-1.65.35 1.45.74-2.03.66 1.79.35-1.44 1.02.13.01c1.65-.42 3-.74 3.85-.9 2.11-.4 5.03.89 6.04 1.4 1 .52 2.94-.39 2.03-1.49-.92-1.1-4.59-2.98-8.21-2.94" fill="#1f1646"/> </g> <g mask="url(#c)"> <g transform="translate(250 799)"> <path d="m.62 152.61s50.64-152.11 124.13-152.03c73.5.08 68.21 77.65 118.03 78.25 36.01.43 24.04-48.34 72.41-48.29 95.86.1 34.27 111.86 76.55 138.38 3.89 2.44-391.12-16.31-391.12-16.31" fill="#76c09a"/> <g transform="translate(0 4)"> <path d="m63.576 81.931c4.2177 0.075977 8.4308 0.40709 12.608 0.98864-0.1904 2.3618-0.83907 4.7818-2.408 6.549-1.5699 1.7681-4.2215 2.7042-6.3821 1.7578-2.6815-1.1772-3.5681-4.4864-4.1309-7.3707-0.097067-0.49807-0.19413-0.99614-0.2912-1.4942" fill="#F1CC14" mask="url(#home-d)" style="animation:moveLeftRight 4.3s linear -0.5s infinite both"/> <path d="m315.41 27.267c4.2177 0.076915 8.4308 0.40709 12.609 0.98957-0.1904 2.36-0.83907 4.7809-2.408 6.549-1.5708 1.7672-4.2224 2.7042-6.3831 1.7559-2.6805-1.1753-3.5672-4.4854-4.1309-7.3707-0.096133-0.49713-0.19413-0.9952-0.29027-1.4923" fill="#F1CC14" mask="url(#home-d)" style="animation:moveUpDown 2.5s linear -1.4s infinite both"/> <path d="m119.96 26.746c4.2177 0.075977 8.4308 0.40709 12.609 0.98957-0.19227 2.3609-0.84 4.7809-2.4089 6.5481-1.5699 1.7681-4.2215 2.7042-6.3821 1.7568-2.6815-1.1753-3.5681-4.4854-4.1309-7.3697-0.097066-0.49807-0.19413-0.99708-0.2912-1.4942" fill="#F1CC14" mask="url(#home-d)" style="animation:moveUpDown 3.5s linear -0.6s infinite both"/> <path d="m134.89 52.765c4.2168 0.098488 8.4299 0.52996 12.608 1.2907-0.19227 3.0925-0.84093 6.2629-2.4117 8.5779-1.5699 2.3159-4.2215 3.5437-6.3821 2.3028-2.6815-1.5383-3.5663-5.8737-4.1281-9.6519l-0.2912-1.9538" fill="#F1CC14" mask="url(#home-d)" style="animation:moveUpDown 3.1s linear -0.5s infinite both"/> <path d="m352.3 91.936c4.2177 0.09755 8.4308 0.52902 12.609 1.2907-0.19227 3.0925-0.84187 6.2629-2.4108 8.5779-1.5708 2.3159-4.2233 3.5437-6.3831 2.3037-2.6805-1.5392-3.5663-5.8737-4.1291-9.6519-0.096133-0.6519-0.1932-1.3038-0.28933-1.9548" fill="#F1CC14" mask="url(#home-d)" style="animation:moveLeftRight 2.1s linear -0.6s infinite both"/> <path d="m84.81 57.775c4.1347-0.84043 8.3197-1.4314 12.524-1.77 0.32013 2.3478 0.2072 4.8513-0.9464 6.9176-1.1527 2.0673-3.5411 3.5559-5.8539 3.1-2.8709-0.56654-4.4473-3.6066-5.6168-6.3023-0.2016-0.4643-0.4032-0.9286-0.6048-1.3929" fill="#D6D1C3" mask="url(#home-d)" style="animation:moveUpDown 4.3s linear -1.4s infinite both"/> <path d="m168.51 56.358c4.1347-0.84043 8.3197-1.4323 12.524-1.7709 0.32013 2.3487 0.2072 4.8522-0.94547 6.9176-1.1536 2.0673-3.5411 3.5559-5.8548 3.1-2.87-0.56654-4.4473-3.6066-5.6168-6.3014-0.20067-0.46524-0.40227-0.92954-0.60387-1.3938" fill="#D6D1C3" mask="url(#home-d)" style="animation:moveUpDown 4.4s linear -1.5s infinite both"/> <path d="m178.99 81.617c4.1711-0.63126 8.3804-1.0111 12.596-1.1368 0.20347 2.3609-0.034533 4.8559-1.2889 6.8614-1.2544 2.0054-3.7137 3.373-6.0013 2.8008-2.8383-0.71005-4.2625-3.826-5.2957-6.5762l-0.5348-1.4229" fill="#D9E145" mask="url(#home-d)" style="animation:moveLeftRight 4.2s linear -0.5s infinite both"/> <path d="m19.864 87.799c4.1711-0.63126 8.3804-1.0111 12.596-1.1368 0.20347 2.36-0.034533 4.855-1.2889 6.8623-1.2544 2.0045-3.7137 3.3711-6.0013 2.7999-2.8392-0.71005-4.2616-3.8251-5.2957-6.5762-0.17827-0.47462-0.35653-0.94924-0.5348-1.422" fill="#D6D1C3" mask="url(#home-d)" style="animation:moveLeftRight 4.5s linear -1.6s infinite both"/> <path d="m110.23 78.231c4.1711-0.63033 8.3804-1.0102 12.596-1.1359 0.20347 2.3609-0.034534 4.855-1.2889 6.8614-1.2544 2.0054-3.7137 3.3721-6.0013 2.8008-2.8383-0.71005-4.2625-3.8251-5.2957-6.5762l-0.5348-1.4229" fill="#D6D1C3" mask="url(#home-d)" style="animation:moveUpDown 4.1s linear -0.5s infinite both"/> <path d="m274.9 93.535c4.172-0.63126 8.3804-1.0111 12.597-1.1368 0.20253 2.36-0.035467 4.855-1.2899 6.8614-1.2544 2.0054-3.7137 3.3721-6.0013 2.7999-2.8383-0.70912-4.2616-3.8251-5.2948-6.5753-0.17827-0.47462-0.35747-0.95018-0.53573-1.4229" fill="#D6D1C3" mask="url(#home-d)" style="animation:moveUpDown 4.3s linear -1.4s infinite both"/> <path d="m316.78 100.8c4.1711-0.63126 8.3804-1.0102 12.596-1.1368 0.20253 2.3618-0.035466 4.8559-1.2899 6.8623-1.2535 2.0054-3.7128 3.3721-6.0004 2.8008-2.8392-0.71099-4.2625-3.8251-5.2957-6.5771-0.17827-0.47368-0.35653-0.9483-0.5348-1.422" fill="#D6D1C3" mask="url(#home-d)" style="animation:moveUpDown 2.5s linear -1.5s infinite both"/> <path d="m56.314 37.789c4.2177-0.096612 8.4457 0.14726 12.656 0.72975-0.045733 3.1732-0.5432 6.4468-2.002 8.8893-1.4588 2.4416-4.0488 3.8213-6.2664 2.6545-2.7515-1.4492-3.8407-5.8427-4.5817-9.6809-0.12787-0.66128-0.2548-1.3235-0.3836-1.9867" fill="#D6D1C3" mask="url(#home-d)" style="animation:moveLeftRight 2.4s linear -0.4s infinite both"/> <path d="m227.71 90.342c4.2177-0.096612 8.4467 0.14726 12.656 0.72975-0.0448 3.1732-0.54227 6.4458-2.002 8.8883-1.4588 2.4425-4.0488 3.8223-6.2655 2.6545-2.7515-1.4482-3.8416-5.8427-4.5827-9.68-0.12787-0.66222-0.2548-1.3244-0.38267-1.9867" fill="#D6D1C3" mask="url(#home-d)" style="animation:moveUpDown 3.1s linear -0.5s infinite both"/> <path d="m140.89 85.348c4.2177-0.09755 8.4467 0.14726 12.656 0.72975-0.045733 3.1732-0.54227 6.4458-2.0011 8.8883-1.4588 2.4425-4.0497 3.8223-6.2664 2.6545-2.7515-1.4482-3.8425-5.8427-4.5817-9.68-0.12787-0.66316-0.25573-1.3244-0.3836-1.9867" fill="#D6D1C3" mask="url(#home-d)" style="animation:moveUpDown 3.1s linear -1.6s infinite both"/> <path d="m295.83 61.067c4.2177-0.09755 8.4467 0.14726 12.656 0.72975-0.0448 3.1723-0.5432 6.4458-2.002 8.8883-1.4579 2.4416-4.0488 3.8213-6.2664 2.6545-2.7505-1.4492-3.8407-5.8427-4.5817-9.6809-0.12693-0.66222-0.2548-1.3235-0.38267-1.9857" fill="#D9E145" mask="url(#home-d)" style="animation:moveLeftRight 4.3s linear -1.5s infinite both"/> <path d="m82.951 15.1c4.2177-0.10036 8.4457 0.12663 12.654 0.68004-0.051333 3.0503-0.5544 6.1963-2.0169 8.5479-1.4635 2.3506-4.0563 3.6816-6.2701 2.5626-2.7487-1.3873-3.8313-5.6082-4.5649-9.2982-0.12693-0.63595-0.25293-1.2719-0.37987-1.9088" fill="#D6D1C3" mask="url(#home-d)" style="animation:moveLeftRight 2.3s linear -0.5s infinite both"/> <path d="m329.97 67.711c4.2177-0.10036 8.4457 0.12663 12.654 0.6791-0.051333 3.0503-0.5544 6.1973-2.0179 8.5488-1.4625 2.3506-4.0544 3.6816-6.2692 2.5616-2.7496-1.3863-3.8323-5.6082-4.5649-9.2973l-0.37987-1.9097" fill="#D6D1C3" mask="url(#home-d)" style="animation:moveUpDown 3.3s linear -0.4s infinite both"/> <path d="m151.27 14.372c4.2177-0.099426 8.4457 0.12757 12.654 0.68004-0.051334 3.0503-0.5544 6.1973-2.0179 8.5488-1.4616 2.3506-4.0544 3.6816-6.2701 2.5616-2.7477-1.3863-3.8304-5.6082-4.564-9.2973-0.12693-0.63689-0.25293-1.2719-0.37987-1.9097" fill="#D6D1C3" mask="url(#home-d)" style="animation:moveLeftRight 3.1s linear -0.6s infinite both"/> <path d="m297.03 44.698c0.42373-2.1208-0.16333-4.4217-1.5503-6.0763-0.2492-0.29734-0.546-0.58812-0.924-0.67066-1.0668-0.23168-1.6781 1.1837-1.7752 2.2765-0.20813 2.3393-0.060666 4.7087 0.43587 7.0011 0.15493 0.71756 0.35933 1.4558 0.8484 1.9979 0.49 0.54403 1.344 0.82261 1.9693 0.44648 0.58707-1.6959 1.1219-3.1854 0.99587-4.9751" fill="#D9E145" mask="url(#home-d)" style="animation:moveLeftRight 2.1s linear -0.4s infinite both"/> <path d="m36.11 46.656c0.42373-2.1217-0.16333-4.4226-1.5493-6.0772-0.25013-0.29828-0.546-0.58812-0.92493-0.66972-1.0668-0.23356-1.6772 1.1837-1.7752 2.2756-0.2072 2.3384-0.060667 4.7077 0.4368 7.0021 0.15493 0.71568 0.3584 1.4548 0.8484 1.9979 0.48907 0.54403 1.3431 0.82167 1.9684 0.4446 0.58707-1.694 1.1228-3.1845 0.99587-4.9732" fill="#D9E145" mask="url(#home-d)" style="animation:moveLeftRight 4.4s linear -1.4s infinite both"/> <path d="m22.381 55.226c0.42373-2.1198-0.16427-4.4217-1.5503-6.0763-0.2492-0.29734-0.546-0.58812-0.92493-0.67066-1.0659-0.23168-1.6772 1.1837-1.7743 2.2765-0.20813 2.3393-0.060667 4.7077 0.43587 7.0021 0.15493 0.71662 0.35933 1.4548 0.8484 1.9979 0.49 0.54309 1.344 0.82074 1.9693 0.4446 0.58707-1.694 1.1219-3.1845 0.99587-4.9741" fill="#D9E145" mask="url(#home-d)" style="animation:moveUpDown 4.4s linear -0.4s infinite both"/> <path d="m316.56 42.579c-0.58613-0.15664-1.2479 0.00469-1.6987 0.41084-0.6076 0.54684-0.78493 1.4229-0.84187 2.239-0.080267 1.1631-0.0924 3.1338 0.756 4.0652 0.64493 0.7063 2.0001 0.64158 2.52-0.19979 0.64493-1.044 0.48253-6.1916-0.73547-6.5152" fill="#D9E145" mask="url(#home-d)" style="animation:moveUpDown 3.5s linear -0.4s infinite both"/> <path d="m270.11 105.83c-0.58707-0.15571-1.2479 0.00469-1.7005 0.41178-0.60573 0.54591-0.784 1.4229-0.84 2.239-0.0812 1.1631-0.093333 3.1338 0.756 4.0643 0.644 0.7063 2.0001 0.64252 2.52-0.19979 0.64493-1.043 0.4816-6.1916-0.73547-6.5152" fill="#D9E145" mask="url(#home-d)" style="animation:moveUpDown 4.5s linear -1.6s infinite both"/> <path d="m25.813 36.868c-0.58707-0.15477-1.2479 0.00469-1.6996 0.41178-0.60667 0.54684-0.784 1.4229-0.84093 2.239-0.0812 1.1631-0.093333 3.1338 0.756 4.0643 0.644 0.7063 2.0001 0.64346 2.52-0.19979 0.644-1.043 0.4816-6.1907-0.73547-6.5152" fill="#D9E145" mask="url(#home-d)" style="animation:moveUpDown 4.3s linear -0.5s infinite both"/> <path d="m305.32 36.061c-0.5488 0.033767-0.9464 0.53184-1.2171 1.0121-0.7952 1.4089-1.1293 3.0672-0.98653 4.6759 0.10547 1.1903 0.50493 3.5531 2.016 3.675 1.0575 0.086295 2.4127-1.1059 2.8056-2.0448 0.41347-0.99333 0.126-2.1602-0.079334-3.1657-0.23333-1.1481-0.90253-4.2547-2.5387-4.1525" fill="#D9E145" mask="url(#home-d)" style="animation:moveLeftRight 3.4s linear -0.6s infinite both"/> <path d="m265.87 98.933c0.15867 0.31798 0.41813 0.66316 0.77093 0.64064 0.22027-0.015008 0.4032-0.17447 0.546-0.3433 0.78867-0.93423 0.76067-4.0746-0.28467-4.9901-2.1513-1.8844-1.4933 3.7688-1.0323 4.6927" fill="#D9E145" mask="url(#home-d)" style="animation:moveUpDown 3.3s linear -0.4s infinite both"/> <path d="m85.512 98.274c0.42373-2.1208-0.16333-4.4226-1.5493-6.0772-0.25013-0.29734-0.546-0.58718-0.92493-0.67066-1.0659-0.23168-1.6772 1.1847-1.7743 2.2765-0.20813 2.3393-0.0616 4.7087 0.43587 7.003 0.15493 0.71568 0.35933 1.4539 0.8484 1.9979 0.48907 0.54216 1.3431 0.82074 1.9684 0.4446 0.58707-1.694 1.1228-3.1854 0.99587-4.9741" fill="#D9E145" mask="url(#home-d)" style="animation:moveLeftRight 2.5s linear -0.6s infinite both"/> <path d="m93.809 89.636c-0.5488 0.033768-0.9464 0.53184-1.2171 1.013-0.79427 1.4089-1.1293 3.0663-0.98653 4.6749 0.10547 1.1903 0.50587 3.554 2.016 3.676 1.0575 0.085356 2.4136-1.1049 2.8056-2.0457 0.4144-0.99145 0.126-2.1602-0.0784-3.1657-0.23427-1.1472-0.90253-4.2547-2.5396-4.1525" fill="#D9E145" mask="url(#home-d)" style="animation:moveUpDown 2.1s linear -1.4s infinite both"/> <path d="m90.238 84.949c0.15867 0.31798 0.41813 0.66316 0.77187 0.64064 0.21933-0.015008 0.40227-0.17447 0.54507-0.34424 0.7896-0.93423 0.76067-4.0737-0.28467-4.9891-2.1504-1.8853-1.4924 3.7688-1.0323 4.6927" fill="#D9E145" mask="url(#home-d)" style="animation:moveLeftRight 2.3s linear -1.4s infinite both"/> <path d="m180.05 37.9c0.42373-2.1198-0.16333-4.4217-1.5503-6.0763-0.2492-0.29734-0.546-0.58718-0.924-0.67066-1.0668-0.23168-1.6781 1.1847-1.7752 2.2765-0.20813 2.3393-0.060667 4.7087 0.43587 7.0021 0.15493 0.71662 0.35933 1.4548 0.8484 1.9979 0.49 0.54309 1.344 0.82167 1.9693 0.44554 0.58707-1.6949 1.1219-3.1854 0.99587-4.9751" fill="#D9E145" mask="url(#home-d)" style="animation:moveUpDown 4.1s linear -1.5s infinite both"/> <path d="m261.62 105.3c0.42373-2.1208-0.16333-4.4217-1.5493-6.0763-0.25013-0.29734-0.54693-0.58812-0.92493-0.67066-1.0668-0.23168-1.6772 1.1847-1.7752 2.2765-0.2072 2.3393-0.060666 4.7087 0.4368 7.0011 0.154 0.71756 0.3584 1.4558 0.84747 1.9988 0.49 0.54309 1.344 0.82168 1.9693 0.44554 0.58707-1.6959 1.1219-3.1854 0.99587-4.9751" fill="#D9E145" mask="url(#home-d)" style="animation:moveLeftRight 4.4s linear -0.6s infinite both"/> <path d="m185.88 24.922c-0.5488 0.033767-0.9464 0.53184-1.2171 1.014-0.79427 1.4079-1.1293 3.0653-0.98653 4.674 0.10547 1.1912 0.50493 3.554 2.016 3.676 1.0575 0.085357 2.4127-1.1049 2.8056-2.0457 0.41347-0.99145 0.126-2.1602-0.079333-3.1657-0.23333-1.1472-0.9016-4.2547-2.5387-4.1525" fill="#D9E145" mask="url(#home-d)" style="animation:moveUpDown 2.2s linear -1.5s infinite both"/> <path d="m191.59 43.657c0.15867 0.31891 0.41813 0.66409 0.77187 0.64158 0.22027-0.015946 0.40227-0.1754 0.54507-0.34424 0.7896-0.93423 0.76067-4.0737-0.28467-4.9901-2.1504-1.8844-1.4933 3.7698-1.0323 4.6927" fill="#D9E145" mask="url(#home-d)" style="animation:moveLeftRight 3.2s linear -1.5s infinite both"/> </g> </g> </g> <g mask="url(#c)"> <g transform="translate(611 855)"> <path d="m.75 103.94c1.32-22.86 6.56-45.56 15.51-67.16 3.69-8.91 8.12-17.8 15.42-24.93 15.5-15.12 40.8-15.97 57.16-1.31 7.86 7.04 12.8 16.04 16.78 25.12 8.39 19.11 13.14 39.38 14.01 59.76" fill="#f89c22"/> <path d="m104.79 50.74c-2.27-8.68-7.71-18.81-14.83-27.01-3.56-4.09-7.55-7.7-11.83-10.36-4.27-2.65-8.85-4.37-13.56-4.55-.45-.02-.9-.03-1.35-.03-5.74-.01-11.01 1.41-15.74 3.83-7.11 3.62-13.02 9.42-17.93 16.02-4.9 6.6-8.81 14.01-11.83 20.95-1.47 3.39-2.33 6.9-3.06 10.36-.72 3.47-1.32 6.89-2.22 10.13l3.6 1c.96-3.48 1.57-6.98 2.28-10.36s1.52-6.63 2.83-9.64c3.91-9 9.35-18.76 16.36-26.15 3.5-3.71 7.39-6.81 11.66-8.99 4.27-2.17 8.92-3.42 14.05-3.41.4 0 .8 0 1.2.02 3.88.15 7.87 1.59 11.74 4 5.81 3.6 11.32 9.37 15.73 15.76s7.73 13.4 9.28 19.37z" fill="#e6ddd2"/> <path d="m27.88 66.29c1.1-3.92 1.49-6.44 2.04-8.81.55-2.36 1.25-4.6 3.01-8.16 1.92-3.89 4.11-8.15 6.68-12.03 2.58-3.89 5.53-7.38 8.96-9.76 4.46-3.1 9.96-5 15.3-4.99 2.93.01 5.8.58 8.45 1.81 4.27 1.99 8.01 5.9 11.04 10.51s5.34 9.9 6.81 14.56c.51 1.61 1.04 2.74 1.54 3.8.5 1.07.98 2.07 1.48 3.57l1.77-.58c-.53-1.61-1.06-2.73-1.56-3.79s-.97-2.06-1.45-3.57c-1.52-4.8-3.88-10.23-7.03-15.02-3.15-4.78-7.07-8.95-11.81-11.17-2.92-1.36-6.07-1.98-9.24-1.99-5.78 0-11.61 2.02-16.37 5.33-3.71 2.58-6.79 6.26-9.44 10.26s-4.87 8.33-6.8 12.23c-1.82 3.66-2.59 6.11-3.16 8.57s-.94 4.9-2.02 8.73z" fill="#e6ddd2"/> <path d="m40.75 64.58v-.06c.01-1.7-.16-2.9-.32-3.8-.07-.45-.15-.82-.2-1.13s-.07-.56-.07-.79c0-.34.04-.69.22-1.24.18-.54.49-1.28 1.01-2.28 1.6-3.08 3.3-6.59 5.3-9.78 1.99-3.19 4.28-6.04 6.93-7.84 3.64-2.49 7.13-3.53 10.38-3.53 3.72.01 7.18 1.39 10.19 3.8 3.02 2.41 5.55 5.86 7.31 9.91.97 2.22 1.8 3.9 2.52 5.54.73 1.65 1.35 3.27 1.93 5.5l2.71-.71c-.62-2.38-1.31-4.19-2.07-5.92s-1.58-3.38-2.52-5.52c-1.92-4.42-4.7-8.24-8.12-10.99-3.42-2.74-7.52-4.41-11.94-4.41-3.87-.01-7.94 1.26-11.97 4.01-3.15 2.16-5.62 5.32-7.73 8.67-2.1 3.37-3.83 6.95-5.41 9.99-.56 1.07-.93 1.93-1.18 2.7-.25.76-.37 1.45-.37 2.09 0 .45.05.86.12 1.24.18 1.16.48 2.19.48 4.49v.05z" fill="#f1cc14"/> <path d="m55.09 64.11c.12-1.41.31-2.43.53-3.28.32-1.26.73-2.18 1.23-3.47.49-1.29 1-2.89 1.38-5.23.22-1.38.64-2.74 1.26-3.93.61-1.19 1.41-2.21 2.4-2.98 1.1-.85 2.58-1.36 3.95-1.35.99 0 1.91.25 2.66.75.78.52 1.46 1.35 2.19 2.41.74 1.04 1.49 2.28 2.58 3.44.3.32.46.64.59 1.1.19.69.21 1.7.22 2.89.02 1.19.05 2.58.57 4.05l3.51-1.27c-.18-.5-.27-1.09-.31-1.76-.07-1.02 0-2.21-.14-3.52-.07-.66-.2-1.35-.47-2.04-.26-.7-.67-1.4-1.25-2.01-.75-.78-1.43-1.86-2.23-3.02-.81-1.15-1.75-2.41-3.19-3.37-1.44-.97-3.1-1.39-4.73-1.39-2.24 0-4.45.77-6.23 2.14-1.5 1.15-2.63 2.63-3.45 4.22-.82 1.6-1.34 3.33-1.62 5.04-.46 2.81-1.02 4.08-1.64 5.66-.31.79-.63 1.65-.9 2.71-.28 1.07-.49 2.31-.63 3.89z" fill="#e6ddd2"/> </g> </g> <path d="m167.6 907.81s6.9-85.88 39.65-84.97 26.22 21.72 45.64 19.84c14.04-1.36 14.93-28.36 33.77-30.4 40.76-4.4 12.72 89.31 39.76 86.39 27.05-2.93-158.82 9.14-158.82 9.14" fill="#df4e38" mask="url(#c)"/> <path d="m278.96 898.41c1.6-1.03 2.63-2.48 2.29-4.34-.82-4.39-30.09-18.9-35.4-20.96-41.96-16.27-29.99-59.29-58.73-77.32-25.17-15.78-50.75-3.17-75.91 11.93-7.74 4.64-38.3 23.43-37.31 34.11.92 9.99 20.88 12.91 28.73 15.75 23.72 8.6 47.35 17.45 71.03 26.17 33.87 12.47 62.96 21.1 99.68 16.56 1.88-.24 4.03-.87 5.62-1.9" fill="#44499c" mask="url(#c)"/> <path d="m149.49 856.42c-49.98-21.03-83.79-37.58-111.65-57.38l.14 31.67c19.96 11.59 26.67 32.36 43.64 47.57 22.35 20.03 57.45 11.55 85.31 10.45 20.92-.83 43.9 4.63 58.92 18.62 9.25 8.62 10.96 20.96 27.11 19.19 8.83-.96 17.16-5.28 25.44-9.03 37.67-17.06 96.73-8.3 96.6-8.29-.94.05-25.22-4.15-69.69-12.02-40.65-7.19-98.96-16.86-155.82-40.78" fill="#f89c22" stroke="#f89c22" stroke-width=".9"/> <g fill="#efeae3"> <g transform="translate(85 822)"> <path d="m30.22 21.71c0 2.41-1.95 4.35-4.36 4.35-2.4 0-4.35-1.95-4.34-4.36 0-2.4 1.95-4.35 4.35-4.35 2.41.01 4.36 1.96 4.35 4.36" style="transform: translate(10px, 20px); animation: man-backInPlace 3.5s linear -1.5s infinite both, fadeOut 3.5s linear -1.5s infinite both"/> <path d="m90.32 5.67c0 3.09-2.51 5.6-5.6 5.59-3.09 0-5.6-2.51-5.59-5.6 0-3.09 2.51-5.6 5.6-5.6 3.09.01 5.6 2.52 5.59 5.61" style="transform:translate(-15px, 30px);animation: man-backInPlace 3.6s linear -1.4s infinite both, fadeOut 3.6s linear -1.4s infinite both"/> <path d="m100.45 15.09c-.01 2.41-1.96 4.35-4.36 4.35-2.41 0-4.35-1.95-4.35-4.36 0-2.4 1.95-4.35 4.36-4.35 2.4.01 4.35 1.96 4.35 4.36" style="transform:translate(-10px, 25px);animation: man-backInPlace 3.5s linear -0.4s infinite both, fadeOut 3.5s linear -0.4s infinite both"/> <path d="m43.3 87.86c.01-2.4 1.96-4.35 4.36-4.35 2.41.01 4.35 1.96 4.35 4.36 0 2.41-1.95 4.36-4.36 4.35-2.4 0-4.35-1.95-4.35-4.36" style="transform:translate(20px, -25px);animation: man-backInPlace 5.5s linear -0.4s infinite both, fadeOut 5.5s linear -0.4s infinite both"/> <path d="m53.43 97.28c0-3.09 2.51-5.59 5.6-5.59 3.09.01 5.6 2.51 5.6 5.61-.01 3.09-2.52 5.59-5.61 5.59s-5.6-2.51-5.59-5.61" style="transform:translate(10px, -35px);animation: man-backInPlace 5.5s linear -0.4s infinite both, fadeOut 5.5s linear -0.4s infinite both"/> </g> <g transform="translate(85 822)"> <path d="m109.05 55.99c.01-5.06 4.12-9.15 9.17-9.15 5.06.01 9.16 4.11 9.15 9.17 0 5.06-4.11 9.15-9.17 9.15-5.05-.01-9.15-4.11-9.15-9.17" style="transform-origin: 118px 56px 0; animation: man-scaleUp 2.6s linear -1.4s infinite both"/> <path d="m56.22 70.54c0-5.06 4.1-9.16 9.16-9.15 5.06 0 9.16 4.11 9.15 9.17 0 5.06-4.11 9.15-9.17 9.15-5.06-.01-9.15-4.11-9.14-9.17" style="transform-origin: 65px 71px 0; animation: man-scaleUp 2.5s linear -0.5s infinite both"/> <path d="m25.72 68.79c.01-5.06 4.11-9.16 9.17-9.15 5.06 0 9.16 4.11 9.15 9.17 0 5.05-4.11 9.15-9.17 9.14-5.06 0-9.15-4.11-9.15-9.16" style="transform-origin: 35px 69px 0; animation: man-scaleUp 1.5s linear -1.4s infinite both"/> <path d="m68.68 64.97c0-5.06 4.11-9.16 9.16-9.15 5.06 0 9.16 4.11 9.15 9.17 0 5.05-4.11 9.15-9.17 9.15-5.05-.01-9.15-4.12-9.14-9.17" style="transform-origin: 78px 65px 0; animation:man-scaleUp 2.6s linear -0.5s infinite both"/> <path d="m94.8 55.98c0-5.06 4.11-9.16 9.16-9.15 5.06 0 9.16 4.11 9.15 9.17 0 5.05-4.11 9.15-9.17 9.14-5.05 0-9.15-4.11-9.14-9.16" style="transform-origin: 104px 56px 0; man-scaleUp 1.5s linear -0.4s infinite both"/> <path d="m20.22 55.9c0-5.06 20.8-9.14 46.46-9.11 25.65.02 46.44 4.15 46.43 9.21 0 5.05-20.8 9.13-46.45 9.1-25.66-.02-46.45-4.15-46.44-9.2" style="transform-origin: 67px 56px 0; animation: man-scaleUp 1.6s linear -0.4s infinite both"/> <path d="m85.77 64.13c0-5.06 4.11-9.16 9.17-9.15 5.05 0 9.15 4.11 9.14 9.17 0 5.05-4.11 9.15-9.16 9.15-5.06-.01-9.16-4.12-9.15-9.17" style="transform-origin: 95px 64px 0; animation: man-scaleUp 2.5s linear -1.5s infinite both"/> <path d="m80.61 72.28c0-5.06 4.11-9.15 9.16-9.15 5.06.01 9.16 4.11 9.15 9.17 0 5.06-4.11 9.16-9.17 9.15-5.05-.01-9.15-4.11-9.14-9.17" style="transform-origin: 89.7639px 72.2915px 0px; animation: man-scaleUp 2.5s linear -1.4s infinite both"/> <path d="m8.99 55.88c.01-5.05 4.11-9.15 9.17-9.15 5.06.01 9.15 4.11 9.15 9.17-.01 5.06-4.11 9.16-9.17 9.15-5.06 0-9.16-4.11-9.15-9.17" style="transform-origin: 18.1477px 55.8931px 0; animation: man-scaleUp 1.5s linear -1.5s infinite both"/> <path d="m118.03 34.17c-.01 5.06-4.11 9.15-9.17 9.15-5.06-.01-9.16-4.11-9.15-9.17 0-5.06 4.11-9.15 9.17-9.15 5.06.01 9.15 4.11 9.15 9.17" style="transform-origin: 108.867px 34.159px 0; animation: man-scaleUp 1.5s linear -1.5s infinite both"/> <path d="m75.07 37.99c0 5.06-4.11 9.15-9.16 9.15-5.06-.01-9.16-4.11-9.15-9.17 0-5.06 4.11-9.16 9.17-9.15 5.05 0 9.15 4.11 9.14 9.17" style="transform-origin: 65.9165px 37.9778px 0px; animation: man-scaleUp 2.5s linear -0.3s infinite both"/> <path d="m48.95 46.98c0 5.06-4.11 9.15-9.16 9.15-5.06-.01-9.16-4.11-9.15-9.17 0-5.06 4.11-9.16 9.17-9.15 5.05.01 9.15 4.11 9.14 9.17" style="transform-origin: 39.7967px 46.9685px 0px; animation: man-scaleUp 2.6s linear -1.5s infinite both"/> <path d="m123.53 47.06c0 5.06-20.8 9.14-46.45 9.11-25.66-.03-46.45-4.15-46.44-9.21 0-5.06 20.8-9.14 46.45-9.11 25.66.03 46.45 4.15 46.44 9.21" style="transform-origin: 77.0856px 47.0087px 0px; animation: man-scaleUp 1.6s linear -1.5s infinite both"/> <path d="m57.98 38.83c0 5.06-4.11 9.15-9.17 9.15-5.05-.01-9.15-4.11-9.14-9.17 0-5.06 4.11-9.15 9.16-9.15 5.06.01 9.16 4.11 9.15 9.17" style="transform-origin: 48.8243px 38.8184px 0px; animation: man-scaleUp 2.5s linear -0.5s infinite both"/> <path d="m63.14 30.67c0 5.06-4.11 9.16-9.16 9.15-5.06 0-9.16-4.11-9.15-9.17 0-5.05 4.11-9.15 9.17-9.15 5.05.01 9.15 4.12 9.14 9.17" style="transform-origin: 53.986px 30.6637px 0px; animation: man-scaleUp 1.6s linear -1.5s infinite both"/> <path d="m.22 53.42c0-3.09 2.51-5.6 5.61-5.59 3.09 0 5.59 2.51 5.59 5.6s-2.51 5.6-5.61 5.6c-3.09-.01-5.59-2.52-5.59-5.61" style="transform-origin: 5.81952px 53.4273px 0px; animation: man-scaleUp 2.5s linear -0.3s infinite both"/> <path d="m47.67 67.24c0-3.09 2.51-5.6 5.6-5.59 3.09 0 5.6 2.51 5.59 5.6 0 3.09-2.51 5.6-5.6 5.59-3.09 0-5.6-2.51-5.59-5.6" style="transform-origin: 53.264px 67.2445px 0; animation: man-scaleUp 1.5s linear -0.4s infinite both"/> <path d="m20.18 64.2c.01-3.09 2.52-5.59 5.61-5.59s5.59 2.51 5.59 5.6c0 3.1-2.51 5.6-5.6 5.6-3.1-.01-5.6-2.52-5.6-5.61" style="transform-origin: 25.7817px 64.2084px 0px; animation: man-scaleUp 2.5s linear -0.5s infinite both"/> <path d="m71.06 76.69c0-3.09 2.51-5.6 5.6-5.59 3.09 0 5.6 2.51 5.59 5.6 0 3.09-2.51 5.6-5.6 5.59-3.09 0-5.6-2.51-5.59-5.6" style="transform-origin: 76.6562px 76.6957px 0px; animation: man-scaleUp 1.5s linear -0.4s infinite both"/> <path d="m101.99 64.7c.01-3.09 2.51-5.6 5.61-5.59 3.09 0 5.59 2.51 5.59 5.6s-2.51 5.6-5.6 5.59c-3.1 0-5.6-2.51-5.6-5.6" style="transform-origin:107.591px 64.7035px 0px ; animation: man-scaleUp 1.5s linear -0.5s infinite both"/> <path d="m38 65.92c0-3.1 2.51-5.6 5.61-5.6 3.09.01 5.59 2.52 5.59 5.61-.01 3.09-2.51 5.6-5.61 5.59-3.09 0-5.59-2.51-5.59-5.6" style="transform-origin: 43.599px 65.9233px 0px; animation: man-scaleUp 1.5s linear -1.5s infinite both"/> <path d="m97.01 72.03c0-2.4 1.95-4.35 4.35-4.35 2.41.01 4.36 1.96 4.35 4.36 0 2.41-1.95 4.35-4.36 4.35-2.4 0-4.35-1.95-4.34-4.36" style="transform-origin: 101.359px 72.0363px 0px; animation: man-scaleUp 1.6s linear -0.4s infinite both"/> <path d="m78.1 81.46c0-2.4 1.95-4.35 4.36-4.35 2.4 0 4.35 1.95 4.35 4.36-.01 2.4-1.96 4.35-4.36 4.35-2.41 0-4.35-1.96-4.35-4.36" style="transform-origin: 82.4523px 81.4646px 0px; animation: man-scaleUp 2.5s linear -1.5s infinite both"/> <path d="m17.27 49.4c-.01 3.09-2.52 5.59-5.61 5.59s-5.59-2.51-5.59-5.61c0-3.09 2.51-5.59 5.6-5.59 3.09.01 5.6 2.51 5.6 5.61" style="transform-origin: 11.6672px 49.3914px 0px; animation: man-scaleUp 1.6s linear -0.4s infinite both"/> <path d="m96.08 35.72c0 3.09-2.51 5.59-5.6 5.59s-5.6-2.51-5.59-5.61c0-3.09 2.51-5.59 5.6-5.59 3.09.01 5.6 2.51 5.59 5.61" style="transform-origin: 90.4854px 35.7102px 0px; animation: man-scaleUp 1.6s linear -1.5s infinite both"/> <path d="m123.57 38.75c-.01 3.09-2.52 5.6-5.61 5.59-3.09 0-5.59-2.51-5.59-5.6s2.51-5.6 5.61-5.59c3.09 0 5.59 2.51 5.59 5.6" style="transform-origin: 117.968px 38.7464px 0px; animation: man-scaleUp 1.5s linear -0.4s infinite both"/> <path d="m72.69 26.27c0 3.09-2.51 5.59-5.6 5.59s-5.6-2.51-5.59-5.61c0-3.09 2.51-5.59 5.6-5.59s5.6 2.51 5.59 5.61" style="transform-origin: 67.0938px 26.259px 0px; animation: man-scaleUp 1.5s linear -0.3s infinite both"/> <path d="m41.76 38.26c-.01 3.09-2.51 5.59-5.61 5.59-3.09 0-5.59-2.51-5.59-5.6 0-3.1 2.51-5.6 5.61-5.6 3.09.01 5.59 2.51 5.59 5.61" style="transform-origin: 36.1586px 38.2517px 0; animation: man-scaleUp 1.5s linear -1.3s infinite both"/> <path d="m105.75 37.04c0 3.09-2.51 5.59-5.61 5.59-3.09 0-5.59-2.51-5.59-5.6.01-3.1 2.51-5.6 5.61-5.6 3.09.01 5.59 2.52 5.59 5.61" style="transform-origin: 100.151px 37.0323px 0; animation: man-scaleUp 1.5s linear -1.3s infinite both"/> <path d="m46.74 30.92c0 2.41-1.95 4.35-4.35 4.35-2.41 0-4.36-1.95-4.35-4.36 0-2.4 1.95-4.35 4.36-4.35 2.4.01 4.35 1.96 4.34 4.36" style="transform-origin: 42.391px 30.918px 0; animation: man-scaleUp 2.5s linear -1.3s infinite both"/> <path d="m65.65 21.5c0 2.4-1.95 4.35-4.36 4.34-2.4 0-4.35-1.95-4.35-4.36.01-2.4 1.96-4.35 4.36-4.34 2.41 0 4.35 1.95 4.35 4.36" style="transform-origin: 61.2976px 21.4905px 0; animation: man-scaleUp 2.6s linear -1.4s infinite both"/> <path d="m34.69 46.96c0 5.06-4.11 9.16-9.16 9.15-5.06 0-9.16-4.11-9.15-9.17 0-5.06 4.11-9.15 9.17-9.15 5.05.01 9.15 4.12 9.14 9.17" style="transform-origin: 25.5367px 46.953px 0; animation: man-scaleUp 2.6s linear -1.3s infinite both"/> <path d="m87.53 32.42c0 5.06-4.1 9.15-9.16 9.15-5.06-.01-9.16-4.11-9.15-9.17 0-5.06 4.11-9.15 9.17-9.15 5.06.01 9.15 4.11 9.14 9.17" style="transform-origin: 78.3767px 32.4084px 0; animation: man-scaleUp 1.6s linear -0.3s infinite both"/> </g> </g> <g transform="translate(107 642)"> <g transform-origin="55.323px 72.5937px 0px" style="animation: arm-rotation 1s cubic-bezier(0.4, 0, 0.2, 1) infinite both"> <path d="m36.84 9.07c9.6 9.21 14.55 24.28 23.81 30.14-3.83 3.02-6.75 7-8.35 10.31-1.27.72-7.42 3.84-10.59 8.59s4.12 14.48 4.12 14.48h5.28s22.81-31.26 22.28-33.39c-.52-2.12-33.69-35.78-33.69-35.78-2.83-.99-8.33-2.51-11.36-2.52-3.03 0-9.28 2.27-9.09 3.59.19 1.33 1.63.65 2.46.2 1.08-.6 2.46-.95 3.98-.95 1.51 0-1.71 2.08-1.9 4.74-.19 2.65 1.68 4.4 2.46 3.79.78-.62-.8-2.48-.68-3.67.13-1.2 1.41-2.31 2.2-2.01.79.29-.19.75-.19 2.46 0 1.7.94 3.79 2.08 3.79 1.13 0-.64-3.01-.38-3.79.27-.78 2.65-2.73 3.41-2.65.77.09 1.06-.29 1.63 1.41.57 1.71 2.52 1.26 2.52 1.26" fill="#e3be8f"/> <g fill="#1f1646" transform="translate(40 10)"> <path d="m14.06 10.08c-.03-.03-2.94-2.79-4.94-3.39-.03-.01-2.86-.81-4.6-1.89-1.76-1.1-3.55-3.99-3.62-4.12l.24-.14c.02.03 1.82 2.96 3.52 4.02 1.72 1.06 4.51 1.85 4.54 1.86 2.06.62 4.93 3.34 5.05 3.46z"/> <path d="m2.47 2.82s-.66 1.01-.36 2.09c.3 1.07 1.98 2.46 1.98 2.46s-.37-1.31-.65-2.19c-.28-.87-.97-2.36-.97-2.36"/> <path d="m2.47 2.82s1.81.69 3.16.71c1.35.03 2.49-.13 2.49-.13s-2.27-.79-3.42-.83c-1.16-.04-2.23.25-2.23.25"/> <path d="m5.13 5.01s-.22.55.12 1.3c.33.75 1.07.15-.12-1.3"/> <path d="m5.34 4.95s.28-.52 1.01-.63c.74-.11.72.91-1.01.63"/> <path d="m6.29 5.58s-.2.57.17 1.3 1.08.1-.17-1.3"/> <path d="m6.29 5.5s.25-.53.98-.68c.73-.14.76.88-.98.68"/> <path d="m7.36 6.04s-.07.59.45 1.22c.53.63 1.08-.14-.45-1.22"/> <path d="m7.4 6.03s.13-.59.81-.89.94.69-.81.89"/> <path d="m8.51 6.39s-.08.59.42 1.24c.51.64 1.08-.11-.42-1.24"/> <path d="m8.56 6.38s.16-.63.92-.94c.75-.31 1 .79-.92.94"/> <path d="m9.7 6.75s-.14.59.29 1.28c.44.69 1.09 0-.29-1.28"/> <path d="m9.6 6.68s.23-.61 1.01-.84c.79-.22.91.89-1.01.84"/> <path d="m10.85 7.42s-.17.58.23 1.29 1.08.05-.23-1.29"/> <path d="m10.81 7.3s.32-.57 1.13-.67.77 1.02-1.13.67"/> <path d="m11.99 8.25s-.2.57.15 1.31c.36.73 1.08.12-.15-1.31"/> <path d="m11.97 8.13s.35-.54 1.16-.6c.82-.05.7 1.07-1.16.6"/> <path d="m13.17 9.16s-.29.53-.04 1.31 1.05.27.04-1.31"/> <path d="m13.02 9.07s.35-.55 1.17-.6c.81-.05.7 1.06-1.17.6"/> <path d="m14.09 9.91s-.28.53-.02 1.31c.25.78 1.05.26.02-1.31"/> <path d="m14.02 9.98s.42-.5 1.23-.44c.82.05.56 1.15-1.23.44"/> </g> <g fill="#1f1646" transform="translate(46 20)"> <path d="m1.36 2.99s1.02-.48 1.39-1.42c.43-1.08-.87-1.36-1.24-.25-.36 1.07-.15 1.67-.15 1.67"/> <path d="m1.37 3.03s1 .52 2.08.26c1.23-.3.86-1.33-.37-1.32s-1.71 1.06-1.71 1.06"/> <path d="m1.23 2.79s.95 1.67 1.61 2.54c.55-.18.46-1.15-.04-1.84-.66-.92-1.57-.7-1.57-.7"/> <path d="m1.31 2.89s-1.04-1.57-1.21-1.87c-.08-.72.39-1.16 1.04-.52.64.65.17 2.39.17 2.39"/> </g> <g transform="translate(50 23)"> <path d="m2.4 7.55-.68-.78s1.32-2.2 4.69-3.04c-1.31 2.76-4.01 3.82-4.01 3.82" fill="#1f1646"/> <path d="m1.72 6.77s1.35-3.21.2-6.08c-1.48 3.25-.93 5.07-.93 5.07z" fill="#1f1646"/> <g fill="#f2d19e"> <path d="m1.89 7.19-.04-.06c.02-.01 2.17-1.32 3.37-2.37l.04.05c-1.2 1.06-3.35 2.37-3.37 2.38"/> <path d="m1.32 6.36-.07-.01.47-3.66.07.01z"/> </g> </g> </g> <path d="m28.35 113.34s11.01-.88 13.34-.21c4.94 31.16 1.33 54.22 1.33 54.22l1.24 1.59-.26 5.85-.74 1.72 1.02 42.09 13.59 3.22 3.36 3.34-23.32-.59s-.64-9.88-.92-16.55c-.27-6.66-5.71-13.91-5.46-23.05.27-9.49 4.73-14.69 4.73-14.69s-7.46-7.72-7.43-32.58c.01-12.19-.48-24.36-.48-24.36" fill="#e3be8f"/> <path d="m6.85 67.82s2.98-11.25 15.85-11.24 12.78.01 14.9.02c2.12 0 11.77 2.08 11.76 12.19s1.04 10.42-.02 17.57c-1.06 7.16-7.22 19.29-7.23 27.57-.01 8.27-17.16 3.78-20.38 3.77-3.22 0-4.13-4.6-4.13-4.6l.05-44.81z" fill="#f2d19e"/> <path d="m22.24 25.53-.01 13.88s1.64 8.25 1.64 11.34c-.01 4-.01 5.21-.01 7.16 0 3.44 13.74 2.87 13.74-1.96.01-4.82.99-3.39 3.57-7.57 2.58-4.17 1.21-18.65 1.22-25.55 0-.49-20.14-6.26-20.15 2.7" fill="#f2d19e"/> <path d="m31.93 113.01s.56 10.92.08 15.19c3.08 24.96-1.31 41.46-1.31 41.46l.59 1.59.2 5.37-.92 1.4s-2.1 33.39-2.31 39.55c.99 4.58 13.11 13.93 13.11 13.93l-9.55 1.58s-9.13-8.75-10.13-10.15c1.2-5.76.21-12.47-.38-19.34-.59-6.86-5-13.1-4.74-18.04.5-9.88 2.59-12.13 2.59-12.13s-5.03-29.12-3.08-41.6c-5.6-13.48 2.32-20.83 2.32-20.83z" fill="#f2d19e"/> <g fill="#efeae3" transform="translate(0 109)"> <path d="m46.15 10.01c.01-2.45 2-4.44 4.46-4.44 2.45 0 4.44 2 4.44 4.45-.01 2.46-2 4.45-4.45 4.44-2.46 0-4.45-1.99-4.45-4.45" style="transform-origin: 50.6005px 10.017px 0px; animation: man-scaleUp 1.5s linear -0.4s infinite both"/> <path d="m36.64 18.32c.01-2.45 2-4.44 4.45-4.44 2.46.01 4.45 2 4.45 4.46-.01 2.45-2 4.44-4.45 4.44-2.46-.01-4.45-2-4.45-4.46" style="transform-origin: 41.0906px 18.33px 0px; animation: man-scaleUp 2.5s linear -1.4s infinite both"/> <path d="m25.18 7.94c0-2.46 1.99-4.45 4.45-4.44 2.46 0 4.44 1.99 4.44 4.45 0 2.45-1.99 4.44-4.45 4.44s-4.44-2-4.44-4.45" style="transform-origin: 29.6252px 7.94242px 0px; animation: man-scaleUp 1.6s linear -0.5s infinite both"/> <path d="m13.17 11.88c0-2.46 1.99-4.45 4.45-4.44 2.45 0 4.44 1.99 4.44 4.45 0 2.45-2 4.44-4.45 4.44-2.46 0-4.45-2-4.44-4.45" style="transform-origin: 17.6118px 11.8817px 0px; animation: man-scaleUp 1.5s linear -0.4s infinite both"/> <path d="m32.58 7.9c0-1.64 1.34-2.97 2.98-2.97s2.97 1.34 2.97 2.98-1.34 2.97-2.98 2.97c-1.64-.01-2.97-1.34-2.97-2.98" style="transform-origin: 35.5543px 7.90354px 0px; animation: man-scaleUp 1.6s linear -1.4s infinite both"/> <path d="m36.77 9.13c0-3.13 2.54-5.66 5.67-5.66 3.12 0 5.66 2.54 5.65 5.67 0 3.13-2.54 5.66-5.67 5.66-3.12 0-5.66-2.54-5.65-5.67" style="transform-origin: 42.4293px 9.13537px 0px; animation: man-scaleUp 1.6s linear -1.5s infinite both"/> <path d="m18.44 12.91c.01-3.13 2.54-5.66 5.67-5.66 3.13.01 5.66 2.54 5.66 5.67s-2.54 5.66-5.67 5.66-5.66-2.54-5.66-5.67" style="transform-origin: 24.1068px 12.9158px 0px; animation: man-scaleUp 1.5s linear -1.3s infinite both"/> <path d="m26.11 15.2c.01-4.03 3.28-7.3 7.31-7.3 4.03.01 7.3 3.28 7.3 7.31-.01 4.04-3.28 7.3-7.31 7.3-4.04-.01-7.3-3.28-7.3-7.31" style="transform-origin: 33.4147px 15.2063px; animation: man-scaleUp 2.5s linear -1.3s infinite both"/> <path d="m27.71 22c0-3.13 2.54-5.66 5.67-5.66 3.13.01 5.66 2.55 5.66 5.67-.01 3.13-2.55 5.66-5.67 5.66-3.13 0-5.66-2.54-5.66-5.67" style="transform-origin: 33.3726px 22.0065px; animation: man-scaleUp 1.6s linear -1.4s infinite both"/> <path d="m42.46 14.06c0-1.64 1.33-2.97 2.97-2.97s2.97 1.33 2.97 2.98c0 1.64-1.33 2.97-2.97 2.97-1.65-.01-2.98-1.34-2.97-2.98" style="transform-origin: 45.4292px 14.0635px; animation: man-scaleUp 2.5s linear -0.3s infinite both"/> <path d="m23.07 19.51c0-1.64 1.33-2.97 2.97-2.97 1.65 0 2.98 1.34 2.97 2.98 0 1.64-1.33 2.97-2.97 2.97s-2.97-1.34-2.97-2.98" style="transform-origin: 26.0412px 19.5152px; animation: man-scaleUp 1.5s linear -1.4s infinite both"/> <path d="m9.4 11.29c0-1.64 1.33-2.97 2.97-2.97s2.97 1.33 2.97 2.97c0 1.65-1.33 2.98-2.98 2.97-1.64 0-2.97-1.33-2.96-2.97" style="transform-origin: 12.368px 11.2911px; animation: man-scaleUp 1.5s linear -1.3s infinite both"/> <path d="m36.88 6.59c0-2.46 2-4.45 4.45-4.45 2.46.01 4.45 2 4.45 4.45-.01 2.46-2 4.45-4.46 4.45-2.45-.01-4.44-2-4.44-4.45" style="transform-origin: 41.3288px 6.58974px; animation: man-scaleUp 2.6s linear -1.4s infinite both"/> <path d="m27.37 14.9c0-2.46 2-4.45 4.45-4.44 2.46 0 4.45 1.99 4.44 4.45 0 2.45-1.99 4.44-4.45 4.44-2.45 0-4.44-2-4.44-4.45" style="transform-origin: 31.8184px 14.9028px; animation: man-scaleUp 2.5s linear -0.4s infinite both"/> <path d="m15.91 4.51c0-2.46 1.99-4.44 4.45-4.44 2.45 0 4.44 1.99 4.44 4.45s-2 4.44-4.45 4.44c-2.46 0-4.45-1.99-4.44-4.45" style="transform-origin: 20.3531px 4.51515px; animation: man-scaleUp 2.5s linear -0.3s infinite both"/> <path d="m3.87 5.68c0-2.46 2-4.45 4.45-4.44 2.46 0 4.45 1.99 4.44 4.45 0 2.45-1.99 4.44-4.45 4.44-2.45 0-4.44-2-4.44-4.45" style="transform-origin: 8.31774px 5.6825px; animation: man-scaleUp 2.6s linear -1.5s infinite both"/> <path d="m23.31 4.47c0-1.64 1.33-2.97 2.98-2.97 1.64.01 2.97 1.34 2.97 2.98-.01 1.64-1.34 2.97-2.98 2.97s-2.97-1.33-2.97-2.98" style="transform-origin: 26.2826px 4.47627px 0px; animation: man-scaleUp 1.6s linear -1.3s infinite both"/> <path d="m27.49 5.7c.01-3.13 2.55-5.66 5.67-5.66 3.13.01 5.67 2.55 5.66 5.68 0 3.12-2.54 5.66-5.67 5.65-3.13 0-5.66-2.54-5.66-5.67" style="transform-origin: 33.1572px 5.7081px 0px; animation: man-scaleUp 2.6s linear -0.4s infinite both"/> <path d="m9.17 9.48c0-3.12 2.54-5.66 5.67-5.66 3.13.01 5.66 2.55 5.66 5.68 0 3.12-2.54 5.66-5.67 5.65-3.13 0-5.66-2.54-5.66-5.67" style="transform-origin: 14.8347px 9.48857px 0px; animation: man-scaleUp 1.6s linear -1.4s infinite both"/> <path d="m16.84 11.77c.01-4.03 3.28-7.3 7.31-7.29 4.03 0 7.3 3.27 7.29 7.31 0 4.03-3.27 7.3-7.3 7.29-4.04 0-7.3-3.28-7.3-7.31" style="transform-origin: 24.1425px 11.78px 0px; animation: man-scaleUp 2.6s linear -1.5s infinite both"/> <path d="m18.44 18.57c0-3.12 2.54-5.66 5.67-5.65 3.12 0 5.66 2.54 5.65 5.67 0 3.12-2.54 5.66-5.67 5.65-3.12 0-5.66-2.54-5.65-5.67" style="transform-origin: 24.1005px 18.5797px 0px; animation: man-scaleUp 1.6s linear -0.3s infinite both"/> <path d="m33.18 10.63c.01-1.64 1.34-2.97 2.98-2.97 1.64.01 2.97 1.34 2.97 2.98s-1.33 2.97-2.98 2.97c-1.64 0-2.97-1.34-2.97-2.98" style="transform-origin: 36.1571px 10.6363px 0px; animation: man-scaleUp 1.5s linear -1.5s infinite both"/> <path d="m13.8 16.08c0-1.64 1.33-2.97 2.97-2.97 1.64.01 2.97 1.34 2.97 2.98s-1.33 2.97-2.97 2.97c-1.65 0-2.98-1.33-2.97-2.98" style="transform-origin: 16.7686px 16.088px 0px; animation: man-scaleUp 1.5s linear -1.3s infinite both"/> <path d="m.11 16.07c.01-1.64 1.34-2.97 2.98-2.97s2.97 1.33 2.97 2.98c0 1.64-1.33 2.97-2.98 2.97-1.64-.01-2.97-1.34-2.97-2.98" style="transform-origin: 3.08721px 16.0733px 0px; animation: man-scaleUp 1.5s linear -0.3s infinite both"/> </g> <path d="m28.48 74.28c0 .62-.74 1.13-1.66 1.13-.91 0-1.65-.51-1.65-1.13s.74-1.13 1.66-1.13c.91.01 1.65.51 1.65 1.13" fill="#e3be8f"/> <path d="m45.52 71.78c0 .63-.74 1.13-1.66 1.13-.91 0-1.66-.51-1.65-1.13 0-.62.74-1.13 1.65-1.12.92 0 1.66.5 1.66 1.12" fill="#e3be8f"/> <path d="m33.93 17.32c1.74.56 2.95 1.59 4.77 1.76 1.96.18 3.61-1.33 5.31.28 1.36 1.29.45 2.86.01 3.61.95.56 2.74 4.04-1.54 6.03-4.27 1.98-11.55-.8-13.44-1.49-.8-.29-1.66-.53-2.49-.38-.84.15-1.64.78-1.74 1.62-.08.76.4 1.45.65 2.17 1.12 3.21-2.31 6.43-1.94 9.81.07.61.39 2.62.82 3.06 1.33 1.34 5.35-1.64 7.03-2.51 1.03-.53 1.74-.89 2.65-1.18.54.72 1.72.69 2.45.66.39-.01 1.14-.12 1.56-1.01.43.06.5.1.93.26 2.35.88 4.07 3.8 3.48 6.34-.49 2.07-2.12 4.81-4.06 5.67-3.65 1.64-8.74.62-12.36-1.07-3.63-1.69-5.99-6.31-4.23-9.9.37-.75.18-1.51.43-2.3.26-.79.01-1.62-.66-2.12-.48-.36-.25-.47-.8-.72-1-.45-1.5-1.58-1.82-2.63-1.22-3.95-.63-8.89 2.63-11.95 3.34-3.13 7.69-5.55 12.36-4.01" fill="#844d47"/> <path d="m22.29 37.43s-.29-1.59-1.09-1.89c-.79-.3-2.49-.57-3.18-.01-.7.56.82 5.54 1.98 5.97s1.89-.16 2.39-.99-.1-3.08-.1-3.08" fill="#f2d19e"/> <path d="m39.37 42.38c.92.7-1.22 3.97-3.01 3.95-1.79-.01-3.76-1.82-3.76-3.01.01-1.19 5.19-2.15 6.77-.94" fill="#f2d19e"/> <g fill="#efeae3" transform="translate(42 57)"> <path d="m7.08 11.67c0-.67.55-1.21 1.21-1.21.67 0 1.22.54 1.22 1.21s-.55 1.22-1.22 1.21c-.67 0-1.21-.54-1.21-1.21" transform-origin="8.2933px 11.6718px 0px" animation="man-scaleUp 1.5s linear -0.3s infinite both"/> <path d="m9.14 11.87c0-.96.78-1.74 1.74-1.74s1.74.78 1.74 1.75c0 .96-.78 1.74-1.74 1.74-.97-.01-1.74-.79-1.74-1.75" transform-origin="10.8782px 11.8744px 0px" animation="man-scaleUp 1.5s linear -1.3s infinite both"/> <path d="m13.25 9.49c0-.56.45-1.01 1.01-1.01s1.01.46 1.01 1.01c0 .56-.45 1.02-1.01 1.02-.56-.01-1.01-.46-1.01-1.02" transform-origin="14.2591px 9.49315px 0px" animation="man-scaleUp 2.5s linear -0.3s infinite both"/> <path d="m7.89 4.99c0-2.09 1.7-3.79 3.79-3.78 2.09 0 3.78 1.69 3.78 3.78s-1.7 3.79-3.79 3.78c-2.09 0-3.78-1.69-3.78-3.78" transform-origin="11.6736px 4.98976px 0px" animation="man-scaleUp 1.5s linear -1.5s infinite both"/> <path d="m1.93 8.78c0-1.59 1.29-2.88 2.88-2.88s2.87 1.29 2.87 2.88-1.29 2.88-2.88 2.88c-1.59-.01-2.87-1.3-2.87-2.88" transform-origin="4.80385px 8.77845px 0px" animation="man-scaleUp 2.6s linear -1.5s infinite both"/> <path d="m3.16 4.31c.01-1.52 1.24-2.75 2.76-2.75s2.75 1.24 2.75 2.76-1.24 2.75-2.76 2.74c-1.52 0-2.75-1.23-2.75-2.75" transform-origin="5.91622px 4.31393px 0px" animation="man-scaleUp 2.5s linear -1.3s infinite both"/> <path d="m6.93 2.56c.01-.98.8-1.77 1.77-1.77.98 0 1.77.79 1.77 1.77 0 .97-.8 1.77-1.77 1.76-.98 0-1.77-.79-1.77-1.76" style="transform-origin: 9px 3px 0; animation: man-scaleUp 1.6s linear -1.3s infinite both"/> <path d="m.37 6.2c0-.98.79-1.77 1.77-1.77.97 0 1.76.79 1.76 1.77 0 .97-.79 1.76-1.77 1.76-.97 0-1.76-.79-1.76-1.76" style="transform-origin: 2px 6px 0; animation: man-scaleUp 2.5s linear -0.5s infinite both"/> </g> <g transform="translate(5 63)" style="animation: left-arm-rotation 1s cubic-bezier(0.4, 0, 0.2, 1) infinite;"> <path d="m45.69 5.87s-1.54-2.75-2.18-4.67c-.7-2.09 5.77-3.57 6.16-2.48.4 1.09 1.79 4.47 1.79 4.47z" fill="#fefefe"/> <g fill="#cdac80"> <path d="m14.55 7.41-.15-.36.07.18-.08-.18c.06-.03 1.26-.6 1.08-3.19l.4-.02c.2 2.89-1.26 3.55-1.32 3.57"/> <path d="m8.1 16.09-.13-.37c.05-.02 4.87-1.73 10.29-1.2 5.39.54 22-4.79 22.97-5.25l.17.36c-.98.46-17.73 5.83-23.18 5.29-5.32-.52-10.07 1.15-10.12 1.17"/> <path d="m13.24 14.95-.34-.2c.02-.02 1.1-1.82 1.31-4.68.2-2.9-.52-6.14-.52-6.18l.38-.09c.01.04.75 3.34.53 6.29-.21 2.97-1.31 4.79-1.36 4.86"/> </g> <path d="m1.85 4.82c-.7 2.46-1.2 11.07-.84 13.73.39 2.91-.01 10.29 2.77 11.4 3.97 1.6 42.41-14.28 45.62-15.65 2.22-.95 5.09-2.44 6.66-3.28.71-.38 1.06-1.15.88-1.96-.59-2.61-1.98-8.14-3.39-8.32-1.83-.23-2.98.23-2.98.23l.91 2.07-5.89 2.73-.99-2.38s-2.16.58-2.39 2.88c-.23 2.29-1.07 5.26-3.6 5.72-2.53.45-13.56 1.82-19.54 5.49l-5.98 3.67s1.85-10.34 1.39-13.1c-.45-2.76.47-6.66.47-6.66s-12.4.97-13.1 3.43" fill="#f2d19e"/> <g fill="#1f1646" transform="translate(19 13)"> <path d="m4.22 6.45c-1.09-.01-1.88-.06-1.96-.06l.02-.35c.05 0 5.04.34 7.43-.68.03-.02 3.38-1.5 5.91-1.85 2.56-.35 6.57 1.01 6.74 1.07l-.11.33c-.04-.01-4.11-1.39-6.58-1.05-2.49.34-5.79 1.8-5.82 1.82-1.51.64-3.92.77-5.63.77"/> <path d="m19.15 3.78s-.17-1.49-1.31-2.28-3.85-.8-3.85-.8 1.4.97 2.36 1.58c.96.62 2.8 1.5 2.8 1.5"/> <path d="m19.15 3.78s-2.28.78-3.59 1.83c-1.32 1.05-2.28 2.1-2.28 2.1s2.8-1.05 3.94-1.92c1.14-.88 1.93-2.01 1.93-2.01"/> <path d="m14.87 3.8s-.23-.71-1.15-1.16c-.92-.44-1.15.71 1.15 1.16"/> <path d="m14.71 4.02s.15.72-.47 1.42c-.61.69-1.41-.31.47-1.42"/> <path d="m13.3 4.17s-.26-.7-1.2-1.11c-.93-.4-1.11.77 1.2 1.11"/> <path d="m13.36 4.25s.18.71-.4 1.43-1.43-.23.4-1.43"/> <path d="m11.91 4.58s-.41-.62-1.41-.81c-1-.18-.92.99 1.41.81"/> <path d="m11.88 4.63s.34.66-.07 1.49-1.45.08.07-1.49"/> <path d="m10.53 5.17s-.39-.64-1.39-.86-.95.96 1.39.86"/> <path d="m10.49 5.21s.35.74-.13 1.63c-.48.9-1.59.05.13-1.63"/> <path d="m9.1 5.76s-.33-.67-1.29-.99c-.97-.32-1.04.86 1.29.99"/> <path d="m9.26 5.75s.26.77-.31 1.61-1.58-.13.31-1.61"/> <path d="m7.47 6.03s-.29-.68-1.25-1.05c-.95-.36-1.08.81 1.25 1.05"/> <path d="m7.6 6.12s.14.8-.55 1.54c-.7.74-1.55-.37.55-1.54"/> <path d="m5.71 6.15s-.25-.71-1.18-1.13-1.13.74 1.18 1.13"/> <path d="m5.83 6.24s.1.8-.64 1.5-1.52-.46.64-1.5"/> <path d="m3.86 6.21s-.15-.74-1.01-1.28c-.86-.55-1.22.57 1.01 1.28"/> <path d="m4.08 6.18s.1.8-.64 1.5-1.52-.46.64-1.5"/> <path d="m2.38 6.23s-.15-.73-1.01-1.28c-.87-.54-1.22.59 1.01 1.28"/> <path d="m2.4 6.1s-.01.82-.83 1.41c-.83.59-1.45-.66.83-1.41"/> </g> <path d="m17.25 14.79s-3.19 3.17-4.38 2.58c-1.19-.6 3.39-2.98 3.39-2.98z" fill="#1f1646"/> <g fill="#1f1646" transform="translate(19 22)"> <path d="m3.14 2.93s-.59-2.38.8-2.38.2 1.99.2 1.99z"/> <path d="m3.14 2.93s-.53-1.65-1.39-2.19c-.98-.6-1.39 1.2-.6 1.99.8.8 1.99.2 1.99.2"/> </g> <g transform="translate(7 19)"> <path d="m9.59 8.06c-.01-.03-1.07-3.46-2.11-5.49l.09-.05c1.05 2.04 2.11 5.48 2.12 5.52z" fill="#f2d19e"/> <path d="m8.3 8.62-4.91-1.92.04-.1 4.9 1.93z" fill="#f2d19e"/> <g fill="#1f1646"> <path d="m10.37 7.45-1.33.66s-2.58-2.58-2.57-7.55c3.37 2.78 3.9 6.89 3.9 6.89"/> <path d="m9.04 8.11s-3.97-2.98-8.35-2.39c3.98 3.18 6.7 3.05 6.7 3.05z"/> </g> </g> </g> <g fill="#1f1646"> <g transform="translate(28 62)"> <path d="m8.12 3.91c-.05.1-.06.23-.02.38.07.35.29.49.39.47.07-.02.08-.15.06-.26-.04-.23-.13-.46-.43-.59m-1.58.12c-.05.09-.07.2-.08.3-.03.35.13.62.21.63.15.03.29-.01.36-.1.06-.09.04-.24-.07-.42-.11-.19-.26-.32-.42-.41m-1.73.43c-.07.1-.11.21-.12.32-.02.31.17.64.3.67l.17-.15c.07-.14.06-.29-.02-.45-.06-.14-.18-.28-.33-.39m-1.9.04c-.08.12-.12.25-.13.39-.02.33.17.65.35.7.04.01.13.04.23-.14.11-.21.01-.43-.06-.55-.1-.16-.23-.3-.39-.4m.27 1.4-.13-.02c-.33-.1-.6-.56-.57-1.01.01-.18.07-.35.17-.51l-.24-.04c-.41 0-.69.6-.76.83l-.19.1-.1-.19c.02-.05.35-1.04 1.05-1.04.14 0 .29.04.44.1l.09-.06c.32-.25.77-.35 1.18-.26.22.05.45.14.64.26.26-.26.61-.44.88-.49.22-.03.52-.02.83.1.14-.13.34-.2.58-.21.32-.01.67 0 .97.09.24-.23.65-.34 1.17-.31.84.04 1.06.64 1.07.66l-.09.19-.19-.09c-.01-.02-.17-.43-.8-.46-.36-.02-.65.03-.84.14.25.15.44.39.51.77.06.39-.12.56-.31.6-.28.05-.63-.19-.74-.7-.04-.23-.02-.4.04-.54-.2-.04-.45-.06-.78-.05-.12 0-.21.03-.29.06.17.11.33.26.45.46.23.39.13.64.05.76-.13.18-.39.27-.66.21-.3-.06-.48-.55-.45-.95.02-.14.05-.28.11-.39-.22-.06-.43-.07-.58-.04-.21.04-.47.17-.68.36.18.15.32.32.4.49.12.25.12.49.01.72-.18.35-.42.33-.51.3-.32-.09-.55-.6-.52-.98.01-.17.08-.33.18-.47-.16-.09-.34-.16-.51-.2-.33-.07-.68 0-.93.2.17.12.32.28.42.46.18.29.2.59.07.84-.11.2-.27.31-.44.31"/> <path d="m8.59 6.68c-.1.18-.14.36-.09.49.09.27.39.47.5.49.05-.11.05-.32-.05-.55-.05-.1-.15-.3-.36-.43zm-1.56.38-.02.13c-.05.45.17.85.35.94l.11-.02c.03-.03.06-.17-.02-.4-.08-.22-.23-.46-.42-.65zm-1.42.3-.04.18c-.05.41.06.74.18.75l.04-.01c.06-.07.06-.38-.1-.76zm.16 1.23h-.06c-.38-.05-.49-.6-.43-1.08.02-.16.05-.31.11-.45-.1-.11-.22-.18-.34-.19-.63-.06-.89.69-.9.72l-.19.09-.09-.19c.12-.35.52-.99 1.21-.92.15.01.31.09.45.21.17-.27.44-.44.79-.4.22.03.43.11.61.22l.14-.13c.29-.22.72-.28 1.27-.2l.16.04c.25-.3.6-.47.92-.45.43.03.73.16.89.39.18.26.11.54.1.55l-.18.1-.1-.18s.04-.16-.07-.3c-.1-.15-.33-.24-.66-.26-.2-.02-.44.1-.62.29.18.13.34.31.44.54.14.33.15.66.01.86-.02.04-.1.13-.26.1-.26-.03-.64-.34-.76-.68-.06-.21-.03-.46.11-.7h-.02c-.47-.08-.83-.03-1.05.13l-.08.08c.26.24.46.55.56.83.11.31.09.57-.05.71-.13.13-.29.16-.45.08-.3-.15-.58-.68-.52-1.25.01-.1.04-.2.07-.29-.15-.09-.32-.16-.5-.18-.25-.03-.43.13-.54.33.08.11.15.24.22.39.15.34.26.82.07 1.06-.06.09-.15.13-.26.13z"/> <path d="m5.36 1.57c-.04.32.06.59.12.62l.06-.05c.09-.11.11-.2.06-.31-.05-.09-.13-.18-.24-.26zm3.8-.19c-.01.18.01.37.05.54.07.25.16.35.19.36l.03-.04c.14-.16.07-.37-.01-.52-.06-.11-.15-.23-.26-.34zm-2.02.21-.02.08c-.11.38-.05.69.04.76.01 0 .03.03.12-.02.13-.08.18-.19.15-.35-.04-.14-.14-.31-.29-.47zm-3.3.39c.03.23.1.44.2.55.09.09.14.07.17.06l.07-.06c-.01-.13-.18-.34-.44-.55zm-1.76.15c-.12.32-.13.64-.06.74l.1.02c.13-.04.19-.12.18-.27s-.09-.33-.22-.49zm-.01 1.06c-.12 0-.22-.05-.29-.14-.18-.25-.1-.75.08-1.16-.13-.11-.28-.19-.42-.21-.55-.08-.73.96-.73.97l-.18.13-.12-.17c.01-.06.24-1.34 1.07-1.23.19.03.37.12.53.25.24-.36.56-.51.88-.44.21.05.44.14.67.26l.06-.19c.11-.24.3-.37.54-.37.32 0 .7.08 1.03.23.15-.31.42-.46.78-.43.39.04.77.2 1.07.42.21-.32.51-.53.86-.57s.75.1 1.09.33c.16-.29.45-.39.81-.27l.09.19-.19.09c-.24-.08-.34.01-.38.04l-.08.13c.19.16.35.35.45.53.17.33.16.63-.03.86-.12.15-.29.18-.43.09-.29-.19-.44-.88-.34-1.37-.3-.21-.66-.36-.96-.32-.32.04-.53.25-.65.46.23.22.39.47.44.7.06.28-.05.53-.29.67-.23.12-.38.05-.46-.01-.25-.19-.24-.69-.14-1.07l.07-.21c-.26-.2-.61-.36-.96-.39-.26-.03-.41.11-.49.28.19.12.34.27.42.43.1.21.06.44-.1.63-.19.22-.36.16-.43.13-.25-.14-.33-.65-.25-1.05-.28-.13-.63-.23-.93-.23-.08 0-.19.02-.27.2-.03.07-.05.15-.06.24.41.27.73.61.74.89.01.17-.08.3-.27.37-.17.05-.34 0-.48-.15-.19-.21-.3-.6-.3-.96-.21-.13-.46-.24-.69-.29-.28-.06-.49.19-.59.34l-.01.02c.21.23.35.52.36.76.02.29-.12.5-.39.58z"/> </g> <g transform="translate(24 100)"> <path d="m.91 2.13c-.15-.06-.22-.08-.36-.14l-.06.04v1.99l.06.09c.15.05.22.08.36.13l.06-.04c0-.8 0-1.2 0-1.99zm.54-.08c0 1.06 0 1.58.01 2.64-.1.07-.15.11-.24.18-.39-.13-.58-.19-.96-.34-.1-.15-.15-.22-.24-.37 0-1.06-.01-1.6-.01-2.66.1-.07.15-.1.24-.16.39.15.58.23.96.36.1.14.15.21.24.35z"/> <path d="m2.38 3.52c.15.04.22.06.37.1l.06-.04c0-.32 0-.47 0-.79l-.06-.07c-.15-.04-.22-.06-.37-.11l-.06.04v.79zm.01 1.71c-.24-.06-.36-.1-.6-.17l.06-.18c-.01-1.11-.01-1.65-.01-2.76-.02-.09-.04-.13-.06-.22.51.16.76.24 1.27.37.1.13.15.19.25.32v1.43c-.1.08-.14.12-.24.2-.27-.06-.41-.1-.68-.18l-.06.05c0 .37 0 .56.01.93.02.08.03.13.06.21z"/> <path d="m5.22 3.29c-.09-.03-.13-.05-.21-.09-.15-.02-.22-.03-.37-.06l-.06.05c.01.93.01 1.4.01 2.33l.06.2c-.24-.03-.37-.06-.61-.1l.06-.19c0-.93-.01-1.4-.01-2.33l-.06-.07c-.15-.03-.22-.05-.37-.08l-.2.01c.03-.23.05-.34.09-.57.62.15.94.21 1.57.31.04.24.06.36.1.59"/> <path d="m6.03 5.9c-.24-.02-.36-.04-.61-.07l.06-.18c0-1.08 0-1.62 0-2.7l-.06-.2c.24.03.36.05.61.07l-.07.2c.01 1.07.01 1.61.01 2.68z"/> <path d="m7.63 5.12c-.12 0-.18-.01-.31-.01-.17-.44-.26-.66-.43-1.1v1.76l.06.2c-.24-.01-.37-.02-.61-.04l.06-.19c0-1.07 0-1.61-.01-2.68l-.06-.2.55.05c.24.57.36.85.6 1.41.23-.54.35-.81.58-1.36.23.01.34.01.56.01l-.06.19v2.64l.07.19c-.25.01-.37.01-.62.01l.06-.19c0-.7 0-1.05 0-1.75-.18.43-.26.64-.44 1.06"/> <path d="m9.55 5.95c-.25.02-.37.02-.62.03l.06-.19c0-1.05 0-1.58 0-2.63l-.07-.19c.25-.01.37-.01.62-.02l-.06.2c0 1.04 0 1.57.01 2.62z"/> <path d="m11.46 3.73c-.25.03-.38.04-.63.07l.06-.19v-.2l-.06-.05c-.15.02-.23.02-.38.04l-.06.06v.63l.06.05c.28-.03.42-.04.69-.07.1.08.15.13.25.21v1.24c-.1.11-.14.17-.24.28-.4.05-.6.07-1 .11-.1-.09-.15-.14-.26-.23 0-.2 0-.3 0-.5l-.05-.19c.24-.02.37-.03.62-.05l-.07.2v.19l.06.05c.16-.02.23-.02.38-.04l.06-.06c0-.25 0-.38 0-.63l-.06-.05c-.27.03-.41.04-.68.06-.1-.09-.16-.14-.26-.23v-1.25c.1-.11.15-.16.26-.26.39-.03.59-.05.99-.09.1.08.15.13.25.21v.51z"/> <path d="m13.42 3.02c-.09-.01-.13-.01-.21-.01-.15.03-.22.04-.37.07l-.06.06c0 .88 0 1.32.01 2.2l.06.18c-.25.05-.37.07-.62.11l.06-.19c0-.89 0-1.33-.01-2.21l-.06-.05c-.15.03-.22.04-.38.06l-.2.08c.04-.23.05-.34.09-.56.64-.09.96-.14 1.59-.27.04.21.06.32.1.53"/> <path d="m16.04 4.67c-.59.2-.88.28-1.48.44l.06-.2c0-1.01 0-1.51 0-2.52l-.06-.18c.24-.06.36-.09.61-.16l-.06.21v2.16l.06.04c.3-.09.46-.13.76-.23l.2-.12c-.04.23-.05.34-.09.56"/> <path d="m16.94 4.36c-.24.09-.36.13-.61.21l.07-.2c-.01-1-.01-1.5-.01-2.49l-.06-.17c.24-.08.36-.12.61-.2l-.07.2c.01 1 .01 1.5.01 2.49z"/> <path d="m17.24 1.41c.58-.21.87-.32 1.45-.56.04.19.05.29.09.48l-.2.03c-.29.12-.44.18-.74.29l-.06.08v.6l.06.03c.1-.03.15-.05.24-.09l.19-.14v.59l-.19.02c-.09.04-.14.06-.24.1l-.06.07v.95l.06.16c-.24.09-.36.14-.6.23l.06-.21c0-.99 0-1.48 0-2.48z"/> <path d="m18.99 3.53.06-.2c-.01-.98-.01-1.47-.01-2.45l-.06-.15c.58-.25.87-.38 1.44-.65.03.19.05.28.09.47l-.2.04c-.29.14-.44.21-.74.34l-.05.08v.58l.06.03c.09-.05.14-.07.24-.11l.18-.15v.58l-.18.03c-.1.05-.15.07-.24.11l-.06.08v.6l.06.03c.29-.13.44-.2.73-.35l.2-.15c-.03.23-.05.34-.08.57-.58.28-.86.42-1.44.67"/> </g> <path d="m31.33 36.36c-.78 0-1.42-.4-1.46-.42-.09-.06-.12-.18-.06-.27.05-.09.18-.12.27-.07.01.01.96.58 1.82.26.54-.19.94-.69 1.2-1.47.04-.11.15-.16.25-.13.11.04.16.15.13.25-.3.91-.79 1.49-1.44 1.73-.24.08-.48.12-.71.12"/> <path d="m29.6 33.3c1.14-.53 2.14-.9 3.33-.77 1.18.12 1.28-.8.09-.93-1.18-.12-2.46.2-3.47.89-1 .7-.65 1.14.05.81"/> <path d="m39.49 36.37c-.23-.01-.47-.04-.71-.13-.65-.24-1.14-.82-1.44-1.72-.03-.11.02-.22.13-.25.1-.04.22.02.25.12.26.79.66 1.28 1.2 1.48.86.32 1.81-.25 1.82-.26.09-.05.22-.02.27.07.06.1.03.22-.06.27-.04.03-.69.42-1.46.42"/> <path d="m40.69 33.27c-.96-.51-2.19-.85-3.15-.7-.96.14-1.1-.77-.14-.92.96-.14 2.41.14 3.28.82.86.67.6 1.11.01.8"/> <path d="m35.88 40.81c-.68 0-1.35-.13-1.72-.35-.79-.48-.67-1.25-.49-1.59.05-.09.17-.13.27-.08.09.05.13.17.08.27-.03.06-.31.66.35 1.06.57.34 2.08.43 2.9.04.3-.14.47-.33.5-.56.08-.54-.21-.78-.55-1.05-.29-.23-.62-.49-.62-.96 0-.16.01-.33.01-.53.03-.87.07-2.08-.33-3.29-.04-.11.02-.22.12-.25.11-.04.22.02.25.12.43 1.28.39 2.58.36 3.44-.01.19-.01.36-.01.51 0 .26.18.42.47.65.36.29.81.65.69 1.42-.05.36-.3.66-.72.86-.43.21-1 .3-1.56.29"/> </g> </g> <g transform="translate(108 494)"> <path d="m27.1 15.41-6.61-14.93s-5.64 6.65-3.07 10.93c2.57 4.29 4.98 5.91 4.98 5.91z" fill="#20c0db" style="transform-origin: 22px 17px 0; animation: wing-back 2s ease-in-out both infinite;"/> <g fill="#b4ddd5"> <path d="m26.97 15.17-14.27-14.85s-2.51 7.42.88 12.29c3.38 4.86 9.65 4.77 9.65 4.77z" style="transform-origin: 19px 17px 0; animation: wing-front 2s ease-in-out both infinite;"/> <path d="m11.01 14.85 18.05-.09-.06 5.21s-.67 4.43-7.01 4.38c-6.34-.06-10.98-9.5-10.98-9.5"/> <path d="m23.42 14.79-22.57.11 4.27 3.19z"/> </g> <path d="m40.09 12.89h-4.39l.31 2.5z" fill="#f7a349"/> <path d="m36.64 14.77c0 2.76-2.25 5-5.01 5-2.77 0-5.01-2.25-5.01-5.01.01-2.77 2.25-5.01 5.02-5.01 2.76.01 5 2.25 5 5.02" fill="#b4ddd5"/> <path d="m33.98 13.36c0 .43-.35.78-.78.78s-.79-.35-.78-.79c0-.43.35-.78.78-.78s.78.35.78.79" fill="#1f1646"/> <path d="m25.62 26.9.44-.45-2.5-2.5-.44.44z" fill="#1f1646"/> <path d="m23.59 26.9.44-.45-2.5-2.5-.45.44z" fill="#1f1646"/> </g> <g fill-rule="evenodd" transform="translate(88 515)"> <path d="m42.36 16.98.66 1.12 3.6-2.13c1.26-.74 2.21-1.74 2.81-2.85.61-1.1.88-2.31.89-3.49 0-1.45-.41-2.87-1.12-4.08-.59-.99-1.4-1.87-2.41-2.51s-2.22-1.03-3.54-1.03c-1.33 0-2.74.39-4.15 1.22l-6.92 4.09 2.13 3.61 6.92-4.09c.81-.48 1.46-.63 1.99-.63.54 0 .99.16 1.39.42s.74.64.98 1.05c.34.56.53 1.25.53 1.91 0 .54-.12 1.05-.38 1.52s-.64.89-1.25 1.25l-4.71 2.78 2.13 3.61 1.11-.65-.66-1.12 1.11-.65-.16-.28 2.49-1.47c.98-.57 1.73-1.36 2.2-2.23.48-.88.7-1.83.7-2.76 0-1.15-.32-2.26-.89-3.22-.42-.72-1.01-1.39-1.78-1.9-.77-.5-1.74-.84-2.8-.84s-2.18.32-3.31.99l-4.7 2.78-.17-.28-1.11.65.66 1.11 5.81-3.43c1.07-.63 2.02-.86 2.84-.86s1.53.23 2.16.63 1.18.97 1.57 1.64c.48.81.76 1.8.76 2.76 0 .79-.18 1.56-.57 2.26-.38.7-.97 1.34-1.86 1.87l-3.6 2.13.65 1.1 1.11-.65z" fill="#e8bdd8"/> <g fill="#b9b7db"> <path d="m17.29 44.66-16.99-28.77 32.99-14.91 12.46 21.11z"/> <path d="m17.22 45.18s9.78-3.95 18.85-5.35c9.06-1.39 13.05 2.66 13.05 2.66l2.3-2.58s-8.62-11.36-20.36-7.48-13.84 12.75-13.84 12.75"/> <path d="m50.8 38.54-3.11 3.43.35 8.92 11.67-12.88z"/> </g> <path d="m50.5 51v73" stroke="#b3ddd4" stroke-dasharray="1 3" stroke-dashoffset="73" stroke-linecap="round" stroke-width="1.1" style="animation: man-lines 7s linear -1.7s infinite both"/> <path d="m55 47v77" stroke="#b3ddd4" stroke-dasharray="1 3" stroke-dashoffset="77" stroke-linecap="round" stroke-width="1.1" style="animation: man-lines 5s linear -1.7s infinite both"/> <path d="m59.5 43v81" stroke="#b3ddd4" stroke-dasharray="1 3" stroke-dashoffset="81" stroke-linecap="round" stroke-width="1.1" style="animation: man-lines 6s linear -1.5s infinite both"/> </g> </g> </svg>