<?xml version="1.0"?>
<svg xmlns="http://www.w3.org/2000/svg" width="100%" height="43vw" preserveAspectRatio="xMidYMin slice" viewBox="0 0 1279 545">
<style>.blink-line{animation:bl ease-in-out 1s infinite}.bl2{animation-duration:1.5s}.bl3{animation-duration:1.2s}.green-fern{animation:green-fern 8s linear infinite;transform-origin:329px 272px}.blue-fern{animation:blue-fern 7s linear 300ms infinite;transform-origin:634px 312px}.grass{animation:grass 5s linear infinite}.grass-1{transform-origin:571px 231px}.grass-2{transform-origin:822px 371px}.grass-3{transform-origin:746px 371px}@keyframes green-fern{50%{transform:rotate(10deg)}}@keyframes blue-fern{50%{transform:rotate(-10deg)}}@keyframes grass{50%{transform:rotate(10deg)}}@keyframes bl{50%{opacity:0}}</style>
<clipPath id="a">
    <path d="m579.7 253.9c1.5 2.7 6.2 3.8 8.3 4.9 6.8 3.5 13.8 6.7 20.7 10.1 1.2.6 2 1.8 3.7 3.3-8.4.7-15.5.5-21.9-3.7-9.4-11.5-14.6-11.7-19.9-1-2.5 5 3.5 7.6 6.7 9.6 9 5.7 18.7 9.6 29.5 4.3 3.2-1.6 6.6-2.8 9.7-4.2l1.3.5c3.2 1.3 6.1 3.3 8.2 6.1 1.6 2 3.1 3.8 4.5 5.6 1.5 1.9 3.5 3.4 5.8 4.3 3.2 1.3 6.2 2.5 9.3 3.5 7.8 2.6 14.8 1.4 20.5-3.7 1.1-1 1.9-2.4 1.9-3.9 0-2.6-.7-4.7-2.3-6.4-1.9-2-4.7-2.8-7.4-2.2-1.4.3-2.9.7-4.2 1.2-8.3 3.4-15.3.8-22.5-3.5.8-.7 1.2-1.3 1.6-1.3 7.9-.1 15.9-.5 23.8-.1 3.5.2 6.3-.5 8.7-2.4 2.3-1.9 3.4-4.9 3-7.9v-.1c-.3-2.2-1.7-4.2-3.8-5-3.5-1.4-6.8-.9-10.2.6-4.7 2.1-9.5 4.3-14.3 6.2-2.8 1.1-5.8 2.7-9.1 1 .9-3.5 3.7-3.4 5.9-4.2 7.8-2.8 15.7-5.3 23.3-8.4 4.8-2 6.1-4.2 5.1-8.5-.4-1.9-2.1-3.3-4-3.4-3-.1-5.8 1.2-8.4 2.7-4.1 2.3-8 4.9-12 7.3-3.1 1.9-6.3 3.7-9.4 5.6-.2-1.8.1-2.8.8-3.6 5.1-5.7 11.6-9.2 18.4-12.5 4.2-2 11.6-7.1 11.6-7.1s7.6-5.8 5.9-9.7-6.7-3.2-6.7-3.2-9.2 1-12.8 4c-6 5-10.6 11.1-14.8 17.7-.8 1.2-2 2.2-4 4.2 1-8.8 5.1-14.2 10.3-19 4-3.7 8-7.5 12.1-11.2 3.3-2.9 7.3-8.9 5.9-11.3-1.4-2.3-6.7-4.4-10-2-2.1 1.5-3.7 3.6-5.1 6.5-2.6 5.3-5.4 10.4-8.1 15.6-.6-3.1.1-5.6 1.1-8.1 2-5.2 4.7-10.1 6.2-15.4 1.6-6.1 5.2-15.1-2.4-18-1.6-.6-2.9-.4-4.1.1-9.4 4.2-10.4 12.1-10.4 12.1.2 11 .4 22 .5 33 0 2.9.5 5.9-1.8 10.1-1-10.9-2-21-2.9-31-.2-.2-.5-3.4-2.9-4.6s-3.5-.9-7.5 1.4c-4.1 2.4-5.1 7.6-4 12.4 1.2 4.9 2.9 9.4 5.7 13.7 3.9 6 6.6 12.5 5.1 21.5-1.6-3.2-2.5-5.2-3.5-7.1-3-5.9-5.9-11.9-9.1-17.6-1.7-3.1-3.8-6.2-8.5-6-1 .9-2.2 2-3.3 2.9-.4 5.9 1.7 10.3 5.5 14.3 3.6 3.8 7 8 10.1 12.2 2.3 3.1 5.4 5.7 6.9 11.3-11.2-7.2-19.3-23.3-27.1-25s-10.7 1.6-11.6 3.9c-.7 2.3.8 5.8 2.4 8.6z"/>
</clipPath>
<clipPath id="b">
    <path d="m-4.3-2048.3h1282v3628.3h-1282z"/>
</clipPath>
<clipPath id="c">
    <path d="m250.4 254.1c38.1-91.9 136.4-95.8 183.3-95.8s87.7 28.2 106.3 57.2c18.5 29 34.6 61.6 88.9 60.4s92-66.9 156.9-66.9 65.5 109 185.3 102.2v106.1s-802.3 48.6-768.9 0c33.5-48.7 10.2-71.3 48.2-163.2"/>
</clipPath>
<clipPath id="d">
    <path d="m-5.4-2056.1h1282v3628.3h-1282z"/>
</clipPath>
<clipPath id="e">
    <path d="m-4.9 157s69.2 71.6 248.8 89.5c54 5.4 115.8-13.7 163.2-10.2 38.9 2.8 94.5 47.2 130.6 65.2 97.5 48.8 162.6 73.5 289.1 1.9 36.1-20.5 71.8-76.7 110.8-76.7 54.8 0 36.3 69.9 208.5 78.4 101.4 5 68.2 24.8 136.1-40.9v152.2s-281.5 11.7-364.8 9.4c-92.7-2.6-184.6-12.2-277.2-15.5-175.3-6.2-350.6 10.5-526.1 13.9-43.9.9-119-16.8-119-16.8z"/>
</clipPath>
<clipPath id="f">
    <path d="m-5.4-2056.1h1282v3628.3h-1282z"/>
</clipPath>
<clipPath id="g">
    <path d="m867.6 362.9c38.8-28.1 81.7-60 129.3-54.3 20.8 2.5 40.1 12.1 60.5 16.7 44.4 9.9 87.5-5.2 127.6-23.1 9.4-4.2 99.9-39.7 99.9-44.9 0 .2-6.2 375.3-6.2 375.3h-1279.1s-.5-524.3-.5-524.3c100.3 116.3 244.6 196.8 390 239.6 258.1 75.9 442.4 41.2 478.5 15"/>
</clipPath>
<clipPath id="h">
    <path d="m-.4-2064.2h1280.1v3628.3h-1280.1z"/>
</clipPath>
<clipPath id="i">
    <path d="m237.8 237.5c4 3 11.6 1.5 15.4 1.7 12.3.6 24.7.8 37 1.4 2.1.1 4.1 1.3 7.6 2.4-11.9 6.5-22.5 10.7-34.7 8.8-21.3-10.7-29-7.6-29.9 11.3-.4 8.9 10.2 8.8 16.1 9.7 16.9 2.6 33.7 1.9 46.3-12.7 3.7-4.3 7.8-8.4 11.5-12.3l2.3-.1c5.6-.3 11.1.9 16.1 3.5 3.6 1.9 7 3.6 10.3 5.3 3.5 1.8 7.4 2.7 11.3 2.5 5.5-.2 10.7-.3 16-.9 13.2-1.3 22.6-7.4 27.8-18.6 1-2.2 1.2-4.7.2-7-1.7-3.8-4.1-6.4-7.5-7.9-4.1-1.7-8.8-1-12.3 1.6-1.9 1.3-3.8 2.8-5.4 4.5-9.9 10.3-22 11-35.4 9.4.8-1.5 1-2.7 1.6-3 11.6-5.3 23.1-11 35-15.6 5.2-2 9-4.7 11.3-9.2 2.2-4.2 1.8-9.3-.6-13.4l-.1-.1c-1.9-3.1-5.2-5-8.8-4.8-6 .2-10.6 3-14.6 7.4-5.6 6.2-11.2 12.3-17.1 18.2-3.5 3.5-6.8 7.7-12.7 7.3-1-5.7 3.2-7.3 6-9.9 9.7-9 19.7-17.8 28.8-27.3 5.8-6 6.3-10 2.1-15.6-1.9-2.5-5.2-3.5-8.2-2.4-4.5 1.7-7.7 5.4-10.7 9.4-4.5 6-8.6 12.3-12.9 18.4-3.4 4.8-6.9 9.5-10.3 14.2-1.5-2.4-1.7-4.2-1.2-5.7 3.9-11.6 11.1-20.9 19-30 4.8-5.6 12.5-17.9 12.5-17.9s7.3-13.4 2.3-17.9-11.9-.4-11.9-.4-12.8 7.5-16.2 14.1c-5.6 11.2-8.4 23.1-10.3 35.3-.4 2.3-1.6 4.5-3.2 8.8-4.2-13.5-1.6-24 2.9-34.3 3.5-8 6.9-16.2 10.6-24.1 3-6.3 5-17.7 1.4-20.3-3.6-2.5-12.7-2.1-16 3.5-2.1 3.6-3.1 7.6-3.3 12.7-.4 9.4-1.2 18.7-1.8 28-2.8-4.1-3.5-8.3-3.6-12.5-.4-8.8.4-17.8-.9-26.5-1.5-9.9-2.2-25.4-15.2-24.7-2.8.1-4.5 1.2-6 2.8-11.1 12.2-7.4 24.3-7.4 24.3 7.4 15.9 14.9 31.8 22.2 47.7 1.9 4.2 4.6 8.3 3.9 15.8-8.5-15.2-16.6-29.4-24.3-43.3-.3-.1-3-4.7-7.3-4.8s-5.7.9-10.1 7-2.6 14.4 2.2 20.6c4.9 6.4 10.4 11.8 17.2 16.2 9.6 6.2 17.8 13.9 21.4 28.1-4.4-3.7-7-5.9-9.7-8.1-8.2-6.7-16.4-13.5-24.8-19.9-4.6-3.4-9.6-6.6-16.4-3.3-.9 2-2 4.3-2.9 6.4 3.2 8.8 9.3 13.9 17.4 17.3 7.8 3.2 15.4 7.1 22.8 11.3 5.4 3 11.6 4.8 17.5 12-21.2-3.3-43.5-21.4-56.1-18.9s-14.7 9.3-14.5 13.1c-.2 4.3 4.3 8.4 8.3 11.4z"/>
</clipPath>
<clipPath id="j">
    <path d="m-8.7-2060.1h1282v3628.3h-1282z"/>
</clipPath>
<clipPath id="k">
    <path d="m200.6 46.3c2.6-4.9 3.8-5.4 8.1-3.5 2.1.9 4 2.2 5.7 3.9 7.8 8.1 15.2 16.6 22 25.6 1.3 1.7 2.7 3.4 4.4 4.8 2.9 2.3 3.1 4.6.7 7.3-1 1.1-2.2 2.1-3.5 2.7-2.9 1.5-5.4 1.2-7.7-1.2-2.5-2.7-4.9-5.6-6.9-8.7-4.6-7.1-10.2-13.3-15.3-20-1.6-2.1-3.3-4.2-4.9-6.4-.9-1.5-1.7-3-2.6-4.5"/>
</clipPath>
<clipPath id="l">
    <path d="m-9.5-2063.2h1282v3628.3h-1282z"/>
</clipPath>
<clipPath id="m">
    <path d="m276.9 79.4c-.5 3-1.4 5.8-4.1 7.6-2.2 1.5-4.9 1.3-6.6-.8-1.3-1.5-2.5-3.1-2.3-5.3.3-2.4-.6-4.6-1.4-6.7-2.2-6.3-4.4-12.5-6.4-18.8-.7-2-1.2-4.1-1.5-6.3-.4-2.7 1.4-5.7 3.8-7 1.1-.6 2.2-.6 3.3-.1 2.3 1.2 4.1 2.9 4.8 5.4 2.6 8.9 6.3 17.4 9.5 26.1.8 2 1.3 3.9.9 5.9"/>
</clipPath>
<clipPath id="n">
    <path d="m-6.8-2062h1282v3628.3h-1282z"/>
</clipPath>
<clipPath id="o">
    <path d="m242.3 120.8c-.4 2.6-1 4.9-3.9 6-1.9.7-3.4.7-5.3-.3-10.6-5.4-20.4-12-29.5-19.6-.9-.7-1.8-1.6-2.2-2.6-.7-2.1.4-4.1 2.4-5 1.6-.8 3.2-.9 5-.5 2.8.6 5.5 1.7 8 3.2 4.8 2.8 9.6 5.6 14.5 8.3 2.1 1.1 4.4 1.8 6.5 2.7 4.3 1.7 5.3 3.5 4.5 7.8"/>
</clipPath>
<clipPath id="p">
    <path d="m-2.6-2063.9h1282v3628.3h-1282z"/>
</clipPath>
<clipPath id="q">
    <path d="m534.8 220.1c-1-1.3-2.2-2.4-2.8-3.9-1.2-2.9-3.5-4.7-5.9-6.4-4.2-3.1-6.5-7.2-6.8-12.3-.1-1.6 0-3.2 1.2-4.8 4.3 5.2 5.7 12 9.4 17.4l.4-.1c-.1-.6-.3-1.2-.4-1.8-.5-3.8-2-7.3-2.9-10.9-2.4-9-1.2-17.8 1.9-26.4 1.5-4.3 3.2-8.5 4.7-12.8.6-1.8.9-3.7 1.4-5.9.5.5 1 .8 1.2 1.2.7 1.5 1.4 3 1.9 4.6 1 3 .5 6.1-.1 9.1-.9 4.3-1.9 8.6-2.9 12.9-1 4.5-2 9.1-3.3 13.6-.5 1.8-1.4 3.6-1.4 5.5 0 2.3 0 4.7.3 7 .3 2.6.9 5.1 1.5 7.6.1.7.5 1.3.8 1.9.1 0 .2-.1.3-.1-.2-1.6-.3-3.3-.6-4.9-1.1-5.3-.6-10.4 1.4-15.3 2.2-5.5 4.6-10.8 6.9-16.2.2-.4.4-.7.8-1.4.3.9.6 1.6.6 2.2 0 1.9-.1 3.8-.3 5.7-.3 3-.7 6-1.2 9-.3 1.8-.9 3.6-1.5 5.3-1.5 4.4-3.2 8.7-4.8 13.1-.8 2.2-1.3 4.5.3 6.6.1.1 0 .2 0 .4.1-.1 0 0-.1.1m.5-11.4c.1 0 .3.1.4.1 2.3-3.4 6.4-19 5.9-22.6-.2.6-.4 1-.5 1.4-.6 2.3-1 4.7-1.7 6.9-.8 2.9-1.9 5.8-2.8 8.8-.4 1.7-.8 3.5-1.3 5.4m-5.4-20.6c1.8-7.7 3.7-15.5 5.5-23.3-.1 0-.2-.1-.4-.1-2.7 7.6-5 15.3-5.1 23.4"/>
</clipPath>
<clipPath id="r">
    <path d="m-2.4-2047h1282v3628.3h-1282z"/>
</clipPath>
<clipPath id="s">
    <path d="m801.3 287.6c-1-1.3-2.2-2.4-2.8-3.9-1.2-2.9-3.5-4.7-5.9-6.4-4.2-3.1-6.5-7.2-6.8-12.3-.1-1.6 0-3.2 1.2-4.8 4.3 5.2 5.7 12 9.4 17.4.1 0 .2-.1.4-.1-.1-.6-.3-1.2-.4-1.8-.5-3.8-2-7.3-2.9-10.9-2.4-9-1.2-17.8 1.9-26.4 1.5-4.3 3.2-8.5 4.7-12.8.6-1.8.9-3.7 1.4-5.9.5.5 1 .8 1.2 1.2.7 1.5 1.4 3 1.9 4.6 1 3 .5 6.1-.1 9.1-.9 4.3-1.9 8.6-2.9 12.9-1 4.5-2 9.1-3.3 13.6-.5 1.8-1.4 3.6-1.4 5.5 0 2.3.1 4.7.3 7 .3 2.6.9 5.1 1.5 7.6.1.7.5 1.3.8 1.9.1 0 .2-.1.3-.1-.2-1.6-.3-3.3-.6-4.9-1.1-5.3-.6-10.4 1.4-15.3 2.2-5.5 4.6-10.8 6.9-16.2.2-.4.4-.7.8-1.4.3.9.6 1.6.6 2.2 0 1.9-.1 3.8-.3 5.7-.3 3-.7 6-1.2 9-.3 1.8-.9 3.6-1.5 5.3-1.5 4.4-3.2 8.7-4.8 13.1-.8 2.2-1.3 4.5.3 6.6.1.1 0 .2 0 .4zm.6-11.4c.1 0 .3.1.4.1 2.3-3.4 6.4-19 5.9-22.6-.2.6-.4 1-.5 1.4-.6 2.3-1 4.7-1.7 6.9-.8 2.9-1.9 5.8-2.8 8.8-.5 1.7-.9 3.5-1.3 5.4zm-5.4-20.6c1.8-7.7 3.7-15.5 5.5-23.3-.1 0-.2-.1-.4-.1-2.7 7.6-5 15.3-5.1 23.4z"/>
</clipPath>
<clipPath id="t">
    <path d="m3.5-2055.1h1282v3628.3h-1282z"/>
</clipPath>
<clipPath id="u">
    <path d="m764.2 297c0-.1 0-.3 0-.4 1.6-2.1 1.1-4.4.3-6.6-1.6-4.4-3.2-8.7-4.8-13.1-.6-1.7-1.2-3.5-1.5-5.3-.5-3-.9-6-1.2-9-.2-1.9-.3-3.8-.3-5.7 0-.6.3-1.3.6-2.2.4.6.6 1 .8 1.4 2.3 5.4 4.7 10.8 6.9 16.2 2 4.9 2.5 10.1 1.4 15.3-.3 1.6-.4 3.2-.6 4.9.1 0 .2.1.3.1.3-.6.6-1.3.8-1.9.5-2.5 1.1-5.1 1.5-7.6.3-2.3.3-4.7.3-7 0-1.9-.8-3.7-1.4-5.5-1.3-4.5-2.2-9-3.3-13.6-1-4.3-2-8.6-2.9-12.9-.6-3-1.1-6.1-.1-9.1.5-1.6 1.2-3.1 1.9-4.6.2-.4.7-.7 1.2-1.2.5 2.2.7 4.1 1.4 5.9 1.5 4.3 3.2 8.5 4.7 12.8 3.1 8.6 4.3 17.4 1.9 26.4-1 3.6-2.5 7.1-2.9 10.9-.1.6-.2 1.2-.4 1.8.1 0 .2.1.4.1 3.7-5.5 5.1-12.2 9.4-17.4 1.2 1.5 1.3 3.1 1.2 4.8-.3 5.2-2.6 9.2-6.8 12.3-2.3 1.7-4.7 3.5-5.9 6.4-.6 1.4-1.9 2.6-2.8 3.9.1 0 0-.1-.1-.1m-1.7-16.7c-.9-2.9-1.9-5.8-2.8-8.8-.7-2.3-1.1-4.6-1.7-6.9-.1-.4-.3-.8-.5-1.4-.5 3.6 3.7 19.1 5.9 22.6.1 0 .3-.1.4-.1-.3-1.7-.7-3.6-1.3-5.4m1.7-38.4c-.1 0-.2.1-.4.1 1.8 7.7 3.7 15.5 5.5 23.3-.1-8.2-2.4-15.9-5.1-23.4"/>
</clipPath>
<clipPath id="v">
    <path d="m-1.9-2059.9h1282v3628.3h-1282z"/>
</clipPath>
<g clip-path="url(#a)" class="blue-fern">
    <path clip-path="url(#b)" d="m572.2 184.6h118.6v112.4h-118.6z" fill="#c1e5e4" transform="matrix(.309 -.9511 .9511 .309 207.3466 766.9738)"/>
</g>
<g clip-path="url(#c)">
    <path clip-path="url(#d)" d="m195 152h782.4v293h-782.4z" fill="#75c69f"/>
</g>
<g clip-path="url(#e)">
    <path clip-path="url(#f)" d="m-11.1 150.7h1299.5v281.7h-1299.5z" fill="#5998d1"/>
</g>
<g clip-path="url(#g)">
    <path clip-path="url(#h)" d="m-14.1 102h1305.2l-11.8 443h-1279.3z" fill="#201b50"/>
    <path clip-path="url(#h)" d="m1279.3 545v-225.4c-142.6 83.5-358.1 130.3-596.3 117.4-321.9-17.5-590.7-138.8-689.6-294.3l6.6 402.3z" fill="#f7a349"/>
</g>
<g clip-path="url(#i)" class="green-fern">
    <path clip-path="url(#j)" d="m222.8 96h174.9v184.3h-174.9z" fill="#d9e154"/>
</g>
<g clip-path="url(#k)" class="blink-line">
    <path clip-path="url(#l)" d="m194.4 35.5h55v58.8h-55z" fill="#f1a349"/>
</g>
<g clip-path="url(#m)" class="blink-line bl2">
    <path clip-path="url(#n)" d="m248.3 35.5h35v58.8h-35z" fill="#eecc3f"/>
</g>
<g clip-path="url(#o)" class="blink-line bl3">
    <path clip-path="url(#p)" d="m195 92.3h53.8v41.3h-53.8z" fill="#f7a349"/>
</g>
<g clip-path="url(#q)" class="grass grass-1">
    <path clip-path="url(#r)" d="m513 145.8h35.7v80.5h-35.7z" fill="#75c69f"/>
</g>
<g clip-path="url(#s)" class="grass grass-2">
    <path clip-path="url(#t)" d="m779.6 213.3h35.7v80.5h-35.7z" fill="#d9e154"/>
</g>
<g clip-path="url(#u)" class="grass grass-3">
    <path clip-path="url(#v)" d="m750.5 222.9h35.7v80.5h-35.7z" fill="#d9e154"/>
</g>
</svg>
