<?xml version="1.0" standalone="no"?>
<!DOCTYPE svg PUBLIC "-//W3C//DTD SVG 20010904//EN"
 "http://www.w3.org/TR/2001/REC-SVG-20010904/DTD/svg10.dtd">
<svg version="1.0" xmlns="http://www.w3.org/2000/svg"
 width="489.000000pt" height="489.000000pt" viewBox="0 0 489.000000 489.000000"
 preserveAspectRatio="xMidYMid meet">
<metadata>
Created by potrace 1.11, written by Peter Selinger 2001-2013
</metadata>
<g transform="translate(0.000000,489.000000) scale(0.100000,-0.100000)"
fill="#000000" stroke="none">
<path d="M7 4883 c-4 -3 -7 -1104 -7 -2445 l0 -2438 2445 0 2445 0 0 2445 0
2445 -2438 0 c-1341 0 -2442 -3 -2445 -7z m1731 -849 c125 -52 179 -206 116
-332 -48 -96 -154 -146 -261 -123 -223 51 -256 356 -48 452 50 23 142 25 193
3z m1660 0 c89 -37 141 -120 142 -224 0 -118 -73 -207 -191 -232 -103 -21
-213 33 -259 128 -59 120 -6 270 115 325 50 23 142 25 193 3z m-2270 -2160
c20 -8 88 -65 152 -128 171 -167 281 -245 475 -336 554 -261 1199 -193 1695
178 41 31 124 104 183 163 60 59 123 114 142 123 18 9 57 16 87 16 171 -1 270
-177 183 -325 -12 -22 -72 -87 -131 -145 -182 -176 -338 -285 -569 -396 -791
-379 -1744 -214 -2368 409 -120 120 -146 164 -147 246 0 151 157 254 298 195z"/>
</g>
</svg>
