<?xml version="1.0" encoding="utf-8"?>
<!-- Generator: Adobe Illustrator 23.0.5, SVG Export Plug-In . SVG Version: 6.00 Build 0)  -->
<svg version="1.1" id="Layer_1" xmlns="http://www.w3.org/2000/svg" xmlns:xlink="http://www.w3.org/1999/xlink" x="0px" y="0px"
	 viewBox="0 0 94.7 139.1" style="enable-background:new 0 0 94.7 139.1;" xml:space="preserve">
<style type="text/css">
	.st0{fill:#DDB78F;}
	.st1{fill:#EDCB9A;}
	.st2{fill:#221D4E;}
	.st3{fill:none;stroke:#221D4E;stroke-width:0.4171;stroke-linecap:round;stroke-miterlimit:10;}
	.st4{fill:#FFFFFF;}
	.st5{fill:none;stroke:#221D4E;stroke-width:0.2921;stroke-linecap:round;stroke-miterlimit:10;}
	.st6{fill:#E8E3DB;}
	.st7{clip-path:url(#SVGID_2_);}
	.st8{fill:none;stroke:#221D4E;stroke-width:0.2826;stroke-miterlimit:10;}
	.st9{clip-path:url(#SVGID_4_);}
	.st10{fill:none;stroke:#EDCB9A;stroke-width:8.535100e-02;stroke-miterlimit:10;}
	.st11{clip-path:url(#SVGID_6_);}
	.st12{clip-path:url(#SVGID_8_);}
	.st13{fill:none;stroke:#221D4E;stroke-width:0.336;stroke-miterlimit:10;}
	.st14{clip-path:url(#SVGID_10_);}

	#left_x5F_leg{
		animation: rotate_leg_left 0.2s infinite alternate;
		transform-origin: 77px  81.6px
	}

	@keyframes rotate_leg_left {
		from{transform:rotate(-20deg)}to{transform:rotate(20deg)};
	}

	#right_x5F_leg {
		animation: rotate_leg_right 0.2s infinite alternate;
		transform-origin: 63.8px 81.4px
	}

	@keyframes rotate_leg_right {
		from{transform:rotate(20deg)}to{transform:rotate(-20deg)};
	}

</style>
<g id="Arab_x5F_guy">
	<polygon id="right_x5F_leg" class="st0" points="63.8,81.4 32.3,82.7 12,100.6 0.3,102.1 0,105.8 16.1,106.5 16.1,103 28.9,95.3 
		33.7,91.1 66.7,91.9 	"/>
	<path class="st1" d="M81.3,48.1c0,0-4.3,21-3.7,35.1c0.6,15.2-9.4,8.4-9.4,8.4L62.7,90c0,0.7-2.3-9.9-3-11.7
		c2.8-10.1-0.2-18.8,1.1-24.9c1.2-5.8,7-7.7,7-7.7L81.3,48.1z"/>
	<path class="st1" d="M78.7,25.7l-0.4,8.9c0,0-0.2,2.3-0.7,4.3c-1,3.8-0.8,6.3-0.9,7.6c-0.1,2.2-13.8,1.8-11,0.6c2-0.9,3.5-4,3-5.5
		c-0.3-1.1-2.2-0.5-2.9-1.7c-1.5-2.8-0.2-12,0-16.5C65.8,23,78.9,19.9,78.7,25.7z"/>
	<path class="st2" d="M71.4,20.1c-1.1,0.3-1.9,0.9-3.1,1c-1.3,0.1-2.3-1-3.4,0c-0.9,0.8-0.4,1.8-0.1,2.3c-0.6,0.3-1.9,2.5,0.8,3.9
		c2.7,1.4,7.4-0.2,8.7-0.6c0.5-0.2,1.1-0.3,1.6-0.2c0.5,0.1,1,0.5,1.1,1.1c0,0.5-0.3,0.9-0.5,1.4c-0.8,2,1.3,4.2,1,6.4
		c-0.1,0.4-0.6,1.3-0.9,1.6c-0.9,0.8-2.1-0.9-3.2-1.5c-0.6-0.4-2.1-0.6-2.7-0.8c-0.4,0.4-1.1,0.4-1.6,0.4c-0.2,0-0.7-0.1-1-0.7
		c-0.3,0-0.3,0.1-0.6,0.1c-1.5,0.5-2.7,2.3-2.4,4c0.2,1.3,1.2,3.2,2.4,3.8c2.3,1.2,5.6,0.7,8-0.3s4-3.9,3-6.2
		c-0.2-0.5-0.1-1-0.2-1.5s0-1,0.5-1.3c0.3-0.2,0.2-0.3,0.5-0.4c0.7-0.3,1-1,1.2-1.6c0.9-2.5,0.7-5.7-1.3-7.8
		C77.2,20.9,74.5,19.2,71.4,20.1z"/>
	<path class="st1" d="M78.3,33.3c0,0,0.2-1,0.8-1.2c0.6-0.2,1.6-0.8,2,0.1c0.5,0.9-0.7,3.5-1.5,3.8c-0.8,0.2-1.2-0.2-1.5-0.7
		C77.8,34.8,78.3,33.3,78.3,33.3z"/>
	<path class="st1" d="M65.7,36.4c-1.1,1.6,1.3,3.2,2.5,3.3c1.1,0,3.4-0.8,3.3-2.8C71.4,36.1,66.3,35.3,65.7,36.4z"/>
	<path class="st2" d="M73.5,30.2c-0.6-0.5-1.2-0.9-1.9-1c-0.8-0.1-0.7-0.7,0.1-0.6c0.8,0.1,1.5,0.5,2,1.1S73.9,30.5,73.5,30.2z"/>
	<path class="st2" d="M66.6,30.1c0.5-0.4,1.3-0.8,1.9-0.9c0.6,0,0.6-0.6,0-0.6s-1.5,0.4-2,0.9C66.1,30.1,66.3,30.3,66.6,30.1z"/>
	<path class="st3" d="M70.8,34c0,0,0.2,0.5-0.3,0.8c-0.6,0.3-2.3,0.2-2.4-0.5c-0.1-0.8,0.8-0.7,0.8-1.3c0-0.5,0-1.5,0.3-2.5"/>
	<g>
		<path class="st4" d="M56.5,82.2c0-1.8-1.5-3.2-3.2-3.2c-1.8,0-3.2,1.5-3.2,3.2c0,1.8,1.5,3.2,3.2,3.2S56.5,84,56.5,82.2z"/>
		<path class="st4" d="M63.4,88.2c0-1.8-1.5-3.2-3.2-3.2c-1.8,0-3.2,1.5-3.2,3.2c0,1.8,1.5,3.2,3.2,3.2C62,91.4,63.4,90,63.4,88.2z"
			/>
		<path class="st4" d="M71.7,80.6c0-1.8-1.5-3.2-3.2-3.2s-3.2,1.5-3.2,3.2c0,1.8,1.5,3.2,3.2,3.2S71.7,82.4,71.7,80.6z"/>
		<path class="st4" d="M80.4,83.4c0-1.8-1.5-3.2-3.2-3.2c-1.8,0-3.2,1.5-3.2,3.2c0,1.8,1.5,3.2,3.2,3.2C79,86.7,80.4,85.2,80.4,83.4
			z"/>
		<path class="st4" d="M66.3,80.6c0-1.2-1-2.2-2.2-2.1s-2.1,1-2.1,2.2s1,2.2,2.2,2.1C65.4,82.8,66.3,81.8,66.3,80.6z"/>
		<path class="st4" d="M63.3,81.5c0-2.3-1.9-4.1-4.1-4.1s-4.1,1.9-4.1,4.1c0,2.3,1.9,4.1,4.1,4.1C61.5,85.6,63.3,83.8,63.3,81.5z"/>
		<path class="st4" d="M76.6,84.2c0-2.3-1.9-4.1-4.1-4.1c-2.3,0-4.1,1.9-4.1,4.1c0,2.3,1.9,4.1,4.1,4.1
			C74.8,88.3,76.6,86.5,76.6,84.2z"/>
		<path class="st4" d="M71,85.9c0-2.9-2.4-5.3-5.3-5.3s-5.3,2.4-5.3,5.3c0,2.9,2.4,5.3,5.3,5.3C68.7,91.2,71,88.8,71,85.9z"/>
		<path class="st4" d="M69.9,90.8c0-2.3-1.9-4.1-4.1-4.1c-2.3,0-4.1,1.9-4.1,4.1s1.9,4.1,4.1,4.1C68.1,95,69.9,93.1,69.9,90.8z"/>
		<path class="st4" d="M59.2,85.1c0-1.2-1-2.2-2.2-2.1s-2.1,1-2.1,2.2s1,2.2,2.2,2.1C58.2,87.3,59.2,86.3,59.2,85.1z"/>
		<path class="st4" d="M73.2,89c0-1.2-1-2.2-2.2-2.1c-1.2,0-2.1,1-2.1,2.2s1,2.2,2.2,2.1C72.3,91.2,73.3,90.2,73.2,89z"/>
		<path class="st4" d="M82.6,82.9c0-1.2-1-2.2-2.2-2.1c-1.2,0-2.1,1-2.1,2.2s1,2.2,2.2,2.1C81.7,85.1,82.6,84.1,82.6,82.9z"/>
	</g>
	<path id="left_x5F_leg" class="st1" d="M69.3,85.5c0,0-31,7-33,8.3s-4.7,24.1-8.2,36.8c-1,1-10.7,6.5-10.7,6.5l3.9,2l13.8-6.5
		l-1.2-5.8c0,0,8.9-13.3,8.4-18s-1.1-5.2,0-5.8c9.9-3.8,25.3,0.6,35.2-9.5c4.2-4.4-0.5-11.9-0.5-11.9L69.3,85.5z"/>
	<g>
		<path class="st5" d="M72,48c0,0-0.2-0.7-0.6-0.6s-0.8,0.8-0.4,0.9s0-1.1-0.5-1c-0.5,0.2-1.1,0.8-0.8,0.9c0.4,0.1,0.5-1.1,0-1
			c-0.5,0-1.2,0.4-0.8,0.8c0.3,0.3,0.4-0.9-0.2-0.8c-0.7,0.1-1.2,0.9-0.8,1.1c0.4,0.2,0.3-1.1-0.4-1.1c-0.5,0-1.2,0.7-0.9,1.1
			c0.3,0.3,0.5-1.2-0.2-1"/>
		<path class="st5" d="M71.5,49.6c0,0-0.2-0.5-0.6-0.5s-0.8,0.5-0.6,0.9s0.5,0,0.5-0.4s-0.5-0.6-0.9-0.5S69,49.7,69.2,50
			s0.5-0.1,0.4-0.4c0-0.3-0.5-0.6-0.7-0.6s-0.6,0.1-0.8,0.4c-0.2,0.4,0.1,0.5,0.3,0.4c0.2-0.1,0.3-0.9-0.3-0.9s-0.9,0.2-1,0.6
			c0,0.4,0.4,0.3,0.4-0.1s-0.3-0.6-0.8-0.5s-0.5,0.4-0.5,0.4"/>
		<path class="st5" d="M70.1,51.1c0,0-0.2-0.5-0.7-0.5c-0.4,0.1-0.7,1.1-0.3,1.1c0.3-0.1,0.2-1.2-0.4-1.1s-0.9,0.9-0.7,1.1
			c0.2,0.2,0.5-0.3,0.4-0.7c-0.1-0.4-0.4-0.5-0.9-0.4c-0.4,0.1-0.6,0.6-0.4,0.8c0.1,0.1,0.4-0.1,0.4-0.4c0.1-0.3-0.3-0.7-0.7-0.7
			c-0.6,0.1-0.5,0.5-0.5,0.5"/>
	</g>
	<path class="st1" d="M75.7,43.9c0,0,4.2,0.5,4.4,6.8c0.2,6.3-3.1,10.6-3.3,13.6c-0.2,3-2.4-11-2.4-11L75.7,43.9z"/>
	<path class="st2" d="M72.2,31.6c0.2-0.1,0.2-0.4,0.1-0.5c-0.1-0.2-0.4-0.2-0.5-0.1c-0.2,0.1-0.2,0.4-0.1,0.5
		C71.8,31.7,72,31.8,72.2,31.6z"/>
	<path class="st2" d="M68,31.6c0.2-0.1,0.2-0.4,0.1-0.5c-0.1-0.2-0.4-0.2-0.5-0.1c-0.2,0.1-0.2,0.4-0.1,0.5
		C67.6,31.7,67.9,31.7,68,31.6z"/>
	<path class="st2" d="M72,36.3c0,0-1.2,0.2-2.6,0.1s-2.2-0.5-2.2-0.5s0,2.8,1.9,2.9C71,38.8,72,36.3,72,36.3z"/>
	<path class="st0" d="M72.7,53.5c0,0.4,0.5,0.7,1,0.7s1-0.3,1-0.7c0-0.4-0.5-0.7-1-0.7C73.1,52.8,72.7,53.1,72.7,53.5z"/>
	<path class="st0" d="M61.8,53.6c0,0.4,0.5,0.7,1,0.7s1-0.3,1-0.7c0-0.4-0.5-0.7-1-0.7S61.8,53.2,61.8,53.6z"/>
	<line class="st3" x1="80.7" y1="51.2" x2="82.6" y2="51.6"/>
	<line class="st3" x1="80.1" y1="51.5" x2="82" y2="52.8"/>
	<line class="st3" x1="79.8" y1="52.5" x2="80.9" y2="54.2"/>
	<line class="st3" x1="80.3" y1="52.3" x2="81.1" y2="53.2"/>
	<ellipse class="st6" cx="68.8" cy="69.1" rx="1" ry="1"/>
	<path class="st6" d="M64.8,75.9c0-0.5-0.4-1-1-1s-1,0.4-1,1c0,0.5,0.4,1,1,1S64.8,76.4,64.8,75.9z"/>
	<g>
		<g>
			<g>
				<path class="st2" d="M63.2,71.3c-0.1,0.6-0.1,0.9-0.2,1.5c-0.1,0-0.1,0.1-0.2,0.1c-0.2-0.1-0.4-0.2-0.6-0.3
					c0-0.1-0.1-0.1-0.1-0.2c0.1-0.6,0.1-0.9,0.2-1.5c0.1,0,0.1,0,0.2-0.1c0.2,0.1,0.3,0.2,0.6,0.3C63.1,71.2,63.2,71.2,63.2,71.3z
					 M62.9,71.3c-0.1,0-0.1-0.1-0.2-0.1l0,0c-0.1,0.5-0.1,0.7-0.1,1.2c0,0,0,0,0,0.1c0.1,0,0.1,0.1,0.2,0.1l0,0
					C62.8,72.1,62.8,71.9,62.9,71.3C62.9,71.4,62.9,71.4,62.9,71.3z"/>
				<path class="st2" d="M63.6,73.2c-0.2-0.1-0.2-0.1-0.4-0.1c0,0,0-0.1,0.1-0.1c0.1-0.6,0.1-1,0.2-1.6c0-0.1,0-0.1,0-0.1
					c0.3,0.1,0.5,0.2,0.9,0.3c0.1,0.1,0.1,0.1,0.2,0.2c0,0.3-0.1,0.5-0.1,0.8c-0.1,0-0.1,0.1-0.2,0.1c-0.2-0.1-0.3-0.1-0.5-0.1l0,0
					C63.8,72.8,63.8,72.9,63.6,73.2C63.6,73.1,63.6,73.2,63.6,73.2z M63.7,72.2c0.1,0,0.2,0,0.3,0.1l0,0c0-0.2,0-0.3,0.1-0.5l0,0
					c-0.1,0-0.2,0-0.3-0.1l0,0C63.7,71.9,63.7,72,63.7,72.2L63.7,72.2z"/>
				<path class="st2" d="M65.7,72.2C65.6,72.2,65.6,72.2,65.7,72.2c-0.2-0.1-0.2-0.1-0.3-0.2l0,0c-0.1,0.5-0.1,0.8-0.2,1.3v0.1
					c-0.2,0-0.3-0.1-0.4-0.1c0,0,0-0.1,0.1-0.1c0.1-0.5,0.1-0.8,0.2-1.4l0,0c-0.1,0-0.2,0-0.3-0.1c-0.1,0-0.1,0-0.1,0
					c0-0.1,0.1-0.2,0.1-0.3c0.4,0.1,0.7,0.2,1.1,0.3C65.7,72,65.7,72.1,65.7,72.2z"/>
				<path class="st2" d="M66.1,73.8c-0.2,0-0.2,0-0.4-0.1c0,0,0-0.1,0.1-0.1c0.1-0.6,0.1-0.9,0.2-1.6v-0.1c0.2,0,0.2,0.1,0.4,0.1
					c0,0,0,0.1-0.1,0.1C66.2,72.7,66.2,73,66.1,73.8L66.1,73.8z"/>
				<path class="st2" d="M67.1,73.5c-0.1,0-0.1,0-0.2,0c-0.1-0.3-0.1-0.4-0.2-0.7c-0.1,0.4-0.1,0.6-0.1,1v0.1c-0.1,0-0.2,0-0.4-0.1
					c0,0,0-0.1,0.1-0.1c0.1-0.6,0.1-0.9,0.2-1.6V72c0.1,0,0.2,0,0.3,0.1c0.1,0.3,0.1,0.5,0.2,0.9c0.2-0.3,0.3-0.4,0.4-0.7
					c0.1,0,0.2,0,0.3,0c0,0,0,0.1-0.1,0.1c-0.1,0.6-0.1,0.9-0.2,1.5V74c-0.1,0-0.2,0-0.4,0c0,0,0-0.1,0.1-0.1c0-0.4,0.1-0.6,0.1-1
					C67.3,73.1,67.2,73.2,67.1,73.5z"/>
				<path class="st2" d="M68.2,74.1c-0.1,0-0.2,0-0.4,0c0,0,0-0.1,0.1-0.1c0.1-0.6,0.1-0.9,0.2-1.5v-0.1c0.1,0,0.2,0,0.4,0
					c0,0,0,0.1-0.1,0.1C68.3,73.1,68.3,73.4,68.2,74.1C68.1,74,68.2,74,68.2,74.1z"/>
				<path class="st2" d="M69.5,72.9c-0.2,0-0.2,0-0.4,0v-0.1v-0.1l0,0c-0.1,0-0.1,0-0.2,0l0,0c0,0.1,0,0.2,0,0.4l0,0
					c0.2,0,0.3,0,0.4,0c0.1,0.1,0.1,0.1,0.1,0.1c0,0.3-0.1,0.4-0.1,0.7C69.2,74,69.2,74,69.1,74c-0.2,0-0.4,0-0.6,0
					c-0.1-0.1-0.1-0.1-0.1-0.1c0-0.1,0-0.2,0-0.3v-0.1c0.1,0,0.2,0,0.4,0c0,0,0,0.1-0.1,0.1v0.1l0,0c0.1,0,0.1,0,0.2,0l0,0
					c0-0.1,0-0.2,0-0.4l0,0c-0.2,0-0.2,0-0.4,0c-0.1-0.1-0.1-0.1-0.1-0.2c0-0.3,0.1-0.4,0.1-0.7c0.1-0.1,0.1-0.1,0.2-0.1
					c0.2,0,0.4,0,0.6,0c0.1,0.1,0.1,0.1,0.1,0.1c0,0.1,0,0.2,0,0.3C69.4,72.9,69.5,72.9,69.5,72.9z"/>
				<path class="st2" d="M70.7,72.6L70.7,72.6c-0.2,0-0.2,0-0.3,0l0,0c-0.1,0.5-0.1,0.8-0.2,1.3V74c-0.1,0-0.2,0-0.4,0
					c0,0,0-0.1,0.1-0.1c0.1-0.5,0.1-0.8,0.2-1.3l0,0c-0.1,0-0.1,0-0.2,0s-0.1,0-0.1,0c0-0.1,0.1-0.2,0.1-0.3c0.4,0,0.6,0,1,0
					C70.7,72.5,70.7,72.5,70.7,72.6z"/>
				<path class="st2" d="M72,73.8c-0.3,0.1-0.5,0.1-0.8,0.2v-0.1c0.1-0.6,0.1-0.9,0.2-1.5v-0.1c0.1,0,0.2,0,0.3,0v0.1
					c-0.1,0.5-0.1,0.7-0.1,1.2l0,0c0.2,0,0.2,0,0.4-0.1c0,0,0.1,0,0.1-0.1C72,73.6,72,73.7,72,73.8z"/>
				<path class="st2" d="M72.4,73.7c-0.1,0-0.2,0.1-0.3,0.1v-0.1c0.1-0.6,0.1-0.8,0.2-1.4v-0.1c0.1,0,0.2,0,0.3-0.1v0.1
					C72.5,72.7,72.5,73,72.4,73.7C72.4,73.6,72.4,73.6,72.4,73.7z"/>
				<path class="st2" d="M72.8,72c0.3-0.1,0.4-0.1,0.7-0.2c0,0.1,0,0.2,0,0.3h-0.1c-0.2,0.1-0.2,0.1-0.4,0.1l0,0c0,0.1,0,0.2,0,0.3
					l0,0h0.1c0,0,0.1,0,0.1-0.1c0,0.1,0,0.2,0,0.3h-0.1H73l0,0c0,0.2,0,0.3-0.1,0.5v0.1c-0.1,0-0.2,0.1-0.3,0.1v-0.1
					C72.7,72.9,72.7,72.7,72.8,72C72.8,72.1,72.8,72.1,72.8,72z"/>
				<path class="st2" d="M73.5,73.3L73.5,73.3c0.1-0.6,0.1-0.9,0.1-1.5v-0.1c0.3-0.1,0.5-0.2,0.8-0.3c0,0.1,0,0.2,0,0.3h-0.1
					c-0.2,0.1-0.2,0.1-0.4,0.2l0,0c0,0.1,0,0.2,0,0.3l0,0c0.1,0,0.1,0,0.1-0.1c0,0,0.1,0,0.1-0.1c0,0.1,0,0.2,0,0.3H74
					c-0.1,0-0.1,0-0.1,0.1l0,0c0,0.1,0,0.2,0,0.3l0,0c0.2-0.1,0.2-0.1,0.4-0.2c0,0,0.1,0,0.1-0.1c0,0.1-0.1,0.2-0.1,0.3
					C73.9,73.2,73.8,73.2,73.5,73.3z"/>
			</g>
		</g>
	</g>
	<path class="st6" d="M72.3,75.9c0-0.8-0.7-1.4-1.4-1.4c-0.8,0-1.4,0.7-1.4,1.4c0,0.8,0.7,1.4,1.4,1.4
		C71.7,77.4,72.3,76.7,72.3,75.9z"/>
	<g id="right_x5F_arm">
		<path class="st0" d="M69.2,47.2c0,0-7.5-11.3-9.6-13.9c-0.6-12.1-4.3-11.8-4.1-22c-1.9-1.6-3.3,0.2-3.3,0.2s0.5,19.9,2.8,24.9
			s8.6,17.2,8.6,17.2L69.2,47.2z"/>
		<path class="st0" d="M55.9,12.6c0,0,1.4-0.5,1.7-1.6c0.3-1.1,0.5-2.9,0.4-4.2c-0.1-1.3-1.1-0.7-1.2,0.4s-0.2,1.4-0.4,1.5
			c-0.2,0.2-0.8,0.6-1-0.9c-0.2-1.6-0.3-3.5-0.4-5.3s-1.2-1.3-1.2,0s0.1,3.4,0,4.2c-0.1,0.7-0.6,0.8-0.8-0.6c-0.1-1.3-0.1-2.5,0-3.6
			c0-1.2-1.1-1.4-1.1,0c0,1.3,0,3.8-0.1,4.4s-0.6,0.9-0.7-0.4C50.9,5.2,51,4.7,51,3.2c0-1.3-1.2-1.3-1.2,0.2c0,1.6,0.1,3.7,0.4,6.2
			s2.9,3.6,2.9,3.6L55.9,12.6z"/>
		<g>
			<g>
				<g>
					<g>
						<defs>
							<path id="SVGID_1_" d="M69.2,47.2c0,0-7.5-11.3-9.6-13.9c-0.6-12.1-4.3-11.8-4.1-22c-1.9-1.6-3.3,0.2-3.3,0.2
								s0.5,19.9,2.8,24.9s8.6,17.2,8.6,17.2L69.2,47.2z"/>
						</defs>
						<clipPath id="SVGID_2_">
							<use xlink:href="#SVGID_1_"  style="overflow:visible;"/>
						</clipPath>
						<g class="st7">
							<path class="st8" d="M52.8,14.8c0,0,0.9,1.9,0.9,3.2c0,1.3-0.6,3-0.6,3c-0.4,1.3,0.1,3.7,0.1,3.7"/>
							<path class="st2" d="M53.5,16.3c0,0,0.7,0,1.2,0.5s0.6,1.8,0.6,1.8s-0.6-0.6-0.9-1.1C54,17.2,53.5,16.3,53.5,16.3z"/>
							<path class="st2" d="M53.5,16.3c0,0-0.3,1.2-0.7,1.9c-0.4,0.7-0.9,1.2-0.9,1.2s0.3-1.4,0.7-2.1S53.5,16.3,53.5,16.3z"/>
							<path class="st2" d="M53.7,18.5c0,0,0.4,0.1,0.6,0.5C54.6,19.4,54,19.6,53.7,18.5z"/>
							<path class="st2" d="M53.6,18.5c0,0-0.4,0-0.7,0.3C52.6,19.2,53.2,19.5,53.6,18.5z"/>
							<path class="st2" d="M53.6,19.2c0,0,0.4,0.1,0.6,0.5C54.5,20.2,53.9,20.4,53.6,19.2z"/>
							<path class="st2" d="M53.6,19.2c0,0-0.4,0-0.7,0.3C52.6,19.8,53.1,20.2,53.6,19.2z"/>
							<path class="st2" d="M53.5,19.9c0,0,0.3,0.2,0.5,0.6C54.1,21.1,53.5,21.1,53.5,19.9z"/>
							<path class="st2" d="M53.5,20c0,0-0.3-0.1-0.7,0.1C52.4,20.3,52.8,20.8,53.5,20z"/>
							<path class="st2" d="M53.3,20.7c0,0,0.3,0.2,0.5,0.6C53.9,21.8,53.4,21.8,53.3,20.7z"/>
							<path class="st2" d="M53.3,20.7c0,0-0.4-0.1-0.8,0.2C52.1,21.1,52.5,21.6,53.3,20.7z"/>
							<path class="st2" d="M53.1,21.4c0,0,0.4,0.1,0.6,0.6C53.8,22.4,53.3,22.5,53.1,21.4z"/>
							<path class="st2" d="M53.1,21.3c0,0-0.4-0.1-0.8,0.2C51.9,21.9,52.5,22.3,53.1,21.3z"/>
							<path class="st2" d="M53,22.2c0,0,0.4,0.1,0.6,0.5C53.9,23.2,53.3,23.3,53,22.2z"/>
							<path class="st2" d="M53,22.2c0,0-0.4,0-0.7,0.4C51.9,22.9,52.5,23.3,53,22.2z"/>
							<path class="st2" d="M53.1,23.1c0,0,0.4,0.1,0.6,0.5C54,24,53.4,24.2,53.1,23.1z"/>
							<path class="st2" d="M53,23c0,0-0.4,0-0.7,0.4S52.7,24.2,53,23z"/>
							<path class="st2" d="M53.2,24c0,0,0.4,0,0.7,0.4C54.2,24.8,53.6,25.1,53.2,24z"/>
							<path class="st2" d="M53.2,23.9c0,0-0.4,0-0.7,0.4C52.2,24.7,52.8,25,53.2,23.9z"/>
							<path class="st2" d="M53.2,24.7c0,0,0.4,0,0.7,0.4C54.2,25.5,53.7,25.8,53.2,24.7z"/>
							<path class="st2" d="M53.3,24.7c0,0-0.4,0.1-0.6,0.5C52.4,25.6,53.1,25.9,53.3,24.7z"/>
						</g>
					</g>
				</g>
			</g>
			<g>
				<g>
					<g>
						<defs>
							<path id="SVGID_3_" d="M69.2,47.2c0,0-7.5-11.3-9.6-13.9c-0.6-12.1-4.3-11.8-4.1-22c-1.9-1.6-3.3,0.2-3.3,0.2
								s0.5,19.9,2.8,24.9s8.6,17.2,8.6,17.2L69.2,47.2z"/>
						</defs>
						<clipPath id="SVGID_4_">
							<use xlink:href="#SVGID_3_"  style="overflow:visible;"/>
						</clipPath>
						<g class="st9">
							<path class="st2" d="M59.2,29.8V29c0,0-1.8-0.7-4.2,0.4C57.1,30.4,59.2,29.8,59.2,29.8z"/>
							<path class="st2" d="M59.2,29c0,0-2.3-1.3-3-3.5c2.4,1.2,2.9,2.5,2.9,2.5L59.2,29z"/>
							<path class="st10" d="M59.3,29.3c0,0-1.9,0.2-3.1,0.2"/>
							<line class="st10" x1="59.3" y1="28.6" x2="57.3" y2="26.6"/>
						</g>
					</g>
				</g>
			</g>
			<g>
				<g>
					<g>
						<defs>
							<path id="SVGID_5_" d="M69.2,47.2c0,0-7.5-11.3-9.6-13.9c-0.6-12.1-4.3-11.8-4.1-22c-1.9-1.6-3.3,0.2-3.3,0.2
								s0.5,19.9,2.8,24.9s8.6,17.2,8.6,17.2L69.2,47.2z"/>
						</defs>
						<clipPath id="SVGID_6_">
							<use xlink:href="#SVGID_5_"  style="overflow:visible;"/>
						</clipPath>
						<g class="st11">
							<path class="st2" d="M57.6,22.7c0,0-0.7,0.3-1.3,0.1c-0.7-0.2-0.3-1,0.4-0.7C57.4,22.4,57.6,22.7,57.6,22.7z"/>
							<path class="st2" d="M57.6,22.8c0,0-0.1,0.7-0.7,1.2c-0.7,0.5-1-0.1-0.5-0.7C56.9,22.6,57.6,22.8,57.6,22.8z"/>
							<path class="st2" d="M57.6,22.6c0,0,0.5,1.2,0.6,1.9c-0.3,0.2-0.8-0.2-0.9-0.8C57.1,23,57.6,22.6,57.6,22.6z"/>
							<path class="st2" d="M57.6,22.7c0,0-0.4-1.2-0.4-1.4c-0.3-0.3-0.8-0.3-0.7,0.3C56.5,22.2,57.6,22.7,57.6,22.7z"/>
						</g>
					</g>
				</g>
			</g>
		</g>
	</g>
	<g id="left_x5F_arm">
		<path class="st1" d="M76.6,44.7c1.9-3,8.6-11.8,8.7-13.2c-0.2-6.7,5.9-16.5,4.2-20.8c-1.8-4.3,4.2-1.5,4.2-1.5S91.8,32,91.4,33.8
			c-0.5,1.7-10.5,17-12.6,23.2c-2.1,6.2-3.7-9.9-3.7-9.9S74.7,47.8,76.6,44.7z"/>
		<path class="st1" d="M89.1,11.3c0,0-1.4-0.4-1.8-1.4s-0.8-2.8-0.8-4.1c0-1.3,1.1-0.8,1.3,0.2c0.2,1.1,0.4,1.3,0.5,1.5
			c0.2,0.2,0.8,0.6,0.9-1s0-3.5-0.1-5.3s1.1-1.4,1.2-0.1s0.3,3.4,0.4,4.1s0.7,0.7,0.7-0.6c0-1.3-0.2-2.5-0.3-3.6
			C91-0.2,92-0.5,92.2,0.9c0.1,1.3,0.4,3.7,0.5,4.3c0.1,0.6,0.7,0.9,0.7-0.5c0-1.3-0.1-1.8-0.2-3.3c-0.1-1.3,1.1-1.4,1.3,0.1
			c0.2,1.6,0.3,3.7,0.2,6.2c0,2.5-2.5,3.9-2.5,3.9L89.1,11.3z"/>
		<g>
			<g>
				<g>
					<g>
						<defs>
							<path id="SVGID_7_" d="M76.6,44.7c1.9-3,8.6-11.8,8.7-13.2c-0.2-6.7,5.9-16.5,4.2-20.8c-1.8-4.3,4.2-1.5,4.2-1.5
								S91.8,32,91.4,33.8c-0.5,1.7-10.5,17-12.6,23.2c-2.1,6.2-3.7-9.9-3.7-9.9S74.7,47.8,76.6,44.7z"/>
						</defs>
						<clipPath id="SVGID_8_">
							<use xlink:href="#SVGID_7_"  style="overflow:visible;"/>
						</clipPath>
						<g class="st12">
							<path class="st13" d="M94.4,10.7c0,0,0,2.6-0.7,3.9s-2.2,2.9-2.2,2.9c-1.1,1.2-1.9,4-1.9,4"/>
							<path class="st2" d="M94.3,12.6c0,0,0.8,0.4,1,1.2c0.2,0.8-0.3,2.3-0.3,2.3s-0.3-1-0.4-1.6C94.4,13.8,94.3,12.6,94.3,12.6z"
								/>
							<path class="st2" d="M94.3,12.6c0,0-0.9,1.1-1.7,1.6c-0.8,0.5-1.6,0.9-1.6,0.9s1.1-1.4,1.8-1.8
								C93.5,12.8,94.3,12.6,94.3,12.6z"/>
							<path class="st2" d="M93.5,15c0,0,0.4,0.3,0.4,0.9S93.3,16.4,93.5,15z"/>
							<path class="st2" d="M93.3,15c0,0-0.4-0.2-0.9,0S92.3,15.9,93.3,15z"/>
							<path class="st2" d="M92.9,15.8c0,0,0.3,0.3,0.4,0.9S92.7,17.1,92.9,15.8z"/>
							<path class="st2" d="M92.9,15.7c0,0-0.4-0.2-0.9-0.1C91.5,15.9,91.9,16.5,92.9,15.7z"/>
							<path class="st2" d="M92.4,16.5c0,0,0.3,0.4,0.2,0.9C92.5,18,91.9,17.7,92.4,16.5z"/>
							<path class="st2" d="M92.4,16.5c0,0-0.3-0.3-0.8-0.3C91,16.3,91.2,17,92.4,16.5z"/>
							<path class="st2" d="M91.9,17.1c0,0,0.3,0.3,0.2,0.9C92,18.7,91.3,18.4,91.9,17.1z"/>
							<path class="st2" d="M91.8,17.1c0,0-0.3-0.3-0.9-0.2C90.3,17,90.6,17.8,91.8,17.1z"/>
							<path class="st2" d="M91.2,17.8c0,0,0.3,0.3,0.3,0.9S90.9,19.1,91.2,17.8z"/>
							<path class="st2" d="M91.3,17.7c0,0-0.4-0.3-0.9-0.1C89.8,17.7,90.1,18.5,91.3,17.7z"/>
							<path class="st2" d="M90.8,18.7c0,0,0.3,0.3,0.3,0.9S90.5,20,90.8,18.7z"/>
							<path class="st2" d="M90.7,18.6c0,0-0.4-0.2-1,0S89.7,19.5,90.7,18.6z"/>
							<path class="st2" d="M90.4,19.6c0,0,0.3,0.3,0.4,0.9C90.8,21.1,90.1,21,90.4,19.6z"/>
							<path class="st2" d="M90.3,19.5c0,0-0.4-0.2-1,0.1C88.8,19.9,89.3,20.5,90.3,19.5z"/>
							<path class="st2" d="M90,20.6c0,0,0.4,0.2,0.5,0.8C90.6,22,89.9,22,90,20.6z"/>
							<path class="st2" d="M90,20.5c0,0-0.4-0.2-1,0.1C88.5,20.8,89,21.5,90,20.5z"/>
							<path class="st2" d="M89.7,21.4c0,0,0.4,0.2,0.5,0.8C90.3,22.8,89.6,22.8,89.7,21.4z"/>
							<path class="st2" d="M89.7,21.5c0,0-0.5-0.2-0.9,0.2C88.3,22,88.9,22.6,89.7,21.5z"/>
						</g>
					</g>
				</g>
			</g>
			<g>
				<g>
					<g>
						<defs>
							<path id="SVGID_9_" d="M76.6,44.7c1.9-3,8.6-11.8,8.7-13.2c-0.2-6.7,5.9-16.5,4.2-20.8c-1.8-4.3,4.2-1.5,4.2-1.5
								S91.8,32,91.4,33.8c-0.5,1.7-10.5,17-12.6,23.2c-2.1,6.2-3.7-9.9-3.7-9.9S74.7,47.8,76.6,44.7z"/>
						</defs>
						<clipPath id="SVGID_10_">
							<use xlink:href="#SVGID_9_"  style="overflow:visible;"/>
						</clipPath>
						<g class="st14">
							<path class="st2" d="M92.3,26.7v0.9c0,0-2.1,0.7-4.8-0.6C90,25.8,92.3,26.7,92.3,26.7z"/>
							<path class="st2" d="M92.3,27.5c0,0-2.7,1.3-3.5,3.9c2.8-1.3,3.4-2.8,3.4-2.8L92.3,27.5z"/>
							<path class="st2" d="M92.8,23.7c0,0-1.4-0.3-1.1-1.1c0.4-0.8,1.1,0.4,1.1,0.4V23.7z"/>
							<path class="st2" d="M92.8,23.7c0,0-1-0.2-1.5,0.2c-0.6,0.4,0.3,1.1,0.9,0.9S92.8,23.7,92.8,23.7z"/>
							<path class="st2" d="M86.8,22.5c0,0,1.4,2.3,0.9,2.9S86.4,23,86.4,23L86.8,22.5z"/>
						</g>
					</g>
				</g>
			</g>
		</g>
	</g>
	<g>
		<path class="st4" d="M67.2,85.7c0-1.8-1.5-3.2-3.2-3.2c-1.8,0-3.2,1.5-3.2,3.2c0,1.8,1.5,3.2,3.2,3.2S67.2,87.5,67.2,85.7z"/>
		<path class="st4" d="M74.1,91.7c0-1.8-1.5-3.2-3.2-3.2c-1.8,0-3.2,1.5-3.2,3.2c0,1.8,1.5,3.2,3.2,3.2S74.2,93.5,74.1,91.7z"/>
		<path class="st4" d="M82.4,84.1c0-1.8-1.5-3.2-3.2-3.2c-1.8,0-3.2,1.5-3.2,3.2c0,1.8,1.5,3.2,3.2,3.2C81,87.3,82.4,85.9,82.4,84.1
			z"/>
		<path class="st4" d="M91.1,86.9c0-1.8-1.5-3.2-3.2-3.2c-1.8,0-3.2,1.5-3.2,3.2c0,1.8,1.5,3.2,3.2,3.2S91.2,88.7,91.1,86.9z"/>
		<path class="st4" d="M77.1,84.1c0-1.2-1-2.2-2.2-2.1c-1.2,0-2.1,1-2.1,2.2s1,2.2,2.2,2.1C76.1,86.3,77.1,85.3,77.1,84.1z"/>
		<path class="st4" d="M74,85c0-2.3-1.9-4.1-4.1-4.1c-2.3,0-4.1,1.9-4.1,4.1s1.9,4.1,4.1,4.1C72.2,89.1,74,87.3,74,85z"/>
		<path class="st4" d="M87.3,87.7c0-2.3-1.9-4.1-4.1-4.1c-2.3,0-4.1,1.9-4.1,4.1c0,2.3,1.9,4.1,4.1,4.1C85.5,91.8,87.3,90,87.3,87.7
			z"/>
		<path class="st4" d="M81.8,89.4c0-2.9-2.4-5.3-5.3-5.3s-5.3,2.4-5.3,5.3c0,2.9,2.4,5.3,5.3,5.3S81.8,92.3,81.8,89.4z"/>
		<path class="st4" d="M80.6,94.3c0-2.3-1.9-4.1-4.1-4.1c-2.3,0-4.1,1.9-4.1,4.1c0,2.3,1.9,4.1,4.1,4.1
			C78.8,98.4,80.6,96.6,80.6,94.3z"/>
		<path class="st4" d="M69.9,88.6c0-1.2-1-2.2-2.2-2.1c-1.2,0-2.1,1-2.1,2.2s1,2.2,2.2,2.1C69,90.8,69.9,89.8,69.9,88.6z"/>
		<path class="st4" d="M84,92.5c0-1.2-1-2.2-2.2-2.1c-1.2,0-2.1,1-2.1,2.2s1,2.2,2.2,2.1C83,94.7,84,93.7,84,92.5z"/>
		<path class="st4" d="M93.4,86.4c0-1.2-1-2.2-2.2-2.1c-1.2,0-2.1,1-2.1,2.2s1,2.2,2.2,2.1C92.4,88.6,93.4,87.6,93.4,86.4z"/>
	</g>
</g>
</svg>
