<?xml version="1.0" encoding="utf-8"?>
<!-- Generator: Adobe Illustrator 23.0.5, SVG Export Plug-In . SVG Version: 6.00 Build 0)  -->
<svg version="1.1" id="Layer_1" xmlns="http://www.w3.org/2000/svg" xmlns:xlink="http://www.w3.org/1999/xlink" x="0px" y="0px"
	 viewBox="0 0 59.1 143.7" style="enable-background:new 0 0 59.1 143.7;" xml:space="preserve">
<style type="text/css">
	.st0{fill:#221D4E;}
	.st1{fill:#814D49;}
	.st2{fill:#E8E3DB;}
	.st3{fill:none;stroke:#221D4E;stroke-width:0.4856;stroke-linecap:round;stroke-miterlimit:10;}

	#right_x5F_arm_1_ {
		animation: wave_right 0.4s linear alternate infinite;
		transform-origin: 22.9px  57.8px
	}

	@keyframes wave_right {
		from{transform: rotateX(0deg) rotateZ(0deg)}to{transform: rotateX(-30deg) rotateZ(-30deg)};
	}

	#left_x5F_arm_1_ {
		animation: wave_left 0.4s linear alternate infinite;
		transform-origin: 37.5px  49.6px
	}

	@keyframes wave_left {
		from{transform: rotateX(30deg) }to{transform: rotateX(0deg) rotateZ(0deg)};
	}
</style>
<g id="black_x5F_lady">
	<path class="st0" d="M45.3,26.4c-0.1,3.8,1.3,6.8,0,12.1c-2,8.7-15.5,8.9-18.8,2.6c-1.7-3.3-1.4-6.2-0.4-9.7c0.7-2.2,3-4.6,2.5-7
		c-1-5-3.5-10.4-1.7-15.6c1.9-5.6,8.7-9.3,14.4-8.7C48.8,0.8,52.8,8.4,52,15.4C51.3,21.5,45.3,22.6,45.3,26.4z"/>
	<path class="st1" d="M39.6,29.4c0.7,3.7,0,1.3-0.4,7.9c-0.2,3.5-4.3,6.4-7.4,6c-2.8-0.4-4.7-3.7-4.6-5.9c0.3-4.6,0.4-6.5,0.7-7.3
		L39.6,29.4z"/>
	<path class="st1" d="M39.9,59.9c-1.7-2.2-5.2,10-3,14.1c2.6,5,2.3,7.3-0.7,11.7c-2.3,0.3-1.2-1.5-6.9-2.1c-5.7-0.7-10.3,5.3-10,0.5
		s4-8.2,4-13.6s0.1-12.4,0.1-12.4L21.1,58l1.2-5.7l4.5-2.8c0.9-0.2,1.6-0.4,2.3-0.8c1.9-1.1,2.9-3.7,2.8-6.2
		c-0.2-2.4,5.9-2.4,5.9-2.4s-2.8,6.2-1.1,8.4c0.7,0.9,1.9,1.4,3.2,1.9"/>
	<path class="st0" d="M39.5,35c0,0-1.7-1.5-2.1-4.9c-3,2.4-8.8,2.4-9.8,1.7c-0.1-0.9-2-0.5,0.4-3.5C29.6,26.2,43.7,24.1,39.5,35z"/>
	<path class="st1" d="M38.6,35.8c0,0,0.9-1.4,2.2-0.8c1.3,0.6,0.3,3.9-0.8,4.1c-1.1,0.2-1.6-0.8-1.6-0.8L38.6,35.8z"/>
	<g>
		<path class="st2" d="M27.3,58.3c0.1-1.2-0.9-2.3-2.1-2.4s-2.3,0.9-2.4,2.1s0.9,2.3,2.1,2.4C26.2,60.5,27.2,59.5,27.3,58.3z"/>
		<path class="st2" d="M30.6,62.4c0.1-1.2-0.9-2.3-2.1-2.4s-2.3,0.9-2.4,2.1s0.9,2.3,2.1,2.4C29.5,64.5,30.6,63.6,30.6,62.4z"/>
		<path class="st2" d="M37.8,57.9c0.1-1.2-0.9-2.3-2.1-2.4s-2.3,0.9-2.4,2.1s0.9,2.3,2.1,2.4C36.7,60.1,37.8,59.2,37.8,57.9z"/>
		<path class="st2" d="M43.7,60.3c0.1-1.2-0.9-2.3-2.1-2.4s-2.3,0.9-2.4,2.1s0.9,2.3,2.1,2.4C42.6,62.4,43.6,61.5,43.7,60.3z"/>
		<ellipse class="st2" cx="32.7" cy="57.6" rx="1.5" ry="1.5"/>
		<path class="st2" d="M32.1,58.3c0.1-1.6-1.1-2.9-2.6-3c-1.6-0.1-2.9,1.1-3,2.7s1.1,2.9,2.6,3C30.7,61,32,59.8,32.1,58.3z"/>
		<path class="st2" d="M41,60.6c0.1-1.6-1.1-2.9-2.6-3c-1.6-0.1-2.9,1.1-3,2.7s1.1,2.9,2.6,3C39.6,63.4,40.9,62.2,41,60.6z"/>
		<ellipse class="st2" cx="33.5" cy="61.3" rx="3.6" ry="3.7"/>
		<path class="st2" d="M36.1,64.9c0.1-1.6-1.1-2.9-2.6-3c-1.6-0.1-2.9,1.1-3,2.7c-0.1,1.6,1.1,2.9,2.6,3S36,66.4,36.1,64.9z"/>
		<path class="st2" d="M39.2,67.8c0.1-1.6-1.1-2.9-2.6-3s-2.9,1.1-3,2.7s1.1,2.9,2.6,3C37.8,70.5,39.1,69.3,39.2,67.8z"/>
		<path class="st2" d="M29,60.5c0.1-0.8-0.6-1.5-1.4-1.6s-1.5,0.6-1.6,1.4s0.6,1.5,1.4,1.6C28.3,61.9,29,61.3,29,60.5z"/>
		<path class="st2" d="M38.5,63.8c0.1-0.8-0.6-1.5-1.4-1.6s-1.5,0.6-1.6,1.4c-0.1,0.8,0.6,1.5,1.4,1.6
			C37.8,65.2,38.5,64.6,38.5,63.8z"/>
		<path class="st2" d="M28.3,56.1c0.1-1.2,1.1-2.2,2.4-2.1c1.2,0.1,2.2,1.1,2.1,2.4c-0.1,1.2-1.1,2.2-2.4,2.1
			C29.2,58.4,28.3,57.3,28.3,56.1z"/>
		<path class="st2" d="M23.5,61.6c0.1-1.2,1.1-2.2,2.4-2.1c1.2,0.1,2.2,1.1,2.1,2.4c-0.1,1.2-1.1,2.2-2.4,2.1
			C24.4,63.9,23.5,62.9,23.5,61.6z"/>
		<path class="st2" d="M20.8,62.6c0.1-1.2,1.1-2.2,2.4-2.1c1.2,0.1,2.2,1.1,2.1,2.4c-0.1,1.2-1.1,2.2-2.4,2.1S20.8,63.9,20.8,62.6z"
			/>
		<ellipse class="st2" cx="23.6" cy="53.2" rx="1.5" ry="1.5"/>
		<path class="st2" d="M18,56c0.1-1.6,1.4-2.8,3-2.7c1.6,0.1,2.7,1.4,2.6,3s-1.4,2.8-3,2.7C19.1,58.9,17.9,57.5,18,56z"/>
		<path class="st2" d="M14.6,58.4c0.1-1.6,1.4-2.8,3-2.7c1.6,0.1,2.7,1.4,2.6,3s-1.4,2.8-3,2.7C15.7,61.3,14.5,60,14.6,58.4z"/>
		<path class="st2" d="M18.4,59.8c0.1-2,1.9-3.5,3.9-3.4s3.5,1.9,3.4,3.9s-1.9,3.5-3.9,3.4C19.8,63.5,18.3,61.8,18.4,59.8z"/>
		<path class="st2" d="M17.4,63.1c0.1-1.6,1.4-2.8,3-2.7c1.6,0.1,2.7,1.4,2.6,3c-0.1,1.6-1.4,2.8-3,2.7S17.3,64.7,17.4,63.1z"/>
		<ellipse class="st2" cx="30.3" cy="64.6" rx="1.5" ry="1.5"/>
		<path class="st2" d="M15.7,61.4c0.1-0.8,0.8-1.4,1.6-1.4c0.8,0.1,1.4,0.8,1.4,1.6c-0.1,0.8-0.8,1.4-1.6,1.4
			C16.2,63,15.6,62.3,15.7,61.4z"/>
		<ellipse class="st2" cx="44.1" cy="60" rx="1.5" ry="1.5"/>
	</g>
	<path class="st0" d="M34.2,37.6c0,0-1.9,1-3.5,0.9s-2.3-1.1-2.3-1.1s0.2,2.9,2.6,2.9C33.4,40.2,34.2,37.6,34.2,37.6z"/>
	<path class="st3" d="M35,34.6c-0.8,0.7-2.3,0.2-2.5-0.9"/>
	<path class="st3" d="M30.5,33.9c-0.3,0.7-1.1,1.1-1.8,0.8"/>
	<path class="st3" d="M31.2,35.6c-0.1,0.4-0.6,0.7-1,0.7c0.2,0.4,0.5,0.7,0.8,1"/>
	<path class="st2" d="M36.7,52.9c0-0.6-0.4-1.1-1-1.1s-1,0.4-1.1,1s0.4,1.1,1,1.1S36.7,53.5,36.7,52.9z"/>
	<path class="st2" d="M31.5,50.7c0.1-0.8,0.8-1.5,1.6-1.4c0.8,0.1,1.5,0.8,1.4,1.6c-0.1,0.8-0.8,1.5-1.6,1.4
		C32.1,52.2,31.5,51.5,31.5,50.7z"/>
	<path class="st1" d="M38.4,81.9c-1.7,3.5-0.4,1-0.9,6.8c-0.8,9.6-6.7,19.4-6.7,19.4s1.8,2.7,0.2,8.5c-1.6,5.9-5.6,9.3-6.5,13
		c-0.8,3.8,0.6,4.3,0,6.3s-4.3,4.8-4.5,6.5c-0.3,1.8-4.3,1.2-4.3,1.2s4.8-8.3,4.9-11.5c0.2-3.3,4.8-19.1,4.2-21.2
		c-0.6-2.2,0.6-4.3,1-5.2c1-16.2,1.9-21.8,1.9-21.8l5.9-5.6C33.6,78.2,40.1,78.4,38.4,81.9z"/>
	<path class="st1" d="M32.7,77.7c0,0-3.9,2.5-5.3,8.2c-2.3,9.4-7.9,18.4-7.9,18.4s2,2.2-0.2,7.9c-2.3,6.2-7.1,8.9-8.5,12.5
		c-1.4,3.6-0.1,4.3-0.9,6.2C9,132.8,5,135,4.5,136.7S0,137.2,0,137.2s5.9-7.5,6.6-10.7s6.6-18.1,6.3-20.4c-0.3-2.2,1.5-3.3,2-5
		s3-16.2,5.9-21.6c3-5.4,10.5-1.5,10.5-1.5L32.7,77.7z"/>
	<g>
		<ellipse class="st2" cx="16.9" cy="77.3" rx="2.7" ry="2.7"/>
		<path class="st2" d="M25.2,82.6c0-1.5-1.1-2.7-2.6-2.8c-1.5,0-2.7,1.1-2.8,2.6c0,1.5,1.1,2.7,2.6,2.8C24,85.3,25.2,84.1,25.2,82.6
			z"/>
		<path class="st2" d="M32.4,76.5c0-1.5-1.1-2.7-2.6-2.8c-1.5,0-2.7,1.1-2.8,2.6s1.1,2.7,2.6,2.8C31.1,79.2,32.3,78,32.4,76.5z"/>
		<path class="st2" d="M43.5,79.9c0.1-1.9-1.4-3.4-3.3-3.5s-3.4,1.4-3.5,3.3s1.4,3.4,3.3,3.5S43.5,81.8,43.5,79.9z"/>
		<path class="st2" d="M27.9,76.4c0-1-0.8-1.8-1.8-1.9c-1,0-1.8,0.8-1.9,1.8c0,1,0.8,1.8,1.8,1.9C27,78.1,27.9,77.4,27.9,76.4z"/>
		<path class="st2" d="M25.3,77c0.1-1.9-1.4-3.5-3.3-3.5c-1.9-0.1-3.5,1.4-3.5,3.4c-0.1,1.9,1.4,3.5,3.3,3.5S25.3,78.9,25.3,77z"/>
		<path class="st2" d="M39.5,80.6c0.1-2.4-1.8-4.4-4.2-4.4c-2.4-0.1-4.4,1.8-4.4,4.2c-0.1,2.4,1.8,4.4,4.2,4.4S39.4,83,39.5,80.6z"
			/>
		<path class="st2" d="M31.7,80.9c0.1-2.5-1.9-4.5-4.3-4.6s-4.5,1.9-4.6,4.3c-0.1,2.5,1.9,4.5,4.3,4.6
			C29.6,85.3,31.6,83.4,31.7,80.9z"/>
		<path class="st2" d="M32.3,87.3c0.1-2.4-1.8-4.4-4.2-4.4c-2.4-0.1-4.4,1.8-4.4,4.2s1.8,4.4,4.2,4.4C30.2,91.6,32.2,89.7,32.3,87.3
			z"/>
		<path class="st2" d="M21.8,79.9c0-1-0.8-1.8-1.8-1.9c-1,0-1.8,0.8-1.9,1.8c0,1,0.8,1.8,1.8,1.9C20.9,81.7,21.8,80.9,21.8,79.9z"/>
		<path class="st2" d="M35.8,85.5c0-1.2-0.9-2.3-2.2-2.3c-1.2,0-2.3,1-2.3,2.2s0.9,2.3,2.2,2.3C34.8,87.7,35.8,86.8,35.8,85.5z"/>
		<path class="st2" d="M34,83.1c0-1.2-0.9-2.3-2.2-2.3s-2.3,1-2.3,2.2s0.9,2.3,2.2,2.3C33,85.3,34,84.3,34,83.1z"/>
		<path class="st2" d="M45.9,79.5c0-1.2-0.9-2.3-2.2-2.3c-1.2,0-2.3,1-2.3,2.2s0.9,2.3,2.2,2.3C44.8,81.7,45.8,80.7,45.9,79.5z"/>
	</g>
	<path class="st2" d="M24.5,70.4c0-0.6,0.5-1,1.1-1s1,0.5,1,1.1s-0.5,1-1.1,1S24.5,71,24.5,70.4z"/>
	<path class="st2" d="M41.5,65.2c0-0.6,0.5-1,1.1-1s1,0.5,1,1.1s-0.5,1-1.1,1C41.9,66.2,41.5,65.7,41.5,65.2z"/>
	<path class="st2" d="M27.1,73.9c0-0.4,0.3-0.7,0.7-0.6c0.4,0,0.7,0.3,0.6,0.7c0,0.4-0.3,0.7-0.7,0.6S27.1,74.3,27.1,73.9z"/>
	<g id="left_x5F_arm_1_">
		<path class="st1" d="M38,61.8c2.2-5.3,6.4-9.8,7.3-11.3c1.7-2.5,5-7.7,6.1-11.1c0.3-0.8,4.7-18,5.4-19.6l-2.9,0.3
			c-1.7,7.3-5,13.5-6.2,18.3c-4,7-5.6,11.9-10.2,11.2L38,61.8z"/>
		<path class="st1" d="M54.2,20.7c0,0-1-0.5-1.2-1.3s-0.3-2.2-0.1-3.2c0.1-1,0.9-0.5,0.9,0.3c0,0.8,0.1,1,0.2,1.2
			c0.2,0.2,0.6,0.5,0.8-0.7c0.2-1.2,0.4-2.6,0.5-4s1-0.9,0.9,0.1S56,15.7,56,16.2c0,0.5,0.4,0.6,0.6-0.4c0.1-1,0.2-1.9,0.2-2.7
			c0-0.9,0.9-1,0.8,0s-0.2,2.8-0.2,3.3c0,0.5,0.4,0.7,0.6-0.3s0.2-1.4,0.2-2.5c0.1-0.9,1-0.9,0.9,0.2c0,1.2-0.2,2.8-0.6,4.6
			c-0.3,1.9-2.3,2.6-2.3,2.6L54.2,20.7z"/>
	</g>
	<g id="right_x5F_arm_1_">
		<path class="st1" d="M22.8,57.8c0,0-1.3-3.3-1.4-8c0-4.7-1.2-11.1-1.5-12.1s-1.3-17.1-1.3-17.1s1.5-0.6,2.6-0.8
			c0.4,8.5,3.5,12.7,2.4,18c0.7,4.6,3.6,12,3.6,12L22.8,57.8z"/>
		<path class="st1" d="M21.7,20.6c0,0,1-0.5,1.1-1.4c0.1-0.8,0.1-2.2-0.2-3.2c-0.2-1-0.9-0.4-0.9,0.4c0,0.8,0,1-0.1,1.2
			s-0.5,0.6-0.8-0.6s-0.6-2.6-0.9-3.9c-0.2-1.4-1-0.9-0.9,0.1s0.4,2.6,0.5,3.1c0,0.5-0.4,0.7-0.6-0.3s-0.3-1.8-0.4-2.7
			c-0.1-0.9-1-0.9-0.8,0.1c0.1,1,0.4,2.8,0.4,3.3s-0.3,0.7-0.6-0.2c-0.3-0.9-0.3-1.4-0.5-2.5c-0.1-0.9-1-0.9-0.9,0.3
			c0.1,1.2,0.5,2.7,0.9,4.6c0.5,1.9,2.5,2.4,2.5,2.4L21.7,20.6z"/>
	</g>
</g>
</svg>
