<svg id="Layer_1" enable-background="new 0 0 431.6 226.4" version="1.1" viewBox="0 0 431.6 226.4" xml:space="preserve" xmlns="http://www.w3.org/2000/svg" xmlns:xlink="http://www.w3.org/1999/xlink"><defs id="defs31657"><clipPath id="clipPath32551"><rect id="rect32553" x="-1" y="64.681" width="434" height="156.22" rx="72" ry="72" fill="#000080" opacity=".464"/></clipPath><clipPath id="clipPath32555"><rect id="rect32557" x="-1" y="59.231" width="434" height="162.61" rx="72" ry="72" fill="#000080" opacity=".464"/></clipPath><clipPath id="clipPath32559"><rect id="rect32561" x="-1" y="64.681" width="434" height="156.22" rx="72" ry="72" fill="#000080" opacity=".464"/></clipPath><clipPath id="clipPath32563"><rect id="rect32565" x="-1" y="75.231" width="434" height="162.61" rx="72" ry="72" fill="#000080" opacity=".464"/></clipPath><clipPath id="clipPath32567"><rect id="rect32569" x="-1" y="64.681" width="434" height="156.22" rx="72" ry="72" fill="#000080" opacity=".464"/></clipPath><clipPath id="clipPath32571"><rect id="rect32573" x="-1" y="59.231" width="434" height="162.61" rx="72" ry="72" fill="#000080" opacity=".464"/></clipPath><clipPath id="clipPath32575"><rect id="rect32577" x="-1" y="64.681" width="434" height="156.22" rx="72" ry="72" fill="#000080" opacity=".464"/></clipPath><clipPath id="clipPath32579"><rect id="rect32581" x="-1" y="73.231" width="434" height="162.61" rx="72" ry="72" fill="#000080" opacity=".464"/></clipPath><clipPath id="clipPath32583"><rect id="rect32585" x="-1" y="64.681" width="434" height="156.22" rx="72" ry="72" fill="#000080" opacity=".464"/></clipPath><clipPath id="clipPath32587"><rect id="rect32589" x="-1" y="59.231" width="434" height="162.61" rx="72" ry="72" fill="#000080" opacity=".464"/></clipPath><clipPath id="clipPath32591"><rect id="rect32593" x="-1" y="64.681" width="434" height="156.22" rx="72" ry="72" fill="#000080" opacity=".464"/></clipPath><clipPath id="clipPath32595"><rect id="rect32597" x="-1" y="73.231" width="434" height="162.61" rx="72" ry="72" fill="#000080" opacity=".464"/></clipPath></defs>
<style id="style31036" type="text/css">
	.st0{fill:#2F50A2;}
	.st1{opacity:0.18;}
	.st2{opacity:0.35;clip-path:url(#SVGID_2_);}
	.st3{fill:#F1EEE5;}
	.st4{fill:#FDDC30;}
	.st5{fill:#F4BCD7;}
	.st6{fill:#00833E;}
	.st7{fill:#1FC0DA;}
	.st8{fill:#A5CF4F;}
	.st9{fill:#C72263;}
	.st10{fill:#E2DDCB;}
	.st11{fill:#2A2963;}
	.st12{fill:#F99D2A;}
	.st13{fill:#27265F;}
	.st14{fill:#EDE9E3;}
	.st15{fill:#FFFFFF;}
	.st16{fill:#11034C;}
	.st17{font-family:'Archer-Bold';}
	.st18{font-size:7.9025px;}
</style>
<path id="rect32204" d="m-44.072 144.08 281.03 74.719 127.72-2.8837 92.755-71.273 44.072 88.065h-545.58z" fill="#1c1d4c"/><g id="g31556" transform="translate(0 -14.4)" clip-path="url(#clipPath32595)">
	<path id="path31038" class="st0" d="m501.8 145.7h-0.7-0.7c-49.9 0-88.3 63.3-155.5 64.8l-55.6-6.5c-40.7-4.7-81.9 6.2-108.9 28.8l-67 58.5 384.8 41.4 159.2-86.5v-35.8c-67.2-1.4-105.7-64.7-155.6-64.7z" fill="#2f50a2"/>
	<g id="g31554" class="st1" opacity=".18">
		<defs id="defs31041">
			<path id="SVGID_1_" class="st1" d="m501.8 145.7h-0.7-0.7c-49.9 0-88.3 63.3-155.5 64.8l-55.6-6.5c-40.7-4.7-81.9 6.2-108.9 28.8l-96.8 68 414.4-0.8h159.2v-89.6c-67-1.4-105.5-64.7-155.4-64.7z" opacity=".18"/>
		</defs>
		<clipPath id="SVGID_2_">
			<use id="use31043" width="100%" height="100%" xlink:href="#SVGID_1_"/>
		</clipPath>
		<g id="g31286" class="st2" clip-path="url(#SVGID_2_)" fill="#f1eee5" opacity=".35">
			<path id="path31046" class="st3" d="m555.5 136.2c-0.5 0.4-0.8 1-1.4 1.3-4.6 2.2-9.1 4.5-13.9 6.5-5.1 2.1-10.5 4-15.7 5.9-2.4 0.9-4.8 0.4-6.4-1.1-0.2-0.2-0.2-0.8 0-0.9 1.2-0.8 2.3-1.7 3.7-2.2 5.6-2.2 11.3-4.2 16.9-6.3 2.4-0.9 4.7-2.1 7-3.2h9.8z"/>
			<path id="path31048" class="st3" d="m485.3 136.2c2.8 1.3 5.7 2.6 8.4 3.9 5.5 2.6 10.9 5.2 16.3 7.8 1.7 0.8 3.5 1.5 5.3 2.2 1.3 0.5 1.7 1.2 0.8 2.1-0.8 0.8-1.5 1.9-3.4 1.1-3.9-1.7-8-3.3-11.8-5.1-5.5-2.6-10.8-5.3-16.2-7.9-2.9-1.4-2.9-1.9-0.5-3.7l0.3-0.3c0.3-0.1 0.5-0.1 0.8-0.1z"/>
			<path id="path31050" class="st3" d="m620.5 136.2c0.3 0.3 0.6 0.7 0.9 1 0.7 0.8 0.6 1.3-0.5 1.9-8.3 4.5-16.5 9.1-24.8 13.6-0.7 0.4-1.8 0.8-2.5 0.7-1-0.2-2.1-0.8-2.8-1.4-0.2-0.2 0.7-1.2 1.3-1.6 1.9-1.2 3.9-2.2 5.9-3.3 5.9-3.2 11.7-6.4 17.6-9.6 0.9-0.5 2-0.9 2.9-1.4 0.8 0.1 1.4 0.1 2 0.1z"/>
			<path id="path31052" class="st3" d="m684.4 136.2c0.6 2.8-0.8 4.7-3.8 6.6-4.8 2.9-9.2 6.3-13.8 9.5-1.5 1-3.3 1.8-5 2.8-0.5-0.3-0.7-0.4-0.9-0.5-2.9-1.8-2.8-1.4 0-3.5 4.3-3.1 8.6-6.2 13-9.3 2.1-1.5 4.3-3 6.4-4.5 0.4-0.3 0.8-0.7 1.1-1 1-0.1 2-0.1 3-0.1z"/>
			<path id="path31054" class="st3" d="m421.4 136.2 1.8 0.9c4.9 2 9.8 4 14.7 6.1 1.6 0.7 1.5 2.9-0.1 3.7-0.3 0.2-1.1 0.1-1.5-0.1-3.3-1.3-6.6-2.6-10-4-2.8-1.1-5.7-2.1-8.5-3.4-2.2-1-4.1-2.2-6.1-3.2h9.7z"/>
			<path id="path31056" class="st3" d="m614.5 136.2c-6.7 3.2-13.3 6.4-20 9.7-2.4 1.2-4.7 1-6.6-0.5-0.1-0.1-0.2-0.2-0.5-0.7 2.6-1.4 5.1-2.8 7.8-4.1 2.6-1.2 5.3-2.3 8-3.5 0.4-0.2 0.8-0.5 1.2-0.8 3.4-0.1 6.8-0.1 10.1-0.1z"/>
			<path id="path31058" class="st3" d="m467.7 136.2c-3.5 1.9-7 3.8-10.6 5.6-2.9 1.5-6 2.8-9 4.1-2.6 1.1-4.5 0.7-5.6-1.2-0.2-0.3-0.2-0.9 0-1.1 1.1-0.7 2.3-1.4 3.5-1.9 3.8-1.8 7.6-3.5 11.5-5.2 0.1 0 0.1-0.2 0.1-0.2 3.4-0.1 6.7-0.1 10.1-0.1z"/>
			<path id="path31060" class="st3" d="m645.5 136.2c2.6 1.5 5.1 3.1 7.7 4.6s3 3.1 0.8 4.7c-0.5 0.3-1.8 0.5-2.4 0.3-6.3-2.8-12.4-5.7-17.9-9.3-0.1-0.1-0.1-0.2-0.2-0.4 4.1 0.1 8.1 0.1 12 0.1z"/>
			<path id="path31062" class="st3" d="m573.1 136.2c2.2 1.1 4.5 2.2 6.7 3.3 1.6 0.8 3.3 1.6 5 2.3s1.6 1.6 0.5 2.6c-0.4 0.4-0.8 0.8-1.4 1.3-2.2-0.9-4.5-1.7-6.6-2.7-4.8-2.2-9.5-4.5-14.3-6.8h10.1z"/>
			<path id="path31064" class="st3" d="m502.8 136.2c3.2 1.5 6.4 2.9 9.5 4.3 0.7 0.3 1.5 0.5 2.1 0.8 1.8 0.9 2.1 1.7 0.7 3-0.4 0.3-1.4 0.7-1.9 0.5-7.1-2-13.1-5.3-19.3-8.3-0.1-0.1-0.1-0.2-0.2-0.4 3.2 0.1 6.1 0.1 9.1 0.1z"/>
			<path id="path31066" class="st3" d="m675.1 136.2c-1.8 1.4-3.5 2.9-5.4 4.2-2.7 2-5.6 3.8-8.4 5.7-1.5-0.7-2.7-1.4-4.4-2.2 3.7-2.7 7.2-5.2 10.7-7.7h7.5z"/>
			<path id="path31068" class="st3" d="m533.8 136.2c-3.3 1.7-6.5 3.5-9.9 5.1-1.1 0.5-2.5 0.8-3.8 0.9-0.7 0.1-2-0.3-2.2-0.7-0.3-0.5 0-1.4 0.5-1.8 1-0.9 2.2-1.5 3.4-2.3 0.7-0.4 1.5-0.8 2.2-1.2h9.8z"/>
			<path id="path31070" class="st3" d="m598.5 136.2c-2.2 0.9-4.2 2-6.5 2.7-1.1 0.3-2.7 0-3.8-0.4-1.4-0.4-1.6-1.4-0.9-2.3h11.2z"/>
			<path id="path31072" class="st3" d="m660.9 136.2c-1.1 0.5-2.1 1.2-3.3 1.6-1.9 0.5-2.9-0.1-2.7-1.6h6z"/>
			<path id="path31074" class="st3" d="m447.9 136.2c-1.5 0.5-3 1-4.6 1.5-0.5-0.5-1-1-1.4-1.5h6z"/>
			<path id="path31076" class="st3" d="m585 136.2c-1.7 1.8-2 1.8-4.5 0h4.5z"/>
			<path id="path31078" class="st3" d="m591.8 212.6c-1.1 1.1-1.9 2.4-3.2 3-0.7 0.3-2.7-0.1-3.6-0.6-4.8-2.8-9.5-5.8-14.2-8.7-2.7-1.7-5.4-3.4-8-5-2-1.2-2.1-1.9-0.5-3.4 2.3-2.1 2.3-2.2 5.2-0.4 6.1 3.7 12.1 7.4 18.1 11 1.4 0.9 3 1.6 4.4 2.5 0.7 0.3 1 0.9 1.8 1.6z"/>
			<path id="path31080" class="st3" d="m479.7 139.2c-0.4 0.4-1 1.3-1.9 1.7-9.2 3.7-16.3 9.3-24.3 14.1-1.8 1.1-3.7 2.2-5.5 3.2-1.5 0.9-3.1 0.5-4.4 0-1-0.4-1.6-1.4-0.4-2.2 2.5-1.7 4.9-3.5 7.5-5.1 5-3.2 10-6.3 15.3-9.3 2.8-1.6 6-2.8 9.1-4.2 0.4-0.2 0.9-0.3 1.4-0.4 1.9-0.5 3.1 0.2 3.2 2.2z"/>
			<path id="path31082" class="st3" d="m516.8 168.3c-0.2 0.6-0.4 1.1-0.7 1.7-0.7 1.2-1.7 1.5-3.4 0.9-7.4-2.7-14.7-5.6-21.5-9.2-1.3-0.7-3-1.1-4.3-1.8-2.5-1.2-4.9-2.6-7.3-3.9-1.1-0.6-1.4-1.5-0.8-2.4s1.6-0.6 2.8-0.6c2.4 0.2 4.4 0.9 6.4 1.9 7.7 3.7 15.5 7.2 23.2 10.8 1.8 0.7 3.6 1.7 5.6 2.6z"/>
			<path id="path31084" class="st3" d="m555.1 210.4c0.9 0.6 1.9 1.2 2.4 1.9 0.2 0.3-0.3 1.2-0.8 1.5-1.4 1-2.9 2-4.5 2.8-8.7 4.8-17.5 9.5-26.3 14.2-0.7 0.4-1.6 0.7-2.4 1-1.5 0.6-2.4-0.2-3.3-0.9-1-0.7-0.7-1.4 0.2-2 1.3-0.9 2.6-1.8 4.1-2.6 9.3-5 18.7-10 28-15 0.7-0.3 1.5-0.5 2.6-0.9z"/>
			<path id="path31086" class="st3" d="m556.8 161.3c-0.4 0.3-0.9 0.9-1.7 1.2-6.6 3.1-13.2 6.2-19.9 9.2-4.6 2.1-9.2 4.1-14 5.9-1 0.4-2.6 0.3-3.9 0.1-1.5-0.2-1.8-1.7-0.4-2.6 0.8-0.5 1.8-1 2.7-1.4 6.5-2.9 13.1-5.7 19.6-8.6 4.4-2 8.6-4.2 13.1-6.2 2.9-1.2 4.3-0.5 4.5 2.4z"/>
			<path id="path31088" class="st3" d="m524.1 250.6c-0.3-0.2-0.4-0.3-0.5-0.4-3-2.1-3.1-2.2 0.3-4.2 9.2-5.4 18.5-10.8 27.8-16.1 2.9-1.7 5.1-1.2 5.9 1.1 0.1 0.3-0.1 0.9-0.5 1.1-6.4 3.7-13 7.3-19.4 10.9-3.1 1.7-6 3.6-9.1 5.4-1.4 0.9-3 1.5-4.5 2.2z"/>
			<path id="path31090" class="st3" d="m556.6 204c-0.2 0.3-0.6 0.9-1.2 1.3l-19.2 11.1c-3 1.7-6 3.5-9.2 5.1-1.3 0.6-3.1 0.9-4.7 0.8-1.7-0.1-2.2-1.3-1.1-2.3 1-0.9 2-1.7 3.3-2.4 7.4-4.3 14.8-8.5 22.2-12.7 2-1.1 4.3-2.1 6.6-2.9 2-0.8 3.3 0 3.3 2z"/>
			<path id="path31092" class="st3" d="m408.2 160.7c0-1.6 1.3-2.3 3.1-1.8 1.3 0.3 2.6 0.8 3.8 1.4 8 3.6 16.1 7.2 24.1 10.8 0.7 0.3 1.5 0.7 2.2 1.1 2.2 1.2 2.3 1.7 0.8 3.3-0.6 0.7-1.4 1-2.5 0.6-4.7-1.7-9.5-3.3-14-5.2-4.3-1.8-8.5-3.9-12.6-6-1.5-0.8-2.8-1.8-4-2.8-0.6-0.5-0.8-1.2-0.9-1.4z"/>
			<path id="path31094" class="st3" d="m658.9 224c-0.1 2.6-1.4 3.3-3.9 2.3-2.5-1.1-4.8-2.5-7.2-3.7-1.8-1-3.7-1.9-5.4-2.9-5.8-3.5-11.7-7-17.4-10.5-1.8-1.1-1.7-2.1-0.2-3.5 0.7-0.6 1.3-0.7 2-0.3 1.9 1.1 3.9 2.3 5.8 3.4 3 1.8 5.9 3.6 9 5.3 5.4 3 10.9 6 16.3 9 0.6 0.2 0.9 0.7 1 0.9z"/>
			<path id="path31096" class="st3" d="m553.5 193.4c2.2 0 2.6 1.1 3.1 2.1 0.5 0.9-0.6 1.1-1.3 1.5-6.8 3.7-13.6 7.5-20.5 11.2-3.7 2-7.4 3.9-11.2 5.7-0.6 0.3-1.7 0.3-2.5 0.1-2.1-0.5-2.5-1.5-0.9-2.6 2-1.3 4.2-2.5 6.3-3.8 5.1-3 10.2-6 15.4-8.9 3.2-1.7 6.5-3.3 9.8-4.9 0.7-0.1 1.4-0.3 1.8-0.4z"/>
			<path id="path31098" class="st3" d="m554.4 175.2c0.7 0.9 1.5 1.7 1.9 2.7 0.2 0.3-0.4 1.1-1 1.3-4.9 2.2-10 4.3-14.9 6.6-4.7 2.2-9.2 4.6-13.9 6.8-1.1 0.5-2.5 0.9-3.7 1.2-0.4 0.1-1.1 0-1.4-0.3-3.1-2.1-2.5-2.2 1-4 4.9-2.5 9.8-4.9 14.8-7.2 5.1-2.3 10.3-4.5 15.5-6.7 0.4-0.2 0.9-0.2 1.7-0.4z"/>
			<path id="path31100" class="st3" d="m625.7 213.2c1.1 0.5 2.2 0.7 2.9 1.3 6.2 4.6 13.3 8.4 20 12.5 2.9 1.8 5.6 3.8 8.3 5.8 1.7 1.3 1.5 2.5-0.3 2.9-0.6 0.1-1.5 0.1-2.1-0.2-2.5-1.2-5-2.3-7.3-3.7-3.1-1.8-6.1-3.8-9.1-5.7-4.8-3-9.9-5.8-13.8-9.4-0.6-0.5-0.8-1.5-0.6-2.2 0.1-0.4 1.2-0.8 2-1.3z"/>
			<path id="path31102" class="st3" d="m522.3 160.5c-0.5-0.4-0.9-0.6-1.3-0.9-2.4-1.7-2.4-2.4 0.4-3.7 8.3-3.8 16.7-7.6 25.1-11.3 1.5-0.6 3.2-1 4.8-1.4 1.3-0.4 2.2 0.1 2.7 0.9s1.4 1.8-0.3 2.5c-3.9 1.7-7.7 3.4-11.6 5.1-4.9 2.2-9.7 4.3-14.6 6.5-1.6 0.8-3.3 1.5-5.2 2.3z"/>
			<path id="path31104" class="st3" d="m626.8 156.1 2.1 1.2c4.2 2.3 8.3 4.6 12.5 6.8 4.9 2.6 9.8 5.2 14.7 7.9 1.8 1 1.4 2.9-0.6 3.6-0.5 0.2-1.5 0-2-0.2-2.8-1.3-5.6-2.5-8.3-3.9-5.1-2.6-10.1-5.3-15-8-2.1-1.1-4-2.4-6-3.7-0.9-0.6-1.6-1.3-1-2.3 0.6-0.9 1.7-1.3 3.6-1.4z"/>
			<path id="path31106" class="st3" d="m622 189.2c-1.1 1.1-1.8 2.3-2.9 3.1-5 3.5-10.2 6.9-15.3 10.3-1.4 0.9-2.7 1.9-4 2.8-1.6 1.1-3.4 1.7-5.5 1.6-1.8-0.1-2.7-1.2-1.7-2.3 1.1-1.3 2.3-2.6 3.8-3.6 6.5-4.3 13.1-8.5 19.7-12.8 0.5-0.3 0.9-0.7 1.5-0.8 0.8-0.2 1.9-0.3 2.6-0.1 0.7 0.3 1.1 1.1 1.8 1.8z"/>
			<path id="path31108" class="st3" d="m444.4 203c1.1-1 1.9-1.9 3-2.5 1.9-1.1 4.1-1.9 6-2.9l18-9.9c1.5-0.8 3.1-1.5 4.7-2.2 0.9-0.4 2-0.9 2.7 0.2 0.6 0.9 1.8 1.9 0.1 2.9-3.7 2.2-7.3 4.5-11.1 6.6-5.3 2.9-10.7 5.6-16.1 8.3-0.5 0.3-1 0.7-1.5 1-1 0.6-2.2 0.8-3.3 0.2-1-0.5-1.6-1.1-2.5-1.7z"/>
			<path id="path31110" class="st3" d="m414.8 220.8c1.1 0.3 2.7 0.5 4 1 6.7 2.6 13.4 5.3 20.1 8l9.6 3.9c1.8 0.8 1.8 3 0 3.9-0.4 0.2-1.2 0.1-1.7-0.1-4-1.5-8-3-12-4.6-6-2.4-12-4.9-18-7.3-1.7-0.7-3.4-1.3-4-2.8-0.4-1.2 0.3-2.1 2-2z"/>
			<path id="path31112" class="st3" d="m625.7 139.4c0.8 0.2 2.1 0.5 3.2 1l25.8 12.6c2.5 1.2 2.5 1.6 1 3.2-1 1.1-2 1.4-3.5 0.6-5-2.5-10-5-15.1-7.4-3.6-1.7-7.2-3.3-10.8-5.1-1.2-0.6-2.2-1.3-3-2.1-0.9-1 0.3-2.8 2.4-2.8z"/>
			<path id="path31114" class="st3" d="m485.8 223c1.2 0.4 2.1 0.5 2.7 0.9 4.9 2.6 9.7 5.4 14.8 7.8 4.3 2.1 8.7 3.9 13.3 5.7 2.5 1 3.3 2.2 1.5 3.9-0.3 0.3-1.2 0.4-1.8 0.2-1.5-0.4-3-0.8-4.5-1.3-8.3-2.8-15.4-6.9-22.4-11.1-1.6-1-3.4-1.8-4.9-2.9-0.5-0.4-0.8-1.2-0.5-1.7 0.2-0.5 1.1-1 1.8-1.5z"/>
			<path id="path31116" class="st3" d="m621.9 177.4c0-1.3 0.9-1.7 2.6-1.4 4.8 0.9 8 3.6 11.8 5.6 5.2 2.7 10.2 5.6 15.3 8.3 2.2 1.2 2.3 1.9 0.5 3.4-0.7 0.6-1.5 0.9-2.6 0.5-3.1-1.3-6.3-2.5-9.2-4-5-2.6-9.8-5.4-14.6-8.2-1.7-1-2.9-2.6-4.4-3.9 0.3-0.1 0.4-0.2 0.6-0.3z"/>
			<path id="path31118" class="st3" d="m411.9 185.4c2.1 0.7 3.8 1.1 5.3 1.8 7.2 3.6 14.5 7.1 22.4 9.9 0.8 0.3 1.5 0.7 2.2 1 1.8 0.7 2.4 1.5 0.8 3.2-1 1.2-2.2 1.2-4.1 0.5-4.2-1.7-8.4-3.2-12.5-5-4.4-1.9-8.6-3.9-12.8-6-1.7-0.9-2.8-2.2-2.6-3.8 0.1-0.6 0.8-1 1.3-1.6z"/>
			<path id="path31120" class="st3" d="m657.4 213.7c-0.6 0.8-1 1.6-1.7 2.3-0.2 0.2-1.2 0.3-1.6 0.1-1.4-0.6-2.6-1.3-3.9-2-8.2-4.3-16.4-8.6-24.5-13-1.2-0.7-2.1-1.8-2.8-2.9-0.3-0.4-0.1-1.4 0.4-1.7s1.7-0.4 2.3-0.1c2.1 0.9 4.2 1.9 6.1 3 3.7 2 7.3 4.2 11 6.2 4.4 2.3 8.9 4.5 13.3 6.7 0.6 0.3 0.9 0.8 1.4 1.4z"/>
			<path id="path31122" class="st3" d="m474.4 168.1c1.9 0.2 2.6 1.2 3.2 2.2 0.5 0.9-0.3 1.4-1.3 1.8-7.1 3.5-14.1 7.1-21.2 10.6-1.5 0.7-3 1.4-4.6 2s-4.4 0.2-5.6-0.8c-0.2-0.2-0.2-0.6 0-0.8 0.8-0.7 1.5-1.6 2.6-2.1l25.2-12.3c0.5-0.3 1.2-0.4 1.7-0.6z"/>
			<path id="path31124" class="st3" d="m409.5 178.7c0.1-1.4 0.8-1.8 2.2-1.5 1 0.2 2 0.5 2.9 0.9 8.7 3.8 17.4 7.6 26.1 11.5 1.4 0.6 2.5 1.5 3.8 2.2 1.2 0.7 1 1.4 0.2 2.2-0.8 0.9-1.6 1.4-3 0.8-1.6-0.6-3.1-1.3-4.7-2-6.9-3-13.8-6-20.6-9-2.1-0.9-4-2.1-5.8-3.4-0.6-0.5-0.9-1.3-1.1-1.7z"/>
			<path id="path31126" class="st3" d="m557.5 222.3c-0.5 0.4-1.2 1.2-2.1 1.7-6.1 3.6-12.2 7.2-18.4 10.7-3.6 2-7.3 3.9-10.9 5.8-0.8 0.4-1.6 0.5-2.5 0-1.7-1-1.9-1.6-0.3-2.7 1.9-1.3 3.9-2.5 6-3.6 7.8-4.4 15.7-8.7 23.5-13.1 0.4-0.2 0.9-0.4 1.4-0.6 1.9-0.8 3.1-0.2 3.3 1.8z"/>
			<path id="path31128" class="st3" d="m478.4 150c-0.7 0.7-1.2 1.3-1.8 1.6-6.4 3.5-12.9 6.9-19.3 10.4-1.6 0.9-3 1.9-4.7 2.6-1.1 0.5-2.5 0.8-3.7 0.8-1.4 0.1-3-0.3-3.1-1.5-0.1-0.6 0.9-1.4 1.7-1.8 8.4-4.6 16.9-9.1 25.4-13.7l0.6-0.3c1-0.3 2.5-1 2.9-0.7 0.8 0.6 1.2 1.6 2 2.6z"/>
			<path id="path31130" class="st3" d="m482.9 187.9c1.6 0.4 3 0.7 4.2 1.1 9.6 3.2 19.2 6.5 28.9 9.7 0.4 0.1 0.8 0.3 1.1 0.5 2.3 1 2.5 2.4 0.4 3.7-0.3 0.2-1.1 0.2-1.5 0.1-9-3-18-6-27-9-2.5-0.8-4.9-1.9-7.2-3.1-0.6-0.3-1-1.3-0.8-1.8s1.3-0.9 1.9-1.2z"/>
			<path id="path31132" class="st3" d="m621.3 168.7c0.1-1.5 1.8-2.4 3.1-2.2 1.4 0.3 2.9 0.6 4.1 1.2 5.6 2.5 11 5.2 16.6 7.8 2.2 1 4.6 2 6.8 3 1.7 0.8 1.8 1.3 0.6 2.5-1.9 1.9-1.9 2-4.8 0.7-8-3.6-16-7.3-24-11-1-0.5-1.8-1.5-2.4-2z"/>
			<path id="path31134" class="st3" d="m483.2 145.2c1.7 0.6 3.5 1.1 5 1.8 7.8 3.4 15.7 6.8 23.5 10.2 1.8 0.8 3.5 1.6 5.1 2.4 1.7 0.8 0.5 1.6-0.1 2.4s-1.3 1.2-2.6 0.6l-23.1-9.9c-2.5-1.1-4.9-2.2-7.3-3.3-2.5-1.1-3.2-2.4-2-3.6 0.4-0.2 0.9-0.3 1.5-0.6z"/>
			<path id="path31136" class="st3" d="m521.9 169.4c-0.9-0.5-2.1-0.9-2.5-1.5-0.2-0.3 0.6-1.3 1.2-1.7 3.4-1.7 7-3.2 10.5-4.9 6.9-3.2 13.7-6.5 20.6-9.8 2.1-1 4.1-0.3 4.1 1.6 0 0.4-0.6 1-1.2 1.2-5.8 2.9-11.6 5.8-17.4 8.6-3.4 1.6-6.8 3.2-10.2 4.7-1.5 0.8-3.2 1.2-5.1 1.8z"/>
			<path id="path31138" class="st3" d="m476.6 161.3c-0.3 0.3-0.7 1-1.5 1.3-7 3.6-14.1 7.1-21.1 10.7-2.6 1.3-4.7 1.4-6.8 0.2-0.8-0.5-1.3-1.1-0.6-1.7 1-0.9 1.9-1.8 3.2-2.4 6.8-3.3 13.7-6.5 20.6-9.7 0.7-0.3 1.5-0.7 2.3-0.8 2.5-0.7 3.9 0.1 3.9 2.4z"/>
			<path id="path31140" class="st3" d="m479.5 179.2c-0.3 0.3-0.6 0.9-1.2 1.3-0.9 0.7-1.9 1.3-2.9 1.9-7.1 3.7-14.2 7.4-21.4 11.1-0.4 0.2-0.8 0.4-1.3 0.6-2 0.8-4 0.4-4.9-1.2-0.2-0.3 0.2-1 0.6-1.2 2.8-1.7 5.7-3.3 8.6-4.9 5.4-2.9 10.8-5.7 16.3-8.6 0.8-0.4 1.7-0.8 2.6-1.1 2.3-0.7 3.5 0 3.6 2.1z"/>
			<path id="path31142" class="st3" d="m486.2 204.6c1.6 0.4 2.8 0.7 3.8 1.1 6.5 3 12.8 6.2 19.3 9.2 2.4 1.1 4.9 2.1 7.3 3.2 2 1 1.9 1.8 0.4 3.1-1 0.9-1.9 0.6-2.9 0.2-6-2.7-11.9-5.3-17.8-8.1-3.7-1.7-7.4-3.5-11.1-5.2-1-0.4-1.9-1-1.3-1.8 0.6-0.5 1.6-1.1 2.3-1.7z"/>
			<path id="path31144" class="st3" d="m556 186.9c-0.2 0.2-0.5 0.6-0.9 0.8-4 2.1-8 4.1-12 6.2l-13.5 7.2c-2.5 1.4-4 1.4-5.8 0.2-1.3-0.9-1.3-1.4 0.1-2.2 6.5-3.5 13.1-7 19.7-10.5 2.6-1.4 5.4-2.6 8.1-3.8 2.3-1.1 4.2-0.2 4.3 2.1z"/>
			<path id="path31146" class="st3" d="m409.8 147.7c1 0.4 2.4 0.8 3.6 1.4 6.2 3.1 12.4 6.4 18.6 9.5 3 1.5 6.2 2.7 9.2 4.2 0.7 0.3 1.8 1.1 1.7 1.4-0.4 0.9-1.2 1.6-2.1 2.3-0.2 0.2-1.2-0.1-1.7-0.3-6.3-2.9-12.5-5.8-18.7-8.8-2.9-1.4-5.8-2.8-8.5-4.4-1.4-0.8-2.7-1.9-3.7-3-0.9-1.1-0.1-2.3 1.6-2.3z"/>
			<path id="path31148" class="st3" d="m520.7 185.2c-0.9-0.5-1.9-0.8-2.3-1.4-0.3-0.4 0.3-1.1 0.7-1.6 0.2-0.3 0.6-0.4 1-0.6 6.9-3.3 13.8-6.6 20.8-9.8 3.2-1.5 6.7-2.7 10.1-4 0.8-0.3 1.8-1 2.7 0.1 1.2 1.5 1.2 2.4-0.2 3.1-2.6 1.3-5.4 2.4-8.1 3.6-6.2 2.8-12.3 5.5-18.6 8.2-1.9 1-3.9 1.6-6.1 2.4z"/>
			<path id="path31150" class="st3" d="m479.6 163.3c2.9 0.8 6 1.5 8.8 2.5 5.9 2.1 11.7 4.5 17.6 6.7 1.9 0.7 3.9 1.4 5.9 2.1 1.7 0.6 2.2 1.4 1.6 2.5-0.6 1.2-1.8 1.6-3.5 1.1-3.8-1.2-7.5-2.3-11.2-3.7-5.1-1.8-10.2-3.8-15.2-5.7-2.2-0.8-4.5-1.7-5.5-3.5-0.6-1.1-0.1-1.7 1.5-2z"/>
			<path id="path31152" class="st3" d="m448.6 209.6c0.7-0.5 1.2-1.2 2-1.6 3-1.6 6-3 9-4.5 5.5-2.9 10.9-5.8 16.4-8.7 2.6-1.4 3.8-1.1 4.9 0.8 0.5 0.9-0.2 1.4-1 1.8-1.8 1.1-3.7 2.3-5.7 3.3-6.7 3.5-13.4 7-20.2 10.4-2.3 1.2-3.5 1-4.9-0.7-0.2-0.2-0.3-0.4-0.5-0.8z"/>
			<path id="path31154" class="st3" d="m414 212.7c1.2 0.4 2.5 0.7 3.7 1.1 6.1 2.2 12.3 4.4 18.4 6.6 3.3 1.2 6.6 2.5 9.8 3.8 1.5 0.6 0.8 1.6 0.4 2.4-0.4 0.9-1.2 1.4-2.6 0.9-5.1-1.7-10.2-3.3-15.1-5.2-5.1-1.9-10.1-4-15.1-6.1-0.8-0.3-1.4-1-1.7-1.6-0.4-1 0.5-1.7 2.2-1.9z"/>
			<path id="path31156" class="st3" d="m450 247c-1-0.4-1.9-0.5-2.4-1-0.2-0.2 0.3-0.9 0.6-1.4 1-1.4 2.6-2.3 4.4-3.2 7.2-3.3 14.4-6.6 21.5-10 1.4-0.6 2.9-1.1 4.2 0 0.4 0.4 0.8 1.3 0.6 1.6-1.1 1.1-2.3 2.3-3.8 3-6.3 3.1-12.7 6.2-19.2 9.1-1.8 0.9-4 1.3-5.9 1.9z"/>
			<path id="path31158" class="st3" d="m444.6 219.7c-2.3-0.8-4.5-1.5-6.6-2.3-4.3-1.6-8.6-3.3-13-5-4.7-1.8-9.6-3.2-13.5-5.9-0.7-0.5-1.5-0.9-1-1.8 0.9-1.7 2.4-2 4.6-1 4.5 2 9.2 3.9 13.8 5.8 5.4 2.2 10.9 4.3 16.2 6.6 0.5 0.2 0.8 1 0.7 1.5-0.1 0.6-0.7 1.2-1.2 2.1z"/>
			<path id="path31160" class="st3" d="m684.4 224.3c0 1.7 0.1 3.5-0.1 5.2 0 0.4-0.6 0.9-1.1 1.2-5 3.3-10.1 6.6-15.2 9.8-2 1.3-4.1 2.5-6.2 3.6-0.8 0.4-2 0.7-3 0.5-1.1-0.1-2-0.8-3-1.2 0.5-0.6 0.8-1.3 1.5-1.7 7.5-4.9 15-9.7 22.5-14.6 1.4-0.9 2.7-2 4-3 0.2 0.1 0.4 0.1 0.6 0.2z"/>
			<path id="path31162" class="st3" d="m561.8 217.4c-0.1-1.7 1.1-2.5 2.5-2.6 1-0.1 2.4 0.5 3.2 1.1 3.1 2.3 5.8 4.8 9.1 6.9 4.5 2.9 8.8 6 14.1 8.1 1.6 0.6 1.6 1.3 0.3 2.8-0.9 1.1-1.8 1.1-3.2 0.5-8.7-4.3-16.7-9.2-24-14.7-0.8-0.7-1.5-1.6-2-2.1z"/>
			<path id="path31164" class="st3" d="m652.7 252.5c-2.5 0.2-3.9-0.9-5.4-1.9-4.4-2.7-8.9-5.3-13.3-8l-9.9-6c-1-0.6-1.9-1.3-0.9-2.3 0.9-0.9 2.3-0.9 3.5-0.3 3.4 1.7 6.7 3.5 10 5.3 3.7 2 7.4 4 11.2 6.1 2.4 1.3 4.9 2.6 7.2 4.1 0.5 0.3 0.3 1.2 0.2 1.8-0.2 1.3-1.4 1.4-2.6 1.2z"/>
			<path id="path31166" class="st3" d="m620.9 226.2c-0.4 0.6-0.6 1.1-1 1.4-1 0.8-2 1.5-3.1 2.2-6.1 3.6-12.3 7.2-18.5 10.7-1.3 0.7-2.7 1.2-4.1 1.8-1.2 0.5-2.4 0.1-2.9-0.7-0.3-0.5-0.2-1.5 0.3-1.9 3.2-2.4 6.4-4.8 10-6.9 4.7-2.8 9.6-5.3 14.5-7.8 0.8-0.4 2.1-0.7 3-0.5 0.8 0.2 1.3 1.1 1.8 1.7z"/>
			<path id="path31168" class="st3" d="m624.6 147.6c1.4 0.4 2.6 0.6 3.5 1.1 8.6 4.1 17.3 8.2 25.9 12.3 0.5 0.2 1 0.5 1.5 0.8 1.4 0.9 1.3 1.6 0 2.9-1 1-2 0.5-3 0.1l-26.4-12.6c-1.1-0.5-2.1-1.2-2.9-1.9-0.3-0.3-0.4-1-0.2-1.3 0.3-0.6 1-0.9 1.6-1.4z"/>
			<path id="path31170" class="st3" d="m561.2 227.1c-0.1-2.1 2.2-3.2 4-2.3 2.8 1.4 5.5 2.8 8 4.4 2.7 1.6 5.2 3.5 7.9 5.1 1.9 1.2 3.9 2.3 6 3.4 1.5 0.8 1.2 1.6 0.4 2.4-0.9 0.9-1.6 2.2-3.6 1.3-2.4-1.1-4.8-2.2-7-3.5-4.4-2.6-8.7-5.2-12.9-8-1.2-0.9-2.1-2.1-2.8-2.8z"/>
			<path id="path31172" class="st3" d="m409.5 167.7c1 0.3 2.4 0.6 3.6 1.2 9.2 4.1 18.3 8.2 27.5 12.2 1.4 0.6 1.2 1.3 0.3 2.1-0.8 0.8-1.3 1.8-3.1 1-9-4.1-18.1-8.1-27.1-12.2-1.3-0.6-2.4-1.7-3.2-2.7-0.7-0.8 0.3-1.7 2-1.6z"/>
			<path id="path31174" class="st3" d="m483.7 196.7c1.7 0.6 3.2 1 4.7 1.5 4.5 1.6 9.1 3.1 13.6 4.8 4.9 1.8 9.8 3.6 14.7 5.5 1.5 0.6 1.7 1.4 0.8 2.5-0.8 1-1.5 1.3-3.2 0.7-8.6-3.1-17.4-6-26-9.1-2.1-0.8-4-1.9-5.9-3-0.4-0.3-0.5-1.1-0.3-1.6 0.2-0.6 1-0.9 1.6-1.3z"/>
			<path id="path31176" class="st3" d="m627.1 187.8c1.4 0.5 2.8 0.8 3.8 1.5 6.5 4.2 13.6 8 21.1 11.3 1.4 0.6 2.7 1.3 2 2.8-0.9 2-1.6 2.3-3.9 1.2-5-2.3-10-4.7-14.8-7.2-3.5-1.9-6.6-4.1-9.7-6.2-0.5-0.4-0.9-1.3-0.6-1.8 0.2-0.7 1.2-1.1 2.1-1.6z"/>
			<path id="path31178" class="st3" d="m518.2 248.4c0.1 1.8-2.4 3-4.1 2.2-6.4-3.1-12.7-6.3-19-9.5-2.9-1.5-5.7-3.2-8.4-4.9-0.5-0.3-1-1.2-0.8-1.5 0.5-0.7 1.3-1.8 2.9-1.1 2.4 1 4.8 2.1 7.1 3.2 7.1 3.6 14.1 7.2 21.1 10.9 0.4 0.2 0.9 0.5 1.2 0.7z"/>
			<path id="path31180" class="st3" d="m483.1 172.4c1.4 0.4 2.7 0.8 3.9 1.2l25.8 9.6c0.3 0.1 0.6 0.1 0.8 0.3 0.6 0.4 1.8 1 1.7 1.3-0.2 0.8-1 1.6-1.6 2.3-0.1 0.1-0.9 0.1-1.3-0.1-9-2.9-18.3-5.5-26.6-9.4-1.5-0.7-2.9-1.7-4.1-2.7-0.4-0.4-0.4-1.2-0.2-1.7 0.2-0.3 1.1-0.5 1.6-0.8z"/>
			<path id="path31182" class="st3" d="m650 244.3c-6-3.5-12-6.9-17.9-10.4-3.1-1.9-5.9-4-8.8-6-0.7-0.5-1.5-1.1-0.6-1.9 0.9-0.7 1.8-1.6 3.3-0.9 1.6 0.8 3.2 1.7 4.7 2.6 5.3 3.2 10.7 6.5 15.9 9.7 1.8 1.1 3.5 2.4 5.4 3.5 1.4 0.9 1.1 1.5-0.2 2.3-0.5 0.3-1 0.6-1.8 1.1z"/>
			<path id="path31184" class="st3" d="m451.9 219.4c-0.8-0.5-1.9-0.9-2.4-1.6-0.3-0.3 0.3-1.2 0.8-1.6 1.3-0.9 2.8-1.6 4.3-2.3 6.5-3.1 12.9-6.2 19.4-9.3 0.9-0.4 1.8-0.9 2.8-1.3 2.3-1.1 4.3-0.3 4.3 1.7 0 0.4-0.5 0.9-1 1.2-8.3 4.1-16.6 8.2-25 12.2-0.8 0.4-1.9 0.6-3.2 1z"/>
			<path id="path31186" class="st3" d="m684.4 215.9c0 1.6 0.1 3 0 4.3 0 0.4-0.5 0.9-0.9 1.2-2.1 1.6-4.3 3.1-6.5 4.6-4.2 2.8-8.4 5.5-12.7 8.1-0.8 0.5-2.6 0.8-3.3 0.4-1.1-0.5-1.7-1.6-2.2-2.5-0.1-0.2 0.5-0.8 0.9-1.1 5.7-3.5 11.4-7 17.1-10.4 2.3-1.4 4.8-2.9 7.6-4.6z"/>
			<path id="path31188" class="st3" d="m684.4 147.6v5.3c0 0.3-0.4 0.6-0.7 0.8-4.3 2.7-8.6 5.4-12.9 8-2 1.2-4.1 2.2-6.2 3.2-1.3 0.6-2.8 1-4.4 0.5s-2.3-1.5-1.1-2.4c1.8-1.4 3.8-2.7 5.8-3.9 4.6-2.8 9.3-5.5 14-8.3 1.7-0.9 3.4-1.9 5.5-3.2z"/>
			<path id="path31190" class="st3" d="m485.4 213.9c1.7 0.7 3 1.2 4.2 1.8 8.6 3.7 17.3 7.5 26 11.1 2.1 0.9 1.1 1.7 0.6 2.7-0.6 1.2-1.7 1-2.9 0.6-2.6-1-5.3-2-7.8-3.1-6.5-2.8-12.9-5.7-19.4-8.6-0.6-0.3-1.3-0.5-1.9-0.8-1.3-0.5-1.5-1.3-0.9-2 0.5-0.7 1.3-1.1 2.1-1.7z"/>
			<path id="path31192" class="st3" d="m561.9 180c1.4 0.3 2.5 0.4 3.4 0.7 6.2 2.4 12.3 4.9 18.4 7.4 1.9 0.8 3.7 1.6 5.6 2.5 2.1 1 2.2 3.1 0 4.1-0.3 0.2-1.1 0-1.5-0.1-2.3-0.9-4.6-1.8-6.8-2.8-5.4-2.1-10.8-4.2-16.1-6.4-1.5-0.6-2.9-1.4-4.1-2.3-0.5-0.4-0.7-1.3-0.5-1.8 0.2-0.6 1.1-0.9 1.6-1.3z"/>
			<path id="path31194" class="st3" d="m617.9 231.9c0.7 0.4 1.5 0.7 1.7 1.2 0.3 0.5 0.7 1.4 0.3 1.8-0.8 0.9-2 1.7-3.1 2.5l-19.8 12.3c-0.8 0.5-1.4 1.1-2.2 1.6-1.1 0.7-2.2 0.6-3.4 0-1.1-0.5-1.3-1.1-0.4-1.8 2.3-1.8 4.5-3.7 6.9-5.3 5.8-3.8 11.7-7.4 17.5-11.1 0.7-0.4 1.5-0.7 2.5-1.2z"/>
			<path id="path31196" class="st3" d="m595 196.6c-1-0.5-2.1-0.8-2.7-1.4-0.3-0.3 0.4-1.3 1-1.7 4.6-2.9 9.1-5.9 13.8-8.6 3.2-1.9 6.6-3.5 10.1-5.1 1.8-0.8 2.9-0.4 3.7 1.1 0.4 0.8 0.3 1.3-0.6 1.9-3.9 2.2-7.8 4.3-11.6 6.5-3.3 1.9-6.4 4-9.7 5.9-1.1 0.6-2.5 0.9-4 1.4z"/>
			<path id="path31198" class="st3" d="m514.4 194.6c-2.1-0.7-4.5-1.3-6.7-2.1-7.4-2.7-14.7-5.5-22-8.3-1.3-0.5-2.4-1.1-3.5-1.8-0.9-0.5-1.5-1.2-0.6-2.1s1.9-1.1 3.2-0.5c4.2 1.7 8.3 3.5 12.5 5 6.1 2.2 12.4 4.2 18.5 6.4 0.6 0.2 1.5 1 1.3 1.3-0.3 0.9-0.8 1.9-2.7 2.1z"/>
			<path id="path31200" class="st3" d="m591.5 201.6c-0.1 2-1.8 2.9-3.9 2.1-5.7-2.3-11.2-4.8-16.8-7.3-1.9-0.8-3.7-1.9-5.4-2.9-0.8-0.5-1.3-1.2-1.9-1.8-0.7-0.7-0.8-1.4 0.3-2.1s2-1 3.2-0.3c1.6 0.8 3.2 1.5 4.8 2.3 5.5 2.6 11 5.1 16.4 7.7 1.5 0.6 3.1 1.1 3.3 2.3z"/>
			<path id="path31202" class="st3" d="m416.2 235.5c1.8 0.6 3.7 1 5.3 1.8 4.2 2 8.3 4 12.3 6.1 3.1 1.5 6.1 3.1 9.1 4.7 1.8 1 1.9 2.4 0.1 3.4-0.5 0.3-1.8 0.2-2.5 0-2.7-1.1-5.3-2.3-7.9-3.6-4-1.9-7.9-3.9-11.8-5.9-2.4-1.3-5.1-2.3-6.4-4.4-0.7-1.1 0-1.9 1.8-2.1z"/>
			<path id="path31204" class="st3" d="m621.4 157.3c-0.3 0.3-0.6 0.9-1.3 1.3-2.7 1.5-5.4 2.9-8.2 4.3-4.5 2.3-9 4.5-13.5 6.7-2.5 1.2-3.4 1.2-5.7-0.1-1-0.6-1-1.2-0.2-1.8s1.8-1.2 2.7-1.6c6.7-3.3 13.4-6.6 20.2-9.9 0.8-0.4 1.6-0.7 2.5-0.9 2.4-0.8 3.6-0.2 3.5 2z"/>
			<path id="path31206" class="st3" d="m684.4 177.2c0 1.7 0.1 3.2 0 4.7 0 0.3-0.5 0.7-0.9 0.9-2.7 1.3-5.6 2.4-8.2 3.7-4.1 2.1-8.1 4.4-12.2 6.6-0.6 0.3-1.2 0.7-1.9 0.9-1.9 0.7-3.9 0.2-4.5-1.3-0.2-0.4 0.2-1.2 0.8-1.6 2.9-1.8 5.8-3.7 8.9-5.3 4.1-2.1 8.4-4 12.6-6 1.6-0.8 3.3-1.6 5.4-2.6z"/>
			<path id="path31208" class="st3" d="m562.6 233.1c0.8 0.3 1.4 0.5 1.8 0.8 4.2 2.5 8.4 4.9 12.5 7.5l10.2 6.3c1.8 1.2 1.8 2 0.8 3.5-0.6 0.9-1.5 0.9-2.4 0.4-1.4-0.7-2.6-1.5-3.9-2.3-3.4-2-6.9-3.9-10.2-5.9-3.6-2.2-7.2-4.4-10.6-6.8-0.6-0.4-0.8-1.5-0.5-2.1 0.4-0.6 1.5-0.9 2.3-1.4z"/>
			<path id="path31210" class="st3" d="m684.4 167.7c0 1.7 0.1 3.2-0.1 4.7 0 0.3-0.6 0.7-1.1 1-2.7 1.3-5.5 2.5-8.2 3.8-4 1.9-8 3.9-12 5.9-1.7 0.8-3.4 1.3-5.4 0.7-0.7-0.2-1.6-0.7-1.8-1.2-0.2-0.4 0.4-1.1 0.9-1.4 0.8-0.6 1.8-0.9 2.7-1.4 7.8-3.8 15.6-7.7 23.5-11.5 0.4-0.1 0.8-0.3 1.5-0.6z"/>
			<path id="path31212" class="st3" d="m414.6 228c1.1 0.3 1.7 0.4 2.2 0.6 4.3 1.8 8.6 3.7 12.9 5.6 1.6 0.7 3.3 1.3 4.8 2.1 3.6 1.9 7.1 3.8 10.6 5.7 1.4 0.8 0.6 1.5 0 2.4-0.6 0.8-1.4 1-2.4 0.5-3.1-1.5-6.1-3.1-9.2-4.5-5.9-2.7-11.8-5.3-17.7-8-1.4-0.6-2.9-1.3-2.6-2.7 0.1-0.6 0.9-1.2 1.4-1.7z"/>
			<path id="path31214" class="st3" d="m450 224.1c0.3-0.2 0.6-0.8 1.1-1 1.7-0.8 3.4-1.4 5.2-2.1 6.1-2.4 12.2-4.8 18.3-7.3 0.7-0.3 1.3-0.5 2-0.7 1.3-0.4 2.5-0.9 3.5 0.4 1.1 1.5 0.9 2.2-1.1 3-7.6 3.1-15.2 6.2-22.9 9.4-0.6 0.3-1.4 0.4-2.1 0.6-2.4 0.6-3.9-0.1-4-2.3z"/>
			<path id="path31216" class="st3" d="m446.1 209c0 1.9-1.8 2.8-3.7 2-3.6-1.4-7.1-3-10.6-4.4-5.7-2.4-11.5-4.8-17.2-7.2-1-0.4-1.9-1-2.8-1.6-1.4-0.8-1.1-1.7-0.1-2.4 0.3-0.2 1.1-0.4 1.5-0.3 1.6 0.5 3.1 1.1 4.6 1.7 6 2.5 12 4.9 17.9 7.4 3.1 1.3 6.1 2.5 9.2 3.9 0.5 0.2 0.9 0.7 1.2 0.9z"/>
			<path id="path31218" class="st3" d="m477.6 237.4c1.8 1.8 1.4 3.2-0.5 4.4-2 1.2-3.9 2.5-6 3.6-4 2.1-8 4.1-12 6.2-1.3 0.7-2.7 1-4.3 1-2.3-0.1-4.7 0-7.6 0 9.8-5.9 20.3-10.3 30.4-15.2z"/>
			<path id="path31220" class="st3" d="m560 138.5c2.1 0.7 4.2 1.1 5.9 1.9 2.8 1.3 5.4 3 8.2 4.4 2.9 1.5 5.8 2.9 8.7 4.4l5.4 2.7c1 0.5 1.1 1.1 0.5 1.9-0.6 0.7-1.2 1.5-2.6 0.9-3.5-1.4-7.2-2.7-10.5-4.3-4-1.9-7.8-4.2-11.7-6.3-1.7-0.9-3.5-1.8-5.1-2.9-0.5-0.3-0.6-1.2-0.5-1.7 0.1-0.4 1-0.7 1.7-1z"/>
			<path id="path31222" class="st3" d="m684.4 187.4c0 1.6 0.1 3-0.1 4.4-0.1 0.5-0.7 1-1.3 1.3-5.2 2.9-10.5 5.8-15.7 8.7-1.7 0.9-3.5 1.8-5.4 2.6-0.6 0.3-1.6 0.2-2.3 0.1-2.5-0.5-2.9-1.6-0.9-2.8 2.8-1.8 5.7-3.5 8.6-5.2 5.1-2.8 10.2-5.6 15.4-8.3 0.4-0.3 0.9-0.5 1.7-0.8z"/>
			<path id="path31224" class="st3" d="m592.9 177.9c-0.7 0.8-1.1 1.6-1.9 2.1-0.4 0.2-1.6-0.2-2.3-0.5-7.9-3.9-15.8-7.8-23.6-11.8-1-0.5-1.9-1.2-2.7-1.9-1-0.8-0.6-1.6 0.3-2.4 1-0.8 1.8-0.2 2.6 0.1 6.4 3.1 12.7 6.3 19.1 9.4 2.3 1.1 4.7 2.2 6.9 3.4 0.7 0.4 1.1 1 1.6 1.6z"/>
			<path id="path31226" class="st3" d="m558.4 171.1c0-1.2 1.3-1.8 3-1.4 0.9 0.2 1.7 0.6 2.5 1l17.1 8.4c2.6 1.2 5.3 2.3 8 3.4 1.2 0.5 1.6 1.1 0.8 2-0.7 0.7-1.1 2-3 1.2-4.8-2.1-9.7-4-14.4-6.2-3.8-1.7-7.4-3.6-11.1-5.5-1.4-0.8-3-1.5-2.9-2.9z"/>
			<path id="path31228" class="st3" d="m407.9 142.9c-0.1-1.9 1.1-2.5 2.7-1.9 2.8 1 5.5 2.1 8.1 3.3 4.2 1.8 8.5 3.6 12.7 5.4 2.7 1.2 5.4 2.6 8 3.9 0.7 0.4 1.7 0.8 0.7 1.6-0.9 0.7-1.4 1.9-3.4 1.1-5.8-2.5-11.6-4.9-17.4-7.4-3.2-1.4-6.4-2.8-9.5-4.3-0.8-0.4-1.5-1.3-1.9-1.7z"/>
			<path id="path31230" class="st3" d="m594.8 225.2c-3.3-1.9-3.4-2.3-0.6-4 7.1-4.4 14.4-8.7 21.6-13.1 0.6-0.4 1.3-0.7 2-1 1.1-0.5 2.1-0.7 2.9 0.2 0.7 0.8 1.3 1.5 0 2.3-3.8 2.3-7.5 4.6-11.2 6.9s-7.5 4.6-11.2 6.9c-1.1 0.7-2.4 1.2-3.5 1.8z"/>
			<path id="path31232" class="st3" d="m621.6 173c-0.7 0.6-1.1 1.2-1.8 1.6l-20.4 10.8c-2.2 1.1-3.7 1-5.5-0.1-1.1-0.7-1.1-1.2 0-1.8 3.8-2.2 7.5-4.4 11.4-6.5 3.9-2 7.9-3.9 12-5.7 0.7-0.3 2.2-0.6 2.7-0.4 0.8 0.3 1 1.2 1.6 2.1z"/>
			<path id="path31234" class="st3" d="m684.4 233.1v4.2c0 0.3-0.3 0.7-0.6 0.9-6.8 4.4-13.7 8.8-20.6 13.1-0.7 0.5-1.7 0.9-2.6 1-0.8 0.1-2.2-0.1-2.6-0.5s-0.1-1.5 0.4-1.8c2.6-1.9 5.3-3.7 8-5.5 5.8-3.9 11.7-7.7 17.6-11.5 0 0 0.2 0.1 0.4 0.1z"/>
			<path id="path31236" class="st3" d="m684.4 196.7v4.9c0 0.4-0.3 0.9-0.7 1.1-5.3 3.3-10.6 6.7-16 9.9-1.2 0.7-2.8 1.1-4.3 1.5-1.3 0.3-2.5 0.1-3.2-0.8-0.8-0.9 0-1.6 0.8-2.1 2.1-1.3 4.3-2.6 6.4-3.9 5.3-3.3 10.6-6.7 15.9-10 0.2-0.2 0.5-0.3 1.1-0.6z"/>
			<path id="path31238" class="st3" d="m558.3 148.4c0.1-1.4 1-1.8 2.3-1.6 1.4 0.2 2.9 0.7 4.1 1.2 2.9 1.3 5.8 2.8 8.7 4.2 2.2 1 4.4 2 6.7 2.9l7.5 3.3c1.4 0.6 1.7 1.3 1.1 2.4-0.7 1.2-1.9 1.3-3.3 0.8-2.5-0.9-5-1.8-7.4-2.9-4.2-1.9-8.4-3.8-12.5-5.8-2-0.9-3.8-2-5.6-3.1-0.9-0.3-1.2-1-1.6-1.4z"/>
			<path id="path31240" class="st3" d="m477.5 221.1c0.7 0.5 1.6 1 1.9 1.6 0.3 0.5 0.1 1.5-0.4 1.8-6.2 3.2-12.4 6.3-18.7 9.3-1.2 0.6-2.6 0.8-3.9 1.3s-2.4 0.7-3.4-0.3c-0.8-0.8-0.4-1.9 1-2.7 2.8-1.5 5.5-3.2 8.4-4.6 4.1-2 8.3-3.8 12.4-5.7 0.8-0.2 1.6-0.3 2.7-0.7z"/>
			<path id="path31242" class="st3" d="m594.2 176c0.5-0.4 0.9-1 1.6-1.3 6.1-3.3 12.3-6.6 18.4-9.9 1.5-0.8 3-1.5 4.4-2.3 1-0.6 1.9-0.8 2.9 0 1.1 1 1.3 2.2 0.4 2.9-0.9 0.6-1.8 1.2-2.8 1.7-6.3 3.3-12.7 6.6-19.1 10-2 1-4.1 0.9-5.2-0.2-0.3-0.2-0.4-0.4-0.6-0.9z"/>
			<path id="path31244" class="st3" d="m684.4 206v1c0.6 2.9-0.7 5.1-4 7.1-4.9 3-9.2 6.5-13.8 9.7-0.8 0.6-1.5 1.6-3.2 0.9-3.4-1.3-3.5-1.6-0.9-3.6 6.5-4.9 12.9-9.9 20.3-14.1 0.4-0.3 0.9-0.5 1.6-1z"/>
			<path id="path31246" class="st3" d="m596.1 233.2c-2.8-2.4-2.9-2.5 0-4.4 5.4-3.6 11-7.2 16.5-10.7 1.3-0.9 2.7-1.7 4.1-2.5 0.8-0.4 1.7-1 2.7-0.1 1.3 1.2 1.5 2 0.4 2.8l-8.1 5.4c-5.1 3.2-10.3 6.3-15.6 9.5z"/>
			<path id="path31248" class="st3" d="m591.4 160.4c0.4-0.5 0.6-0.8 1-1 1.1-0.8 2.3-1.5 3.5-2.2 6.8-3.9 13.5-7.8 20.3-11.6 2.3-1.3 3.1-1.2 4.5 0.5 0.7 0.8 0.4 1.2-0.5 1.7l-24 13.5c-0.9 0.5-1.9 0.9-3 0.3-0.5-0.5-1.1-0.8-1.8-1.2z"/>
			<path id="path31250" class="st3" d="m593.8 213.3c0.9-1 1.2-1.5 1.7-1.8 3.3-2.3 6.6-4.5 9.9-6.8 2.7-1.8 5.5-3.6 8.4-5.3 1.1-0.7 2.4-1.2 3.7-1.8 1.1-0.5 2.2-0.4 2.9 0.4s1.5 1.5 0 2.5c-6.8 4.1-13.5 8.3-20.2 12.4-0.7 0.4-1.3 1-2.1 1.3-0.6 0.2-1.4 0.2-2 0.1-0.9-0.2-1.6-0.6-2.3-1z"/>
			<path id="path31252" class="st3" d="m561.8 207.6c0-1.7 1.5-2.4 3-1.7 1.3 0.6 2.4 1.3 3.5 2 4.8 3.1 9.5 6.2 14.3 9.3 1.9 1.3 3.9 2.5 5.9 3.8 1.5 0.9 1 1.7 0.1 2.7-1.1 1-1.9 0.3-2.7-0.2-5.4-3.2-10.8-6.5-16.1-9.8-2.3-1.4-4.4-3-6.5-4.5-0.6-0.6-1.1-1.3-1.5-1.6z"/>
			<path id="path31254" class="st3" d="m562.5 155.7c1 0.3 1.7 0.4 2.3 0.7 5.2 2.1 10.4 4.1 15.5 6.2 3 1.3 5.8 2.9 8.8 4.3 0.9 0.4 0.9 0.8 0.5 1.5-1.5 1.9-1.8 2.1-4.4 0.9-2.5-1.1-4.8-2.4-7.3-3.5-4.4-1.9-9-3.6-13.4-5.6-1.2-0.5-2.3-1.4-3.3-2.2-0.3-0.3-0.2-1 0-1.3 0.2-0.4 0.8-0.7 1.3-1z"/>
			<path id="path31256" class="st3" d="m528.3 252.3c2.2-1.3 4.3-2.5 6.5-3.8 3.3-2 6.5-4 9.9-5.9 2.4-1.4 5-2.6 7.6-3.9 0.9-0.5 2-0.7 2.7 0.2 0.6 0.8 1.7 1.6 0 2.5-6.3 3.6-12.4 7.2-18.6 10.8-0.3 0.2-0.9 0.3-1.4 0.3h-6.5c-0.1 0-0.1-0.1-0.2-0.2z"/>
			<path id="path31258" class="st3" d="m684.4 158.4c0 0.8-0.1 1.3 0 1.7 0.7 2.5-0.9 4.1-3.8 5.3-5.1 2.2-10 4.7-15.1 7-0.6 0.3-1.4 0.7-2 0.6-0.9-0.2-2.2-0.6-2.4-1.2-0.2-0.5 0.5-1.5 1.1-1.9 5.3-2.9 10.7-5.6 16-8.4 2-0.9 3.9-1.9 6.2-3.1z"/>
			<path id="path31260" class="st3" d="m597.6 252.6c2.1-1.4 3.8-2.6 5.6-3.8 4.6-3 9.2-6.1 13.8-9.1 0.6-0.4 1.3-1.2 2.4-0.3 1.4 1.2 1.7 1.9 0.5 2.8-2.5 2-5.1 4.1-7.7 6.1-1.6 1.2-3.1 2.5-4.7 3.7-0.3 0.3-0.9 0.4-1.4 0.5-2.5 0.1-5.3 0.1-8.5 0.1z"/>
			<path id="path31262" class="st3" d="m509.8 252.5h-8.7c-0.2 0-0.5-0.1-0.7-0.2-4.6-2.7-9.2-5.5-13.8-8.2-0.1-0.1-0.3-0.2-0.4-0.3-0.2-0.7-0.5-1.4-0.7-2.1 0.9 0 1.8-0.1 2.6-0.1 3 0.1 4.9 1.5 7.1 2.7 4.5 2.5 9 5 13.4 7.5 0.4 0.2 0.6 0.4 1.2 0.7z"/>
			<path id="path31264" class="st3" d="m643 252.6h-6.9c-0.5 0-1-0.1-1.3-0.3-4-2.6-8-5.2-11.9-7.9-0.5-0.3-0.7-1.3-0.3-1.6 0.4-0.4 1.7-0.9 2.3-0.7 1.8 0.5 3.6 1.1 5 1.9 4.5 2.7 8.9 5.6 13.3 8.4 0-0.1-0.1 0-0.2 0.2z"/>
			<path id="path31266" class="st3" d="m684.4 240.6v5.8c0 0.4-0.3 0.9-0.6 1.2-2.1 1.6-4.3 3.1-6.6 4.6-0.4 0.2-1 0.4-1.5 0.4h-8.2c5.7-4.1 11.1-8 16.9-12z"/>
			<path id="path31268" class="st3" d="m579.1 252.6h-8.1c-0.3 0-0.8-0.1-1-0.2-3.2-1.8-6.6-3.5-9.6-5.5-3.1-2-2.8-3 1-4.6 5.7 3.3 11.6 6.7 17.7 10.3z"/>
			<path id="path31270" class="st3" d="m430.8 252.6h-9.2c-0.4 0-0.9-0.1-1.2-0.3-2.5-1.3-4.9-2.7-6.3-4.9-0.6-1-0.2-2.1 1.2-3 1.2-0.6 2.4-0.5 3.4 0.2 4 2.6 8 5.3 12.1 8z"/>
			<path id="path31272" class="st3" d="m462.1 252.3c3.8-2 7.7-4 11.5-6 0.6-0.3 1.2-0.6 1.8-0.7 0.9-0.2 2-0.8 2.8 0.2 0.7 0.9 1.3 2-0.1 2.8-2.1 1.3-4.2 2.5-6.3 3.8-0.2 0.1-0.6 0.2-0.9 0.2h-8.7c0-0.1 0-0.2-0.1-0.3z"/>
			<path id="path31274" class="st3" d="m540.8 252.2c3.5-1.9 7.1-3.9 10.7-5.8 0.9-0.5 2.1-0.7 2.9 0.3 0.7 0.9 1.6 1.9 0 2.7-1.8 1-3.5 2-5.3 2.9-0.3 0.2-0.8 0.2-1.2 0.2h-6.7c-0.2-0.1-0.3-0.2-0.4-0.3z"/>
			<path id="path31276" class="st3" d="m494 252.6h-9c-1.1 0-3-2-3.1-3s1.5-2.8 2.6-2.9c0.4 0 1 0.1 1.3 0.4 2.8 1.7 5.5 3.5 8.3 5.2 0 0-0.1 0.1-0.1 0.3z"/>
			<path id="path31278" class="st3" d="m611.3 252.6c2.4-2.1 4.5-4 6.7-5.8 0.4-0.4 1.4-0.8 1.8-0.7 0.6 0.2 1 0.8 1.2 1.4 0.5 1.9-0.8 3.5-2.5 4.9-0.2 0.2-0.8 0.2-1.2 0.2h-6z"/>
			<path id="path31280" class="st3" d="m622.8 252.5c-0.8-1.5 0.8-2.1 1.8-2.8 0.2-0.2 1.1-0.1 1.3 0 1.3 0.8 2.4 1.7 3.7 2.5l-0.3 0.3h-6.5z"/>
			<path id="path31282" class="st3" d="m684.3 252.5h-4.7c1.7-1.1 3.1-2.1 4.7-3.2v3.2z"/>
			<path id="path31284" class="st3" d="m562.5 252.5h-5.9c0.9-0.8 1.5-1.4 2.2-2.1 1.4 0.7 2.6 1.3 3.8 1.8 0 0.1-0.1 0.2-0.1 0.3z"/>
		</g>
		<g id="g31552" class="st2" clip-path="url(#SVGID_2_)" fill="#f1eee5" opacity=".35">
			<path id="path31288" class="st3" d="m276.2 184.4c-0.5 0.4-0.8 1-1.4 1.3-4.6 2.2-9.1 4.5-13.9 6.5-5.1 2.1-10.5 4-15.7 5.9-2.4 0.9-4.8 0.4-6.4-1.1-0.2-0.2-0.2-0.8 0-0.9 1.2-0.8 2.3-1.7 3.7-2.2 5.6-2.2 11.3-4.2 16.9-6.3 2.4-0.9 4.7-2.1 7-3.2h9.8z"/>
			<path id="path31290" class="st3" d="m205.9 184.4c2.8 1.3 5.7 2.6 8.4 3.9 5.5 2.6 10.9 5.2 16.3 7.8 1.7 0.8 3.5 1.5 5.3 2.2 1.3 0.5 1.7 1.2 0.8 2.1-0.8 0.8-1.5 1.9-3.4 1.1-3.9-1.7-8-3.3-11.8-5.1-5.5-2.6-10.8-5.3-16.2-7.9-2.9-1.4-2.9-1.9-0.5-3.7l0.3-0.3c0.3-0.1 0.6-0.1 0.8-0.1z"/>
			<path id="path31292" class="st3" d="m341.2 184.4c0.3 0.3 0.6 0.7 0.9 1 0.7 0.8 0.6 1.3-0.5 1.9-8.3 4.5-16.5 9.1-24.8 13.7-0.7 0.4-1.8 0.8-2.5 0.7-1-0.2-2.1-0.8-2.8-1.4-0.2-0.2 0.7-1.2 1.3-1.6 1.9-1.2 3.9-2.2 5.9-3.3 5.9-3.2 11.7-6.4 17.6-9.6 0.9-0.5 2-0.9 2.9-1.4h2z"/>
			<path id="path31294" class="st3" d="m405 184.2c0.7 2.9-0.6 4.9-3.8 6.8-4.8 2.9-9.2 6.3-13.8 9.5-1.5 1-3.3 1.8-5 2.8-0.5-0.3-0.7-0.4-0.9-0.5-2.9-1.8-2.8-1.4 0-3.5 4.3-3.1 8.6-6.2 13-9.3 2.1-1.5 4.3-3 6.4-4.5 0.9-0.6 1.3-1.5 2.5-1.8 0.7 0.1 1 0.2 1.6 0.5z"/>
			<path id="path31296" class="st3" d="m142 184.4 1.8 0.9c4.9 2 9.8 4 14.7 6.1 1.6 0.7 1.5 2.9-0.1 3.7-0.3 0.2-1.1 0.1-1.5-0.1-3.3-1.3-6.6-2.6-10-4-2.8-1.1-5.7-2.1-8.5-3.4-2.2-1-4.1-2.2-6.1-3.2h9.7z"/>
			<path id="path31298" class="st3" d="m335.2 184.4c-6.7 3.2-13.3 6.4-20 9.7-2.4 1.2-4.7 1-6.6-0.5-0.1-0.1-0.2-0.2-0.5-0.7 2.6-1.4 5.1-2.8 7.8-4.1 2.6-1.2 5.3-2.3 8-3.5 0.4-0.2 0.8-0.5 1.2-0.8 3.4-0.1 6.7-0.1 10.1-0.1z"/>
			<path id="path31300" class="st3" d="m188.4 184.4c-3.5 1.9-7 3.8-10.6 5.6-2.9 1.5-6 2.8-9 4.1-2.6 1.1-4.5 0.7-5.6-1.2-0.2-0.3-0.2-0.9 0-1.1 1.1-0.7 2.3-1.4 3.5-1.9 3.8-1.8 7.6-3.5 11.5-5.2 0.1 0 0.1-0.2 0.1-0.2 3.3-0.1 6.7-0.1 10.1-0.1z"/>
			<path id="path31302" class="st3" d="m366.2 184.4c2.6 1.5 5.1 3.1 7.7 4.6s3 3.1 0.8 4.7c-0.5 0.3-1.8 0.5-2.4 0.3-6.3-2.8-12.4-5.7-17.9-9.3-0.1-0.1-0.1-0.2-0.2-0.4 4 0.1 8 0.1 12 0.1z"/>
			<path id="path31304" class="st3" d="m293.7 184.4c2.2 1.1 4.5 2.2 6.7 3.3 1.6 0.8 3.3 1.6 5 2.3s1.6 1.6 0.5 2.6c-0.4 0.4-0.8 0.8-1.4 1.3-2.2-0.9-4.5-1.7-6.6-2.7-4.8-2.2-9.5-4.5-14.3-6.8h10.1z"/>
			<path id="path31306" class="st3" d="m223.5 184.4c3.2 1.5 6.4 2.9 9.5 4.3 0.7 0.3 1.5 0.5 2.1 0.8 1.8 0.9 2.1 1.7 0.7 3-0.4 0.3-1.4 0.7-1.9 0.5-7.1-2-13.1-5.3-19.3-8.3-0.1-0.1-0.1-0.2-0.2-0.4 3.1 0.1 6.1 0.1 9.1 0.1z"/>
			<path id="path31308" class="st3" d="m395.7 184.4c-1.8 1.4-3.5 2.9-5.4 4.2-2.7 2-5.6 3.8-8.4 5.7-1.5-0.7-2.7-1.4-4.4-2.2 3.7-2.7 7.2-5.2 10.7-7.7h7.5z"/>
			<path id="path31310" class="st3" d="m254.5 184.4c-3.3 1.7-6.5 3.5-9.9 5.1-1.1 0.5-2.5 0.8-3.8 0.9-0.7 0.1-2-0.3-2.2-0.7-0.3-0.5 0-1.4 0.5-1.8 1-0.9 2.2-1.5 3.4-2.3 0.7-0.4 1.5-0.8 2.2-1.2h9.8z"/>
			<path id="path31312" class="st3" d="m124.9 286.4c1.2-0.4 2.3-0.8 3.5-1.1 1.1-0.3 2.2-0.3 2.8 0.6s0.9 1.7-0.5 2.3c-2 0.8-3.9 1.7-5.9 2.5 0.1-1.4 0.1-2.9 0.1-4.3z"/>
			<path id="path31314" class="st3" d="m319.1 184.4c-2.2 0.9-4.2 2-6.5 2.7-1.1 0.3-2.7 0-3.8-0.4-1.4-0.4-1.6-1.4-0.9-2.3h11.2z"/>
			<path id="path31316" class="st3" d="m124.9 235.7c0.6-0.2 1.2-0.3 1.7-0.5 1.5-0.7 2.6-0.3 3.4 0.6 1.1 1.2 0.8 2.1-0.7 2.8-1.4 0.7-2.9 1.3-4.4 1.9v-4.8z"/>
			<path id="path31318" class="st3" d="m124.9 270.4c0.6-0.3 1.1-0.5 1.8-0.7 0.9-0.3 1.9-1.1 3-0.2 1.3 1 1.3 2.4-0.1 3.2-1.4 0.9-3.1 1.6-4.7 2.4v-4.7z"/>
			<path id="path31320" class="st3" d="m124.9 279.3c1.6-0.5 3.3-0.9 4.9-1.3 2.2 1.9 2 2.7-0.7 3.7-1.4 0.5-2.8 1-4.1 1.4-0.1-1.2-0.1-2.5-0.1-3.8z"/>
			<path id="path31322" class="st3" d="m124.9 293.2c1.1-0.3 2.1-0.6 3.2-0.7 0.6-0.1 1.6 0.2 1.9 0.6 0.5 0.5 1.2 1.3 0.1 1.9-1.7 0.9-3.4 1.7-5.2 2.6v-4.4z"/>
			<path id="path31324" class="st3" d="m124.9 262.2c0.9-0.3 1.8-0.6 2.7-0.8 0.6-0.1 1.8 0 1.9 0.2 0.4 0.7 1.8 1.6 0.3 2.4-1.6 0.8-3.3 1.5-5 2.2 0.1-1.2 0.1-2.6 0.1-4z"/>
			<path id="path31326" class="st3" d="m124.9 253.8c0.7-0.2 1.3-0.4 2-0.6 1.2-0.3 2.1-0.2 2.8 0.7 0.7 0.8 0.6 1.5-0.5 2.1-1.4 0.7-2.9 1.5-4.3 2.2v-4.4z"/>
			<path id="path31328" class="st3" d="m124.9 245.2c0.3-0.1 0.5-0.2 0.8-0.3 1-0.3 1.9-1 2.8 0.1 1.1 1.3 1.1 2-0.4 2.8-1 0.5-2.2 1-3.3 1.4 0.1-1.3 0.1-2.7 0.1-4z"/>
			<path id="path31330" class="st3" d="m124.9 226.4c2.2-0.1 2.5 1.2 2.7 2.2 0.2 1.3-1.3 1.7-2.7 2.1v-4.3z"/>
			<path id="path31332" class="st3" d="m381.5 184.4c-1.1 0.5-2.1 1.2-3.3 1.6-1.9 0.5-2.9-0.1-2.7-1.6h6z"/>
			<path id="path31334" class="st3" d="m124.9 207.2c1.6 0.2 2.4 1.1 2.4 2.1 0 0.8-0.9 1.7-2.4 1.7v-3.8z"/>
			<path id="path31336" class="st3" d="m124.9 198.8c2.2-0.1 1.6 1.4 2.1 2.2 0.1 0.2-1.4 0.8-2.1 1.3v-3.5z"/>
			<path id="path31338" class="st3" d="m128.6 184.4c-1.2 0.7-2.5 1.4-3.7 2.2v-2.2h3.7z"/>
			<path id="path31340" class="st3" d="m168.6 184.4c-1.5 0.5-3 1-4.6 1.5-0.5-0.5-1-1-1.4-1.5h6z"/>
			<path id="path31342" class="st3" d="m305.7 184.4c-1.7 1.8-2 1.8-4.5 0h4.5z"/>
			<path id="path31344" class="st3" d="m124.9 217.2c1.5 1.4 1.5 2.3 0 3v-3z"/>
			<path id="path31346" class="st3" d="m312.4 260.9c-1.1 1.1-1.9 2.4-3.2 3-0.7 0.3-2.7-0.1-3.6-0.6-4.8-2.8-9.5-5.8-14.2-8.7-2.7-1.7-5.4-3.4-8-5-2-1.2-2.1-1.9-0.5-3.4 2.3-2.1 2.3-2.2 5.2-0.4 6.1 3.7 12.1 7.4 18.1 11 1.4 0.9 3 1.6 4.4 2.5 0.7 0.2 1.1 0.8 1.8 1.6z"/>
			<path id="path31348" class="st3" d="m200.3 187.4c-0.4 0.4-1 1.3-1.9 1.7-9.2 3.7-16.3 9.3-24.3 14.1-1.8 1.1-3.7 2.2-5.5 3.2-1.5 0.9-3.1 0.5-4.4 0-1-0.4-1.6-1.4-0.4-2.2 2.5-1.7 4.9-3.5 7.5-5.1 5-3.2 10-6.3 15.3-9.3 2.8-1.6 6-2.8 9.1-4.2 0.4-0.2 0.9-0.3 1.4-0.4 2-0.5 3.2 0.2 3.2 2.2z"/>
			<path id="path31350" class="st3" d="m237.4 216.5c-0.2 0.6-0.4 1.1-0.7 1.7-0.7 1.2-1.7 1.5-3.4 0.9-7.4-2.7-14.7-5.6-21.5-9.2-1.3-0.7-3-1.1-4.3-1.8-2.5-1.2-4.9-2.6-7.3-3.9-1.1-0.6-1.4-1.5-0.8-2.4s1.6-0.6 2.8-0.6c2.4 0.2 4.4 0.9 6.4 1.9 7.7 3.7 15.5 7.2 23.2 10.8 1.9 0.7 3.7 1.7 5.6 2.6z"/>
			<path id="path31352" class="st3" d="m275.8 258.6c0.9 0.6 1.9 1.2 2.4 1.9 0.2 0.3-0.3 1.2-0.8 1.5-1.4 1-2.9 2-4.5 2.8-8.7 4.8-17.5 9.5-26.3 14.2-0.7 0.4-1.6 0.7-2.4 1-1.5 0.6-2.4-0.2-3.3-0.9-1-0.7-0.7-1.4 0.2-2 1.3-0.9 2.6-1.8 4.1-2.6 9.3-5 18.7-10 28-15 0.6-0.3 1.5-0.5 2.6-0.9z"/>
			<path id="path31354" class="st3" d="m277.5 209.5c-0.4 0.3-0.9 0.9-1.7 1.2-6.6 3.1-13.2 6.2-19.9 9.2-4.6 2.1-9.2 4.1-14 5.9-1 0.4-2.6 0.3-3.9 0.1-1.5-0.2-1.8-1.7-0.4-2.6 0.8-0.5 1.8-1 2.7-1.4 6.5-2.9 13.1-5.7 19.6-8.6 4.4-2 8.6-4.2 13.1-6.2 2.8-1.2 4.3-0.5 4.5 2.4z"/>
			<path id="path31356" class="st3" d="m244.7 298.8c-0.3-0.2-0.4-0.3-0.5-0.4-3-2.1-3.1-2.2 0.3-4.2 9.2-5.4 18.5-10.8 27.8-16.1 2.9-1.7 5.1-1.2 5.9 1.1 0.1 0.3-0.1 0.9-0.5 1.1-6.4 3.7-13 7.3-19.4 10.9-3.1 1.7-6 3.6-9.1 5.4-1.3 0.9-2.9 1.5-4.5 2.2z"/>
			<path id="path31358" class="st3" d="m277.3 252.2c-0.2 0.3-0.6 0.9-1.2 1.3l-19.2 11.1c-3 1.7-6 3.5-9.2 5.1-1.3 0.6-3.1 0.9-4.7 0.8-1.7-0.1-2.2-1.3-1.1-2.3 1-0.9 2-1.7 3.3-2.4 7.4-4.3 14.8-8.5 22.2-12.7 2-1.1 4.3-2.1 6.6-2.9 1.9-0.8 3.3 0 3.3 2z"/>
			<path id="path31360" class="st3" d="m128.8 208.9c0-1.6 1.3-2.3 3.1-1.8 1.3 0.3 2.6 0.8 3.8 1.4 8 3.6 16.1 7.2 24.1 10.8 0.7 0.3 1.5 0.7 2.2 1.1 2.2 1.2 2.3 1.7 0.8 3.3-0.6 0.7-1.4 1-2.5 0.6-4.7-1.7-9.5-3.3-14-5.2-4.3-1.8-8.5-3.9-12.6-6-1.5-0.8-2.8-1.8-4-2.8-0.6-0.5-0.7-1.1-0.9-1.4z"/>
			<path id="path31362" class="st3" d="m379.6 272.2c-0.1 2.6-1.4 3.3-3.9 2.3-2.5-1.1-4.8-2.5-7.2-3.7-1.8-1-3.7-1.9-5.4-2.9-5.9-3.5-11.7-7-17.4-10.5-1.8-1.1-1.7-2.1-0.2-3.5 0.6-0.6 1.3-0.7 2-0.3 1.9 1.1 3.9 2.3 5.8 3.4 3 1.8 5.9 3.6 9 5.3 5.4 3 10.9 6 16.3 9 0.5 0.2 0.8 0.8 1 0.9z"/>
			<path id="path31364" class="st3" d="m274.2 241.6c2.2 0 2.6 1.1 3.1 2.1 0.5 0.9-0.6 1.1-1.3 1.5-6.8 3.7-13.6 7.5-20.5 11.2-3.7 2-7.4 3.9-11.2 5.7-0.6 0.3-1.7 0.3-2.5 0.1-2.1-0.5-2.5-1.5-0.9-2.6 2-1.3 4.2-2.5 6.3-3.8 5.1-3 10.2-6 15.4-8.9 3.2-1.7 6.5-3.3 9.8-4.9 0.7-0.1 1.4-0.3 1.8-0.4z"/>
			<path id="path31366" class="st3" d="m275.1 223.4c0.7 0.9 1.5 1.7 1.9 2.7 0.2 0.3-0.4 1.1-1 1.3-4.9 2.2-10 4.3-14.9 6.6-4.7 2.2-9.2 4.6-13.9 6.8-1.1 0.5-2.5 0.9-3.7 1.2-0.4 0.1-1.1 0-1.4-0.3-3.1-2.1-2.5-2.2 1-4 4.9-2.5 9.8-4.9 14.8-7.2 5.1-2.3 10.3-4.5 15.5-6.7 0.4-0.1 0.8-0.2 1.7-0.4z"/>
			<path id="path31368" class="st3" d="m346.4 261.5c1.1 0.5 2.2 0.7 2.9 1.3 6.2 4.6 13.3 8.4 20 12.5 2.9 1.8 5.6 3.8 8.3 5.8 1.7 1.3 1.5 2.5-0.3 2.9-0.6 0.1-1.5 0.1-2.1-0.2-2.5-1.2-5-2.3-7.3-3.7-3.1-1.8-6.1-3.8-9.1-5.7-4.8-3-9.9-5.8-13.8-9.4-0.6-0.5-0.8-1.5-0.6-2.2 0.1-0.5 1.2-0.9 2-1.3z"/>
			<path id="path31370" class="st3" d="m243 208.7c-0.5-0.4-0.9-0.6-1.3-0.9-2.4-1.7-2.4-2.4 0.4-3.7 8.3-3.8 16.7-7.6 25.1-11.3 1.5-0.6 3.2-1 4.8-1.4 1.3-0.4 2.2 0.1 2.7 0.9s1.4 1.8-0.3 2.5c-3.9 1.7-7.7 3.4-11.6 5.1-4.9 2.2-9.7 4.3-14.6 6.5-1.6 0.8-3.4 1.5-5.2 2.3z"/>
			<path id="path31372" class="st3" d="m347.5 204.3 2.1 1.2c4.2 2.3 8.3 4.6 12.5 6.8 4.9 2.6 9.8 5.2 14.7 7.9 1.8 1 1.4 2.9-0.6 3.6-0.5 0.2-1.5 0-2-0.2-2.8-1.3-5.6-2.5-8.3-3.9-5.1-2.6-10.1-5.3-15-8-2.1-1.1-4-2.4-6-3.7-0.9-0.6-1.6-1.3-1-2.3 0.6-0.9 1.7-1.3 3.6-1.4z"/>
			<path id="path31374" class="st3" d="m342.7 237.4c-1.1 1.1-1.8 2.3-2.9 3.1-5 3.5-10.2 6.9-15.3 10.3-1.4 0.9-2.7 1.9-4 2.8-1.6 1.1-3.4 1.7-5.5 1.6-1.8-0.1-2.7-1.2-1.7-2.3 1.1-1.3 2.3-2.6 3.8-3.6 6.5-4.3 13.1-8.5 19.7-12.8 0.5-0.3 0.9-0.7 1.5-0.8 0.8-0.2 1.9-0.3 2.6-0.1 0.6 0.3 1 1.1 1.8 1.8z"/>
			<path id="path31376" class="st3" d="m165 251.2c1.1-1 1.9-1.9 3-2.5 1.9-1.1 4.1-1.9 6-2.9l18-9.9c1.5-0.8 3.1-1.5 4.7-2.2 0.9-0.4 2-0.9 2.7 0.2 0.6 0.9 1.8 1.9 0.1 2.9-3.7 2.2-7.3 4.5-11.1 6.6-5.3 2.9-10.7 5.6-16.1 8.3-0.5 0.3-1 0.7-1.5 1-1 0.6-2.2 0.8-3.3 0.2-0.9-0.5-1.6-1.1-2.5-1.7z"/>
			<path id="path31378" class="st3" d="m135.5 269c1.1 0.3 2.7 0.5 4 1 6.7 2.6 13.4 5.3 20.1 8l9.6 3.9c1.8 0.8 1.8 3 0 3.9-0.4 0.2-1.2 0.1-1.7-0.1-4-1.5-8-3-12-4.6-6-2.4-12-4.9-18-7.3-1.7-0.7-3.4-1.3-4-2.8-0.5-1.2 0.3-2 2-2z"/>
			<path id="path31380" class="st3" d="m346.3 187.6c0.8 0.2 2.1 0.5 3.2 1l25.8 12.6c2.5 1.2 2.5 1.6 1 3.2-1 1.1-2 1.4-3.5 0.6-5-2.5-10-5-15.1-7.4-3.6-1.7-7.2-3.3-10.8-5.1-1.2-0.6-2.2-1.3-3-2.1-0.9-1 0.3-2.8 2.4-2.8z"/>
			<path id="path31382" class="st3" d="m206.4 271.2c1.2 0.4 2.1 0.5 2.7 0.9 4.9 2.6 9.7 5.4 14.8 7.8 4.3 2.1 8.7 3.9 13.3 5.7 2.5 1 3.3 2.2 1.5 3.9-0.3 0.3-1.2 0.4-1.8 0.2-1.5-0.4-3-0.8-4.5-1.3-8.3-2.8-15.4-6.9-22.4-11.1-1.6-1-3.4-1.8-4.9-2.9-0.5-0.4-0.8-1.2-0.5-1.7 0.2-0.5 1.1-1 1.8-1.5z"/>
			<path id="path31384" class="st3" d="m342.5 225.6c0-1.3 0.9-1.7 2.6-1.4 4.8 0.9 8 3.6 11.8 5.6 5.2 2.7 10.2 5.6 15.3 8.3 2.2 1.2 2.3 1.9 0.5 3.4-0.7 0.6-1.5 0.9-2.6 0.5-3.1-1.3-6.3-2.5-9.2-4-5-2.6-9.8-5.4-14.6-8.2-1.7-1-2.9-2.6-4.4-3.9 0.3-0.1 0.5-0.2 0.6-0.3z"/>
			<path id="path31386" class="st3" d="m132.6 233.6c2.1 0.7 3.8 1.1 5.3 1.8 7.2 3.6 14.5 7.1 22.4 9.9 0.8 0.3 1.5 0.7 2.2 1 1.8 0.7 2.4 1.5 0.8 3.2-1 1.2-2.2 1.2-4.1 0.5-4.2-1.7-8.4-3.2-12.5-5-4.4-1.9-8.6-3.9-12.8-6-1.7-0.9-2.8-2.2-2.6-3.8 0-0.6 0.7-1 1.3-1.6z"/>
			<path id="path31388" class="st3" d="m378 261.9c-0.6 0.8-1 1.6-1.7 2.3-0.2 0.2-1.2 0.3-1.6 0.1-1.4-0.6-2.6-1.3-3.9-2-8.2-4.3-16.4-8.6-24.5-13-1.2-0.7-2.1-1.8-2.8-2.9-0.3-0.4-0.1-1.4 0.4-1.7s1.7-0.4 2.3-0.1c2.1 0.9 4.2 1.9 6.1 3 3.7 2 7.3 4.2 11 6.2 4.4 2.3 8.9 4.5 13.3 6.7 0.7 0.3 0.9 0.8 1.4 1.4z"/>
			<path id="path31390" class="st3" d="m195 216.3c1.9 0.2 2.6 1.2 3.2 2.2 0.5 0.9-0.3 1.4-1.3 1.8-7.1 3.5-14.1 7.1-21.2 10.6-1.5 0.7-3 1.4-4.6 2s-4.4 0.2-5.6-0.8c-0.2-0.2-0.2-0.6 0-0.8 0.8-0.7 1.5-1.6 2.6-2.1l25.2-12.3c0.6-0.2 1.2-0.4 1.7-0.6z"/>
			<path id="path31392" class="st3" d="m130.1 226.9c0.1-1.4 0.8-1.8 2.2-1.5 1 0.2 2 0.5 2.9 0.9 8.7 3.8 17.4 7.6 26.1 11.5 1.4 0.6 2.5 1.5 3.8 2.2 1.2 0.7 1 1.4 0.2 2.2-0.8 0.9-1.6 1.4-3 0.8-1.6-0.6-3.1-1.3-4.7-2-6.9-3-13.8-6-20.6-9-2.1-0.9-4-2.1-5.8-3.4-0.6-0.4-0.8-1.3-1.1-1.7z"/>
			<path id="path31394" class="st3" d="m278.1 270.5c-0.5 0.4-1.2 1.2-2.1 1.7-6.1 3.6-12.2 7.2-18.4 10.7-3.6 2-7.3 3.9-10.9 5.8-0.8 0.4-1.6 0.5-2.5 0-1.7-1-1.9-1.6-0.3-2.7 1.9-1.3 3.9-2.5 6-3.6 7.8-4.4 15.7-8.7 23.5-13.1 0.4-0.2 0.9-0.4 1.4-0.6 2-0.7 3.2-0.2 3.3 1.8z"/>
			<path id="path31396" class="st3" d="m199 198.2c-0.7 0.7-1.2 1.3-1.8 1.6-6.4 3.5-12.9 6.9-19.3 10.4-1.6 0.9-3 1.9-4.7 2.6-1.1 0.5-2.5 0.8-3.7 0.8-1.4 0.1-3-0.4-3.1-1.5-0.1-0.6 0.9-1.4 1.7-1.8 8.4-4.6 16.9-9.1 25.4-13.7l0.6-0.3c1-0.3 2.5-1 2.9-0.7 0.9 0.6 1.3 1.6 2 2.6z"/>
			<path id="path31398" class="st3" d="m203.6 236.1c1.6 0.4 3 0.7 4.2 1.1 9.6 3.2 19.2 6.5 28.9 9.7 0.4 0.1 0.8 0.3 1.1 0.5 2.3 1 2.5 2.4 0.4 3.7-0.3 0.2-1.1 0.2-1.5 0.1-9.1-2.9-18.1-5.9-27.1-8.9-2.5-0.8-4.9-1.9-7.2-3.1-0.6-0.3-1-1.3-0.8-1.8 0.2-0.6 1.3-1 2-1.3z"/>
			<path id="path31400" class="st3" d="m341.9 216.9c0.1-1.5 1.8-2.4 3.1-2.2 1.4 0.3 2.9 0.6 4.1 1.2 5.6 2.5 11 5.2 16.6 7.8 2.2 1 4.6 2 6.8 3 1.7 0.8 1.8 1.3 0.6 2.5-1.9 1.9-1.9 2-4.8 0.7-8-3.6-16-7.3-24-11-1-0.4-1.7-1.5-2.4-2z"/>
			<path id="path31402" class="st3" d="m203.9 193.4c1.7 0.6 3.5 1.1 5 1.8 7.8 3.4 15.7 6.8 23.5 10.2 1.8 0.8 3.5 1.6 5.1 2.4 1.7 0.8 0.5 1.6-0.1 2.4s-1.3 1.2-2.6 0.6l-23.1-9.9c-2.5-1.1-4.9-2.2-7.3-3.3-2.5-1.1-3.2-2.4-2-3.6 0.4-0.2 0.9-0.3 1.5-0.6z"/>
			<path id="path31404" class="st3" d="m242.5 217.6c-0.9-0.5-2.1-0.9-2.5-1.5-0.2-0.3 0.6-1.3 1.2-1.7 3.4-1.7 7-3.2 10.5-4.9 6.9-3.2 13.7-6.5 20.6-9.8 2.1-1 4.1-0.3 4.1 1.6 0 0.4-0.6 1-1.2 1.2-5.8 2.9-11.6 5.8-17.4 8.6-3.4 1.6-6.8 3.2-10.2 4.7-1.4 0.8-3.1 1.2-5.1 1.8z"/>
			<path id="path31406" class="st3" d="m197.3 209.5c-0.3 0.3-0.7 1-1.5 1.3-7 3.6-14.1 7.1-21.1 10.7-2.6 1.3-4.7 1.4-6.8 0.2-0.8-0.5-1.3-1.1-0.6-1.7 1-0.9 1.9-1.8 3.2-2.4 6.8-3.3 13.7-6.5 20.6-9.7 0.7-0.3 1.5-0.7 2.3-0.8 2.5-0.7 3.8 0.1 3.9 2.4z"/>
			<path id="path31408" class="st3" d="m200.2 227.4c-0.3 0.3-0.6 0.9-1.2 1.3-0.9 0.7-1.9 1.3-2.9 1.9-7.1 3.7-14.2 7.4-21.4 11.1-0.4 0.2-0.8 0.4-1.3 0.6-2 0.8-4 0.4-4.9-1.2-0.2-0.3 0.2-1 0.6-1.2 2.8-1.7 5.7-3.3 8.6-4.9 5.4-2.9 10.8-5.7 16.3-8.6 0.8-0.4 1.7-0.8 2.6-1.1 2.3-0.7 3.5 0 3.6 2.1z"/>
			<path id="path31410" class="st3" d="m206.9 252.9c1.6 0.4 2.8 0.7 3.8 1.1 6.5 3 12.8 6.2 19.3 9.2 2.4 1.1 4.9 2.1 7.3 3.2 2 1 1.9 1.8 0.4 3.1-1 0.9-1.9 0.6-2.9 0.2-6-2.7-11.9-5.3-17.8-8.1-3.7-1.7-7.4-3.5-11.1-5.2-1-0.4-1.9-1-1.3-1.8 0.5-0.6 1.5-1.1 2.3-1.7z"/>
			<path id="path31412" class="st3" d="m276.6 235.1c-0.2 0.2-0.5 0.6-0.9 0.8-4 2.1-8 4.1-12 6.2l-13.5 7.2c-2.5 1.4-4 1.4-5.8 0.2-1.3-0.9-1.3-1.4 0.1-2.2 6.5-3.5 13.1-7 19.7-10.5 2.6-1.4 5.4-2.6 8.1-3.8 2.3-1.1 4.3-0.2 4.3 2.1z"/>
			<path id="path31414" class="st3" d="m130.5 195.9c1 0.4 2.4 0.8 3.6 1.4 6.2 3.1 12.4 6.4 18.6 9.5 3 1.5 6.2 2.7 9.2 4.2 0.7 0.3 1.8 1.1 1.7 1.4-0.4 0.9-1.2 1.6-2.1 2.3-0.2 0.2-1.2-0.1-1.7-0.3-6.3-2.9-12.5-5.8-18.7-8.8-2.9-1.4-5.8-2.8-8.5-4.4-1.4-0.8-2.7-1.9-3.7-3s-0.2-2.3 1.6-2.3z"/>
			<path id="path31416" class="st3" d="m241.3 233.5c-0.9-0.5-1.9-0.8-2.3-1.4-0.3-0.4 0.3-1.1 0.7-1.6 0.2-0.3 0.6-0.4 1-0.6 6.9-3.3 13.8-6.6 20.8-9.8 3.2-1.5 6.7-2.7 10.1-4 0.8-0.3 1.8-1 2.7 0.1 1.2 1.5 1.2 2.4-0.2 3.1-2.6 1.3-5.4 2.4-8.1 3.6-6.2 2.8-12.3 5.5-18.6 8.2-1.8 0.9-3.9 1.5-6.1 2.4z"/>
			<path id="path31418" class="st3" d="m200.3 211.5c2.9 0.8 6 1.5 8.8 2.5 5.9 2.1 11.7 4.5 17.6 6.7 1.9 0.7 3.9 1.4 5.9 2.1 1.7 0.6 2.2 1.4 1.6 2.5-0.6 1.2-1.8 1.6-3.5 1.1-3.8-1.2-7.5-2.3-11.2-3.7-5.1-1.8-10.2-3.8-15.2-5.7-2.2-0.8-4.5-1.7-5.5-3.5-0.7-1.1-0.1-1.7 1.5-2z"/>
			<path id="path31420" class="st3" d="m169.2 257.8c0.7-0.5 1.2-1.2 2-1.6 3-1.6 6-3 9-4.5 5.5-2.9 10.9-5.8 16.4-8.7 2.6-1.4 3.8-1.1 4.9 0.8 0.5 0.9-0.2 1.4-1 1.8-1.8 1.1-3.7 2.3-5.7 3.3-6.7 3.5-13.4 7-20.2 10.4-2.3 1.2-3.5 1-4.9-0.7-0.1-0.1-0.2-0.4-0.5-0.8z"/>
			<path id="path31422" class="st3" d="m134.7 261c1.2 0.4 2.5 0.7 3.7 1.1 6.1 2.2 12.3 4.4 18.4 6.6 3.3 1.2 6.6 2.5 9.8 3.8 1.5 0.6 0.8 1.6 0.4 2.4-0.4 0.9-1.2 1.4-2.6 0.9-5.1-1.7-10.2-3.3-15.1-5.2-5.1-1.9-10.1-4-15.1-6.1-0.8-0.3-1.4-1-1.7-1.6-0.5-1.1 0.5-1.8 2.2-1.9z"/>
			<path id="path31424" class="st3" d="m170.6 295.2c-1-0.4-1.9-0.5-2.4-1-0.2-0.2 0.3-0.9 0.6-1.4 1-1.4 2.6-2.3 4.4-3.2 7.2-3.3 14.4-6.6 21.5-10 1.4-0.6 2.9-1.1 4.2 0 0.4 0.4 0.8 1.3 0.6 1.6-1.1 1.1-2.3 2.3-3.8 3-6.3 3.1-12.7 6.2-19.2 9.1-1.8 0.9-3.9 1.3-5.9 1.9z"/>
			<path id="path31426" class="st3" d="m165.3 267.9c-2.3-0.8-4.5-1.5-6.6-2.3-4.3-1.6-8.6-3.3-13-5-4.7-1.8-9.6-3.2-13.5-5.9-0.7-0.5-1.5-0.9-1-1.8 0.9-1.7 2.4-2 4.6-1 4.5 2 9.2 3.9 13.8 5.8 5.4 2.2 10.9 4.3 16.2 6.6 0.5 0.2 0.8 1 0.7 1.5-0.1 0.6-0.7 1.2-1.2 2.1z"/>
			<path id="path31428" class="st3" d="m405 272.5c0 1.7 0.1 3.5-0.1 5.2 0 0.4-0.6 0.9-1.1 1.2-5 3.3-10.1 6.6-15.2 9.8-2 1.3-4.1 2.5-6.2 3.6-0.8 0.4-2 0.7-3 0.5-1.1-0.1-2-0.8-3-1.2 0.5-0.6 0.8-1.3 1.5-1.7 7.5-4.9 15-9.7 22.5-14.6 1.4-0.9 2.7-2 4-3 0.3 0.1 0.5 0.1 0.6 0.2z"/>
			<path id="path31430" class="st3" d="m282.5 265.6c-0.1-1.7 1.1-2.5 2.5-2.6 1-0.1 2.4 0.5 3.2 1.1 3.1 2.3 5.8 4.8 9.1 6.9 4.5 2.9 8.8 6 14.1 8.1 1.6 0.6 1.6 1.3 0.3 2.8-0.9 1.1-1.8 1.1-3.2 0.5-8.7-4.3-16.7-9.2-24-14.7-0.8-0.7-1.5-1.5-2-2.1z"/>
			<path id="path31432" class="st3" d="m373.4 300.7c-2.5 0.2-3.9-0.9-5.4-1.9-4.4-2.7-8.9-5.3-13.3-8l-9.9-6c-1-0.6-1.9-1.3-0.9-2.3 0.9-0.9 2.3-0.9 3.5-0.3 3.4 1.7 6.7 3.5 10 5.3 3.7 2 7.4 4 11.2 6.1 2.4 1.3 4.9 2.6 7.2 4.1 0.5 0.3 0.3 1.2 0.2 1.8-0.3 1.3-1.4 1.4-2.6 1.2z"/>
			<path id="path31434" class="st3" d="m341.6 274.4c-0.4 0.6-0.6 1.1-1 1.4-1 0.8-2 1.5-3.1 2.2-6.1 3.6-12.3 7.2-18.5 10.7-1.3 0.7-2.7 1.2-4.1 1.8-1.2 0.5-2.4 0.1-2.9-0.7-0.3-0.5-0.2-1.5 0.3-1.9 3.2-2.4 6.4-4.8 10-6.9 4.7-2.8 9.6-5.3 14.5-7.8 0.8-0.4 2.1-0.7 3-0.5 0.8 0.2 1.2 1.1 1.8 1.7z"/>
			<path id="path31436" class="st3" d="m345.3 195.8c1.4 0.4 2.6 0.6 3.5 1.1 8.6 4.1 17.3 8.2 25.9 12.3 0.5 0.2 1 0.5 1.5 0.8 1.4 0.9 1.3 1.6 0 2.9-1 1-2 0.5-3 0.1l-26.4-12.6c-1.1-0.5-2.1-1.2-2.9-1.9-0.3-0.3-0.4-1-0.2-1.3 0.2-0.6 1-0.9 1.6-1.4z"/>
			<path id="path31438" class="st3" d="m281.9 275.3c-0.1-2.1 2.2-3.2 4-2.3 2.8 1.4 5.5 2.8 8 4.4 2.7 1.6 5.2 3.5 7.9 5.1 1.9 1.2 3.9 2.3 6 3.4 1.5 0.8 1.2 1.6 0.4 2.4-0.9 0.9-1.6 2.2-3.6 1.3-2.4-1.1-4.8-2.2-7-3.5-4.4-2.6-8.7-5.2-12.9-8-1.2-0.9-2.1-2.1-2.8-2.8z"/>
			<path id="path31440" class="st3" d="m130.2 216c1 0.3 2.4 0.6 3.6 1.2 9.2 4.1 18.3 8.2 27.5 12.2 1.4 0.6 1.2 1.3 0.3 2.1-0.8 0.8-1.3 1.8-3.1 1-9-4.1-18.1-8.1-27.1-12.2-1.3-0.6-2.4-1.7-3.2-2.7-0.7-0.9 0.3-1.8 2-1.6z"/>
			<path id="path31442" class="st3" d="m204.4 244.9c1.7 0.6 3.2 1 4.7 1.5 4.5 1.6 9.1 3.1 13.6 4.8 4.9 1.8 9.8 3.6 14.7 5.5 1.5 0.6 1.7 1.4 0.8 2.5-0.8 1-1.5 1.3-3.2 0.7-8.6-3.1-17.4-6-26-9.1-2.1-0.8-4-1.9-5.9-3-0.4-0.3-0.5-1.1-0.3-1.6s1-0.9 1.6-1.3z"/>
			<path id="path31444" class="st3" d="m347.7 236c1.4 0.5 2.8 0.8 3.8 1.5 6.5 4.2 13.6 8 21.1 11.3 1.4 0.6 2.7 1.3 2 2.8-0.9 2-1.6 2.3-3.9 1.2-5-2.3-10-4.7-14.8-7.2-3.5-1.9-6.6-4.1-9.7-6.2-0.5-0.4-0.9-1.3-0.6-1.8 0.3-0.7 1.3-1.1 2.1-1.6z"/>
			<path id="path31446" class="st3" d="m238.8 296.7c0.1 1.8-2.4 3-4.1 2.2-6.4-3.1-12.7-6.3-19-9.5-2.9-1.5-5.7-3.2-8.4-4.9-0.5-0.3-1-1.2-0.8-1.5 0.5-0.7 1.3-1.8 2.9-1.1 2.4 1 4.8 2.1 7.1 3.2 7.1 3.6 14.1 7.2 21.1 10.9 0.5 0.1 0.9 0.5 1.2 0.7z"/>
			<path id="path31448" class="st3" d="m203.8 220.6c1.4 0.4 2.7 0.8 3.9 1.2l25.8 9.6c0.3 0.1 0.6 0.1 0.8 0.3 0.6 0.4 1.8 1 1.7 1.3-0.2 0.8-1 1.6-1.6 2.3-0.1 0.1-0.9 0.1-1.3-0.1-9-2.9-18.3-5.5-26.6-9.4-1.5-0.7-2.9-1.7-4.1-2.7-0.4-0.4-0.4-1.2-0.2-1.7 0.2-0.3 1-0.5 1.6-0.8z"/>
			<path id="path31450" class="st3" d="m370.7 292.5c-6-3.5-12-6.9-17.9-10.4-3.1-1.9-5.9-4-8.8-6-0.7-0.5-1.5-1.1-0.6-1.9 0.9-0.7 1.8-1.6 3.3-0.9 1.6 0.8 3.2 1.7 4.7 2.6 5.3 3.2 10.7 6.5 15.9 9.7 1.8 1.1 3.5 2.4 5.4 3.5 1.4 0.9 1.1 1.5-0.2 2.3-0.5 0.3-1 0.6-1.8 1.1z"/>
			<path id="path31452" class="st3" d="m172.6 267.6c-0.8-0.5-1.9-0.9-2.4-1.6-0.3-0.3 0.3-1.2 0.8-1.6 1.3-0.9 2.8-1.6 4.3-2.3 6.5-3.1 12.9-6.2 19.4-9.3 0.9-0.4 1.8-0.9 2.8-1.3 2.3-1.1 4.3-0.3 4.3 1.7 0 0.4-0.5 0.9-1 1.2-8.3 4.1-16.6 8.2-25 12.2-0.9 0.4-1.9 0.6-3.2 1z"/>
			<path id="path31454" class="st3" d="m403 265.4c0.8-0.5 2.1-0.1 2.1 0.7s0 1.6-0.1 2.4c0 0.4-0.5 0.9-0.9 1.2-2.1 1.6-4.3 3.1-6.5 4.6-4.2 2.8-8.4 5.5-12.7 8.1-0.8 0.5-2.6 0.8-3.3 0.4-1.1-0.5-1.7-1.6-2.2-2.5-0.1-0.2 0.5-0.8 0.9-1.1 5.7-3.5 11.4-7 17.1-10.4 1.7-1.1 3.6-2.2 5.6-3.4z"/>
			<path id="path31456" class="st3" d="m402.9 197.1c0.9-0.5 2.2-0.1 2.2 0.7v3.3c0 0.3-0.4 0.6-0.7 0.8-4.3 2.7-8.6 5.4-12.9 8-2 1.2-4.1 2.2-6.2 3.2-1.3 0.6-2.8 1-4.4 0.5s-2.3-1.5-1.1-2.4c1.8-1.4 3.8-2.7 5.8-3.9 4.6-2.8 9.3-5.5 14-8.3 1-0.5 2.1-1.2 3.3-1.9z"/>
			<path id="path31458" class="st3" d="m206.1 262.1c1.7 0.7 3 1.2 4.2 1.8 8.6 3.7 17.3 7.5 26 11.1 2.1 0.9 1.1 1.7 0.6 2.7-0.6 1.2-1.7 1-2.9 0.6-2.6-1-5.3-2-7.8-3.1-6.5-2.8-12.9-5.7-19.4-8.6-0.6-0.3-1.3-0.5-1.9-0.8-1.3-0.5-1.5-1.3-0.9-2 0.4-0.6 1.3-1.1 2.1-1.7z"/>
			<path id="path31460" class="st3" d="m282.6 228.2c1.4 0.3 2.5 0.4 3.4 0.7 6.2 2.4 12.3 4.9 18.4 7.4 1.9 0.8 3.7 1.6 5.6 2.5 2.1 1 2.2 3.1 0 4.1-0.3 0.2-1.1 0-1.5-0.1-2.3-0.9-4.6-1.8-6.8-2.8-5.4-2.1-10.8-4.2-16.1-6.4-1.5-0.6-2.9-1.4-4.1-2.3-0.5-0.4-0.7-1.3-0.5-1.8 0.1-0.5 1-0.9 1.6-1.3z"/>
			<path id="path31462" class="st3" d="m338.6 280.2c0.7 0.4 1.5 0.7 1.7 1.2 0.3 0.5 0.7 1.4 0.3 1.8-0.8 0.9-2 1.7-3.1 2.5l-19.8 12.3c-0.8 0.5-1.4 1.1-2.2 1.6-1.1 0.7-2.2 0.6-3.4 0-1.1-0.5-1.3-1.1-0.4-1.8 2.3-1.8 4.5-3.7 6.9-5.3 5.8-3.8 11.7-7.4 17.5-11.1 0.6-0.5 1.4-0.8 2.5-1.2z"/>
			<path id="path31464" class="st3" d="m315.7 244.8c-1-0.5-2.1-0.8-2.7-1.4-0.3-0.3 0.4-1.3 1-1.7 4.6-2.9 9.1-5.9 13.8-8.6 3.2-1.9 6.6-3.5 10.1-5.1 1.8-0.8 2.9-0.4 3.7 1.1 0.4 0.8 0.3 1.3-0.6 1.9-3.9 2.2-7.8 4.3-11.6 6.5-3.3 1.9-6.4 4-9.7 5.9-1.1 0.6-2.6 0.9-4 1.4z"/>
			<path id="path31466" class="st3" d="m235.1 242.9c-2.1-0.7-4.5-1.3-6.7-2.1-7.4-2.7-14.7-5.5-22-8.3-1.3-0.5-2.4-1.1-3.5-1.8-0.9-0.5-1.5-1.2-0.6-2.1s1.9-1.1 3.2-0.5c4.2 1.7 8.3 3.5 12.5 5 6.1 2.2 12.4 4.2 18.5 6.4 0.6 0.2 1.5 1 1.3 1.3-0.3 0.8-0.8 1.8-2.7 2.1z"/>
			<path id="path31468" class="st3" d="m312.2 249.8c-0.1 2-1.8 2.9-3.9 2.1-5.7-2.3-11.2-4.8-16.8-7.3-1.9-0.8-3.7-1.9-5.4-2.9-0.8-0.5-1.3-1.2-1.9-1.8-0.7-0.7-0.8-1.4 0.3-2.1s2-1 3.2-0.3c1.6 0.8 3.2 1.5 4.8 2.3 5.5 2.6 11 5.1 16.4 7.7 1.5 0.6 3.1 1.2 3.3 2.3z"/>
			<path id="path31470" class="st3" d="m136.9 283.7c1.8 0.6 3.7 1 5.3 1.8 4.2 2 8.3 4 12.3 6.1 3.1 1.5 6.1 3.1 9.1 4.7 1.8 1 1.9 2.4 0.1 3.4-0.5 0.3-1.8 0.2-2.5 0-2.7-1.1-5.3-2.3-7.9-3.6-4-1.9-7.9-3.9-11.8-5.9-2.4-1.3-5.1-2.3-6.4-4.4-0.8-1.1-0.1-1.8 1.8-2.1z"/>
			<path id="path31472" class="st3" d="m342.1 205.5c-0.3 0.3-0.6 0.9-1.3 1.3-2.7 1.5-5.4 2.9-8.2 4.3-4.5 2.3-9 4.5-13.5 6.7-2.5 1.2-3.4 1.2-5.7-0.1-1-0.6-1-1.2-0.2-1.8s1.8-1.2 2.7-1.6c6.7-3.3 13.4-6.6 20.2-9.9 0.8-0.4 1.6-0.7 2.5-0.9 2.3-0.8 3.6-0.2 3.5 2z"/>
			<path id="path31474" class="st3" d="m402.2 226.8c1.2-0.6 2.9 0.1 2.9 1.1 0 0.7 0 1.5-0.1 2.2 0 0.3-0.5 0.7-0.9 0.9-2.7 1.3-5.6 2.4-8.2 3.7-4.1 2.1-8.1 4.4-12.2 6.6-0.6 0.3-1.2 0.7-1.9 0.9-1.9 0.7-3.9 0.2-4.5-1.3-0.2-0.4 0.2-1.2 0.8-1.6 2.9-1.8 5.8-3.7 8.9-5.3 4.1-2.1 8.4-4 12.6-6 0.8-0.3 1.7-0.8 2.6-1.2z"/>
			<path id="path31476" class="st3" d="m283.3 281.3c0.8 0.3 1.4 0.5 1.8 0.8 4.2 2.5 8.4 4.9 12.5 7.5l10.2 6.3c1.8 1.2 1.8 2 0.8 3.5-0.6 0.9-1.5 0.9-2.4 0.4-1.4-0.7-2.6-1.5-3.9-2.3-3.4-2-6.9-3.9-10.2-5.9-3.6-2.2-7.2-4.4-10.6-6.8-0.6-0.4-0.8-1.5-0.5-2.1 0.3-0.5 1.5-0.9 2.3-1.4z"/>
			<path id="path31478" class="st3" d="m403.5 216.6c0.6-0.3 1.5 0 1.5 0.6 0 1.2 0 2.4-0.1 3.5 0 0.3-0.6 0.7-1.1 1-2.7 1.3-5.5 2.5-8.2 3.8-4 1.9-8 3.9-12 5.9-1.7 0.8-3.4 1.3-5.4 0.7-0.7-0.2-1.6-0.7-1.8-1.2-0.2-0.4 0.4-1.1 0.9-1.4 0.8-0.6 1.8-0.9 2.7-1.4 7.9-3.9 15.7-7.7 23.5-11.5z"/>
			<path id="path31480" class="st3" d="m135.2 276.2c1.1 0.3 1.7 0.4 2.2 0.6 4.3 1.8 8.6 3.7 12.9 5.6 1.6 0.7 3.3 1.3 4.8 2.1 3.6 1.9 7.1 3.8 10.6 5.7 1.4 0.8 0.6 1.5 0 2.4-0.6 0.8-1.4 1-2.4 0.5-3.1-1.5-6.1-3.1-9.2-4.5-5.9-2.7-11.8-5.3-17.7-8-1.4-0.6-2.9-1.3-2.6-2.7 0.2-0.6 1-1.2 1.4-1.7z"/>
			<path id="path31482" class="st3" d="m170.6 272.3c0.3-0.2 0.6-0.8 1.1-1 1.7-0.8 3.4-1.4 5.2-2.1 6.1-2.4 12.2-4.8 18.3-7.3 0.7-0.3 1.3-0.5 2-0.7 1.3-0.4 2.5-0.9 3.5 0.4 1.1 1.5 0.9 2.2-1.1 3-7.6 3.1-15.2 6.2-22.9 9.4-0.6 0.3-1.4 0.4-2.1 0.6-2.3 0.6-3.8-0.1-4-2.3z"/>
			<path id="path31484" class="st3" d="m166.8 257.2c0 1.9-1.8 2.8-3.7 2-3.6-1.4-7.1-3-10.6-4.4-5.7-2.4-11.5-4.8-17.2-7.2-1-0.4-1.9-1-2.8-1.6-1.4-0.8-1.1-1.7-0.1-2.4 0.3-0.2 1.1-0.4 1.5-0.3 1.6 0.5 3.1 1.1 4.6 1.7 6 2.5 12 4.9 17.9 7.4 3.1 1.3 6.1 2.5 9.2 3.9 0.5 0.2 0.9 0.7 1.2 0.9z"/>
			<path id="path31486" class="st3" d="m198.3 285.7c1.8 1.8 1.4 3.2-0.5 4.4-2 1.2-3.9 2.5-6 3.6-4 2.1-8 4.1-12 6.2-1.3 0.7-2.7 1-4.3 1-2.3-0.1-4.7 0-7.6 0 9.8-5.9 20.3-10.3 30.4-15.2z"/>
			<path id="path31488" class="st3" d="m280.6 186.7c2.1 0.7 4.2 1.1 5.9 1.9 2.8 1.3 5.4 3 8.2 4.4 2.9 1.5 5.8 2.9 8.7 4.4l5.4 2.7c1 0.5 1.1 1.1 0.5 1.9-0.6 0.7-1.2 1.5-2.6 0.9-3.5-1.4-7.2-2.7-10.5-4.3-4-1.9-7.8-4.2-11.7-6.3-1.7-0.9-3.5-1.8-5.1-2.9-0.5-0.3-0.6-1.2-0.5-1.7 0.2-0.4 1.1-0.7 1.7-1z"/>
			<path id="path31490" class="st3" d="m403.4 236.4c0.7-0.4 1.7 0 1.7 0.6 0 1.1 0 2.1-0.1 3-0.1 0.5-0.7 1-1.3 1.3-5.2 2.9-10.5 5.8-15.7 8.7-1.7 0.9-3.5 1.8-5.4 2.6-0.6 0.3-1.6 0.2-2.3 0.1-2.5-0.5-2.9-1.6-0.9-2.8 2.8-1.8 5.7-3.5 8.6-5.2 5.1-2.8 10.2-5.6 15.4-8.3z"/>
			<path id="path31492" class="st3" d="m313.6 226.1c-0.7 0.8-1.1 1.6-1.9 2.1-0.4 0.2-1.6-0.2-2.3-0.5-7.9-3.9-15.8-7.8-23.6-11.8-1-0.5-1.9-1.2-2.7-1.9-1-0.8-0.6-1.6 0.3-2.4 1-0.8 1.8-0.2 2.6 0.1 6.4 3.1 12.7 6.3 19.1 9.4 2.3 1.1 4.7 2.2 6.9 3.4 0.7 0.4 1 1.1 1.6 1.6z"/>
			<path id="path31494" class="st3" d="m279 219.3c0-1.2 1.3-1.8 3-1.4 0.9 0.2 1.7 0.6 2.5 1l17.1 8.4c2.6 1.2 5.3 2.3 8 3.4 1.2 0.5 1.6 1.1 0.8 2-0.7 0.7-1.1 2-3 1.2-4.8-2.1-9.7-4-14.4-6.2-3.8-1.7-7.4-3.6-11.1-5.5-1.3-0.8-2.9-1.4-2.9-2.9z"/>
			<path id="path31496" class="st3" d="m128.6 191.1c-0.1-1.9 1.1-2.5 2.7-1.9 2.8 1 5.5 2.1 8.1 3.3 4.2 1.8 8.5 3.6 12.7 5.4 2.7 1.2 5.4 2.6 8 3.9 0.7 0.4 1.7 0.8 0.7 1.6-0.9 0.7-1.4 1.9-3.4 1.1-5.8-2.5-11.6-4.9-17.4-7.4-3.2-1.4-6.4-2.8-9.5-4.3-0.9-0.4-1.5-1.3-1.9-1.7z"/>
			<path id="path31498" class="st3" d="m315.5 273.4c-3.3-1.9-3.4-2.3-0.6-4 7.1-4.4 14.4-8.7 21.6-13.1 0.6-0.4 1.3-0.7 2-1 1.1-0.5 2.1-0.7 2.9 0.2 0.7 0.8 1.3 1.5 0 2.3-3.8 2.3-7.5 4.6-11.2 6.9s-7.5 4.6-11.2 6.9c-1.2 0.8-2.4 1.3-3.5 1.8z"/>
			<path id="path31500" class="st3" d="m342.3 221.2c-0.7 0.6-1.1 1.2-1.8 1.6l-20.4 10.8c-2.2 1.1-3.7 1-5.5-0.1-1.1-0.7-1.1-1.2 0-1.8 3.8-2.2 7.5-4.4 11.4-6.5 3.9-2 7.9-3.9 12-5.7 0.7-0.3 2.2-0.6 2.7-0.4 0.7 0.3 1 1.3 1.6 2.1z"/>
			<path id="path31502" class="st3" d="m405 281.4v4.2c0 0.3-0.3 0.7-0.6 0.9-6.8 4.4-13.7 8.8-20.6 13.1-0.7 0.5-1.7 0.9-2.6 1-0.8 0.1-2.2-0.1-2.6-0.5s-0.1-1.5 0.4-1.8c2.6-1.9 5.3-3.7 8-5.5 5.8-3.9 11.7-7.7 17.6-11.5 0.1-0.1 0.3 0 0.4 0.1z"/>
			<path id="path31504" class="st3" d="m403.9 245.5c0.5-0.3 1.2 0 1.2 0.4v3.8c0 0.4-0.3 0.9-0.7 1.1-5.3 3.3-10.6 6.7-16 9.9-1.2 0.7-2.8 1.1-4.3 1.5-1.3 0.3-2.5 0.1-3.2-0.8-0.8-0.9 0-1.6 0.8-2.1 2.1-1.3 4.3-2.6 6.4-3.9 5.2-3.2 10.5-6.5 15.8-9.9z"/>
			<path id="path31506" class="st3" d="m279 196.7c0.1-1.4 1-1.8 2.3-1.6 1.4 0.2 2.9 0.7 4.1 1.2 2.9 1.3 5.8 2.8 8.7 4.2 2.2 1 4.4 2 6.7 2.9l7.5 3.3c1.4 0.6 1.7 1.3 1.1 2.4-0.7 1.2-1.9 1.3-3.3 0.8-2.5-0.9-5-1.8-7.4-2.9-4.2-1.9-8.4-3.8-12.5-5.8-2-0.9-3.8-2-5.6-3.1-0.9-0.4-1.3-1.1-1.6-1.4z"/>
			<path id="path31508" class="st3" d="m198.2 269.4c0.7 0.5 1.6 1 1.9 1.6 0.3 0.5 0.1 1.5-0.4 1.8-6.2 3.2-12.4 6.3-18.7 9.3-1.2 0.6-2.6 0.8-3.9 1.3s-2.4 0.7-3.4-0.3c-0.8-0.8-0.4-1.9 1-2.7 2.8-1.5 5.5-3.2 8.4-4.6 4.1-2 8.3-3.8 12.4-5.7 0.7-0.3 1.5-0.4 2.7-0.7z"/>
			<path id="path31510" class="st3" d="m314.8 224.3c0.5-0.4 0.9-1 1.6-1.3 6.1-3.3 12.3-6.6 18.4-9.9 1.5-0.8 3-1.5 4.4-2.3 1-0.6 1.9-0.8 2.9 0 1.1 1 1.3 2.2 0.4 2.9-0.9 0.6-1.8 1.2-2.8 1.7-6.3 3.3-12.7 6.6-19.1 10-2 1-4.1 0.9-5.2-0.2-0.2-0.2-0.3-0.5-0.6-0.9z"/>
			<path id="path31512" class="st3" d="m403.9 254.9c0.4-0.2 1-0.1 1.1 0.3 0.6 2.9-0.7 5.1-4 7.1-4.9 3-9.2 6.5-13.8 9.7-0.8 0.6-1.5 1.6-3.2 0.9-3.4-1.3-3.5-1.6-0.9-3.6 6.5-4.9 12.9-9.9 20.3-14.1 0.2-0.1 0.4-0.2 0.5-0.3z"/>
			<path id="path31514" class="st3" d="m316.8 281.4c-2.8-2.4-2.9-2.5 0-4.4 5.4-3.6 11-7.2 16.5-10.7 1.3-0.9 2.7-1.7 4.1-2.5 0.8-0.4 1.7-1 2.7-0.1 1.3 1.2 1.5 2 0.4 2.8l-8.1 5.4c-5.2 3.2-10.4 6.3-15.6 9.5z"/>
			<path id="path31516" class="st3" d="m312.1 208.6c0.4-0.5 0.6-0.8 1-1 1.1-0.8 2.3-1.5 3.5-2.2 6.8-3.9 13.5-7.8 20.3-11.6 2.3-1.3 3.1-1.2 4.5 0.5 0.7 0.8 0.4 1.2-0.5 1.7l-24 13.5c-0.9 0.5-1.9 0.9-3 0.3-0.5-0.5-1.1-0.8-1.8-1.2z"/>
			<path id="path31518" class="st3" d="m314.4 261.6c0.9-1 1.2-1.5 1.7-1.8 3.3-2.3 6.6-4.5 9.9-6.8 2.7-1.8 5.5-3.6 8.4-5.3 1.1-0.7 2.4-1.2 3.7-1.8 1.1-0.5 2.2-0.4 2.9 0.4s1.5 1.5 0 2.5c-6.8 4.1-13.5 8.3-20.2 12.4-0.7 0.4-1.3 1-2.1 1.3-0.6 0.2-1.4 0.2-2 0.1-0.8-0.3-1.5-0.7-2.3-1z"/>
			<path id="path31520" class="st3" d="m282.5 255.8c0-1.7 1.5-2.4 3-1.7 1.3 0.6 2.4 1.3 3.5 2 4.8 3.1 9.5 6.2 14.3 9.3 1.9 1.3 3.9 2.5 5.9 3.8 1.5 0.9 1 1.7 0.1 2.7-1.1 1-1.9 0.3-2.7-0.2-5.4-3.2-10.8-6.5-16.1-9.8-2.3-1.4-4.4-3-6.5-4.5-0.7-0.6-1.2-1.3-1.5-1.6z"/>
			<path id="path31522" class="st3" d="m283.1 203.9c1 0.3 1.7 0.4 2.3 0.7 5.2 2.1 10.4 4.1 15.5 6.2 3 1.3 5.8 2.9 8.8 4.3 0.9 0.4 0.9 0.8 0.5 1.5-1.5 1.9-1.8 2.1-4.4 0.9-2.5-1.1-4.8-2.4-7.3-3.5-4.4-1.9-9-3.6-13.4-5.6-1.2-0.5-2.3-1.4-3.3-2.2-0.3-0.3-0.2-1 0-1.3 0.2-0.4 0.9-0.7 1.3-1z"/>
			<path id="path31524" class="st3" d="m249 300.5c2.2-1.3 4.3-2.5 6.5-3.8 3.3-2 6.5-4 9.9-5.9 2.4-1.4 5-2.6 7.6-3.9 0.9-0.5 2-0.7 2.7 0.2 0.6 0.8 1.7 1.6 0 2.5-6.3 3.6-12.4 7.2-18.6 10.8-0.3 0.2-0.9 0.3-1.4 0.3h-6.5c-0.1 0-0.2-0.1-0.2-0.2z"/>
			<path id="path31526" class="st3" d="m403.3 207.5c0.7-0.4 1.7-0.1 1.7 0.6v0.2c0.7 2.5-0.9 4.1-3.8 5.4-5.1 2.2-10 4.7-15.1 7-0.6 0.3-1.4 0.7-2 0.6-0.9-0.2-2.2-0.6-2.4-1.2-0.2-0.5 0.5-1.5 1.1-1.9 5.3-2.9 10.7-5.6 16-8.4 1.6-0.7 3-1.4 4.5-2.3z"/>
			<path id="path31528" class="st3" d="m318.3 300.8c2.1-1.4 3.8-2.6 5.6-3.8 4.6-3 9.2-6.1 13.8-9.1 0.6-0.4 1.3-1.2 2.4-0.3 1.4 1.2 1.7 1.9 0.5 2.8-2.5 2-5.1 4.1-7.7 6.1-1.6 1.2-3.1 2.5-4.7 3.7-0.3 0.3-0.9 0.4-1.4 0.5-2.6 0.1-5.3 0.1-8.5 0.1z"/>
			<path id="path31530" class="st3" d="m230.4 300.8h-8.7c-0.2 0-0.5-0.1-0.7-0.2-4.6-2.7-9.2-5.5-13.8-8.2-0.1-0.1-0.3-0.2-0.4-0.3-0.2-0.7-0.5-1.4-0.7-2.1 0.9 0 1.8-0.1 2.6-0.1 3 0.1 4.9 1.5 7.1 2.7 4.5 2.5 9 5 13.4 7.5 0.4 0.1 0.7 0.3 1.2 0.7z"/>
			<path id="path31532" class="st3" d="m363.7 300.8h-6.9c-0.5 0-1-0.1-1.3-0.3-4-2.6-8-5.2-11.9-7.9-0.5-0.3-0.7-1.3-0.3-1.6 0.4-0.4 1.7-0.9 2.3-0.7 1.8 0.5 3.6 1.1 5 1.9 4.5 2.7 8.9 5.6 13.3 8.4-0.1 0-0.2 0.1-0.2 0.2z"/>
			<path id="path31534" class="st3" d="m403.4 289.9c0.6-0.4 1.6-0.1 1.6 0.5v4.1c0 0.4-0.3 0.9-0.6 1.2-2.1 1.6-4.4 3.1-6.6 4.6-0.4 0.3-0.9 0.4-1.5 0.4h-8.2c5.2-3.6 10.2-7.1 15.3-10.8z"/>
			<path id="path31536" class="st3" d="m299.8 300.8h-8.1c-0.3 0-0.8-0.1-1-0.2-3.2-1.8-6.6-3.5-9.6-5.5-3.1-2-2.8-3 1-4.6 5.7 3.3 11.6 6.7 17.7 10.3z"/>
			<path id="path31538" class="st3" d="m151.4 300.8h-9.2c-0.4 0-0.9-0.1-1.2-0.3-2.5-1.3-4.9-2.7-6.3-4.9-0.6-1-0.2-2.1 1.2-3 1.2-0.6 2.4-0.5 3.4 0.2 4.1 2.6 8 5.3 12.1 8z"/>
			<path id="path31540" class="st3" d="m182.8 300.5c3.8-2 7.7-4 11.5-6 0.6-0.3 1.2-0.6 1.8-0.7 0.9-0.2 2-0.8 2.8 0.2 0.7 0.9 1.3 2-0.1 2.8-2.1 1.3-4.2 2.5-6.3 3.8-0.2 0.1-0.6 0.2-0.9 0.2h-8.7c0-0.1-0.1-0.2-0.1-0.3z"/>
			<path id="path31542" class="st3" d="m261.5 300.4c3.5-1.9 7.1-3.9 10.7-5.8 0.9-0.5 2.1-0.7 2.9 0.3 0.7 0.9 1.6 1.9 0 2.7-1.8 1-3.5 2-5.3 2.9-0.3 0.2-0.8 0.2-1.2 0.2h-6.7c-0.2-0.1-0.3-0.2-0.4-0.3z"/>
			<path id="path31544" class="st3" d="m214.7 300.8h-9c-1.1 0-3-2-3.1-3s1.5-2.8 2.6-2.9c0.4 0 1 0.1 1.3 0.4 2.8 1.7 5.5 3.5 8.3 5.2-0.1 0.1-0.1 0.2-0.1 0.3z"/>
			<path id="path31546" class="st3" d="m332 300.8c2.4-2.1 4.5-4 6.7-5.8 0.4-0.4 1.4-0.8 1.8-0.7 0.6 0.2 1 0.8 1.2 1.4 0.5 1.9-0.8 3.5-2.5 4.9-0.2 0.2-0.8 0.2-1.2 0.2h-6z"/>
			<path id="path31548" class="st3" d="m343.5 300.7c-0.8-1.5 0.8-2.1 1.8-2.8 0.2-0.2 1.1-0.1 1.3 0 1.3 0.8 2.4 1.7 3.7 2.5l-0.3 0.3h-6.5z"/>
			<path id="path31550" class="st3" d="m283.1 300.7h-5.9c0.9-0.8 1.5-1.4 2.2-2.1 1.4 0.7 2.6 1.3 3.8 1.8 0 0.1 0 0.2-0.1 0.3z"/>
		</g>
	</g>
</g><rect id="rect32482" transform="matrix(1 0 0 1.0409 0 -8.4956)" x="-1" y="51.231" width="434" height="167.17" rx="48.9" ry="46.978" clip-path="url(#clipPath32591)" fill="none"/><rect id="rect32450" transform="translate(0 -.39979)" x="-1" y="45.231" width="434" height="179.33" rx="50" ry="50" clip-path="url(#clipPath32587)" fill="none"/><rect id="rect32478" transform="matrix(1 0 0 1.0409 0 -8.4956)" x="-1" y="51.231" width="434" height="167.17" rx="48.9" ry="46.978" clip-path="url(#clipPath32583)" fill="none"/>
<g id="g31560" transform="translate(0 -14.4)" clip-path="url(#clipPath32579)">
	<path id="path31558" class="st4" d="m103 257.8-46.4 1.8s-20.2-125.1 44-125.1c64.3 0 48.7 122.8 48.7 122.8z" fill="#fddc30"/>
</g><rect id="rect32474" transform="matrix(1 0 0 1.0409 0 -8.4956)" x="-1" y="51.231" width="434" height="167.17" rx="48.9" ry="46.978" clip-path="url(#clipPath32575)" fill="none"/><rect id="rect32446" transform="translate(0 -.39979)" x="-1" y="45.231" width="434" height="179.33" rx="50" ry="50" clip-path="url(#clipPath32571)" fill="none"/><rect id="rect32470" transform="matrix(1 0 0 1.0409 0 -8.4956)" x="-1" y="51.231" width="434" height="167.17" rx="48.9" ry="46.978" clip-path="url(#clipPath32567)" fill="none"/>
<g id="g31594" transform="translate(0 -16.4)" clip-path="url(#clipPath32563)">
	<path id="path31562" class="st5" d="m134.2 288.5c0-57.9 7.5-108.2 40.9-108.2s40.9 50.3 40.9 108.2z" clip-path="none" fill="#f4bcd7"/>
	<path id="path31564" class="st5" d="m-4.8 238.3h67.4c0-93.2-18.3-132-40.9-132-10.1 0-19.3 7.7-26.4 24.5l-0.1 107.5" clip-path="none" fill="#f4bcd7"/>
	<path id="path31566" class="st6" d="m104.5 183.1c0.7 2-0.6 5-2 7.4s-5.5 3.3-7.4 4.2c-6 3-12.2 5.8-18.3 8.7-1 0.5-1.8 1.5-3.3 2.8 7.4 0.7 13.6 0.5 19.3-3.1 8.4-10 12.9-10.1 17.5-0.8 2.1 4.4-3.2 6.6-6 8.4-7.9 4.9-16.5 8.3-26 3.6-2.8-1.4-5.7-2.5-8.5-3.7l-1.2 0.4c-2.9 1.1-5.4 2.9-7.3 5.2-1.4 1.7-2.7 3.3-4 4.9-1.4 1.7-3.1 2.9-5.1 3.7-2.8 1.1-5.5 2.2-8.2 3-6.9 2.2-13 1.2-17.9-3.3-1-0.9-1.6-2.1-1.6-3.5 0-2.3 0.7-4.1 2.1-5.6 1.7-1.7 4.2-2.4 6.5-1.9 1.2 0.3 2.5 0.6 3.7 1.1 7.2 3 13.5 0.8 19.8-2.9-0.7-0.6-1.1-1.1-1.4-1.1-7-0.2-14-0.5-20.9-0.3-3 0.1-5.5-0.4-7.6-2.2-2-1.6-2.9-4.3-2.6-6.9v-0.1c0.3-2 1.6-3.6 3.4-4.4 3.1-1.2 6-0.8 8.9 0.6 4.1 1.9 8.3 3.8 12.5 5.5 2.5 1 5.1 2.4 8 0.9-0.7-3.1-3.2-3-5.1-3.7-6.8-2.5-13.7-4.7-20.4-7.5-4.2-1.8-5.3-3.7-4.4-7.4 0.4-1.7 1.9-2.9 3.6-3 2.6-0.1 5 1.1 7.4 2.4 3.6 2 7 4.3 10.5 6.5 2.7 1.7 5.5 3.3 8.2 4.9 0.2-1.6-0.1-2.5-0.6-3.1-4.4-5-10.1-8.1-16-11-3.6-1.8-10.1-6.3-10.1-6.3s-6.6-5.1-5-8.5c1.5-3.4 5.9-2.8 5.9-2.8s8.1 1 11.2 3.6c5.2 4.4 9.2 9.8 12.8 15.5 0.7 1.1 1.8 1.9 3.5 3.7-0.8-7.7-4.4-12.4-8.9-16.6-3.5-3.3-7-6.6-10.6-9.8-2.8-2.5-6.3-7.8-5.1-9.9s6-3.8 8.8-1.7c1.8 1.3 3.2 3.2 4.4 5.7 2.2 4.6 4.6 9.1 7 13.7 0.5-2.7 0-4.9-0.9-7.1-1.7-4.5-4.1-8.9-5.3-13.5-1.4-5.3-4.4-13.2 2.3-15.7 1.4-0.5 2.5-0.4 3.6 0.1 8.2 3.7 9 10.6 9 10.6-0.3 9.6-0.6 19.2-0.8 28.8-0.1 2.5-0.5 5.2 1.5 8.8 1-9.5 2-18.4 2.9-27.1 0.1-0.1 0.5-3 2.6-4s3.1-0.8 6.6 1.3 4.4 6.7 3.3 10.9c-1.1 4.3-2.7 8.2-5.1 11.9-3.5 5.2-5.9 10.9-4.7 18.8 1.4-2.8 2.2-4.5 3.1-6.2 2.7-5.1 5.3-10.3 8.2-15.4 1.5-2.7 3.4-5.4 7.5-5.2 0.9 0.8 1.9 1.8 2.9 2.6 0.3 5.1-1.6 9-5 12.5-3.2 3.3-6.2 6.9-9 10.6-2.1 2.7-4.8 4.9-6.2 9.8 9.9-6.2 17.2-20.2 24.1-21.7 6.7-1 9.2 2 9.9 3.9z" clip-path="none" fill="#00833e"/>
	<path id="path31568" class="st7" d="m41.9 244.9c0-49.1 18.3-69.6 40.9-69.6s40.9 20.5 40.9 69.6z" clip-path="none" fill="#1fc0da"/>
	<path id="path31570" class="st8" d="m107.7 247.2c0-40.6 9.2-57.5 20.5-57.5s20.5 16.9 20.5 57.5z" clip-path="none" fill="#a5cf4f"/>
	<g id="g31592" clip-path="none">
		<path id="path31572" class="st3" d="m186.1 198.3c-3.8-0.1-7.6-0.4-11.3-0.9 0.2-2.1 0.7-4.3 2.2-5.9 1.4-1.6 3.8-2.4 5.7-1.6 2.4 1.1 3.2 4 3.7 6.6 0.1 0.4 0.2 0.9 0.3 1.3" fill="#f1eee5"/>
		<path id="path31574" class="st6" d="m205.1 233c-3.7 0.8-7.5 1.3-11.2 1.7-0.3-2.1-0.2-4.3 0.8-6.2s3.2-3.2 5.2-2.8c2.6 0.5 4 3.2 5.1 5.6l0.6 1.2" fill="#00833e"/>
		<path id="path31576" class="st9" d="m203.7 200.4c-3.8-0.2-7.6-0.7-11.3-1.3 0.3-2.1 0.9-4.3 2.4-5.8s3.9-2.3 5.8-1.3c2.4 1.1 3 4.1 3.5 6.7 0.1 0.4 0.1 0.9 0.2 1.3" fill="#c72263"/>
		<path id="path31578" class="st8" d="m196.3 217.9c-3.8 0.1-7.6 0-11.4-0.4 0.1-2.1 0.6-4.3 1.9-6 1.3-1.6 3.7-2.6 5.7-1.8 2.5 0.9 3.4 3.9 4 6.4 0.1 0.4 0.2 0.9 0.3 1.3" fill="#a5cf4f"/>
		<path id="path31580" class="st3" d="m171.8 213c-3.8-0.1-7.6-0.4-11.3-0.9 0.2-2.1 0.7-4.3 2.2-5.9 1.4-1.6 3.8-2.4 5.7-1.6 2.4 1.1 3.2 4 3.7 6.6 0.1 0.4 0.2 0.9 0.3 1.3" fill="#f1eee5"/>
		<path id="path31582" class="st6" d="m160.9 233.4c-3.8-0.1-7.6-0.5-11.3-1.1 0.2-2.8 0.7-5.6 2.2-7.7 1.4-2.1 3.8-3.2 5.7-2.1 2.4 1.4 3.2 5.3 3.7 8.6l0.3 1.8" fill="#00833e"/>
		<path id="path31584" class="st9" d="m216.2 219.9c-3.7 0.6-7.5 0.9-11.3 1-0.2-2.1 0-4.3 1.2-6.1 1.1-1.8 3.3-3 5.4-2.5 2.6 0.6 3.8 3.4 4.8 5.9 0.2 0.4 0.3 0.8 0.5 1.3" fill="#c72263"/>
		<path id="path31586" class="st10" d="m186.2 239.7c-3.7 0.6-7.5 0.9-11.3 1-0.2-2.1 0-4.3 1.2-6.1 1.1-1.8 3.3-3 5.4-2.5 2.6 0.6 3.8 3.4 4.8 5.9 0.2 0.4 0.3 0.8 0.5 1.3" fill="#e2ddcb"/>
		<path id="path31588" class="st9" d="m180 226.5c-3.5 0.4-6.9 0.9-10.4 1.3 0-1.8-0.1-3.6-0.1-5.4 0-0.6 0-1.1 0.2-1.7 0.4-1.3 1.8-1.9 3.1-2 3.6-0.3 7.1 3.1 6.8 6.8" fill="#c72263"/>
		<path id="path31590" class="st8" d="m219.1 245.3c-3.5-0.2-7-0.4-10.5-0.7 0.3-1.8 0.6-3.5 0.9-5.3 0.1-0.6 0.2-1.1 0.5-1.6 0.7-1.2 2.2-1.5 3.5-1.4 3.6 0.4 6.4 4.4 5.5 7.9" fill="#a5cf4f"/>
	</g>
</g><rect id="rect32466" transform="matrix(1 0 0 1.0409 0 -8.4956)" x="-1" y="51.231" width="434" height="167.17" rx="48.9" ry="46.978" clip-path="url(#clipPath32559)" fill="none"/><rect id="rect32442" transform="translate(0 -.39979)" x="-1" y="43.231" width="434" height="179.33" rx="50" ry="50" clip-path="url(#clipPath32555)" fill="none"/><rect id="rect32462" transform="matrix(1 0 0 1.0409 0 -8.4956)" x="-1" y="51.231" width="434" height="167.17" rx="48.9" ry="46.978" clip-path="url(#clipPath32551)" fill="none"/>

<g id="g31652" transform="translate(-13.284 -19.149)"><g id="g31650"><g id="g31630"><path id="path31596" class="st11" d="m317.3 184.8 1.1-0.1c0-0.1-0.4-8 4.6-11.7l-0.6-0.9c-5.5 4.1-5.1 12.4-5.1 12.7z" fill="#2a2963"/><path id="path31598" class="st11" d="m313.1 185.1c0-0.3 0.7-7.4-5-12.4l-0.7 0.8c5.3 4.6 4.6 11.3 4.6 11.4z" fill="#2a2963"/><path id="path31600" class="st12" d="m320.9 172.4c0 1.1 0.9 2 2 2s2-0.9 2-2-0.9-2-2-2-2 0.9-2 2z" fill="#f99d2a"/><path id="path31602" class="st12" d="m305.3 172.4c0 1.1 0.9 2 2 2s2-0.9 2-2-0.9-2-2-2-2 0.9-2 2z" fill="#f99d2a"/><path id="path31604" class="st12" d="m372.1 229.9c9.4 0 9.2 10.3 0 10.3h-50.4c-14.9 0-16-7-16-18v-28.9c0-14.9 18.9-15.5 18.9 0.6v17.5c0 8 7.4 19 14.3 19s33.2-0.5 33.2-0.5z" fill="#f99d2a"/><g id="g31610" fill="#27265f"><circle id="ellipse31606" class="st13" cx="322.7" cy="172.3" r=".9"/><circle id="ellipse31608" class="st13" cx="306.9" cy="172.3" r=".9"/></g><path id="path31612" class="st13" d="m314.3 188.8c1.6 0 2.9-1.4 2.9-1.4 0.2-0.2 0.2-0.6 0-0.8s-0.6-0.2-0.8 0c0 0-1 1.1-2.2 1.1-0.6 0-1.2-0.4-1.8-1-0.2-0.2-0.5-0.3-0.8-0.1-0.2 0.2-0.3 0.5-0.1 0.8 0.8 0.9 1.7 1.4 2.8 1.4-0.1 0-0.1 0 0 0z" fill="#27265f"/><path id="path31614" class="st9" d="m353.3 230.5h-21.7c-4 0-7.2-3.2-7.2-7.2v-14.5c1.9-5 5-10.3 10.1-15.3 17.1-17 48-4.6 48 14.9s-16.3 28.6-29.2 22.1z" fill="#c72263"/><path id="path31616" class="st14" d="m318.7 231v-28.2c0-8-8.9-7.8-8.9 0v29.1c0 4.9 3.2 8.4 10.6 8.4h6.9s-8.6-0.1-8.6-9.3z" fill="#ede9e3"/><path id="path31618" class="st5" d="m357.5 233.8c0.5 0 0.9-0.3 1-0.8 0.2-0.6-0.2-1.2-0.7-1.4 0 0-4.2-1.3-8.1-4.3-5-3.9-7.1-8.7-6.3-14.4 0.9-6.1 5-10.2 11-11 5.2-0.7 10.1 1.3 11.7 4.8 1.5 3.2 1.3 6.4-0.4 8.9s-4.7 4-7.8 3.9c-1.9-0.1-3.5-1.1-4.3-2.7-0.7-1.5-0.6-3.3 0.2-4.4s2.4-1.6 4.4-1.2c0.6 0.1 1.2-0.3 1.3-0.9s-0.3-1.2-0.9-1.3c-3.8-0.6-5.7 1-6.5 2.1-1.3 1.8-1.5 4.4-0.4 6.6 1.1 2.4 3.4 3.9 6.2 4 3.9 0.1 7.6-1.7 9.7-4.9s2.3-7.2 0.5-11.1c-2-4.4-7.9-6.9-14-6-5.4 0.8-11.6 4.6-12.9 12.9-2.3 15.5 15.7 21 15.9 21.1s0.3 0.1 0.4 0.1z" fill="#f4bcd7"/><path id="path31620" class="st9" d="m322.1 195.4c0 0.7 0.2 1.2 0.5 1.2s0.5-0.5 0.5-1.2-0.2-1.2-0.5-1.2-0.5 0.5-0.5 1.2z" fill="#c72263"/><path id="path31622" class="st9" d="m321 198.3c0 0.5 0.2 1 0.4 1s0.4-0.4 0.4-1c0-0.5-0.2-1-0.4-1-0.3 0-0.4 0.4-0.4 1z" fill="#c72263"/><ellipse id="ellipse31624" class="st9" cx="322.8" cy="201.2" rx=".6" ry="1.6" fill="#c72263"/><path id="path31626" class="st9" d="m306.6 217.2c0 0.5 0.2 1 0.4 1s0.4-0.4 0.4-1-0.2-1-0.4-1-0.4 0.4-0.4 1z" fill="#c72263"/><path id="path31628" class="st9" d="m307.4 219.3c0 0.3 0.1 0.5 0.2 0.5s0.2-0.2 0.2-0.5-0.1-0.5-0.2-0.5-0.2 0.2-0.2 0.5z" fill="#c72263"/></g><g id="g31648"><g id="g31640" fill="#fff"><path id="path31632" class="st15" d="m224.9 152.2c0.4 1.2 1 2.3 1.7 3.3 0.2 0.3 0.4 0.7 0.6 1 0.1 0.2 0.2 0.3 0.4 0.5 0.4 0.4 0.9 0.9 1.5 1 0.1 0 0.3 0.2 0.4 0.3 0.7 0.5 1.3 0.8 2.2 1 0.3 0 0.6 0.2 0.9 0.3 0.5 0.2 1 0.3 1.5 0.2s1 0.1 1.4 0.3c0.2 0.1 0.3 0.3 0.3 0.5-0.1 0.5-0.2 1.1-0.3 1.6-0.2 1 0 2 0.2 3 0 0.1 0.1 0.2 0.1 0.3 0.6 1 1.1 2 2 2.8 0.4 0.4 0.9 0.7 1.3 1.2 0.8 0.8 1.7 1.5 2.9 1.7 0.2 0 0.4 0.1 0.6 0.2 0.5 0.4 1.1 0.4 1.8 0.4 0.5 0 1 0 1.4 0.2 0.8 0.2 1.7 0.2 2.5 0.4h0.4c0.5-0.1 1-0.1 1.4-0.2 0.7-0.1 1.3-0.1 2-0.4 0.2-0.1 0.4 0 0.5 0.2 0.4 0.8 1.1 1.5 1.7 2.2 0.1 0.2 0.3 0.3 0.5 0.4 1 0.6 2.1 1.3 3.3 1.6 0.7 0.1 1.2 0.5 1.9 0.5 0.7 0.1 1.4 0 2.1-0.3 0.3-0.1 0.6-0.2 1-0.2 0.9 0 1.8-0.5 2.6-0.7 0.2-0.1 0.3-0.2 0.5-0.3 0.3-0.3 0.6-0.5 0.7-0.9 0.1-0.3 0.4-0.5 0.6-0.7 0.2-0.3 0.2-0.6 0.4-0.9 0.3-0.4 0.6-0.8 0.9-1.3 0.3 0.1 0.7 0.1 1 0.2 1.1 0.5 2.3 0.5 3.5 0.4 0.5-0.1 1.1 0 1.6-0.3h0.2c0.7 0.1 1.3-0.3 1.8-0.7 0.4-0.4 0.8-0.8 0.9-1.3s0.4-0.9 0.6-1.4c0.3-0.8 0.5-1.7 0.4-2.6v-0.5c0.2-0.7 0.1-1.3 0.1-2 0-1-0.1-2-0.7-2.9-0.1-0.1-0.1-0.3-0.1-0.5 0.8-0.2 1.5-0.5 2.2-0.7 0.4-0.1 0.8-0.3 1.2-0.5 0.7-0.4 1.4-1 1.6-1.9 0.1-0.6 0.1-1.3 0.2-1.9 0.1-0.7-0.1-1.5-0.2-2.2-0.1-0.6-0.2-1.1-0.6-1.5-0.1-0.1-0.2-0.2-0.3-0.4 0.2-0.1 0.3-0.1 0.4-0.1 0.9-0.2 1.6-0.7 1.9-1.5 0.2-0.4 0.3-0.8 0.4-1.2 0-0.5 0.2-0.9 0.4-1.3 0.5-1 0.8-2 0.5-3.1v-0.5c0-0.7-0.2-1.4-0.3-2.1-0.1-0.4-0.2-0.9-0.3-1.3-0.2-0.6-0.4-1.2-0.9-1.6-0.7-0.6-1.4-1.3-2.2-1.8s-1.6-1-2.6-0.9c-0.2 0-0.3-0.1-0.5-0.1v-0.6c0.1-0.5 0-1-0.1-1.5-0.1-0.2-0.2-0.5-0.2-0.7-0.3-0.8-0.8-1.4-1.5-1.9-1.2-0.7-2.4-0.9-3.8-0.6-0.4 0.1-0.7 0.2-1 0.3h-0.5c-0.1-0.1-0.1-0.2-0.1-0.3-0.1-1-0.5-1.9-0.8-2.8-0.4-1.3-1.1-2.3-2.2-3.1-0.5-0.3-1-0.6-1.6-0.9-0.2-0.1-0.4-0.2-0.7-0.3-0.4-0.2-0.9-0.4-1.3-0.6 0 0-0.1-0.1-0.1-0.2-0.1 0-0.1-0.1-0.2-0.1 0 0-0.1 0-0.1-0.1-0.1 0-0.1 0-0.2-0.1-0.1 0-0.1-0.1-0.2-0.1-0.2-0.1-0.2-0.1 0 0-0.1-0.1-0.3-0.1-0.4-0.1s-0.2-0.1-0.3-0.1h-0.1-0.1c-0.4-0.1-0.8-0.1-1.2-0.1-0.2 0.1-0.4 0.2-0.6 0.2 0.1 0 0.1 0.1 0.1 0.2-0.2 0-0.4 0-0.7 0.1 0.2-0.1 0.3-0.2 0.5-0.3h-0.1c-0.1 0-0.3 0-0.4-0.1 0 0.1-0.1 0.2-0.1 0.4-0.1 0-0.2-0.1-0.4 0-1.1 0.1-2.2 0.3-3.2 0.6-0.9 0.3-1.8 0.7-2.4 1.6l-0.3 0.3c-0.5 0.4-0.8 1-1 1.5-0.1 0.2-0.2 0.5-0.4 0.6-0.1 0.1-0.3 0.1-0.4 0.1s-0.2-0.1-0.3-0.2l-2.1-1.2c-0.9-0.5-1.9-0.8-2.9-0.7-0.7 0.1-1.4 0.3-2.1 0.5s-1.2 0.6-1.7 1.1c-0.6 0.5-0.9 1.2-1.1 1.9s-0.6 1.2-1.2 1.6c-0.1-0.1-0.3-0.2-0.4-0.3-0.4-0.3-0.8-0.6-1.3-0.7l-1.2-0.3c-0.7-0.1-1.5-0.1-2.2-0.2-1.1-0.3-2.1-0.2-3.1 0.2-0.2 0.1-0.4 0.1-0.6 0.2-0.7 0.2-1.3 0.5-1.8 1s-1 1.2-1.5 1.8c-0.1 0.2-0.2 0.4-0.4 0.5-0.9 1-1.3 2.3-1.7 3.6-0.1 0.5-0.2 1.1 0 1.6 0.2 0.7 0.4 1.3 0.8 1.9 0.2 0.2 0.2 0.6 0.3 0.9 0.1 0.2 0 0.5 0.1 0.7 0.2 0.6 0.1 1.1 0.1 1.7-0.4 0.4-0.8 0.6-1.1 1-0.8 0.9-1.5 1.8-2 2.9-0.3 0.6-0.5 1.2-0.7 1.8-0.1 0.4-0.2 0.9-0.2 1.4 0 1.1 0 2.1 0.3 3zm9.1-22.6c-0.6 0.3-1 0.6-1.5 0.9-0.2 0.1-0.4 0.2-0.5 0.3-0.4 0.3-0.8 0.7-1.2 1-0.1 0.1-0.3 0.2-0.5-0.1 0.5-0.6 1.1-1.2 1.6-1.8 0.1-0.1 0.2-0.1 0.3-0.2 0.5-0.2 1-0.3 1.6-0.4 0 0 0 0.1 0.2 0.3zm0.6-0.2-0.1 0.1s-0.1 0-0.1-0.1c0 0 0-0.1 0.1-0.1 0 0 0.1 0 0.1 0.1zm13.3-3.5-0.1 0.1c-0.8 0.1-1.6 0.4-2.4 0.2 0.1-0.1 0.2-0.2 0.3-0.2 0.7-0.2 1.4-0.4 2.2-0.3v0.2zm6.4 1.5c0 0.1-0.1 0.1 0 0-0.1 0-0.1-0.1-0.1-0.1s0.1 0 0.1-0.1v0.2zm15-0.1c-0.3 0.1-0.4-0.1-0.5-0.3-0.2-0.2-0.3-0.5-0.5-0.7-0.9-0.5-1.7-1.2-2.8-1.3-0.2 0-0.4 0-0.5-0.1-0.8-0.5-1.7-0.5-2.5-0.7-0.5-0.2-1.1 0-1.6-0.1s-0.9-0.1-1.4-0.1c-0.8 0.1-1.7 0.1-2.3 0.7-0.1 0.1-0.2 0.2-0.3 0.2-0.4 0-0.6 0.2-0.8 0.4l-0.7 0.7c-0.2 0.3-0.5 0.4-0.9 0.5 0.1-0.2 0.2-0.5 0.3-0.7 0.3-0.6 0.7-1.1 1.2-1.5 0.7-0.6 1.6-0.8 2.4-1 1.2-0.3 2.4-0.2 3.6-0.2 0.8 0 1.6 0.2 2.3 0.4 0.8 0.3 1.6 0.6 2.4 1 0.9 0.4 1.7 1 2.3 1.8 0.2 0.3 0.3 0.6 0.3 1zm8.1 6.5c-0.4-0.4-0.7-0.6-0.9-1-0.4-0.5-0.9-0.8-1.4-1.1-0.5-0.2-0.9-0.4-1.5-0.7 0.6-0.4 1.1 0 1.6 0 0.7 0.1 1.2 0.6 1.6 1.1 0.3 0.5 0.5 1 0.6 1.7zm6.7 7.7-0.1 0.1c-0.4-0.5-0.8-1-1.1-1.5-0.6-0.8-1.3-1.5-2.1-2-0.7-0.4-1.5-0.8-2.2-1.1-0.1 0-0.2-0.2-0.3-0.3 0.2-0.1 0.3-0.2 0.5-0.2 0.5-0.1 1.1 0 1.6 0.2 0.6 0.3 1.2 0.5 1.6 1 0.3 0.3 0.5 0.6 0.8 0.9 0.6 0.6 1.1 1.3 1.2 2.2-0.1 0.3 0 0.5 0.1 0.7zm-45.1 25.1c0.4 0.5 0.8 1.1 1.2 1.6 0 0 0 0.1-0.1 0.3-0.4-0.5-0.7-0.9-0.9-1.4-0.1 0-0.1-0.3-0.2-0.5zm-1.5-5.6c0-0.2 0.1-0.3 0.2-0.6 0.1 0.2 0.2 0.3 0.2 0.4 0 0.3 0 0.6 0.1 0.9 0 1.3 0.2 2.5 0.6 3.7l0.3 1.2c-0.1 0-0.2-0.1-0.3-0.2-0.5-0.7-0.8-1.4-1-2.1-0.1-0.5-0.2-1-0.2-1.5 0.1-0.7 0.1-1.3 0.1-1.8zm-7.7-19.4c-0.1 0 0 0 0 0zm-3.1 6.4c0-0.9 0.1-1.7 0.6-2.5 0.1-0.1 0.1-0.3 0.3-0.2 0 0.1 0.1 0.1 0.1 0.2-0.1 0.5-0.2 1.1-0.3 1.6-0.3 1 0.1 1.9 0 2.9 0 0.1 0 0.1 0.1 0.2 0.3 0.8 0.5 1.6 1 2.3 0.1 0.1 0.1 0.2 0.2 0.3 0.2 0.8 0.7 1.5 1.2 2.2 0.3 0.5 0.6 1.2 1.1 1.6 0.2 0.1 0.3 0.4 0.2 0.7-0.5-0.1-0.7-0.5-1-0.8-0.5-0.7-1.1-1.4-1.6-2.1l-1.2-1.8c-0.1-0.1-0.1-0.2-0.1-0.3-0.4-1.5-0.7-2.9-0.6-4.3zm-0.9 3.6s0.1-0.1 0.2-0.1c0 0.1 0.1 0.2 0.1 0.3h-0.1c-0.1 0-0.1-0.1-0.2-0.2zm-0.1-2.5s0.1 0 0.2-0.1v1.5h-0.2c-0.1-0.4-0.1-0.9 0-1.4z"/><g id="g31638"><path id="path31634" class="st15" d="m286.1 164.2h-0.4c-0.3 0.2-0.6 0.2-1 0.1h-0.3c-0.1-0.2-0.3-0.3-0.4-0.5-0.2-0.2-0.4-0.5-0.2-0.8v-0.2c-0.4-0.2-0.4-0.6-0.3-1 0-0.1 0.2-0.1 0.3-0.1 0-0.1 0-0.1-0.4-0.4-0.4 0.5-0.1 1.1-0.1 1.7 0.2 0.5 0.4 1.1 0.9 1.5s1 0.5 1.6 0.7c0 0.1 0.1 0.1 0.2 0.2 0.3 0.5 0.7 0.9 1.1 1.4 0.3 0.4 0.8 0.6 1.2 0.8 0.3 0.2 0.7 0.2 1.1 0.1 0.3-0.1 0.7-0.2 1.1 0 0.1-0.3 0.3-0.5 0.6-0.5 0.2 0 0.3-0.2 0.2-0.4v-0.4c0.1-0.3 0.3-0.6 0.2-1 0-0.2 0.1-0.3 0.3-0.4s0.3-0.1 0.5-0.2c0.3-0.2 0.5-0.4 0.5-0.8 0-0.6 0.1-1.1 0-1.7 0-0.3-0.3-0.9-0.6-1-0.3-0.2-0.6-0.4-0.9-0.5-0.1-0.1-0.3-0.1-0.5-0.1s-0.4 0-0.5-0.1c-0.3-0.1-0.5-0.1-0.8 0-0.5 0.1-0.7 0-0.9-0.4-0.1-0.1-0.1-0.2-0.2-0.2-0.3-0.1-0.5-0.3-0.8-0.4-0.2-0.1-0.4-0.2-0.5-0.3-0.6-0.3-1.2-0.2-1.9-0.1 0.1 0.1 0.1 0.2 0.2 0.3s0.2 0.1 0.2 0.1c0.5 0 1 0.3 1.6 0.3 0.3 0 0.6 0.2 0.9 0.5 0.2 0.2 0.3 0.4 0.4 0.6 0 0.1-0.1 0.2-0.1 0.3l0.3 0.3c0.2-0.1 0.4-0.1 0.6-0.2 0.1-0.1 0.1-0.3 0.2-0.4 0.3-0.1 0.5-0.2 0.8 0 0.2 0.1 0.4 0.2 0.7 0.2 0.1 0 0.2 0.1 0.3 0.2 0.2 0.2 0.3 0.4 0.6 0.5s0.3 0.5 0.3 0.8c0 0.4-0.1 0.8-0.1 1.1 0 0.1-0.1 0.2-0.1 0.3-0.2 0.3-0.3 0.3-0.6 0.2-0.1-0.1-0.2-0.1-0.3-0.2-0.2-0.2-0.4-0.2-0.6-0.2s-0.3 0.1-0.3 0.4c0 0.1 0.1 0.2 0.2 0.2 0.5 0.4 0.4 1 0.4 1.6 0 0.2-0.1 0.4-0.2 0.7-0.1 0.1-0.3 0.1-0.4 0.2-0.2 0.2-0.3 0.3-0.6 0.3-0.1 0-0.2 0-0.3 0.1-0.3 0.2-0.5 0.1-0.8 0-0.5-0.2-1-0.5-1.4-0.8 0 0-0.1-0.1-0.1-0.2s0-0.3-0.1-0.4c-0.2-0.2-0.3-0.4-0.3-0.7-0.2-0.5-0.4-0.8-0.5-1.1z"/><path id="path31636" class="st15" d="m296.3 173.9s-0.1 0 0 0c-0.1 0-0.1 0 0 0-0.1 0.1-0.1 0.1 0 0v0c-0.1 0.2-0.3 0.3-0.5 0.4-0.2-0.1-0.5 0-0.7 0-0.3 0-0.6-0.1-0.8-0.4l-0.1-0.1c-0.1 0-0.2 0-0.3 0.1-0.1-0.1-0.2-0.2-0.4-0.3-0.3-0.1-0.5-0.4-0.7-0.7-0.2-0.2-0.3-0.5-0.4-0.7-0.1-0.3-0.1-0.6 0-0.9 0.1-0.2 0.2-0.5 0.2-0.7 0.1-0.3 0.2-0.5 0.5-0.7 0.1-0.1 0.3-0.2 0.4-0.4 0.2-0.2 0.4-0.3 0.6-0.4 0.3-0.1 0.6-0.2 1-0.1 0.1 0 0.2-0.1 0.4-0.1 0.4 0.5 0.9 0.5 1.5 0.3 0.1 0 0.1-0.1 0.2-0.1 0.4-0.1 0.8-0.1 1.2 0 0.7 0.3 1.3 0.8 1.4 1.6v0.1c0.3 0.5 0.1 1.1 0 1.6-0.1 0.4-0.3 0.5-0.8 0.5h-0.2c-0.3 0.1-0.6 0.1-0.9 0-0.3 0-0.5-0.1-0.8-0.1-0.1 0-0.1 0-0.1 0.1-0.3 0.2-0.5 0.3-0.5 0.7 0 0.1-0.2 0.2-0.3 0.3 0.1 0.1 0.1 0.1 0.1 0zm1-2c0.3 0.3 0.6 0.5 1.1 0.3 0.2-0.1 0.5 0 0.7-0.2s0.2-0.5 0.2-0.8c0.1-0.6-0.2-0.9-0.6-1.2-0.1-0.1-0.3-0.2-0.4-0.3-0.3 0-0.6-0.1-0.8-0.1-0.2 0.1-0.3 0.2-0.2 0.4 0 0.4 0 0.7 0.1 1.1-0.3-0.1-0.5-0.3-0.6-0.5s-0.2-0.3-0.3-0.5c-0.1-0.1-0.2-0.2-0.3-0.2-0.3-0.1-0.5-0.1-0.7-0.3 0 0-0.2-0.1-0.3 0-0.3 0.2-0.4-0.1-0.6-0.2-0.3 0.3-0.6 0.6-0.9 1-0.1 0.1-0.1 0.2-0.1 0.3 0 0.2-0.1 0.3-0.2 0.4-0.2 0.4-0.1 1.2 0.2 1.6 0.1 0.1 0.3 0.3 0.5 0.3 0.1 0 0.3 0.1 0.4 0.2 0.3 0.2 0.5 0.2 0.9 0 0.4-0.1 0.6-0.3 0.7-0.6 0.1-0.2 0.2-0.3 0.2-0.5 0.1-0.2 0.1-0.3 0.1-0.5 0.4 0 0.6 0 0.9 0.3z"/></g></g><text id="text31646" transform="matrix(.9968 0 0 1 242.42 143.55)" fill="#11034c" font-family="Archer-Bold" font-size="7.9025px"><tspan id="tspan31642" class="st16 st17 st18" x="0" y="0">CLEAN</tspan><tspan id="tspan31644" class="st16 st17 st18" x="-13.5" y="9.5">CONSCIENCE.</tspan></text>
</g></g></g></svg>
