<?xml version="1.0" encoding="utf-8"?>
<!-- Generator: Adobe Illustrator 23.0.5, SVG Export Plug-In . SVG Version: 6.00 Build 0)  -->
<svg version="1.1" id="Layer_1" xmlns="http://www.w3.org/2000/svg" xmlns:xlink="http://www.w3.org/1999/xlink" x="0px" y="0px"
	 viewBox="0 0 94.1 50" style="enable-background:new 0 0 94.1 50;" xml:space="preserve">
<style type="text/css">
	.st0{fill:#F8F6F2;}
</style>
<g id="second_x5F_cloud_x5F_from_x5F_left">
	<ellipse transform="matrix(0.4641 -0.8858 0.8858 0.4641 -27.4579 27.748)" class="st0" cx="9.2" cy="36.6" rx="9.2" ry="9.2"/>
	<ellipse class="st0" cx="28.7" cy="19.3" rx="9.2" ry="9.2"/>
	<ellipse class="st0" cx="52.4" cy="40.7" rx="9.2" ry="9.2"/>
	<ellipse class="st0" cx="77.2" cy="32.6" rx="9.2" ry="9.2"/>
	<path class="st0" d="M46.3,40.8c0,3.4-2.7,6.1-6.1,6.1s-6.1-2.7-6.1-6.1c0-3.4,2.7-6.1,6.1-6.1S46.3,37.4,46.3,40.8z"/>
	<ellipse class="st0" cx="26" cy="38.3" rx="11.7" ry="11.7"/>
	<ellipse class="st0" cx="63.8" cy="30.4" rx="11.7" ry="11.7"/>
	<ellipse class="st0" cx="44.6" cy="25.7" rx="15" ry="15.1"/>
	<ellipse class="st0" cx="44.6" cy="11.7" rx="11.7" ry="11.7"/>
	<path class="st0" d="M25.9,28.1c0,3.4-2.7,6.1-6.1,6.1s-6.1-2.7-6.1-6.1s2.7-6.1,6.1-6.1C23.2,22,25.9,24.7,25.9,28.1z"/>
	<path class="st0" d="M65.9,16.8c0,3.4-2.7,6.1-6.1,6.1s-6.1-2.7-6.1-6.1c0-3.4,2.7-6.1,6.1-6.1C63.1,10.7,65.9,13.4,65.9,16.8z"/>
	<path class="st0" d="M94.1,33.8c0,3.4-2.7,6.1-6.1,6.1s-6.1-2.7-6.1-6.1s2.7-6.1,6.1-6.1C91.3,27.6,94.1,30.4,94.1,33.8z"/>
</g>
</svg>
