<?xml version="1.0" encoding="utf-8"?>
<!-- Generator: Adobe Illustrator 23.0.5, SVG Export Plug-In . SVG Version: 6.00 Build 0)  -->
<svg version="1.1" id="Layer_1" xmlns="http://www.w3.org/2000/svg" xmlns:xlink="http://www.w3.org/1999/xlink" x="0px" y="0px"
	 viewBox="0 0 1400 794.6" style="enable-background:new 0 0 1400 794.6;" xml:space="preserve">
<style type="text/css">
	.st0{clip-path:url(#SVGID_2_);}
	.st1{fill:#2A2963;}
	.st2{fill:#F99D2A;}
	.st3{fill:#27265F;}
	.st4{fill:#C72263;}
	.st5{fill:#EDE9E3;}
	.st6{fill:#F4BCD7;}
	.st7{fill:#FFFFFF;}
	.st8{fill:#11034C;}
	.st9{font-family:'futura';font-weight: bold}
	.st10{font-size:14.674px;}
</style>
<g>
	<g>
		<g>
			<g>
				<g>
					<g>
						<g>
							<g>
								<defs>
									<rect id="SVGID_1_" x="0.1" y="-0.8" width="1400.1" height="689.8"/>
								</defs>
								<clipPath id="SVGID_2_">
									<use xlink:href="#SVGID_1_"  style="overflow:visible;"/>
								</clipPath>
								<g class="st0">
									<g id="snail_x5F_talk">
										<g>
											<g>
												<path class="st1" d="M636.7,506.7l1.2-0.1c0-0.1-0.5-9.1,5.2-13.3l-0.7-1C636.2,496.9,636.7,506.3,636.7,506.7z"/>
												<path class="st1" d="M631.9,507c0-0.3,0.8-8.5-5.7-14.1l-0.8,0.9c6,5.2,5.3,12.9,5.2,13L631.9,507z"/>
												<path class="st2" d="M640.7,492.5c0,1.3,1,2.3,2.3,2.3s2.3-1,2.3-2.3s-1-2.3-2.3-2.3
													C641.8,490.2,640.7,491.2,640.7,492.5z"/>
												<ellipse class="st2" cx="625.2" cy="492.5" rx="2.3" ry="2.3"/>
												<path class="st2" d="M699.1,558c10.7,0,10.4,11.8,0,11.8s-40.5,0-57.4,0c-17,0-18.3-8-18.3-20.5c0-7.2,0-23.1,0-32.9
													c0-17,21.5-17.7,21.5,0.7c0,18.3,0,10.8,0,20s8.5,21.6,16.3,21.6C669.1,558.7,699.1,558,699.1,558z"/>
												<g>
													<path class="st3" d="M642.8,493.3c0.5,0,1-0.4,1-1c0-0.5-0.4-1-1-1c-0.5,0-1,0.4-1,1S642.2,493.3,642.8,493.3z"/>
													<path class="st3" d="M624.8,493.3c0.5,0,1-0.4,1-1c0-0.5-0.4-1-1-1c-0.5,0-1,0.4-1,1
														C623.9,492.9,624.3,493.3,624.8,493.3z"/>
												</g>
												<path class="st3" d="M633.2,511.2c1.9,0,3.3-1.5,3.4-1.6c0.2-0.3,0.2-0.6,0-0.9c-0.3-0.2-0.6-0.2-0.9,0
													c0,0-1.2,1.3-2.5,1.2c-0.7,0-1.4-0.4-2-1.2c-0.2-0.3-0.6-0.3-0.9-0.1c-0.3,0.2-0.3,0.6-0.1,0.9
													C631,510.6,632,511.2,633.2,511.2C633.1,511.2,633.2,511.2,633.2,511.2z"/>
												<path class="st4" d="M677.7,558.7H653c-4.5,0-8.2-3.7-8.2-8.2V534c2.2-5.6,5.7-11.7,11.5-17.4
													c19.4-19.4,54.6-5.2,54.6,17C711,555.8,692.4,566.1,677.7,558.7z"/>
												<path class="st5" d="M638.2,559.2c0,0,0-23,0-32.1s-10.1-8.9-10.1,0s0,27.6,0,33.2c0,5.6,3.6,9.5,12,9.5
													c3.1,0,7.9,0,7.9,0S638.2,569.8,638.2,559.2z"/>
												<path class="st6" d="M682.5,562.4c0.5,0,1-0.4,1.2-0.9c0.2-0.7-0.2-1.4-0.8-1.5c0,0-4.8-1.5-9.2-4.8
													c-5.7-4.4-8.1-9.9-7.2-16.4c1-6.9,5.7-11.6,12.6-12.6c5.9-0.8,11.5,1.5,13.4,5.5c1.7,3.7,1.5,7.3-0.4,10.2
													s-5.3,4.6-8.8,4.5c-2.2-0.1-4-1.2-4.9-3.1c-0.8-1.7-0.7-3.7,0.2-5c1-1.3,2.7-1.8,5-1.4c0.7,0.1,1.3-0.3,1.4-1
													c0.1-0.7-0.3-1.3-1-1.4c-4.3-0.7-6.5,1.2-7.4,2.3c-1.5,2-1.7,5-0.5,7.6c1.3,2.7,3.9,4.4,7,4.5c4.4,0.2,8.6-2,11-5.6
													s2.6-8.2,0.6-12.6c-2.3-5-9-7.9-16-6.9c-6.2,0.9-13.3,5.2-14.7,14.7c-2.6,17.7,17.9,23.9,18.1,24
													C682.3,562.4,682.4,562.4,682.5,562.4z"/>
												<path class="st4" d="M642.1,518.7c0,0.8,0.2,1.4,0.6,1.4c0.3,0,0.6-0.6,0.6-1.4s-0.2-1.4-0.6-1.4
													S642.1,517.9,642.1,518.7z"/>
												<path class="st4" d="M640.8,522c0,0.6,0.2,1.1,0.4,1.1s0.4-0.5,0.4-1.1s-0.2-1.1-0.4-1.1S640.8,521.4,640.8,522z"/>
												<path class="st4" d="M642.2,525.4c0,1,0.3,1.8,0.7,1.8s0.7-0.8,0.7-1.8s-0.3-1.8-0.7-1.8
													C642.5,523.5,642.2,524.3,642.2,525.4z"/>
												<path class="st4" d="M624.5,543.5c0,0.6,0.2,1.1,0.4,1.1s0.4-0.5,0.4-1.1s-0.2-1.1-0.4-1.1S624.5,542.9,624.5,543.5z"/>
												<path class="st4" d="M625.4,546c0,0.3,0.1,0.6,0.2,0.6s0.2-0.2,0.2-0.6c0-0.3-0.1-0.6-0.2-0.6S625.4,545.6,625.4,546z"
													/>
											</g>
											<g id="snail_x5F_speech">
												<g>
													<path class="st7" d="M477.5,474.8c0.9,2.6,2,4.8,3.5,6.9c0.6,0.8,0.9,1.4,1.3,2c0.2,0.3,0.6,0.8,0.9,1.1
														c0.9,0.9,1.8,1.8,3.2,2c0.3,0,0.6,0.3,0.8,0.6c1.3,0.9,2.7,1.8,4.6,2c0.6,0.2,1.3,0.3,1.8,0.8c1.1,0.3,2,0.8,3.2,0.6
														c1.1-0.2,2,0.2,3,0.6c0.6,0.2,0.8,0.6,0.6,1.1c-0.2,1.1-0.3,2.2-0.6,3.3c-0.6,2.2,0,4.2,0.3,6.1c0,0.2,0.2,0.6,0.2,0.8
														c1.3,2,2.4,4.2,4.2,5.9c0.9,0.9,1.8,1.6,2.7,2.4c1.6,1.8,3.5,3.2,5.9,3.5c0.3,0,0.9,0.2,1.3,0.6
														c1.1,0.8,2.4,0.9,3.6,0.8c1.1,0,2,0.2,3,0.3c1.6,0.3,3.5,0.6,5.3,0.8c0.2,0,0.6,0,0.8,0c1.1-0.2,2-0.2,3-0.3
														c1.3-0.2,2.7-0.2,4-0.8c0.3-0.2,0.9,0,1.1,0.6c0.9,1.8,2.4,3.2,3.6,4.6c0.3,0.3,0.6,0.8,0.9,0.9
														c2.2,1.3,4.2,2.7,6.7,3.3c1.3,0.2,2.6,0.9,4,1.1s3,0,4.2-0.6c0.8-0.3,1.3-0.6,2-0.6c2,0,3.6-0.9,5.6-1.4
														c0.3-0.2,0.8-0.3,0.9-0.6c0.6-0.6,1.3-1.1,1.4-1.8c0.2-0.8,0.9-0.9,1.3-1.4c0.3-0.6,0.3-1.3,0.8-1.8
														c0.6-0.9,1.3-1.8,1.8-2.7c0.8,0.2,1.4,0.2,2.2,0.6c2.4,0.9,4.8,1.1,7.3,0.8c1.1-0.2,2.2,0,3.3-0.6c0.2,0,0.2,0,0.3,0
														c1.4,0.2,2.7-0.6,3.8-1.4c0.9-0.8,1.6-1.6,2-2.7c0.3-1.1,0.8-2,1.1-3c0.8-1.8,1.1-3.5,0.9-5.3c0-0.3,0-0.8,0-0.9
														c0.3-1.4,0.3-2.7,0.2-4.2c0-2.2-0.3-4.2-1.3-6c-0.2-0.3-0.2-0.8-0.2-1.1c1.6-0.6,3.2-0.9,4.8-1.4
														c0.9-0.3,1.6-0.6,2.4-1.1c1.6-0.9,3-2,3.3-4c0.2-1.3,0.2-2.7,0.3-4c0.2-1.4-0.2-3.2-0.3-4.6c-0.2-1.1-0.6-2.2-1.1-3.2
														c-0.2-0.2-0.3-0.6-0.6-0.9c0.3-0.2,0.6-0.2,0.9-0.2c1.8-0.6,3.3-1.4,4-3.3c0.3-0.8,0.8-1.6,0.8-2.6
														c0-1.1,0.3-1.8,0.9-2.7c1.1-2,1.6-4.2,1.1-6.4c0-0.3-0.2-0.6,0-0.9c0-1.4-0.3-3-0.8-4.3c-0.2-0.9-0.3-1.8-0.8-2.7
														c-0.3-1.3-0.9-2.4-1.8-3.3c-1.4-1.3-3-2.6-4.6-3.6c-1.6-1.1-3.3-2-5.6-1.8c-0.3,0-0.8-0.2-1.1-0.2c0-0.6,0-0.9,0-1.3
														c0.2-1.1,0-2.2-0.3-3.2c-0.2-0.6-0.3-0.9-0.6-1.4c-0.6-1.6-1.6-3-3.3-3.8c-2.4-1.4-5.1-1.8-7.8-1.3
														c-0.8,0.2-1.4,0.6-2.2,0.8c-0.3,0-0.8,0-1.1,0.2c-0.2-0.2-0.3-0.3-0.3-0.6c-0.2-2-1.1-3.8-1.6-5.9
														c-0.8-2.6-2.2-5-4.6-6.4c-1.1-0.8-2.2-1.3-3.3-2c-0.3-0.2-0.9-0.3-1.4-0.6c-0.9-0.3-1.8-0.8-2.7-1.3
														c0,0-0.2-0.2-0.2-0.3l0,0c-0.2,0-0.2-0.2-0.3-0.2c0,0-0.2,0-0.2-0.2c-0.2,0-0.2,0-0.3-0.2c-0.2,0-0.3-0.2-0.3-0.2l0,0
														c-0.3-0.2-0.3-0.2,0,0c-0.2-0.2-0.6-0.2-0.8-0.2c-0.2,0-0.6-0.2-0.8-0.2s-0.2,0-0.3,0h-0.2c-0.8-0.2-1.6-0.2-2.4-0.2
														c-0.3,0.2-0.8,0.3-1.1,0.3c0.2,0,0.2,0.2,0.2,0.6c-0.3,0-0.9,0-1.4,0.2c0.3-0.2,0.8-0.6,1.1-0.6l0,0c0,0,0,0-0.2,0
														c-0.2,0-0.6,0-0.8-0.2c0,0.2-0.2,0.6-0.2,0.8l0,0c-0.2,0-0.6-0.2-0.8,0c-2.2,0.2-4.6,0.6-6.7,1.3c-2,0.6-3.8,1.4-5,3.3
														c-0.2,0.2-0.3,0.3-0.6,0.6c-0.9,0.9-1.6,2-2,3.2c-0.2,0.6-0.3,0.9-0.8,1.3c-0.2,0.2-0.6,0.2-0.9,0.2
														c-0.2,0-0.3-0.2-0.8-0.3c-1.4-0.9-3-1.6-4.3-2.6c-1.8-1.1-3.8-1.6-6-1.4c-1.4,0.2-3,0.6-4.3,0.9
														c-1.4,0.3-2.6,1.3-3.5,2.2c-1.1,1.1-1.8,2.6-2.2,3.8c-0.6,1.4-1.3,2.4-2.4,3.3c-0.3-0.2-0.6-0.3-0.9-0.6
														c-0.8-0.8-1.6-1.3-2.6-1.4c-0.9-0.2-1.6-0.6-2.6-0.6c-1.4-0.2-3.2-0.2-4.6-0.6c-2.2-0.6-4.2-0.3-6.4,0.3
														c-0.3,0.2-0.9,0.2-1.3,0.3c-1.4,0.6-2.7,1.1-3.8,2.2c-1.2,1.2-2,2.4-3.2,3.6c-0.3,0.3-0.3,0.8-0.8,1.1
														c-2,2.2-2.7,4.8-3.5,7.5c-0.3,1.1-0.3,2.4,0,3.5c0.6,1.4,0.9,2.7,1.6,4c0.3,0.6,0.6,1.1,0.6,1.8c0.2,0.6,0,1.1,0.2,1.4
														c0.6,1.1,0.3,2.4,0.3,3.5c-0.9,0.8-1.6,1.3-2.4,2.2c-1.6,1.8-3.2,3.8-4.2,6c-0.6,1.3-1.1,2.4-1.4,3.6
														c-0.3,0.9-0.3,1.8-0.3,2.7C476.9,470.8,476.9,472.9,477.5,474.8z M496.5,427.4c-1.1,0.8-2.2,1.3-3.2,2
														c-0.3,0.2-0.8,0.3-1.1,0.8c-0.9,0.8-1.6,1.4-2.6,2.2c-0.3,0.2-0.8,0.3-0.9-0.3c1.1-1.3,2.2-2.4,3.5-3.6
														c0.2-0.2,0.3-0.3,0.8-0.3c1.1-0.3,2.2-0.6,3.3-0.9C496.2,427.1,496.2,427.3,496.5,427.4z M497.8,427.1l-0.2,0.2
														c-0.2,0-0.2,0-0.3-0.2l0.2-0.2C497.5,426.8,497.5,427.1,497.8,427.1z M525.3,419.9c0,0.2-0.2,0.2-0.2,0.3
														c-1.6,0.2-3.3,0.8-5.1,0.6c0.2-0.2,0.3-0.3,0.6-0.3C522.1,419.9,523.5,419.7,525.3,419.9
														C525.3,419.7,525.3,419.8,525.3,419.9z M538.7,423.1C538.7,423.1,538.6,423.3,538.7,423.1c-0.2,0-0.2-0.2-0.3-0.2
														c0.2,0,0.2,0,0.3-0.2C538.7,422.8,538.7,423.1,538.7,423.1z M570,422.7c-0.6,0.2-0.8-0.3-0.9-0.6
														c-0.3-0.6-0.6-1.1-1.1-1.3c-1.8-1.1-3.6-2.4-5.8-2.7c-0.3,0-0.8-0.2-1.1-0.3c-1.6-1.1-3.5-0.9-5.3-1.4
														c-1.1-0.3-2.4,0-3.5-0.2c-0.9-0.2-1.8-0.2-2.7-0.2c-1.6,0.2-3.5,0.2-4.8,1.4c-0.2,0.2-0.3,0.3-0.8,0.3
														c-0.8,0-1.1,0.6-1.6,0.9c-0.6,0.6-0.9,0.9-1.4,1.6c-0.6,0.8-1.1,0.9-2,0.9c0.2-0.6,0.3-0.9,0.6-1.4
														c0.6-1.3,1.3-2.2,2.4-3.2c1.4-1.3,3.3-1.6,5.1-2.2c2.4-0.6,5-0.6,7.3-0.3c1.6,0,3.3,0.3,4.8,0.9c1.6,0.6,3.3,1.3,5,2
														c1.8,0.8,3.5,2.2,4.8,3.6C569.6,421.5,570,422,570,422.7z M586.8,436.4c-0.9-0.9-1.4-1.3-2-2c-0.8-1.1-1.8-1.6-3-2.2
														c-0.9-0.3-2-0.9-3.2-1.4c1.3-0.8,2.2,0,3.3,0c1.4,0.2,2.4,1.3,3.5,2.2C586,433.8,586.6,434.8,586.8,436.4z
														 M600.7,452.4l-0.2,0.2c-0.8-1.1-1.6-2.2-2.4-3.2c-1.3-1.6-2.7-3.2-4.3-4c-1.4-0.9-3.2-1.6-4.6-2.4
														c-0.2-0.2-0.3-0.3-0.6-0.6c0.3-0.2,0.8-0.3,0.9-0.3c1.1-0.2,2.2,0,3.3,0.6c1.1,0.6,2.4,1.1,3.5,2
														c0.6,0.6,1.1,1.3,1.6,1.8c1.3,1.3,2.2,2.7,2.4,4.6C600.4,451.4,600.7,452,600.7,452.4z M506.9,504.9
														c0.8,1.1,1.6,2.2,2.4,3.5c0,0,0,0.3-0.2,0.8c-0.8-1.1-1.4-1.8-2-2.7C507.1,505.6,507.1,505.2,506.9,504.9z
														 M503.8,492.9c0-0.3,0.2-0.8,0.6-1.3c0.2,0.3,0.3,0.6,0.6,0.8c0,0.6,0.2,1.3,0.2,1.8c0,2.6,0.3,5.1,1.3,7.7
														c0.3,0.8,0.6,1.6,0.8,2.6c-0.2-0.2-0.6-0.2-0.6-0.3c-0.9-1.3-1.6-3-2-4.3c-0.2-1.1-0.3-2.2-0.3-3.2
														C503.8,495.3,503.8,494.3,503.8,492.9z M487.6,452.4L487.6,452.4C487.6,452.4,487.6,452.7,487.6,452.4
														C487.6,452.7,487.6,452.7,487.6,452.4C487.4,452.4,487.6,452.4,487.6,452.4z M481.3,465.8c0-1.8,0.2-3.6,1.1-5.1
														c0.2-0.2,0.3-0.6,0.8-0.6c0,0.2,0.2,0.2,0.2,0.3c-0.2,1.1-0.3,2.2-0.6,3.3c-0.6,2,0.2,4,0,6c0,0.2,0,0.2,0.2,0.3
														c0.6,1.6,1.1,3.3,2,4.8c0.2,0.2,0.3,0.3,0.3,0.8c0.6,1.6,1.4,3.2,2.4,4.6c0.8,1.1,1.1,2.4,2.4,3.3
														c0.3,0.3,0.6,0.8,0.3,1.4c-0.9-0.3-1.4-0.9-2-1.6c-1.1-1.4-2.2-3-3.3-4.3c-0.9-1.1-1.6-2.4-2.4-3.6
														c-0.2-0.2-0.2-0.6-0.2-0.8C481.6,471.7,481,468.8,481.3,465.8z M479.4,473.5c0,0,0.2-0.2,0.3-0.2
														c0,0.2,0.2,0.6,0.2,0.8c-0.2,0-0.3,0.2-0.3,0C479.4,473.7,479.4,473.7,479.4,473.5z M479.3,468.2c0,0,0.2,0,0.3-0.2
														v3.2c-0.2,0-0.2,0-0.3,0C478.9,470.3,478.9,469.2,479.3,468.2z"/>
													<g>
														<path class="st7" d="M605.8,486.8c-0.2,0-0.4,0-0.5,0c-0.4,0.2-0.6,0.2-1,0.1c-0.1,0-0.2,0-0.4,0
															c-0.2-0.2-0.3-0.4-0.4-0.6c-0.2-0.3-0.4-0.5-0.2-0.8c0,0,0-0.2-0.1-0.2c-0.4-0.3-0.4-0.6-0.3-1c0-0.1,0.2-0.1,0.3-0.2
															c0-0.1,0-0.1-0.5-0.5c-0.5,0.6-0.1,1.2-0.1,1.7c0.3,0.6,0.5,1.1,0.9,1.6c0.5,0.4,1.1,0.6,1.7,0.7
															c0,0.1,0.1,0.1,0.2,0.2c0.3,0.6,0.7,0.9,1.1,1.4c0.4,0.4,0.8,0.6,1.3,0.9c0.4,0.2,0.7,0.2,1.1,0.1
															c0.4-0.2,0.7-0.2,1.1,0c0.2-0.3,0.3-0.5,0.6-0.5c0.3,0,0.3-0.2,0.3-0.5c0-0.2,0-0.3,0-0.4c0.2-0.4,0.3-0.6,0.2-1.1
															c-0.1-0.2,0.1-0.4,0.3-0.5c0.2-0.1,0.4-0.2,0.6-0.3c0.4-0.2,0.6-0.4,0.6-0.8c0-0.6,0.1-1.2,0-1.7
															c0-0.3-0.4-0.9-0.6-1.1s-0.6-0.4-1-0.6c-0.2-0.1-0.3-0.1-0.5-0.1c-0.2,0-0.4,0-0.6-0.1c-0.3-0.1-0.6-0.1-0.8,0
															c-0.5,0.1-0.7,0-1-0.5c-0.1-0.1-0.1-0.2-0.3-0.2c-0.3-0.1-0.6-0.3-0.8-0.5c-0.2-0.1-0.4-0.2-0.6-0.3
															c-0.6-0.4-1.3-0.3-1.9-0.1c0.1,0.1,0.2,0.2,0.2,0.3c0.1,0.1,0.2,0.1,0.3,0.1c0.6,0,1.1,0.3,1.7,0.3
															c0.4,0,0.6,0.3,0.9,0.6c0.2,0.2,0.3,0.4,0.5,0.6c0,0.1-0.1,0.2-0.1,0.4c0.1,0.1,0.3,0.2,0.4,0.3
															c0.2-0.1,0.5-0.2,0.6-0.2c0.1-0.2,0.2-0.3,0.2-0.5c0.3-0.1,0.6-0.2,0.8,0c0.2,0.1,0.5,0.3,0.7,0.2
															c0.1,0,0.3,0.1,0.4,0.2c0.2,0.2,0.4,0.5,0.6,0.6c0.3,0.2,0.4,0.5,0.4,0.8s-0.1,0.8-0.1,1.2c0,0.1-0.1,0.2-0.2,0.3
															c-0.2,0.3-0.4,0.4-0.6,0.2c-0.1-0.1-0.3-0.2-0.4-0.3c-0.2-0.2-0.4-0.2-0.6-0.2c-0.2,0-0.3,0.2-0.3,0.4
															c0,0.1,0.1,0.2,0.2,0.3c0.5,0.5,0.5,1,0.4,1.7c0,0.2-0.1,0.5-0.2,0.7c-0.1,0.1-0.3,0.1-0.4,0.3
															c-0.2,0.2-0.4,0.3-0.6,0.3c-0.1,0-0.2,0-0.3,0.1c-0.3,0.2-0.6,0.2-0.8,0.1c-0.6-0.2-1-0.5-1.5-0.8
															c-0.1,0-0.1-0.1-0.1-0.2c0-0.1-0.1-0.3-0.1-0.4c-0.2-0.2-0.3-0.5-0.3-0.7C606.1,487.3,605.9,487.1,605.8,486.8z"/>
														<path class="st7" d="M616.4,497C616.4,497,616.4,496.9,616.4,497C616.3,497,616.3,497,616.4,497L616.4,497
															C616.4,497.1,616.4,497.1,616.4,497c-0.1,0.2-0.3,0.4-0.6,0.5c-0.3-0.1-0.6,0-0.7,0c-0.4,0-0.6-0.1-0.8-0.4l-0.1-0.1
															c-0.1,0-0.2,0-0.3,0.1c-0.1-0.1-0.3-0.3-0.4-0.3c-0.4-0.1-0.6-0.5-0.6-0.6c-0.2-0.3-0.3-0.5-0.4-0.7
															c-0.1-0.3-0.1-0.6,0-1c0.1-0.3,0.2-0.5,0.3-0.7c0.1-0.3,0.2-0.6,0.5-0.7c0.2-0.1,0.3-0.3,0.4-0.4
															c0.2-0.2,0.4-0.3,0.6-0.4c0.4-0.1,0.6-0.3,1-0.1c0.1,0,0.3-0.1,0.4-0.1c0.5,0.6,1,0.6,1.6,0.4c0.1,0,0.1-0.1,0.2-0.1
															c0.5-0.2,0.8-0.2,1.2,0.1c0.7,0.4,1.4,0.8,1.5,1.7v0.1c0.3,0.6,0.1,1.1,0,1.7c-0.1,0.4-0.4,0.5-0.8,0.5
															c-0.1,0-0.2,0-0.2,0c-0.3,0.1-0.6,0.1-0.9,0c-0.3,0-0.6-0.1-0.8-0.1c-0.1,0-0.1,0-0.1,0.1c-0.3,0.2-0.6,0.4-0.6,0.7
															c0,0.1-0.2,0.2-0.3,0.3C616.5,497.1,616.5,497,616.4,497z M617.5,494.9c0.3,0.3,0.6,0.5,1.1,0.4
															c0.3-0.1,0.6,0,0.7-0.3c0.2-0.3,0.2-0.6,0.2-0.8c0.1-0.6-0.2-1-0.6-1.3c-0.1-0.1-0.3-0.2-0.4-0.3
															c-0.3,0-0.6-0.1-0.8-0.1c-0.2,0.1-0.3,0.2-0.3,0.5c0,0.4,0,0.7,0.1,1.2c-0.4-0.1-0.5-0.3-0.6-0.5
															c-0.1-0.2-0.2-0.4-0.4-0.6c-0.1-0.1-0.2-0.2-0.3-0.2c-0.3-0.1-0.6-0.1-0.7-0.3c-0.1-0.1-0.2-0.1-0.3,0
															c-0.3,0.2-0.5-0.1-0.6-0.2c-0.4,0.3-0.6,0.6-0.9,1c-0.1,0.1-0.1,0.2-0.1,0.3c0,0.2-0.1,0.3-0.2,0.5
															c-0.3,0.5-0.1,1.3,0.3,1.7c0.2,0.2,0.3,0.3,0.6,0.4c0.2,0,0.3,0.1,0.5,0.2c0.3,0.2,0.6,0.2,0.9,0.1
															c0.4-0.1,0.6-0.3,0.7-0.6c0.1-0.2,0.2-0.4,0.3-0.5c0.1-0.2,0.1-0.4,0.1-0.6C616.9,494.5,617.2,494.6,617.5,494.9z"/>
													</g>
												</g>
												<g>
													<text transform="matrix(0.9968 0 0 1 513.25 458.3404)" class="st8 st9 st10">CLEAN</text>
													<text transform="matrix(0.9968 0 0 1 489.6768 481.4127)" class="st8 st9 st10">CONSCIENCE</text>
												</g>
											</g>
										</g>
									</g>
								</g>
							</g>
						</g>
					</g>
				</g>
			</g>
		</g>
	</g>
</g>
</svg>
