<?xml version="1.0" encoding="utf-8"?>
<!-- Generator: Adobe Illustrator 23.0.5, SVG Export Plug-In . SVG Version: 6.00 Build 0)  -->
<svg version="1.1" id="Layer_1" xmlns="http://www.w3.org/2000/svg" xmlns:xlink="http://www.w3.org/1999/xlink" x="0px" y="0px"
	 viewBox="0 0 125 157.3" style="enable-background:new 0 0 125 157.3;" xml:space="preserve">
<style type="text/css">
	.st0{fill:#DC653A;}
	.st1{fill:#11034C;}
	.st2{fill:#D0F2F7;}
	.st3{fill:#8FE0ED;}
	.st4{opacity:0.38;}
	.st5{clip-path:url(#SVGID_2_);}
	.st6{opacity:0.78;fill:#E3DDD6;enable-background:new    ;}
	.st7{fill:#1E194C;stroke:#1E194C;stroke-miterlimit:10;}
	.st8{fill:#1E194C;stroke:#1E194C;stroke-width:0.5;stroke-miterlimit:10;}
	.st9{fill:#2F50A2;}
	.st10{fill:#F5F3EF;}
	.st11{fill:#FAF9F6;}
	.st12{fill:#1E194C;}
	.st13{fill:#C72263;}
	.st14{fill:#F99D2A;}
	.st15{fill:#E3C28F;}
	.st16{fill:#7C3B23;}
	.st17{fill:#D5B081;}
	.st18{opacity:0.7;}
	.st19{fill:none;stroke:#1E194C;stroke-width:0.7078;stroke-miterlimit:10;}
	.st20{fill:#DFBD3E;}
	.st21{fill:#ADDDC6;}
</style>
<g>
	<g>
		<path class="st0" d="M7.1,71.1c-0.7,2.7-1.2,4.9-1,6.1c0.5,3.6,0.7,6.6,1.6,6.9c0.9,0.2,0.5-6.4,0.5-6.4s0.7,2.1,1.6,1.4
			s-1.2-5.4-1.2-5.4"/>
		<path class="st0" d="M10.1,30.9c0,0-1.6,3.5-1.3,8.8c0.2,5.2,1.5,18.2,1.5,18.2L6.7,73l1.8,3.4c0,0,3.9-11.5,5.2-16
			c0.4-1.4,0.4-9.9-0.5-18.1C12.2,34.2,10.1,30.9,10.1,30.9z"/>
		<path class="st1" d="M28.4,145.6c0,0,1.8,2.7,1.8,4.1c0,1.2-0.3,2.6-1.1,3.8c-0.2,0.3-0.7,0.3-1,0.1c-1.9-1.9-1.5-3.4-1.5-3.4
			s-0.2-2.3,0-3.1C26.8,146.2,28.4,145.6,28.4,145.6z"/>
		<path class="st2" d="M32.6,98c0,0-1.6,25.2-4.2,48.8c-0.1,1.2-0.8,0.3-1.1,1.5C26,129.4,26.4,106.9,26,97
			C25.7,88.4,32.6,98,32.6,98z"/>
		<path class="st1" d="M21.8,145.6c0,0-1.8,2.7-1.8,4.1c0,1.2,0.3,2.7,1.3,3.9c0.2,0.2,0.5,0.2,0.7,0c1.9-2,1.6-3.5,1.6-3.5
			s0.2-2.3,0-3.1S21.8,145.6,21.8,145.6z"/>
		<path class="st2" d="M16.6,98.2c0,0,2.1,25.2,5.1,48.7c0.2,1.2,0.8,0.3,1.1,1.5c1-18.9,0.1-41.4,0.3-51.3
			C23.4,88.4,16.6,98.2,16.6,98.2z"/>
		<path class="st3" d="M10,30.7c0,0,4.9-2.7,12.1-3.7s11.3,3.9,11.3,3.9s-5.2,23-3.3,28.8s7.8,20.2,8,39.5
			c-5.8,0.1-19.8,0.2-26.9,0.2c-0.7-24.7,6.4-34.7,6.4-39.6C17.4,54.9,10,30.7,10,30.7z"/>
		<path class="st0" d="M33.3,30.9c0,0,1.9,3.4,2.1,8.6c0.2,5.2,0,18.3,0,18.3l4.9,14.8l-1.5,3.6c0,0-4.8-11.1-6.6-15.5
			c-0.5-1.4-1.2-9.9-1-18.1C31.5,34.4,33.3,30.9,33.3,30.9z"/>
		<g class="st4">
			<g>
				<g>
					<g>
						<g>
							<defs>
								<path id="SVGID_1_" d="M10,30.7c0,0,4.9-2.7,12.1-3.7s11.3,3.9,11.3,3.9s-5.2,23-3.3,28.8s7.8,20.2,8,39.5
									c-5.8,0.1-19.8,0.2-26.9,0.2c-0.7-24.7,6.4-34.7,6.4-39.6C17.4,54.9,10,30.7,10,30.7z"/>
							</defs>
							<clipPath id="SVGID_2_">
								<use xlink:href="#SVGID_1_"  style="overflow:visible;"/>
							</clipPath>
							<g class="st5">
								<g>
									<path class="st6" d="M-88,97.1c-7.9-7.8-15.7-15.5-23.6-23.2c1.9-1.9,3.7-3.8,5.6-5.7c-0.1,0.7-0.5,1.7-0.2,2.1
										c2.3,2.5,4.8,4.8,7.2,7.2c2.8-2.9,5.4-5.6,7.9-8.1c-2.7-2.6-5.2-5.1-7.5-7.4c-2.4,2-4.7,3.8-6.9,5.7
										c7.7-7.9,15.4-15.8,23.1-23.6c-0.3,0.6-0.6,1.2-0.9,1.8c2.4,2.3,4.7,4.6,7,6.9c3-3,5.8-5.9,8.6-8.9c0.3-0.3,0.3-1.4,0-1.7
										c-2.2-2.1-4.5-4.2-6.7-6.3c0.9-0.9,1.8-1.8,2.7-2.7c2.4,2.4,4.8,4.8,7.3,7.1c2.7-2.7,5.1-5.2,7.7-7.9
										c-2.5-2.4-4.9-4.8-7.2-7.1c0.4-0.5,0.9-0.9,1.3-1.4c2.4,2.4,4.8,4.7,7.3,7.2c0.8-1.6,0.2-2.2-1-2.8c-0.8-0.4-1.4-1.1-2-1.6
										c0.1-0.1,0.2-0.2,0.3-0.3c0.3,0.2,0.5,0.3,0.8,0.5c0-0.1,0.1-0.2,0.1-0.2c-1.4-1.4-2.8-2.7-4.2-4.1
										c0.5-0.5,1.1-1.1,1.6-1.6c2.4,2.4,4.8,4.7,7.4,7.3c3-3.1,5.8-5.9,8.7-8.9c-0.2-0.2-0.3-0.5-0.6-0.7
										c-2.1-1.6-4.3-3.1-6.3-4.8c-0.8-0.6-1.2-0.5-1.9,0.1c-1.8,1.7-3.6,3.3-5.4,5c3.6-3.7,7.3-7.4,10.9-11.1
										c-0.2,0.5-0.4,1-0.6,1.4c2.4,2.3,4.7,4.6,7.2,7.1c2.5-2.5,4.9-5,7.6-7.8c-3-2-4.2-6-8.4-6.7c11.7-11.9,23.3-23.8,35-35.7
										c0.3-0.3,0.6-1.5,1.5-0.4c-2.5,2.5-4.9,5-7.3,7.5c2.5,2.7,4.8,5.2,7.5,8.1c2.7-2.7,5.2-5.3,7.7-7.8
										c1.6,1.6,3.3,3.2,4.9,4.8c-2.5,2.6-5.1,5.2-7.7,7.9C2.6-11.6,4.8-9.5,7-7.3c2.6-2.7,5.2-5.3,7.7-7.9c1.4,1.3,2.7,2.7,4.1,4
										c-2.5,2.6-5.1,5.2-7.6,7.8c2.8,2.7,5.4,5.3,8,7.9c2.7-2.6,5.4-5,8-7.4c0.6,0.6,1.3,1.2,1.9,1.9c-0.9,1-1.9,1.9-2.8,2.9
										c-0.1-0.1-0.1-0.1-0.2-0.2c0.2-0.3,0.5-0.7,0.7-1c-0.1,0-0.1-0.1-0.2-0.1C24.8,2.5,23,4.3,21,6.3c0.6,0.5,1.1,1,1.3,1.2
										c2.6-2.7,5.1-5.2,7.5-7.7c0.5,0.5,1.1,1.1,1.6,1.6c-2.5,2.5-4.9,5-7.3,7.4c2.6,2.6,4.9,4.8,7.3,7.2
										c0.7-0.7,1.2-1.3,1.8-1.8c1.8-1.9,3.7-3.8,5.5-5.6c1.4,1.3,2.7,2.7,4.1,4c-2.2,2.5-4.3,4.9-6.7,7.7
										c2.8,2.5,5.5,4.9,8.5,7.4c2.4-2.4,4.5-4.6,6.7-6.8c1.3,1.2,2.5,2.5,3.8,3.7c-2.2,2.3-4.5,4.6-6.6,6.8
										c2.7,2.7,5.3,5.2,7.9,7.7c2.3-2.4,4.5-4.6,6.6-6.8c0.7,0.7,1.4,1.4,2.2,2.1c-1.4,0.9-2,3.2-4.4,2.4
										c-0.4,0.9-0.8,1.8-1.3,2.7c-0.6,1-1.2,1.9,0.5,2.4c2-2.2,4-4.5,6-6.7c0.4,0.4,0.7,0.7,1.1,1.1c-2.1,2.1-4.2,4.3-6.5,6.6
										c2.6,2.5,5.2,5.2,8.1,8c2.2-2.2,4.3-4.4,6.5-6.6c1.4,1.4,2.9,2.8,4.3,4.3c-0.7,0.7-1.3,1.4-2,2c-1.8,1.4-3.7,2.8-5.8,4.4
										c3.1,3.1,6,5.9,9,8.8c2.2-2.5,4.4-4.9,6.6-7.4c1.6,1.6,3.3,3.2,4.9,4.8c-2.4,2.4-4.7,4.8-7.1,7.3c2.6,2.8,4.7,5.1,7,7.5
										c2.6-2.7,5.1-5.2,7.5-7.6c0.5,0.4,0.9,0.9,1.4,1.3c-2.4,2.5-4.8,4.9-7.2,7.4c0.1,0.1,0.2,0.2,0.2,0.2
										c0.4-0.3,0.7-0.6,0.8-0.6c-0.1,0.5-0.1,1.2-0.2,1.9c0.2,0.1,0.4,0.1,0.7,0.2c2.4-2.5,4.9-5,7.3-7.5
										c0.5,0.4,0.9,0.9,1.4,1.3c-2.5,2.5-4.9,5-7.3,7.5c2.5,2.7,4.8,5.2,7.5,8.1c2.7-2.7,5.2-5.3,7.7-7.8
										c1.6,1.6,3.3,3.2,4.9,4.8c-2.5,2.6-5.1,5.2-7.7,7.9c2.1,2.1,4.3,4.2,6.5,6.4c2.6-2.7,5.2-5.3,7.7-7.9
										c1.4,1.3,2.7,2.7,4.1,4c-2.5,2.6-5.1,5.2-7.6,7.8c2.8,2.7,5.4,5.3,8,7.9c2.7-2.6,5.4-5,8-7.4c0.6,0.6,1.3,1.2,1.9,1.9
										c-0.9,1-1.9,1.9-2.8,2.9c-0.1-0.1-0.1-0.1-0.2-0.2c0.2-0.3,0.5-0.7,0.7-1c-0.1,0-0.1-0.1-0.2-0.1c-1.8,1.9-3.6,3.7-5.6,5.7
										c0.6,0.5,1.1,1,1.3,1.2c2.6-2.7,5.1-5.2,7.5-7.7c0.5,0.5,1.1,1.1,1.6,1.6c-2.5,2.5-4.9,5-7.3,7.4c2.6,2.6,4.9,4.8,7.3,7.2
										c0.7-0.7,1.2-1.3,1.8-1.8c1.8-1.9,3.7-3.8,5.5-5.6c1.4,1.3,2.7,2.7,4.1,4c-2.2,2.4-4.3,4.9-6.5,7.4c2,1.9,3.9,3.9,5.9,5.8
										c-1.6,1.6-3.2,3.3-4.8,4.9c-1.6-1.6-3.2-3.2-4.8-4.8c-0.4-0.3-1.3-0.7-1.5-0.5c-2.6,2-5.1,4.1-7.7,6.2
										c2.4,2.6,4.4,4.8,6.4,7c-0.4,0.5-0.9,0.9-1.3,1.4c-2-2.2-4-4.5-6-6.7c-1.7,1.4-1.8,1.5-0.6,2.6c1.8,1.8,3.7,3.4,5.5,5.1
										c-0.5,0.5-1.1,1.1-1.6,1.6c-1.9-1.9-3.8-3.8-5.8-5.7c-0.4-0.4-1.3-0.8-1.7-0.6c-3,1.7-5.6,4-7.8,6.7c2.6,2.6,5.1,5,7.5,7.4
										c-1.4,1.4-2.8,2.9-4.3,4.3c-2.6-2.2-4.5-5.2-8-6.9c-1.8,2.2-3.4,4.4-5.2,6.6c-0.9,1-0.7,1.6,0.2,2.5
										c1.8,1.8,3.5,3.8,5.2,5.7c-1.2,1.2-2.3,2.4-3.5,3.5c-2.1-2.3-4.2-4.6-6.5-7.1c-2.7,3.2-5.2,6.1-7.7,9.1
										c2.2,2.2,4.2,4.1,6.2,6.1c-1.5,1.5-3,3.1-4.5,4.6c-1.9-2.1-3.9-4.2-5.9-6.5c-2.6,2.7-5,5.1-7.5,7.6c2,2.2,4,4.3,5.9,6.5
										c-1.3,1.4-2.7,2.7-4,4.1c-2-2.2-4-4.4-5.9-6.5c-2.9,3-5.6,5.7-8.2,8.4c2.1,2.3,4,4.4,5.9,6.5c-1.1,1.1-2.1,2.2-3.2,3.3
										c-2.1-1.8-4.2-3.7-6.4-5.6c-2.4,2.8-4.7,5.5-7.1,8.2c1.9,1.9,3.8,3.7,5.6,5.5c-0.6,0.6-1.2,1.3-1.9,1.9
										c-1.6-1.7-3.2-3.4-4.9-5c-0.4-0.3-1-0.4-1.5-0.6c-0.1,0.2-0.2,0.4-0.3,0.6c2,1.9,3.9,3.8,5.9,5.8c-0.4,0.5-0.9,0.9-1.3,1.4
										c-2-2-4.1-4-6.1-6c-2.6,2.7-5.1,5.2-7.7,7.9c2.1,2.1,4.1,4,6.1,6c-1.3,1.4-2.7,2.7-4,4.1c-0.7-0.6-1.3-1.3-2.1-1.9
										c-1.6-1.2-3.3-2.3-5-3.4c-5.2-5.2-10.5-10.3-15.7-15.5c0-0.6,0.2-1.6-0.1-1.9c-2.2-2.3-4.6-4.5-7-6.6c-0.3-0.3-1.1,0-1.6,0
										c-9.1-9-18.3-18-27.4-26.9c-0.1-0.2-0.1-0.5-0.2-0.7c-2-2.2-4-4.3-6-6.4c-0.2-0.2-0.7-0.1-1.1-0.1
										c-6.4-6.3-12.8-12.6-19.2-18.9c-1.4-1.6-2.7-3.3-4.2-4.8c-0.4-0.5-1.2-0.7-1.8-1c-1.4-1.3-2.7-2.7-4.1-4
										c0.1-0.3,0.3-0.8,0.1-0.9c-2.3-2.3-4.6-4.7-7-6.9c-0.2-0.1-0.7,0.1-1,0.1c-1.3-1.2-2.5-2.5-3.8-3.7c0-0.5,0.2-1.2,0-1.4
										c-1.2-1.3-2.4-2.6-3.7-3.7c-1.5-1.2-3.1-2.1-4.7-3.1c-5.2-5.2-10.5-10.3-15.7-15.5c0-0.6,0.2-1.6-0.1-1.9
										c-2.2-2.3-4.6-4.5-7-6.6C-86.7,96.8-87.5,97.1-88,97.1z M56.1,165.9c-2.8,2.8-5.5,5.6-8.2,8.4c3.2,3.1,6.3,6.2,9.5,9.3
										c2.7-2.7,5.2-5.3,7.6-7.8C62,172.5,59.1,169.3,56.1,165.9z M-43.5,69.1c-3-3.3-5.9-6.6-8.9-9.9c-2.8,2.8-5.5,5.6-8.2,8.4
										c3.2,3.1,6.3,6.2,9.5,9.3C-48.5,74.2-46,71.6-43.5,69.1z M-11.4,92c2.7,2.7,5.4,5.3,8.2,8c2.7-2.8,5.2-5.3,7.8-7.9
										c-2-1.8-3.9-3.4-5.8-5.1c-2.7-2.3-2.7-2.3-5.3-0.3c-0.1,0.1-0.3,0.1-0.6,0.3c0.8-1.1,1.5-2,2.2-2.9C-5,84-5.1,84-5.2,83.9
										c-1.3,1.2-2.6,2.4-3.9,3.7c-0.1-0.1-0.1-0.2-0.2-0.2c1.2-1.4,2.4-2.8,3.5-4.2c-0.2-0.1-0.3-0.3-0.5-0.4
										c-2.1,2.2-4.3,4.3-6.3,6.6c-0.6,0.7-0.9,1.9,0.6,2.4c0.5-0.4,0.9-0.8,1.4-1.2c0.1,0.1,0.1,0.2,0.2,0.3
										C-10.7,91.2-11,91.6-11.4,92z M18,79.1c-1.4-1.4-2.7-2.7-4-4c-0.1,0.1-0.1,0.1-0.2,0.2c0.6,1,1.3,2,1.9,3
										c-0.1,0.1-0.2,0.1-0.3,0.2c-2.4-2.1-4.9-4.3-7.5-6.6c-2.6,2.9-5.1,5.7-7.5,8.5C3,83,5.5,85.5,8.1,87.9
										c0.2,0.2,1.2-0.1,1.6-0.4C12.4,84.8,15,82,18,79.1z M14.8,90.1c-0.1-0.1-0.3-0.3-0.4-0.4c2.1-2.4,4.1-4.7,6.2-7.1
										c-2.5,2.2-4.9,4.4-7.3,6.6c-0.3,0.3-0.7,0.7-0.8,1.1c-0.1,0.7-0.3,1.8,0.1,2.2c2.5,2.6,5.1,5.1,7.7,7.6
										c2.7-2.8,5.3-5.4,7.8-8c-1.2-1.5-2.3-2.9-3.3-4.3c0.1-0.1,0.2-0.2,0.3-0.2c0.6,0.4,1.3,0.8,1.9,1.2
										c0.1-0.1,0.2-0.3,0.3-0.4c-1.8-1.8-3.6-3.5-5.5-5.4C19.4,85.4,17.1,87.7,14.8,90.1z M10.2,42.5c3.6,3.6,6.8,6.7,10,9.9
										c2.6-2.7,5-5.1,7.6-7.8c-2.8-2.8-5.5-5.5-8.3-8.1c-0.3-0.3-1.2-0.4-1.4-0.2C15.4,38.3,12.8,40.4,10.2,42.5z M8.6,64.5
										c2.4-2.4,4.9-5,7.3-7.4c-3.3-3.2-6.4-6.3-9.9-9.7c-2.1,2.7-3.9,5-5.7,7.3c-0.3,0.4-0.2,1.4,0.1,1.7
										C3,59.1,5.7,61.7,8.6,64.5z M32.2,159.4c3.1-3.1,5.9-6,8.8-9c0.2-0.3,0.3-1,0.1-1.3c-2-2.5-3.9-5-6.7-6.4
										c-3.2,3.2-6.2,6.4-9.4,9.6C27.5,154.8,29.8,157.1,32.2,159.4z M-11.7,68.1c2.9,2.8,5.6,5.5,8.4,8.3
										c2.6-2.7,5.3-5.4,8.1-8.2c-3.1-3-6-5.9-9-8.8C-6.7,62.2-9.1,65.1-11.7,68.1z M-19.3,92.8c-2.7-3-5.4-5.9-8.1-8.8
										c-2.9,3-5.6,5.7-8.3,8.5c2.9,2.9,5.6,5.6,8.5,8.3C-24.7,98.3-22.2,95.7-19.3,92.8z M-1.7,132.8c0.1-0.1,0.2-0.2,0.3-0.3
										c2.1,2,4.2,4.1,6.2,6.1c1.5-0.6,1.2-1.3,0.5-2.1c-1.4-1.5-2.8-3-4.3-4.6c-0.6-0.6-1.3-1.3-1.9-1.9
										c-0.2,0.2-0.4,0.3-0.5,0.5c1.1,1.1,2.2,2.2,3.3,3.3c-0.2,0.2-0.3,0.3-0.5,0.5c-1.1-1.1-2.2-2.1-3.4-3.3
										c-3.1,3.2-6.1,6.2-9.1,9.2c2.5,2.5,5,4.9,7.4,7.3c2.7-2.7,5.2-5.4,7.8-8C2.2,137.1,0.2,134.9-1.7,132.8z M-74.8,100.5
										c2.8-2.9,5.5-5.6,8.2-8.3c-0.9-0.8-1.7-1.3-2.4-1.9c-1.5-1.4-2.9-2.8-4.3-4.3c-1.3-1.4-2.4-1.5-3.8-0.1
										c-2,2.1-4.1,4.2-6.2,6.4C-80.2,95.1-77.4,97.9-74.8,100.5z M41.9,198.8c-0.9-0.7-1.6-1.2-2.2-1.7c-1.5-1.5-3.1-3-4.6-4.5
										c-1.1-1.2-2.2-1.6-3.5-0.2c-2.1,2.2-4.3,4.4-6.4,6.5c3,2.9,5.8,5.7,8.4,8.3C36.5,204.3,39.2,201.6,41.9,198.8z M21.5,131.7
										c-2.9,3-5.7,5.8-8.5,8.7c2.6,2.6,5.1,5,7.6,7.4c3.2-3.2,6.2-6.3,9.4-9.6C27.1,136.1,24.5,134,21.5,131.7z M20.1,76.8
										c2.8-2.8,5.1-5.1,7.3-7.5c0.2-0.3,0.3-1.2,0-1.4c-2.4-2.5-5-5-7.9-7.8c-2.6,2.6-5,5-7.3,7.5c-0.3,0.3-0.2,1.3,0.1,1.7
										C15,71.8,17.6,74.3,20.1,76.8z M-62.5,48.5c-3.1,3.2-5.9,6.1-8.7,8.9c2.7,2.7,5.3,5.2,7.9,7.7c2.7-2.8,5.3-5.4,8.1-8.2
										C-57.7,54.1-60.1,51.3-62.5,48.5z M53.2,163.6c-2.5-2.9-4.9-5.7-7.4-8.5c-2.9,3-5.5,5.6-8,8.2c-0.3,0.3-0.4,1.1-0.2,1.3
										c2.4,2.5,4.9,4.9,7.4,7.3C47.8,169.1,50.4,166.5,53.2,163.6z M-19,116c-2.7-2.7-5.4-5.3-8-7.9c-2.7,2.8-5.4,5.5-8.1,8.3
										c2.8,2.7,5.3,5.2,8,7.9C-24.4,121.5-21.8,118.8-19,116z M-15.4,112.4c2.8-2.9,5.5-5.6,8.3-8.5c-2.9-2.6-5.6-5-8.4-7.5
										c-2.7,2.8-5.3,5.4-7.9,8.1C-20.8,107.2-18.1,109.9-15.4,112.4z M-3.7,123.9c2.8-2.9,5.5-5.6,8.3-8.5
										c-2.6-2.6-5.2-5.1-7.6-7.5c-2.8,2.9-5.6,5.7-8.3,8.5C-8.6,119-6.2,121.5-3.7,123.9z M8.8,160.3c2.9-3,5.7-5.8,8.4-8.6
										c-2.7-2.6-5.1-5-7.8-7.7c-2.6,2.6-5.1,5.1-7.5,7.7c-0.3,0.3-0.3,1.4-0.1,1.7C4.2,155.8,6.5,158.1,8.8,160.3z M-62.4,88.9
										c2.2-2.2,4.4-4.4,6.5-6.7c0.4-0.5,0.7-1.7,0.4-2c-2.4-2.6-4.9-5-7.6-7.6c-2.6,2.7-5.1,5.2-7.8,7.9
										C-68.3,83.1-65.6,85.7-62.4,88.9z M68.2,76.3c2.6-2.6,5-5.1,7.5-7.6c-3-3-5.9-5.8-8.6-8.5c-2.1,2.1-4,4.1-5.9,6.1
										c-1,1-1.1,2,0,3.1C63.5,71.7,65.8,74,68.2,76.3z M37.5,187.2c2.7,2.7,5.4,5.3,8.2,8.1c2.3-2.2,4.7-4.4,6.9-6.6
										c0.4-0.4,0.6-1.4,0.4-1.6c-2.5-2.6-5.1-5.1-7.8-7.8C42.6,181.9,40.2,184.5,37.5,187.2z M-58.6,116.2
										c2.8,2.8,5.5,5.4,8.4,8.3c1.6-1.6,3-3.2,4.6-4.7c3.1-2.9,3.1-2.9,0.2-5.9c-0.3-0.3-0.5-0.6-0.8-0.8
										c-1.6-1.6-3.2-3.1-4.8-4.7C-53.6,111.1-56.1,113.6-58.6,116.2z M41.6,175.8c-2.8-2.8-5.4-5.3-8-7.9c-2.7,2.8-5.3,5.4-7.8,8
										c2.7,2.7,5.3,5.2,8,7.9C36.5,181,39,178.4,41.6,175.8z M-82.7,69.2c2.7,2.7,5.3,5.2,8,7.9c2.7-2.8,5.3-5.4,7.8-7.9
										c-2.8-2.8-5.4-5.3-8-7.9C-77.6,64-80.2,66.6-82.7,69.2z M39.4,32.6c-2.7-2.7-5.3-5.2-8.1-8c-2.8,2.4-5.4,4.6-8.1,7
										c3.1,3.1,5.9,5.8,8.7,8.6C34.4,37.7,36.9,35.2,39.4,32.6z M73.6,151.7c2.3,2.3,4.9,4.8,7.4,7.3c2.7-2.7,5.3-5.4,7.9-8
										c-2.6-2.6-5.2-5.1-7.6-7.5c-1.9,1.1-2.4,3.6-4.8,3.2c-0.2,0-0.6,0.3-0.7,0.6C75.1,148.7,74.4,150.1,73.6,151.7z
										 M-34.8,45.1c2.4,2.3,4.9,4.8,7.4,7.3c2.7-2.7,5.3-5.4,7.9-8.1c-2.6-2.6-5.2-5.1-7.6-7.5c-1.8,1.2-2.5,3.5-4.9,3.3
										c-0.2,0-0.5,0.4-0.7,0.6C-33.4,42.1-34,43.5-34.8,45.1z M-7.7,80.9c-2.8-2.8-5.6-5.5-8.4-8.3c-2.5,2.5-4.8,4.9-7.2,7.4
										c2.7,3,5.2,5.8,7.9,8.8C-12.9,86.2-10.4,83.6-7.7,80.9z M69.3,147.2c2.7-2.7,5.1-5.3,7.6-7.7c-2.6-2.9-5-5.6-7.6-8.6
										c-2.7,2.8-5.4,5.5-8.1,8.3C63.8,141.8,66.5,144.5,69.3,147.2z M-39.1,40.5c2.6-2.6,5.1-5.2,7.5-7.7c-2.5-2.9-5-5.6-7.6-8.6
										c-2.7,2.7-5.4,5.5-8.1,8.3C-44.6,35.1-41.9,37.8-39.1,40.5z M-7.5,55.8c-2.6-2.6-5.1-5-7.6-7.4c-2.8,2.8-5.5,5.6-8.2,8.4
										c2.5,2.5,5,4.9,7.6,7.4C-13,61.4-10.3,58.7-7.5,55.8z M100.9,162.5c-2.6-2.6-5.1-5-7.6-7.5c-2.7,2.8-5.4,5.6-8.2,8.4
										c2.6,2.5,5.1,5,7.6,7.5C95.5,168,98.1,165.3,100.9,162.5z M69.4,179.6c-2.7,2.4-5.1,4.7-7.5,7c-0.3,0.3-0.5,1.3-0.3,1.5
										c2.3,2.4,4.7,4.7,7.2,7.1c2.8-2.8,5.4-5.6,8.1-8.3C74.4,184.4,71.9,182,69.4,179.6z M-39.7,88.6c2.8-2.9,5.5-5.6,8.1-8.3
										c-2.6-2.5-5-4.9-7.5-7.4c-2.7,2.4-5.2,4.7-7.7,7.1c-0.3,0.2-0.2,1.2,0,1.5C-44.4,83.9-42.1,86.1-39.7,88.6z M3.1,20.6
										c-2.8-2.7-5.3-5.2-8.1-7.9c-2.6,2.2-5.3,4.4-8.1,6.9c3.1,3.1,6,5.9,8.8,8.6C-1.9,25.6,0.6,23.1,3.1,20.6z M95.3,126.1
										c3.2,3.1,6,5.9,8.8,8.6c2.5-2.6,5-5.1,7.4-7.6c-2.8-2.7-5.3-5.2-8-7.9C100.9,121.5,98.2,123.7,95.3,126.1z M32.1,88.1
										c2.8-2.8,5.4-5.5,7.9-8.1c-2.7-2.6-5.3-5.2-7.7-7.6c-2.4,2.5-4.6,4.7-6.8,7c-0.4,0.4-0.5,1.6-0.2,1.9
										C27.4,83.6,29.7,85.7,32.1,88.1z M-30.9,104.7c-2.9-2.8-5.6-5.5-8.3-8.2c-2.5,2.8-4.8,5.5-7.1,8.2c2.7,2.6,5.3,5.2,7.9,7.7
										C-35.9,109.9-33.5,107.4-30.9,104.7z M44.9,84.2c-2.9,2.9-5.5,5.6-8.2,8.4c2.6,2.6,5.1,5,7.6,7.5c2.8-2.8,5.4-5.5,8.2-8.4
										C49.9,89.2,47.5,86.8,44.9,84.2z M64.7,104.2c-2.6-2.6-5.1-5-7.7-7.5c-2.6,2.7-5.3,5.4-7.9,8.1c2.6,2.5,5.1,5,7.7,7.5
										C59.4,109.5,61.9,107,64.7,104.2z M17.6,175.9c-2.4-2.4-4.6-4.6-6.9-6.7c-0.3-0.3-1.2-0.5-1.4-0.3
										c-2.6,2.3-5.2,4.7-7.8,7.2c2.8,2.8,5.4,5.3,8.1,8C12.3,181.3,14.9,178.6,17.6,175.9z M55.3,48c-2.4,2.5-4.9,5-7.5,7.6
										c2.8,2.8,5.5,5.4,8.1,7.9c2.5-2.5,4.9-5,7.5-7.6C60.7,53.2,58,50.6,55.3,48z M-44.1,45.7c-2.8-2.8-5.6-5.5-8.3-8.2
										c-2.1,2.2-4.3,4.3-6.3,6.5c-0.3,0.3-0.4,1.2-0.2,1.4c2.5,2.6,5.1,5.1,7.7,7.6C-48.8,50.5-46.5,48.2-44.1,45.7z M56.1,144.1
										c-2.1,2.2-4.3,4.4-6.4,6.6c-0.2,0.3-0.3,1.2,0,1.4c2.5,2.5,5,5,7.6,7.5c2.4-2.5,4.7-4.8,7.2-7.4
										C61.6,149.5,58.9,146.9,56.1,144.1z M-7.1,151.7c-2.8-2.7-5.3-5.2-7.7-7.6c-2.5,2.5-4.8,4.8-7,7.2
										c-0.3,0.3-0.5,1.3-0.2,1.5c2.3,2.4,4.7,4.7,7,6.9C-12.2,156.9-9.6,154.2-7.1,151.7z M57.8,207.5c2.6-2.9,5-5.7,7.4-8.5
										c-2.6-2.5-5.1-5-7.5-7.4c-2.7,2.7-5.2,5.3-7.9,8C52.5,202.4,55.1,204.8,57.8,207.5z M-58.7,93c2.8,2.7,5.3,5.2,8,7.9
										c2.6-2.9,5-5.7,7.4-8.5c-2.6-2.6-5.1-5-7.6-7.4C-53.4,87.7-55.9,90.2-58.7,93z M-7.2,127.5c-2.7-2.4-5.2-4.7-7.9-7.1
										c-2.7,2.8-5.3,5.4-7.8,7.9c2.6,2.5,5,5,7.6,7.4C-12.6,133-10,130.4-7.2,127.5z M24.7,104.3c2.7,2.6,5.1,5,7.7,7.6
										c2.4-2.5,4.8-4.9,7.1-7.4c0.2-0.3,0.1-1.2-0.1-1.5c-1.9-2-3.9-3.8-5.7-5.7c-0.8-0.9-1.5-0.7-2.2,0
										C29.2,99.7,27,101.9,24.7,104.3z M-19.2,139.6c-2.6-2.5-5.1-5-7.6-7.5c-2.6,2.7-5.1,5.2-7.7,7.9c2.5,2.5,5,4.9,7.6,7.5
										C-24.4,144.8-21.9,142.3-19.2,139.6z M51.1,44.1c-2.7-2.7-5.3-5.2-7.9-7.8c-2.6,2.6-5.1,5.2-7.4,7.5
										c2.7,2.7,5.3,5.2,7.9,7.8C46.4,48.9,48.8,46.5,51.1,44.1z M44.7,108.7c-2.6,2.6-5,5.1-7.5,7.6c2.7,2.6,5.2,5.1,7.8,7.7
										c2.6-2.7,5.1-5.2,7.5-7.6C49.9,113.8,47.3,111.2,44.7,108.7z M-87,89c2.8-2.8,5.3-5.4,7.9-8.1c-2.5-2.5-4.9-4.9-7.6-7.4
										c-2.6,3-5,5.7-7.5,8.5C-91.7,84.3-89.4,86.6-87,89z M21.9,180c-2.7,3.1-5.1,5.8-7.6,8.6c2.5,2.4,4.8,4.7,7.1,7
										c2.7-2.8,5.3-5.4,8-8.2C26.9,185,24.6,182.6,21.9,180z M16.2,104.1c-2.6-2.6-5.2-5.1-7.9-7.7c-2.5,2.6-4.9,5-7.4,7.5
										c2.6,2.5,5.2,5.1,7.9,7.7C11.3,109.1,13.7,106.6,16.2,104.1z M64.8,125.9c-2.4-1.9-4.9-3.8-7.4-5.7c-0.2-0.1-0.8-0.1-1,0.1
										c-2.5,2.5-4.9,5-7.4,7.5c2.2,2.2,4.6,4.5,7.1,7C59,131.8,61.8,128.9,64.8,125.9z M116.2,132.1c-2.6,2.6-5,5.1-7.4,7.6
										c2.5,2.5,5,4.9,7.4,7.3c2.7-2.7,5.2-5.3,7.8-8C121.3,136.6,118.8,134.4,116.2,132.1z M7.8,25.4C5.2,28,2.7,30.6,0.3,33
										c2.5,2.5,5,4.9,7.4,7.3c2.7-2.7,5.1-5.3,7.8-8C12.9,30,10.4,27.8,7.8,25.4z M68.1,123.1c2.6-2.6,5-5.1,7.5-7.7
										c-0.4-0.4-0.7-1-1.2-1.5c-1.5-1.5-3-3.1-4.6-4.5c-0.5-0.4-1.2-0.6-2.1-1c0.1,0.4,0,0.3,0,0.2c-0.1-0.4,0-0.9-0.2-1.2
										c-0.1-0.2-0.6-0.1-1-0.1c0,0.4,0,0.8-0.1,1.1c0,0.2-0.2,0.4-0.4,0.6c-1.7,2.3-3.5,4.6-5.3,7
										C63.2,118.2,65.5,120.5,68.1,123.1z M-31.3,128.5c-2.8-2.7-5.3-5.2-7.9-7.8c-2.5,2.5-4.8,4.9-7.3,7.4
										c2.7,2.7,5.3,5.3,7.9,7.8C-36.1,133.4-33.7,131-31.3,128.5z M43.7,60c-2.6,2.6-4.9,5-7.1,7.2c2.8,2.7,5.4,5.3,8.2,8.1
										c2.5-2.6,4.8-4.9,7.1-7.2C49.2,65.3,46.5,62.7,43.7,60z M9.1,120c-2.9,2.9-5.5,5.6-8.2,8.4c2.4,2.3,4.7,4.7,7.1,7
										c2.8-2.8,5.5-5.6,8.2-8.4C13.9,124.6,11.6,122.4,9.1,120z M-10,164.4c2.7,2.7,5.2,5.1,7.6,7.5c2.4-2.4,4.6-4.7,6.8-7
										c0.2-0.2,0.2-1.1,0-1.3c-2.3-2.4-4.7-4.7-6.9-6.9C-5.2,159.5-7.6,162-10,164.4z M-86.8,49.7c-2.8,2.8-5.5,5.6-8,8.2
										c2.6,2.5,4.9,4.8,7.2,7c2.8-2.8,5.3-5.4,8-8.2C-82.2,54.2-84.6,51.9-86.8,49.7z M20.7,171.5c2.8-2.8,5.3-5.5,8-8.2
										c-2.6-2.6-4.9-4.9-7.1-7c-2.8,2.8-5.5,5.6-8,8.2C16.2,167.1,18.5,169.4,20.7,171.5z M87.6,80.4c-2.1-2.3-4-4.4-6-6.4
										c-0.3-0.3-1.4-0.6-1.7-0.3c-2.5,2.4-4.9,4.9-7.3,7.4c2.6,2.5,5,4.9,7.3,7.2C82.4,85.6,84.9,83.1,87.6,80.4z M-24.3-14.3
										c2.6,2.5,4.9,4.9,7.5,7.4c2.6-2.7,5.1-5.2,7.8-8c-2.6-2.2-5.1-4.5-7.9-6.9C-19.3-19.4-21.7-17-24.3-14.3z M84.2,92.4
										c2.5,2.5,4.9,4.8,7.5,7.3c2.6-2.7,5.1-5.2,7.9-8c-2.5-2.2-5.1-4.5-7.8-6.9C89.2,87.2,86.8,89.7,84.2,92.4z M24.6,55.7
										c2.8,2.8,5.4,5.3,7.9,7.8c2.5-2.5,4.7-4.8,6.9-7.1c-2.7-2.7-5.3-5.2-7.9-7.8C29,51.1,26.8,53.4,24.6,55.7z M53.4,211
										c-2.4-2.4-4.9-4.8-7.4-7.3c-2.6,2.6-5.1,5.2-7.9,8.1c2.6,2.3,5.1,4.5,7.8,6.9C48.4,216.1,50.8,213.6,53.4,211z M-62.6,112
										c2.5-2.6,5-5.1,7.5-7.7c-2.4-2.4-4.9-4.8-7.4-7.3c-2.6,2.6-5.1,5.2-7.9,8.1C-67.8,107.4-65.3,109.6-62.6,112z M-35.5,20.8
										c2.8,2.7,5.4,5.3,7.8,7.7c2.4-2.4,4.7-4.8,7-7.1c-2.6-2.8-4.9-5.5-7.4-8.2C-30.8,16-33.1,18.3-35.5,20.8z M80.8,135.2
										c2.4-2.4,4.6-4.7,7-7.1c-2.5-2.8-4.9-5.5-7.4-8.2c-2.7,2.8-5.1,5.2-7.4,7.6C75.7,130.1,78.3,132.7,80.8,135.2z
										 M122.7,115.8c-2.6-2.6-5.3-5.2-7.8-7.7c-2.4,2.4-4.7,4.8-7,7.1c2.6,2.6,5.1,5,7.8,7.7C118,120.6,120.2,118.3,122.7,115.8z
										 M6.4,1.5c-2.3,2.4-4.6,4.7-7,7.1c2.6,2.6,5.2,5.1,7.8,7.7c2.3-2.4,4.6-4.7,7-7.1C11.7,6.6,9.1,4.1,6.4,1.5z M44.4,132
										c-2.6,2.6-5,5.1-7.5,7.7c2.5,2.5,4.9,4.8,7.2,7.1c2.6-2.6,5-5.1,7.5-7.7C49.2,136.7,46.8,134.4,44.4,132z M64.5,80
										c-2.7-2.6-5.2-5.2-7.9-7.7c-2.2,2.2-4.3,4.3-6.3,6.5c-0.3,0.3-0.4,1.3-0.2,1.5c2.3,2.4,4.7,4.7,7.1,7.1
										C59.7,84.9,62,82.6,64.5,80z M68.4,156.3c-2.4,2.5-4.7,4.8-6.9,7.1c2.7,2.7,5.3,5.2,7.9,7.7c2.4-2.5,4.7-4.8,6.9-7.1
										C73.5,161.4,71,158.9,68.4,156.3z M-40.1,49.6c-2.5,2.5-4.7,4.8-6.9,7.1c2.7,2.7,5.4,5.3,7.9,7.8c2.4-2.5,4.7-4.8,6.9-7.1
										C-34.9,54.8-37.4,52.3-40.1,49.6z M32.9,120.7c-2.5,2.6-4.9,5-7.3,7.5c2.4,2.3,4.9,4.8,7.4,7.2c2.6-2.4,5.1-4.7,7.7-7.1
										C38,125.7,35.6,123.3,32.9,120.7z M-8.8,8.9c-2.5-2.5-4.9-4.9-7.5-7.3c-2.3,2.3-4.6,4.7-7.2,7.4c2.6,2.6,5.1,5,7.5,7.3
										C-13.6,13.8-11.3,11.4-8.8,8.9z M92.4,122.9c2.4-2.4,4.8-4.9,7.2-7.4c-2.5-2.5-4.9-4.9-7.4-7.3c-2.3,2.4-4.7,4.8-7.2,7.4
										C87.5,118.1,90,120.5,92.4,122.9z M28,115.6c-2.3-2.2-4.6-4.5-7.1-7c-2.5,2.6-4.9,5-7.5,7.6c2.4,2.3,4.6,4.5,7.1,7
										C22.9,120.7,25.3,118.2,28,115.6z M-28.3,4.5c2.6-2.6,4.9-5,7.4-7.5c-1.8-1.8-3.7-3.7-5.6-5.5c0.1-0.1,0.2-0.2,0.3-0.3
										c0.4,0.2,0.8,0.4,1.2,0.6c0.8-1.6,0.7-1.8-1-1.8c-0.4,0-0.8-0.5-1.3-0.8C-29.8-8.2-32.4-5.6-35-3
										C-32.8-0.4-30.6,2-28.3,4.5z M80.1,111.2c2.6-2.6,4.9-5,7.4-7.5c-1.8-1.8-3.7-3.7-5.6-5.5c0.1-0.1,0.2-0.2,0.3-0.3
										c0.4,0.2,0.8,0.4,1.2,0.6c0.6-1.2,1-2.3-1-1.8c-0.4,0.1-0.8-0.4-1.3-0.7c-2.5,2.6-5.1,5.2-7.7,7.8
										C75.7,106.3,77.8,108.6,80.1,111.2z M-15.6,40.3c2.3-2.3,4.4-4.5,6.7-6.9c-2.8-2.8-5.5-5.4-8.3-8.2
										c-2.1,2.5-4.1,4.9-6.1,7.4C-20.8,35.2-18.2,37.7-15.6,40.3z M91.2,131.9c-2.1,2.5-4.1,4.9-6.1,7.4c2.6,2.6,5.2,5.1,7.8,7.6
										c2.2-2.3,4.4-4.5,6.7-6.8C96.8,137.4,94.1,134.7,91.2,131.9z M76.2,92.2c-2.5-2.5-5-4.9-7.6-7.5c-2.4,2.4-4.6,4.7-7,7.1
										c2.6,2.6,5.1,5.1,7.6,7.5C71.5,97,73.8,94.6,76.2,92.2z M88.1,175.4c-2.6-2.5-5.1-5-7.5-7.4c-2.4,2.5-4.7,4.8-7,7.1
										c2.6,2.5,5,4.9,7.5,7.4C83.5,180.1,85.8,177.8,88.1,175.4z M-27.3,75.9c2.4-2.4,4.7-4.8,7-7.1c-2.5-2.5-5-5-7.5-7.4
										c-2.4,2.5-4.7,4.8-7,7.1C-32.3,70.9-29.9,73.3-27.3,75.9z M-11.7-2.2c2.3,2.2,4.6,4.6,7,6.9c2.4-2.5,4.8-4.9,7.2-7.3
										C0.3-5-1.8-7.3-4.1-9.8C-6.8-7.2-9.2-4.8-11.7-2.2z M103.7,111.3c2.4-2.5,4.8-4.9,7.2-7.3c-2.2-2.4-4.3-4.7-6.6-7.2
										c-2.6,2.7-5,5.1-7.5,7.7C99.1,106.7,101.4,109,103.7,111.3z M127.9,120.8c-2.4,2.5-4.7,4.8-7,7.2c2.4,2.3,4.7,4.6,7,6.9
										c2.5-2.6,4.9-5,7.4-7.6C132.8,125,130.4,123,127.9,120.8z M19.5,14.1c-2.4,2.5-4.7,4.8-7.1,7.2c2.4,2.3,4.6,4.6,7,6.9
										c2.5-2.6,4.9-5.1,7.5-7.6C24.3,18.4,21.9,16.3,19.5,14.1z M-4.6,38c-2.3,2.4-4.4,4.5-6.6,6.8c2.5,2.5,4.9,4.8,7.3,7.1
										c2.3-2.3,4.5-4.6,6.6-6.8C0.2,42.7-2.2,40.4-4.6,38z M111.1,151.8c-2.5-2.5-4.9-4.8-7.4-7.2c-2.3,2.3-4.3,4.4-6.6,6.7
										c2.5,2.4,4.9,4.8,7.4,7.2C106.7,156.3,108.9,154.1,111.1,151.8z M77.3,116.7c-2.6,2.7-5,5.1-7.5,7.7
										c0.4,0.4,0.8,0.8,1.5,1.5c2.4-2.5,4.8-4.9,7.2-7.4C78.2,118,77.9,117.6,77.3,116.7z M-37.2,19.2c2.4-2.5,4.8-4.9,7.3-7.4
										c-0.3-0.4-0.7-0.9-1.3-1.8c-2.6,2.6-5,5.1-7.5,7.7C-38.3,18.1-37.9,18.5-37.2,19.2z M70.3,106.6c2,2.4,3.9,4.7,5.8,6.9
										c0.3,0.3,1,0.3,1.6,0.4c0.2-0.7,0.7-1.8,0.4-2.1c-2-2.2-4.1-4.2-6.3-6.3C71.5,105.7,71,106.1,70.3,106.6z M-31.7,7.6
										c1.5-0.8,2.1-1.8,1.4-2.5c-2-2.1-4.2-4.1-6.4-6.3C-37-0.9-37.6-0.5-38.1,0C-35.9,2.6-33.8,5.1-31.7,7.6z M79.6,160.9
										c-2.8-2.7-5.3-5.3-8-7.9c-0.5,0.5-0.9,0.9-1.5,1.5c2.7,2.6,5.2,5.1,7.9,7.7C78.4,162,78.8,161.6,79.6,160.9z M-28.8,54.2
										c-2.8-2.7-5.3-5.3-8-7.8c-0.5,0.5-0.9,0.9-1.5,1.5c2.7,2.6,5.2,5.1,7.8,7.7C-30.1,55.3-29.6,54.9-28.8,54.2z M124.4,117.4
										c-2.4,2.5-4.7,4.8-7.1,7.2c0.6,0.6,1.1,1.1,1.6,1.5c2.4-2.4,4.7-4.8,7.1-7.2C125.4,118.3,124.9,117.9,124.4,117.4z
										 M15.9,10.7c-2.4,2.4-4.7,4.8-7,7.2c0.6,0.6,1.1,1.1,1.6,1.5c2.4-2.4,4.7-4.8,7-7.2C16.9,11.7,16.4,11.2,15.9,10.7z
										 M29.5,42.8c0.3-0.2,0.5-0.5,0.8-0.7c-2.5-3.2-5.1-6.3-8.3-8.8c-1.3,0.8-1.5,1.5-0.3,2.5C24.4,38,26.9,40.4,29.5,42.8z
										 M7.8,166.9c-0.5-0.5-0.9-0.9-1.6-1.6c-2.4,2.7-4.8,5.4-7.2,8.1c0.5,0.5,0.9,0.9,1.2,1.2C2.8,172.1,5.3,169.6,7.8,166.9z
										 M-41,42.5c-2.8-2.8-5.6-5.5-8.3-8.2c-1.3,0.6-0.9,1.4,0,2.1c0.5,0.4,1,0.7,1.3,1.2c1.7,2.2,3.4,4.4,5.2,6.7
										C-41.9,43.4-41.4,42.9-41,42.5z M67.5,149.2c-2.8-2.7-5.6-5.5-8.3-8.2c-1.3,0.7-0.8,1.4,0,2.1c0.5,0.4,1,0.8,1.4,1.3
										c1.7,2.1,3.4,4.2,5.2,6.4C66.6,150.1,67.1,149.6,67.5,149.2z M126.4,136.3c-2.2-2.1-4.2-4.2-6.3-6.1
										c-0.3-0.3-1-0.2-1.5-0.2c0,0.5-0.2,1.1,0,1.4c0.5,0.8,1.3,1.4,1.9,2.1c0.7,0.9,1.3,1.9,2.2,2.7c0.7,0.6,1.7,0.9,2.6,1.4
										C125.6,137.1,126,136.7,126.4,136.3z M18,29.5c-0.8-0.7-1.4-1.4-2.1-2.1c-1.5-1.4-2.9-2.8-4.4-4.1c-0.3-0.2-1,0-1.5-0.1
										c0,0.4-0.1,1,0.1,1.2c0.6,0.8,1.2,1.4,1.9,2.1s2,1.4,2.1,2.2c0.3,1.8,2.2,0.7,2.5,2.1C17.1,30.4,17.5,30.1,18,29.5z
										 M-26.3,59.6c2.4,2.4,4.6,4.6,6.9,6.7c0.4,0.3,1.3,0,2.3,0c-2.9-2.8-5.3-5.3-7.9-7.8C-25.3,58.8-25.7,59.1-26.3,59.6z
										 M82.2,166.3c2.4,2.3,4.5,4.5,6.8,6.6c0.3,0.3,1.1,0.1,1.7,0.1c-0.2-0.5-0.2-1.1-0.6-1.5c-2.1-2.2-4.3-4.3-6.5-6.5
										C83.1,165.5,82.7,165.8,82.2,166.3z M-61.1,95.5c0,0.2-0.1,0.3-0.1,0.5c2.5,2.5,5,4.9,7.5,7.4c0.2-0.2,0.4-0.3,0.5-0.5
										c-1.3-1.4-2.5-2.8-3.9-4.3c0.5,0.1,0.9,0.2,1.3,0.3c-1.5-2.9-2.3-3.5-3.2-2.7C-59.8,95.9-60.4,95.7-61.1,95.5z M52.7,205.5
										c-1.3-2.9-2.3-3.6-3.4-2.4c-0.6-0.4-1.1-1.9-2.2-0.2c2.2,2.1,4.2,4.2,6.4,6.3c0.4,0.4,1,0.6,1.5,0.9
										c0.1-0.2,0.3-0.4,0.4-0.6c-1.3-1.3-2.6-2.6-3.9-3.8c0.1-0.1,0.1-0.2,0.2-0.2C52,205.3,52.3,205.4,52.7,205.5z M95.6,149.4
										c2.2-2,4.4-4.1,6.7-6.2c-0.6-0.6-1-1-1.5-1.5c-2,2-3.8,3.9-5.7,5.8C94.2,148.4,94.5,148.9,95.6,149.4z M-13.6,42.6
										c0.3,0,0.5,0.1,0.8,0.1c2.2-2,4.4-4.1,6.6-6.2c-0.5-0.6-0.9-1-1.4-1.5c-2,2-4,4-5.8,6C-13.7,41.3-13.5,42-13.6,42.6z
										 M10.5,161.9c0.1,0.2,0.2,0.3,0.2,0.5c0.5-0.2,1.2-0.2,1.5-0.6c2.4-2.4,4.7-4.8,7-7.2c0.3-0.3,0.1-0.9,0.2-1.8
										C16.2,156.1,13.4,159,10.5,161.9z M-14.5,119.6c2.5,2.5,4.8,4.8,7.1,7c0.2,0.2,0.6,0.3,0.8,0.3c0.1,0,0.3-0.3,0.4-0.6
										c0.2-1.3-1.7-4-2.9-3.9c-1.3,0.1-1.6-0.4-1.9-1.5C-11.2,119.6-12.8,119-14.5,119.6z M53.1,137.7c0.8-1.5,0.2-2.2-1-2.8
										c-0.8-0.4-1.4-1.1-2-1.6c0.1-0.1,0.2-0.2,0.3-0.3c0.3,0.2,0.5,0.3,0.8,0.5c-0.8-1.3-1.9-2.2-2.8-3.2
										c-1-1.3-1.7-0.9-2.5,0.4C48.3,133,50.7,135.3,53.1,137.7z M35.5,189.1c-0.2,0.1-0.4,0.2-0.5,0.4c2.3,3,4.6,5.9,6.8,8.9
										c0.3-0.1,0.6-0.2,0.9-0.3c0-0.6,0.2-1.5-0.1-1.8C40.3,193.9,37.9,191.5,35.5,189.1z M-73,82.5c-0.1,0.1-0.3,0.3-0.4,0.4
										c2.3,3,4.5,5.9,6.8,8.9c1.7-0.8,1.3-1.6,0.6-2.3c-1.8-1.8-3.6-3.5-5.3-5.3C-71.9,83.5-72.5,83-73,82.5z M114.4,130.5
										c-0.4-1.6-1.6-0.7-1.9-0.4c-2,1.9-3.9,3.9-5.7,5.9c-0.3,0.4-0.1,1.2-0.2,1.8c0.2,0,0.4,0.1,0.6,0.1c1-1,2-2,3.1-3.2
										c-0.7,0.2-1,0.4-1.4,0.4c-0.2,0-0.5-0.2-0.7-0.3C110.2,133.4,112.3,132,114.4,130.5z M-0.7,28.6c2.5-1.8,4.6-3.3,7.2-5.1
										c-0.9-0.2-1.4-0.4-1.8-0.3c-3,1.4-4.7,4-6.6,6.5c-0.2,0.3,0,1,0.1,2.1c1.4-1.5,2.4-2.5,3.4-3.5C1,28.4,0.4,28.4-0.7,28.6z
										 M-35.9,138.5c2.6-2.6,5.1-5.2,7.8-7.9C-30.5,130.1-36.4,136.4-35.9,138.5z M41.8,53.6c0.1-0.1,0.2-0.3,0.3-0.4
										c-2.4-2.3-4.7-4.7-7.1-6.9c-0.3-0.3-1,0-1.6,0.1c0,0.2,0,0.4,0,0.6C36.1,49.2,38.9,51.4,41.8,53.6z M60.2,93.1
										c-0.2,0.2-0.4,0.5-0.6,0.7c2.3,2.2,4.5,4.5,6.8,6.7c-0.1,0.1-0.3,0.3-0.4,0.4c-1-0.7-2-1.5-3-2.2c-0.1,0.1-0.1,0.2-0.2,0.3
										c1.1,1.1,2.3,2.3,3.5,3.4c0.8-0.6,1.9-1.3,0.8-2.5C64.9,97.6,62.5,95.4,60.2,93.1z M-41.2,115.2c0.2-0.2,0.4-0.3,0.6-0.5
										c-2.5-2.7-4.9-5.4-7.5-8c-0.2-0.2-0.8,0.2-1.4,0.3C-46.6,110-43.9,112.6-41.2,115.2z M42,202.5c-2.2,2-4.4,4.1-6.7,6.2
										c0.1,0.2,0.2,0.5,0.3,0.7c0.5-0.2,1.3-0.1,1.6-0.5C38.9,206.8,42.4,206.1,42,202.5z M-73.1,102c0.1,0.2,0.1,0.4,0.2,0.6
										c0.5,0,1.3,0.2,1.4-0.1c1.7-2.3,5.5-2.9,5.1-6.6C-68.6,97.8-70.8,99.9-73.1,102z M35.6,66.5c0.7-0.6,1.3-0.9,1.7-1.3
										c1.6-1.7,3.1-3.5,4.6-5.3c0.3-0.4,0.4-0.9,0.5-1.4c-0.5,0.2-1.1,0.3-1.5,0.6c-1.1,1-2.3,2-3.2,3.3
										C36.8,63.5,36.4,64.9,35.6,66.5z M35.5,118.3c-0.2,0.1-0.3,0.3-0.5,0.4c2.3,2.5,4.6,5,6.9,7.4c0.2,0.2,1-0.2,1.9-0.5
										C40.8,122.9,38.1,120.6,35.5,118.3z M-77.5,79.5c0.1-0.2,0.2-0.3,0.3-0.5c-2.3-2.3-4.6-4.6-7-6.8c-0.2-0.2-0.7-0.1-1.1-0.1
										c0,0.3,0,0.7,0.1,0.8C-82.6,75.1-80,77.3-77.5,79.5z M30.9,186.1c0.1-0.1,0.2-0.3,0.4-0.4c-2.4-2.3-4.7-4.6-7.1-6.9
										c-0.2-0.2-0.6,0-1,0c0,0.3-0.1,0.7,0.1,0.8C25.8,181.7,28.4,183.9,30.9,186.1z M-1.1,124.6c2.8-2.2,5.5-4.4,8.5-6.8
										C5.5,117.1,5.5,117.1-1.1,124.6z M-36,141.6c-0.1,0.1-0.3,0.3-0.4,0.4c1.6,3.4,5.2,4.8,7.5,7.4c0.1-0.1,0.2-0.2,0.4-0.3
										C-31,146.5-33.5,144-36,141.6z M94.7,106.2c0,0.2-0.1,0.4-0.1,0.6c2.8,1.6,4.1,4.9,7.2,6.2c-0.9-1.4-2-2.5-3.1-3.6
										c-0.9-1-1.8-2.1-2.7-3.1C95.7,106.1,95.2,106.2,94.7,106.2z M-13.7-1.2c0,0.4,0.1,0.8,0.1,1.2c2.3,2.2,4.5,4.5,6.8,6.7
										c0.1-0.1,0.3-0.3,0.4-0.4c-2-2.2-4-4.5-6.1-6.7C-12.9-0.8-13.4-1-13.7-1.2z M46.1,53.5c0.2,0.2,0.3,0.3,0.5,0.5
										c2.5-2.5,4.9-5,7.4-7.5c-0.1-0.1-0.3-0.3-0.4-0.4C50.5,47.9,48.7,51.1,46.1,53.5z M-16.6,95.9c-0.2-0.2-0.4-0.5-0.6-0.7
										c-1.1,0.9-2.3,1.7-3.2,2.7c-0.7,0.8-0.9,1.9-1.6,2.8s-1.5,1.6-2.3,2.4c0.1,0.1,0.2,0.2,0.3,0.3
										C-21.5,100.9-19,98.4-16.6,95.9z M88.3,85.2c-0.1-0.2-0.3-0.4-0.4-0.6c-2.1,1.7-4.3,3.3-6.4,5c0.2,0.3,0.4,0.5,0.6,0.8
										C84.1,88.7,86.2,86.9,88.3,85.2z M91,152.5c-0.2,0-0.3,0-0.5,0c-2.4,2.8-4.9,5.6-7.3,8.4c2.8-2.3,5.3-4.8,7.7-7.4
										C91.1,153.4,91,152.9,91,152.5z M-25.3,54.2c0.1,0.1,0.2,0.2,0.3,0.3c2.6-2.7,5.3-5.4,8-8.2c-0.3-0.2-0.7-0.5-0.7-0.5
										C-20.3,48.7-22.8,51.4-25.3,54.2z M16.1,108c-0.1-0.1-0.3-0.3-0.4-0.4c-1.8,1.8-3.6,3.7-5.4,5.5c0.1,0.1,0.3,0.3,0.4,0.4
										C12.5,111.6,14.3,109.8,16.1,108z M-52.1,126c-1.9-1.9-3.9-3.8-5.8-5.7C-56,122.3-55,125.1-52.1,126z M-10.9,73.3
										c0.1-0.1,0.2-0.2,0.3-0.3c-1-1-1.9-1.9-3-2.9c-0.3,0.4-0.5,0.7-0.7,1C-13.2,71.8-12.1,72.6-10.9,73.3z M95,176.8
										c-0.2,0-0.4,0-0.6,0.1c0.1,0.5-0.1,1.2,0.2,1.4c1,0.6,2,1.1,3.1,1.6c0-0.1,0.1-0.2,0.1-0.3C96.8,178.7,95.9,177.7,95,176.8
										z M4.1,74.5c-1.7,1.4-3.5,2.9-5.2,4.4C-0.3,79.5,1.7,78,4.1,74.5z M-46,24.7c0.1,0.1,0.2,0.3,0.3,0.4
										c1.3-1.3,2.6-2.7,3.9-4c-0.1-0.1-0.2-0.2-0.4-0.4C-43.4,22.1-44.7,23.4-46,24.7z M62.4,131.4c0.1,0.1,0.2,0.3,0.3,0.4
										c1.3-1.3,2.6-2.7,3.9-4c-0.1-0.1-0.2-0.2-0.3-0.3C65,128.7,63.7,130.1,62.4,131.4z M-24.9,126.4c0.1,0.1,0.3,0.3,0.4,0.4
										c1.8-1.7,3.6-3.3,5.4-5c-0.1-0.1-0.1-0.2-0.2-0.2C-21.2,123.2-23.1,124.8-24.9,126.4z M-21.8-8.6c0.1-0.2,0.2-0.3,0.4-0.5
										c-1.2-1-2.5-2-3.7-3.1c-0.1,0.2-0.3,0.4-0.4,0.6C-24.3-10.6-23.1-9.6-21.8-8.6z M83.3,94.5c-0.1,0.2-0.3,0.4-0.4,0.6
										c1.3,1,2.5,2,3.8,3c0.1-0.2,0.2-0.3,0.3-0.5C85.8,96.5,84.6,95.5,83.3,94.5z"/>
								</g>
							</g>
						</g>
					</g>
				</g>
			</g>
		</g>
		<path class="st0" d="M39.8,71.3c0.9,2.6,1.6,4.8,1.5,6c-0.2,3.6-0.2,6.7-1.1,7c-0.9,0.3-1-6.3-1-6.3s-0.6,2.1-1.5,1.5
			s0.8-5.5,0.8-5.5"/>
		<g id="first_x5F_lady_x5F_head">
			<path class="st1" d="M8.3,52.6c0,0-12.2-6.6-7.8-16.6c4.4-9.9,10.3-7.3,9.3-14S8.3,6,15.5,2.8s12.2-1.2,14.8,3.5
				C33,11,29.6,25,31.8,27.7c2.3,2.7,8.6,5.3,8.7,14.3S20.1,58.3,8.3,52.6z"/>
			<path class="st0" d="M14.7,6.1c0,0,0.1,10.4,1.9,13.3c0.8,1.3,3.4,2.6,3.5,3.9c0.2,1.8-0.2,2.6-0.2,3.9c0,2.2,5,3.1,4.9,0
				c0-1.6,0.2-2.5,0.3-3.9c0.2-1.3,1.8-2.6,2.6-3.9c1.7-2.7,0.8-8.1,0.8-12.6C28.6,2.2,14.6,0.2,14.7,6.1z"/>
			<path class="st1" d="M12.9,5.3c0,0,13.6,7,17.6,5.1c4-1.8-1-8.8-6-9.6C19.5-0.1,12.9,5.3,12.9,5.3z"/>
			<path class="st1" d="M14.9,13c0,0,2.4-1.8,2.7-6c0.4-4.2-4.8-1.7-4.8-1.7L14.9,13z"/>
			<g>
				<path class="st7" d="M20.6,14.1c0,0.2,0.2,0.4,0.4,0.4c0.2,0,0.4-0.2,0.4-0.4s-0.2-0.4-0.4-0.4S20.6,13.9,20.6,14.1z"/>
				<path class="st7" d="M26.3,14.1c0,0.2,0.2,0.4,0.4,0.4c0.2,0,0.4-0.2,0.4-0.4s-0.2-0.4-0.4-0.4C26.5,13.7,26.3,13.9,26.3,14.1z"
					/>
			</g>
			<path class="st8" d="M23.3,19.3c-1,0-1.6-0.7-1.7-0.7c-0.1-0.1-0.1-0.2,0-0.2c0.1-0.1,0.2-0.1,0.2,0c0.1,0.1,1.4,1.3,2.9,0
				c0.1-0.1,0.2,0,0.2,0c0.1,0.1,0,0.2,0,0.2C24.3,19.2,23.8,19.3,23.3,19.3z"/>
			<path class="st8" d="M18.7,13.4L18.7,13.4c-0.2-0.1-0.2-0.2-0.1-0.2c0,0,0.7-0.6,2.5-0.6c0.1,0,0.1,0.1,0.1,0.2S21.1,13,21,12.9
				C19.3,12.9,18.7,13.4,18.7,13.4C18.8,13.4,18.8,13.4,18.7,13.4z"/>
			<path class="st8" d="M27.6,12.9L27.6,12.9c-0.9-0.7-2.4-0.3-2.4-0.3c-0.1,0-0.2,0-0.2-0.1s0-0.2,0.1-0.2s1.6-0.4,2.5,0.4
				C27.7,12.7,27.7,12.8,27.6,12.9C27.7,12.9,27.7,12.9,27.6,12.9z"/>
			<path class="st8" d="M23.7,17.1c-0.1,0-0.1,0-0.1-0.1s0-0.2,0.1-0.2c0.5-0.1,0.8-0.4,0.9-0.5c-0.2-0.1-0.7-0.5-0.8-1.2
				c-0.2-1,0.5-2.5,0.5-2.5c0-0.1,0.1-0.1,0.2-0.1s0.1,0.1,0.1,0.2c0,0-0.7,1.4-0.5,2.4c0.2,0.9,0.8,1.1,0.8,1.1l0.2,0.1L25,16.5
				C24.9,16.4,24.6,16.9,23.7,17.1L23.7,17.1z"/>
		</g>
		<path class="st9" d="M41.9,72.8c0.5,0.9-4.9,2.7-5.4,1.5c-2.6-6-5.9-12.4-5-12.7c1.3-0.4,7.7,22.6,6.1,26.6
			c-0.9,2.2-3.9,2-5.9,0.8c-4.1-2.4-1.4-10.2-3.5-24.4c-1.6-10.2-3.7-9.5-3.3-15.6c0.6-8.6,5.1-13.3,2.3-19.1
			c-0.4-0.9-0.7-2.1-3.1-2.6c-2.1-0.4-6,0-6.2,0.7c-0.6,2.3,0.9,5.1,2.3,7.8c2.4,4.8,1.9,8.5,2,16.4C22.5,75.3,23.7,81,22.4,88
			c-0.6,3.1-10.2,2.8-12.6,0.4c-0.7-0.7,4.4-22.3,5.5-24.3c0.8-1.4-0.1-13.8-0.4-11.6c-0.2,1.1,0.3,5-0.4,7.6
			c-1.1,4.1-3.7,11.7-4.2,13.4c-0.4,1.3-4.5,1.2-4.5,0.4c-0.1-1.3,4-18.9,3.8-20.3C8,42.9,8.2,31.4,10.4,30.1
			c7.3-4.4,18-5.1,23.8,1.1c3.6,3.8,1.9,24.2,2.9,27.7C39,65.8,41,71.1,41.9,72.8z"/>
		<path class="st0" d="M15.1,12.8c0,0-2.6-0.6-2,1.9s1.9,2.7,3.1,2.1S15.1,12.8,15.1,12.8z"/>
	</g>
	<g id="second_x5F_lady_x5F_bird">
		<path class="st10" d="M113.5,31.6l8.5-3.1c0,0-0.5,4.8-3.2,5.4s-4.3,0.3-4.3,0.3L113.5,31.6z"/>
		<path id="second_x5F_lady_x5F_bird_x5F_left-wing" class="st11" d="M119.9,37.8l-6.9-7.2l-2,2c0,0-1.5,2,0.9,4.5
			S119.9,37.8,119.9,37.8z"/>
		<polygon class="st11" points="115.1,32.9 123.7,41.9 120.8,41.4 		"/>
		<polygon class="st12" points="107.2,27.9 109.6,28.4 109.1,29.7 		"/>
		<path class="st11" d="M108.8,29.3c-0.3,1.5,0.6,3,2.1,3.3s3-0.6,3.3-2.1s-0.6-3-2.1-3.3C110.7,26.9,109.2,27.8,108.8,29.3z"/>
		<path class="st12" d="M110.4,28.9c-0.1,0.2,0.1,0.5,0.3,0.5c0.2,0.1,0.5-0.1,0.5-0.3c0.1-0.2-0.1-0.5-0.3-0.5
			C110.7,28.5,110.5,28.7,110.4,28.9z"/>
		<path id="second_x5F_lady_x5F_bird_x5F_right_x5F_wing" class="st11" d="M113.6,31.6H125c0,0-2,3.8-5.2,4.4c-3.2,0.5-5.6-2-5.6-2
			L113.6,31.6z"/>
		<polygon class="st12" points="114.3,39.2 114.6,39 113.5,37.4 113.3,37.5 		"/>
		<polygon class="st12" points="113.2,39 113.5,38.8 112.4,37.1 112.2,37.3 		"/>
	</g>
	<g id="love_x5F_symbol">
		<g>
			<path class="st13" d="M111.9,21.4c0.3-0.4,0.6-0.8,0.9-1.3c0.4-0.6,0.7-1.2,0.9-1.9c0.1-0.3,0.2-0.6,0.2-0.9s-0.1-0.6-0.3-0.8
				c-0.4-0.3-1-0.1-1.4,0.1c-0.6,0.4-1.1,1.1-1.3,1.9c-0.3-0.8-1-1.4-1.9-1.4c-0.8,0-1.6,0.7-1.6,1.5c0,0.7,0.4,1.3,0.9,1.8
				c0.6,0.7,1.4,1.3,2.2,1.7c0.2,0.1,0.4,0.2,0.7,0c0.1-0.1,0.2-0.2,0.3-0.3C111.6,21.8,111.8,21.6,111.9,21.4z"/>
		</g>
	</g>
	<g id="second_x5F_lady_x5F_on_x5F_left">
		<g id="second_x5F_lady_x5F_head">
			<path class="st14" d="M67.7,21.2c0.4-3.8,1.5-6.3,0.9-11.7c-1-8.9-12.3-9-16.3-3c-2.1,3.1-2.1,6.1-1.5,9.6
				c0.4,2.3,2.5,4.9,1.7,7.3C51.5,26.3,67.3,25,67.7,21.2z"/>
			<path class="st15" d="M55,7c-0.9,3.7,0,1.3,0,7.9c0,3.5,4,6.7,7.2,6.4c2.8-0.2,4.9-3.5,4.9-5.7c0-4.7-0.1-6.5-0.3-7.4L55,7z"/>
			<path class="st14" d="M54.8,12.6c0,0,1.8-1.4,2.4-4.8c1.8,2.8,7.8-0.5,10.1,3.6c0.2-0.9,1.7-1.8-0.6-4.9
				C65.2,4.3,51.2,1.4,54.8,12.6z"/>
			<path class="st7" d="M61.2,12.4c0,0.3-0.2,0.5-0.5,0.5s-0.5-0.2-0.5-0.5s0.2-0.5,0.5-0.5S61.2,12.1,61.2,12.4z"/>
			<path class="st7" d="M66.5,12.3c0,0.3-0.2,0.5-0.5,0.5s-0.5-0.2-0.5-0.5s0.2-0.5,0.5-0.5C66.2,11.8,66.5,12.1,66.5,12.3z"/>
			<path class="st16" d="M60.1,15.1c-1.4,0-2.5-1.1-2.5-2.5s1.1-2.5,2.5-2.5s2.5,1.1,2.5,2.5C62.5,13.9,61.4,15,60.1,15.1z M60,10.3
				c-1.2,0-2.2,1-2.2,2.2s1,2.2,2.2,2.2s2.2-1,2.2-2.2S61.2,10.3,60,10.3z"/>
			<path class="st16" d="M66,15c-1.4,0-2.5-1.1-2.5-2.5S64.6,10,66,10s2.5,1.1,2.5,2.5S67.4,15,66,15z M66,10.3
				c-1.2,0-2.2,1-2.2,2.2s1,2.2,2.2,2.2s2.2-1,2.2-2.2S67.2,10.3,66,10.3z"/>
			<path class="st16" d="M63.6,12.7h-1.2c-0.1,0-0.2-0.1-0.2-0.2s0.1-0.2,0.1-0.2h1.2c0.1,0,0.2,0.1,0.2,0.2S63.7,12.7,63.6,12.7z"
				/>
			<path class="st16" d="M57.7,12.7h-2.9c-0.1,0-0.2-0.1-0.2-0.2s0.1-0.2,0.1-0.2h2.9c0.1,0,0.2,0.1,0.2,0.2
				C57.8,12.7,57.8,12.7,57.7,12.7z"/>
			<path class="st15" d="M55.6,13.5c0,0-0.8-1.4-2.2-1C52,13,52.9,16.4,54,16.6s1.6-0.7,1.6-0.7V13.5z"/>
			<path class="st8" d="M63.2,16.3c-0.2,0-0.3,0-0.3,0c-0.1,0-0.1-0.1-0.1-0.2S62.9,16,63,16c0,0,1.1,0.1,1.2-0.4
				c0-0.1-0.1-0.2-0.2-0.3c-0.3-0.3-0.6-0.6-0.6-1.1c0-0.1,0.1-0.2,0.1-0.2c0.1,0,0.2,0.1,0.2,0.2c0,0.4,0.3,0.7,0.5,0.9
				c0.2,0.2,0.3,0.4,0.3,0.6C64.4,16.2,63.6,16.3,63.2,16.3z"/>
			<path class="st12" d="M61.8,17.4c0.4,0.1,1.1,0.3,1.6,0.3c0.5-0.1,1-0.2,1.3-0.4c0.3-0.2,0.4,0,0.3,0.3s-0.9,0.9-1.6,0.9
				c-0.6,0-1.5-0.2-1.8-0.6C61.3,17.5,61.5,17.4,61.8,17.4z"/>
		</g>
		<path class="st9" d="M38.5,142.6c0,0,3.4,3,3.9,4.9s2.3,4.2,1.1,6.3c-3.9-0.9-5.6-4.1-5.6-4.1s-1.3-3.3-1.3-4.5
			C36.5,144,38.5,142.6,38.5,142.6z"/>
		<path class="st17" d="M41.9,117.2c-0.4,1.2-0.7,2.4-0.9,3.6c-0.6,3.9-2.5,22.1-2.8,23.4c-0.3,1.2,1,4.9,1,4.9l2.3,1.6l-1.2-4.6
			c0-0.9,4.7-14.7,7.7-23.5"/>
		<path class="st9" d="M76.9,153.5l1,3.8c0,0,9-0.3,11.5-2c0,0,1.8-1,1.8-1.4c-0.1-0.9-3.8-1.8-4.6-2s-7.2-0.7-8-0.3L76.9,153.5z"/>
		<path class="st15" d="M72.5,130.2c1.8,8.5,5.1,20.8,6,24.3c0.1,0.5,0.7,0.9,1.2,0.8l8.3-1.5l-1.1-0.7c-0.2-0.2-0.5-0.2-0.8-0.3
			c-1.2-0.1-4.5-0.6-4.6-1.3c-0.2-1.2-1.4-12.1-2.5-22.8L72.5,130.2z"/>
		<path class="st12" d="M43.3,136.5c1.5-4.3,7.4-21.4,7.4-21.4l11.7-41.9l8.2,39.6c0,0-0.9,2.1-0.2,8.2c0.1,1,3.8,16.6,4.2,18.5
			l5.6-0.1c-0.5-5.1-2.5-25-2.6-25.5c-0.3-1.5,0.6-3.6,0.6-3.6s-3.7-37.2-4.6-42.1c-1-4.8-4.6-3.3-4.6-3.3l-19.6,1.7
			c0,0-5.3,43.5-5.3,44.5c0,0.6-3.3,5.4-4.5,23.2"/>
		<path class="st17" d="M66.7,27.9c-0.9-0.2-1.6-0.5-2.3-0.9c-1.8-1.2-2.8-3.9-2.5-6.3S56.1,18,56.1,18s2.5,6.4,0.7,8.5
			s-6.6,1.6-8.1,4.3c-1.5,2.7-4.2,22.2-5.1,25.8c-0.9,3.6-6.9,17-6.6,20.6c0.3,3.6,0.4,6.7,1.3,7c0.9,0.3,0.8-6.4,0.8-6.4
			s0.6,2.1,1.5,1.5s-1-5.4-1-5.4s5.7-13.3,7.5-17.9s3.7-17.3,5.5-19.5c1.8-2.1,3.5,13.6,3.2,18.1s-2.5,6.8-2.5,6.8s3.2,0.9,9,0.6
			c5.7-0.4,6.4-1,6.4-1s0.2-1.9,0.4-7.4c0.3-5.5,0.4-17,0.4-17l-1.7-0.4L66.7,27.9z"/>
		<path class="st15" d="M66.7,27.9c-0.9-0.2-1.6-0.5-2.3-0.9c-1.8-1.2-2.8-3.9-2.5-6.3S56.1,18,56.1,18s2.5,6.4,0.7,8.5
			s-1.4,0-2.9,2.7s2.2,20.9,1.9,25.5c-0.3,4.5-2.5,6.8-2.5,6.8s3.2,0.9,9,0.6c5.7-0.4,6.4-1,6.4-1s0.2-1.9,0.4-7.4
			c0.3-5.5,0.4-17,0.4-17l-1.7-0.4L66.7,27.9z"/>
		<path class="st17" d="M70.4,30.4c0,0,10.2,5,12.2,6.5s20.6,2.6,23.7,2.9c3.1,0.3,6.8-1.3,6.8-1.3l4.5,3.7l-6.8,4.2l-2.7-3.9
			c0,0-23,0.9-27-0.6c-4-1.6-13.2-5.8-13.2-5.8L70.4,30.4z"/>
		<g class="st18">
			<g>
				<path class="st19" d="M81.9,41.1c0,0,1.7,0.2,2.7-0.1s2.2-1.2,2.2-1.2c0.9-0.6,2.9-0.9,2.9-0.9"/>
				<path class="st12" d="M83.3,41.3c0,0,0.2,0.6,0.7,0.8s1.6,0,1.6,0s-0.6-0.3-1.1-0.4C84.1,41.5,83.3,41.3,83.3,41.3z"/>
				<path class="st12" d="M83.3,41.3c0,0,0.8-0.5,1.3-1c0.4-0.5,0.7-1,0.7-1s-1,0.6-1.4,1.1C83.5,40.7,83.3,41.3,83.3,41.3z"/>
				<path class="st12" d="M85,40.9c0,0,0.1,0.3,0.5,0.4S85.9,40.9,85,40.9z"/>
				<path class="st12" d="M85,40.8c0,0-0.1-0.3,0.1-0.6C85.3,39.9,85.6,40.2,85,40.8z"/>
				<path class="st12" d="M85.5,40.6c0,0,0.2,0.3,0.6,0.3C86.5,41.1,86.5,40.6,85.5,40.6z"/>
				<path class="st12" d="M85.5,40.6c0,0-0.1-0.3,0-0.6C85.7,39.7,86.1,40,85.5,40.6z"/>
				<path class="st12" d="M86.1,40.4c0,0,0.2,0.2,0.6,0.2C87.1,40.6,87,40.1,86.1,40.4z"/>
				<path class="st12" d="M86.1,40.3c0,0-0.2-0.2-0.1-0.6C86.1,39.4,86.5,39.6,86.1,40.3z"/>
				<path class="st12" d="M86.6,40c0,0,0.2,0.2,0.6,0.2C87.6,40.3,87.5,39.8,86.6,40z"/>
				<path class="st12" d="M86.6,40c0,0-0.2-0.3-0.1-0.7C86.6,39,87.1,39.2,86.6,40z"/>
				<path class="st12" d="M87.1,39.7c0,0,0.2,0.2,0.6,0.3C88.1,40,88,39.5,87.1,39.7z"/>
				<path class="st12" d="M87,39.7c0,0-0.2-0.3,0-0.7C87.2,38.7,87.6,39,87,39.7z"/>
				<path class="st12" d="M87.7,39.4c0,0,0.2,0.2,0.6,0.3S88.6,39.4,87.7,39.4z"/>
				<path class="st12" d="M87.6,39.4c0,0-0.1-0.3,0.1-0.7C87.9,38.4,88.4,38.8,87.6,39.4z"/>
				<path class="st12" d="M88.4,39.3c0,0,0.2,0.3,0.6,0.4C89.3,39.7,89.3,39.2,88.4,39.3z"/>
				<path class="st12" d="M88.3,39.2c0,0-0.1-0.3,0.1-0.6C88.7,38.2,89.1,38.6,88.3,39.2z"/>
				<path class="st12" d="M89.1,39.1c0,0,0.1,0.3,0.5,0.4C90,39.7,90,39.2,89.1,39.1z"/>
				<path class="st12" d="M89,39.1c0,0-0.1-0.3,0.1-0.6C89.4,38.1,89.8,38.5,89,39.1z"/>
				<path class="st12" d="M89.7,39c0,0,0.1,0.3,0.5,0.4S90.6,39.1,89.7,39z"/>
				<path class="st12" d="M89.7,39c0,0-0.1-0.3,0.2-0.6S90.5,38.5,89.7,39z"/>
			</g>
			<g>
				<path class="st19" d="M98.9,41.2c0,0-1.6-0.7-2.6-0.6s-2.4,0.6-2.4,0.6c-1,0.4-3,0.1-3,0.1"/>
				<path class="st12" d="M97.7,40.7c0,0,0-0.6-0.5-1c-0.4-0.3-1.5-0.4-1.5-0.4s0.5,0.4,0.9,0.7C96.9,40.3,97.7,40.7,97.7,40.7z"/>
				<path class="st12" d="M97.7,40.7c0,0-0.9,0.3-1.5,0.6c-0.6,0.4-1,0.8-1,0.8s1.2-0.3,1.6-0.7C97.3,41.2,97.7,40.7,97.7,40.7z"/>
				<path class="st12" d="M95.9,40.6c0,0-0.1-0.3-0.4-0.5C95.2,39.9,95,40.4,95.9,40.6z"/>
				<path class="st12" d="M95.9,40.7c0,0,0,0.3-0.2,0.6C95.4,41.5,95.1,41.1,95.9,40.7z"/>
				<path class="st12" d="M95.3,40.7c0,0-0.1-0.3-0.5-0.5C94.5,40.1,94.4,40.5,95.3,40.7z"/>
				<path class="st12" d="M95.3,40.8c0,0,0.1,0.3-0.2,0.6C94.9,41.6,94.6,41.2,95.3,40.8z"/>
				<path class="st12" d="M94.7,40.9c0,0-0.1-0.3-0.5-0.4S93.8,40.9,94.7,40.9z"/>
				<path class="st12" d="M94.7,40.9c0,0,0.1,0.3-0.1,0.6C94.5,41.8,94.1,41.5,94.7,40.9z"/>
				<path class="st12" d="M94.2,41.1c0,0-0.1-0.3-0.5-0.4C93.2,40.6,93.2,41,94.2,41.1z"/>
				<path class="st12" d="M94.1,41.1c0,0,0.1,0.3-0.1,0.7C93.8,42.1,93.4,41.7,94.1,41.1z"/>
				<path class="st12" d="M93.6,41.3c0,0-0.1-0.3-0.5-0.4C92.7,40.7,92.6,41.2,93.6,41.3z"/>
				<path class="st12" d="M93.6,41.3c0,0,0.1,0.3-0.2,0.6C93.2,42.2,92.8,41.8,93.6,41.3z"/>
				<path class="st12" d="M92.9,41.3c0,0-0.1-0.3-0.5-0.5C92.1,40.7,92,41.2,92.9,41.3z"/>
				<path class="st12" d="M93,41.4c0,0,0,0.3-0.3,0.6C92.4,42.3,92.1,41.8,93,41.4z"/>
				<path class="st12" d="M92.2,41.3c0,0-0.1-0.3-0.4-0.5C91.4,40.6,91.3,41.1,92.2,41.3z"/>
				<path class="st12" d="M92.2,41.4c0,0,0,0.3-0.3,0.6C91.6,42.2,91.4,41.7,92.2,41.4z"/>
				<path class="st12" d="M91.5,41.3c0,0,0-0.3-0.4-0.5C90.8,40.5,90.6,41,91.5,41.3z"/>
				<path class="st12" d="M91.5,41.3c0,0,0,0.3-0.3,0.6C90.9,42.1,90.7,41.7,91.5,41.3z"/>
				<path class="st12" d="M90.9,41.3c0,0,0-0.3-0.4-0.5C90.2,40.5,90,40.9,90.9,41.3z"/>
				<path class="st12" d="M90.9,41.2c0,0,0,0.3-0.4,0.5C90.2,42,89.9,41.5,90.9,41.2z"/>
			</g>
			<path class="st12" d="M88.9,42.7c0,0,0.1-0.6-0.2-1c-0.3-0.5-0.8,0-0.4,0.5C88.6,42.6,88.9,42.7,88.9,42.7z"/>
			<path class="st12" d="M88.9,42.7c0,0,0.5-0.3,0.7-0.8c0.2-0.6-0.3-0.7-0.7-0.2C88.6,42.2,88.9,42.7,88.9,42.7z"/>
			<path class="st12" d="M88.8,42.7c0,0,1,0.1,1.5,0c0.1-0.3-0.4-0.5-0.8-0.5C88.9,42.2,88.8,42.7,88.8,42.7z"/>
			<path class="st12" d="M88.8,42.6c0,0-0.9,0-1.1,0c-0.3-0.2-0.4-0.5,0.1-0.6C88.2,42,88.8,42.6,88.8,42.6z"/>
		</g>
		<path class="st20" d="M55.5,27.4c0,0,0.6,8.5,1.5,9.7s7.3,0.2,8.8-0.4s0-9.3,0-9.3l1.7,0.6l1.3,7.6c0,0,3.6,1.6,3.4,4.9
			c-0.3,3.3-2.9,4-2.9,4S69,54.9,69.9,57s2.8,4.6,3.8,10.1c-3,0.2-22.1,0.5-25,0.5c0-4.8,2.6-8.2,3.7-11.6
			c1.1-7.3,2.1-10.7,1.5-13.2c-0.6-2.4-1.6-3.8-1.6-3.8s1.4-3.2,1.7-4.4S53.8,28,53.8,28L55.5,27.4z"/>
		<path class="st21" d="M51.3,43.9l0.8-6.2c0,0-0.6,4.4-1.7,11.9c-0.5,3.4-2.6,12.8-3,18.6c4.4,1.6,23.5,1.3,27.4-0.7
			c-0.8-9-4.3-10.5-4.4-19.8c4.6-1.7,3.2-5.6,2.7-7.4c0.1-0.1,0.9-0.7,1.9-0.2c2,0.9,3.6,3.3,6.8,3.2c5.4-0.1,17.8,1.2,22.4,0.5
			c1-0.1,2.4-4.6,1.5-4.8c-2-0.6-21.1-2.1-21.1-2.1s-7.9-6.7-10.1-8s-8-1.8-8-1.8s-0.3,8.3-3.2,8.5c-2.9,0.2-8.6-7.7-8.6-7.7
			s-7,1-8.6,3.9C44.5,34.8,44,51,44,51l-6.5,20.2l3.4,1.8l5.9-12.3"/>
	</g>
</g>
</svg>
